<svg width="18" height="18" viewBox="0 0 18 18" fill="none" xmlns="http://www.w3.org/2000/svg">
<path d="M13.9091 0H5.72727C4.93219 0.000958782 4.15464 0.214279 3.48972 0.613874C2.82479 1.01347 2.3013 1.58202 1.98327 2.25H0.818182C0.601187 2.25 0.393079 2.32902 0.23964 2.46967C0.086201 2.61032 0 2.80109 0 3C0 3.19891 0.086201 3.38968 0.23964 3.53033C0.393079 3.67098 0.601187 3.75 0.818182 3.75H1.63636V5.25H0.818182C0.601187 5.25 0.393079 5.32902 0.23964 5.46967C0.086201 5.61032 0 5.80109 0 6C0 6.19891 0.086201 6.38968 0.23964 6.53033C0.393079 6.67098 0.601187 6.75 0.818182 6.75H1.63636V8.25H0.818182C0.601187 8.25 0.393079 8.32902 0.23964 8.46967C0.086201 8.61032 0 8.80109 0 9C0 9.19891 0.086201 9.38968 0.23964 9.53033C0.393079 9.67098 0.601187 9.75 0.818182 9.75H1.63636V11.25H0.818182C0.601187 11.25 0.393079 11.329 0.23964 11.4697C0.086201 11.6103 0 11.8011 0 12C0 12.1989 0.086201 12.3897 0.23964 12.5303C0.393079 12.671 0.601187 12.75 0.818182 12.75H1.63636V14.25H0.818182C0.601187 14.25 0.393079 14.329 0.23964 14.4697C0.086201 14.6103 0 14.8011 0 15C0 15.1989 0.086201 15.3897 0.23964 15.5303C0.393079 15.671 0.601187 15.75 0.818182 15.75H1.98327C2.3013 16.418 2.82479 16.9865 3.48972 17.3861C4.15464 17.7857 4.93219 17.999 5.72727 18H13.9091C14.9937 17.9988 16.0335 17.6033 16.8004 16.9003C17.5673 16.1973 17.9987 15.2442 18 14.25V3.75C17.9987 2.7558 17.5673 1.80267 16.8004 1.09966C16.0335 0.396661 14.9937 0.00119089 13.9091 0V0ZM16.3636 14.25C16.3636 14.8467 16.105 15.419 15.6447 15.841C15.1844 16.2629 14.5601 16.5 13.9091 16.5H5.72727C5.07629 16.5 4.45196 16.2629 3.99165 15.841C3.53133 15.419 3.27273 14.8467 3.27273 14.25V3.75C3.27273 3.15326 3.53133 2.58097 3.99165 2.15901C4.45196 1.73705 5.07629 1.5 5.72727 1.5H13.9091C14.5601 1.5 15.1844 1.73705 15.6447 2.15901C16.105 2.58097 16.3636 3.15326 16.3636 3.75V14.25ZM9.81818 9C10.4692 9 11.0935 8.76295 11.5538 8.34099C12.0141 7.91903 12.2727 7.34674 12.2727 6.75C12.2727 6.15326 12.0141 5.58097 11.5538 5.15901C11.0935 4.73705 10.4692 4.5 9.81818 4.5C9.1672 4.5 8.54287 4.73705 8.08256 5.15901C7.62224 5.58097 7.36364 6.15326 7.36364 6.75C7.36364 7.34674 7.62224 7.91903 8.08256 8.34099C8.54287 8.76295 9.1672 9 9.81818 9ZM13.9091 13.5C13.9091 13.6989 13.8229 13.8897 13.6695 14.0303C13.516 14.171 13.3079 14.25 13.0909 14.25C12.8739 14.25 12.6658 14.171 12.5124 14.0303C12.3589 13.8897 12.2727 13.6989 12.2727 13.5C12.2727 12.9033 12.0141 12.331 11.5538 11.909C11.0935 11.4871 10.4692 11.25 9.81818 11.25C9.1672 11.25 8.54287 11.4871 8.08256 11.909C7.62224 12.331 7.36364 12.9033 7.36364 13.5C7.36364 13.6989 7.27744 13.8897 7.124 14.0303C6.97056 14.171 6.76245 14.25 6.54545 14.25C6.32846 14.25 6.12035 14.171 5.96691 14.0303C5.81347 13.8897 5.72727 13.6989 5.72727 13.5C5.89991 8.544 13.7381 8.5455 13.9091 13.5Z" fill="white"/>
</svg>
