<svg width="300" height="600" viewBox="0 0 300 600" fill="none" xmlns="http://www.w3.org/2000/svg">
<mask id="mask0_52_13520" style="mask-type:alpha" maskUnits="userSpaceOnUse" x="0" y="0" width="300" height="600">
<path d="M300 600H0V0H150C232.843 0 300 67.1573 300 150V600Z" fill="#DCE1E2"/>
</mask>
<g mask="url(#mask0_52_13520)">
<g opacity="0.5">
<path d="M-53.3655 -349.076C-10.3756 -327.384 22.9094 -286.73 35.3122 -240.163C47.6767 -193.785 39.0067 -145.753 32.2932 -99.14C24.8865 -47.3888 21.749 5.62469 34.4486 56.7752C40.9703 83.2012 51.583 108.84 66.7437 131.473C82.9364 155.708 104.778 174.985 125.735 194.951C145.427 213.717 163.336 233.985 178.021 256.99C192.031 278.991 203.23 302.858 211.049 327.723C212.907 333.604 214.508 339.577 216.041 345.603C216.262 346.307 215.074 346.468 214.921 345.712C202.022 293.185 174.373 245.174 136.32 206.822C116.414 186.8 94.4237 168.734 76.6164 146.636C60.4019 126.576 48.2511 103.453 39.8875 79.0124C23.3813 30.8351 22.2175 -20.6794 27.5849 -70.8378C32.663 -118.144 44.5041 -165.479 39.2021 -213.323C33.5925 -263.664 5.72034 -309.859 -36.4659 -338.088C-41.9731 -341.776 -47.767 -345.131 -53.6736 -348.069C-54.3703 -348.4 -53.9411 -349.392 -53.3655 -349.076Z" fill="white"/>
<path d="M-46.6371 -350.829C-4.45843 -330.036 28.3933 -290.357 40.5668 -244.924C53.182 -198.086 43.537 -149.621 36.1735 -102.719C28.0553 -51.1777 24.2445 1.81442 37.3221 52.8885C43.8419 78.3311 54.3315 102.971 69.4902 124.621C85.5365 147.548 106.838 165.713 127.475 184.289C148.165 202.932 167.262 223.038 182.372 246.587C196.131 268.127 206.24 291.86 212.864 316.455C214.556 322.685 215.991 329.006 217.305 335.313C217.458 336.069 216.339 336.177 216.186 335.421C210.966 309.401 202.344 284.068 189.534 260.802C175.723 235.692 157.363 213.587 136.535 194.067C117.253 175.965 96.3103 159.38 79.2632 139.096C62.9593 119.763 50.7341 97.2444 42.3493 73.4775C25.8832 26.4726 25.1377 -23.9458 30.8554 -72.9551C36.5666 -121.412 49.9181 -170.036 44.2276 -219.219C37.8434 -274.755 3.16198 -325.044 -47.1873 -349.852C-47.7098 -350.101 -47.3337 -351.161 -46.6371 -350.829Z" fill="white"/>
<path d="M-40.0283 -352.598C1.61941 -332.484 34.0762 -293.591 45.9758 -248.93C58.5463 -201.728 47.8881 -153.019 39.8364 -106.017C30.9089 -54.391 26.4333 -0.989011 40.3584 50.1893C47.2329 75.2453 58.2281 99.2717 73.8691 119.998C90.7842 142.356 113.067 159.535 134.112 177.792C154.437 195.407 173.192 214.796 187.461 237.688C200.712 258.858 209.437 282.359 214.865 306.685C216.262 312.817 217.348 318.972 218.367 325.181C218.467 325.869 217.401 326.045 217.248 325.289C213.126 299.834 206.13 274.763 194.207 251.79C181.349 226.921 162.983 205.368 142.308 186.604C122.966 168.986 101.783 153.355 84.0648 134.033C67.2108 115.677 54.5032 94.0822 45.7487 70.8229C28.072 23.6692 27.643 -27.3248 34.1318 -76.608C40.4186 -124.749 54.5729 -172.905 49.647 -221.81C44.0805 -276.999 9.7623 -327.243 -40.4872 -351.364C-41.1011 -351.869 -40.6719 -352.861 -40.0283 -352.598Z" fill="white"/>
<path d="M-33.367 -354.299C8.18098 -334.873 40.3956 -296.01 51.7579 -251.476C63.9057 -203.834 51.954 -155.1 43.0929 -108.013C33.641 -57.6193 28.626 -5.32825 42.5109 44.6776C49.362 69.4235 60.6292 93.2375 76.7906 113.229C94.2794 134.92 117.151 151.312 138.512 168.993C161.329 187.836 182.229 209.27 196.405 235.408C209.739 259.906 216.263 287.316 219.632 314.89C219.732 315.578 218.598 315.808 218.513 314.998C215.519 289.866 209.802 264.891 198.605 242.008C186.223 216.766 167.358 195.275 146.26 176.95C126.602 159.909 105.102 144.853 86.8782 126.144C69.5334 108.281 56.4329 86.884 47.5574 63.6098C30.0186 17.3333 30.2649 -32.6559 37.429 -80.9344C44.4953 -128.918 59.5501 -176.902 55.0554 -225.815C50.0198 -280.325 16.0584 -329.972 -33.7431 -353.239C-34.4397 -353.57 -34.0636 -354.63 -33.367 -354.299Z" fill="white"/>
<path d="M-26.7594 -356.067C15.6659 -336.78 48.0567 -296.85 58.0743 -251.375C68.5038 -204.252 55.6495 -156.673 46.2342 -110.576C36.0028 -60.34 30.4206 -7.93427 45.4249 41.9634C52.8432 66.5946 65.0174 90.0286 82.3875 109.185C100.356 128.969 122.612 143.872 143.434 160.442C166.446 178.694 187.618 199.916 201.077 226.396C213.51 250.722 218.475 277.817 220.693 304.759C220.725 305.5 219.605 305.608 219.574 304.867C217.595 280.474 213.339 256.109 203.323 233.616C191.992 208.319 173.567 187.251 152.652 169.44C132.858 152.505 110.769 138.237 91.7148 120.287C73.8729 103.468 60.1924 83.2905 50.8643 60.6981C32.2762 15.4601 32.395 -33.9917 39.7799 -81.5671C47.3156 -129.37 63.4685 -176.789 60.3884 -225.712C56.9777 -280.944 23.4753 -331.825 -27.2714 -354.901C-27.8321 -355.339 -27.4029 -356.33 -26.7594 -356.067Z" fill="white"/>
<path d="M-20.098 -357.768C22.1595 -339.115 54.3762 -299.269 63.7502 -254.057C73.5297 -206.645 59.4648 -159.215 49.3082 -113.087C38.4397 -63.6659 32.2884 -12.129 47.8131 37.0338C55.3208 60.9387 67.6289 83.283 85.1329 101.35C104.047 120.942 127.293 135.291 148.75 151.694C171.435 169.107 192.492 189.762 205.133 215.895C216.999 240.336 220.723 267.524 221.905 294.4C221.937 295.141 220.818 295.249 220.786 294.508C219.723 270.166 216.639 245.761 207.19 223.154C196.548 197.757 178.025 176.984 156.929 159.643C136.727 143.026 114.254 129.387 94.694 112.05C76.8541 96.2153 62.8506 77.1651 53.3801 55.2311C34.0442 10.5772 34.5262 -38.83 42.7819 -85.9911C51.0524 -133.273 68.0464 -180.036 65.7989 -228.734C64.5704 -256.23 56.2029 -282.637 40.6259 -305.383C25.4206 -327.654 4.18677 -345.872 -20.5272 -356.776C-21.1707 -357.039 -20.7946 -358.099 -20.098 -357.768Z" fill="white"/>
<path d="M-13.4899 -359.536C28.2516 -341.685 60.0732 -302.624 69.1054 -258.131C78.7405 -211.044 63.9407 -164.134 52.89 -118.73C41.1273 -70.0334 33.7951 -18.8875 49.3115 29.8441C57.2373 54.845 70.7943 77.5272 90.038 95.4395C109.161 113.337 131.935 126.522 152.891 142.002C176.158 159.18 197.631 179.947 209.578 206.733C220.475 231.054 222.829 257.89 223.034 284.215C223.066 284.956 221.947 285.065 221.915 284.323C221.761 260.585 219.941 236.396 211.393 213.961C201.498 187.981 182.869 167.072 161.38 149.928C141.293 133.878 118.905 121.048 98.9684 104.772C80.0473 89.2339 65.0306 70.4279 54.9464 47.9883C35.2408 3.84197 36.5406 -45.2189 45.7053 -91.7766C54.8849 -138.455 72.7198 -184.562 70.8589 -232.905C69.8512 -259.698 61.9084 -285.561 46.8093 -307.696C31.7781 -329.883 10.7035 -347.898 -13.934 -358.423C-14.5627 -358.808 -14.1335 -359.8 -13.4899 -359.536Z" fill="white"/>
<path d="M-6.82899 -361.236C34.7979 -343.952 66.4454 -304.974 74.766 -260.691C83.5601 -214.261 68.1529 -168.409 56.3059 -124.024C43.2432 -74.7505 34.8085 -22.6341 52.2024 26.82C60.8611 51.3579 75.4591 72.5704 95.3358 89.3315C115.44 106.244 138.667 118.746 159.88 134.136C183.002 150.989 203.855 171.802 214.478 198.856C223.885 222.81 224.944 248.687 224.216 274.099C224.248 274.84 223.037 274.691 223.127 273.965C223.835 250.21 222.946 225.951 215.032 203.348C206.061 177.85 188.099 157.514 167.088 140.982C146.812 124.971 124.039 112.77 103.461 97.2128C84.3002 82.6288 68.3934 65.0653 57.9246 43.2544C36.9042 -0.193361 38.3399 -49.3604 48.3074 -95.4508C58.3047 -141.783 77.1017 -187.218 76.2475 -235.254C75.7241 -261.987 68.2125 -287.859 53.2494 -310.099C38.3775 -332.083 17.4091 -349.961 -7.15199 -360.109C-7.90171 -360.508 -7.52562 -361.568 -6.82899 -361.236Z" fill="white"/>
<path d="M-0.22077 -363.005C41.3064 -346.409 72.7117 -307.461 80.2678 -263.456C88.3439 -216.684 71.537 -170.943 58.7893 -126.73C44.96 -78.7182 36.0772 -27.4557 54.1043 20.8472C63.2091 45.2557 78.6674 65.4678 99.1326 81.441C119.651 97.4822 143.035 109.206 164.24 124.164C187.421 140.532 208.222 161.278 218.157 188.431C226.928 212.553 226.921 238.606 225.292 263.846C225.203 264.572 224.114 264.438 224.203 263.712C225.705 239.993 225.921 215.747 218.521 192.962C210.239 167.364 192.518 147.058 171.463 130.889C151.142 115.241 128.174 103.63 107.25 88.8911C87.7422 75.1249 71.043 58.5085 60.0304 37.1223C38.3472 -4.93211 39.7615 -53.4258 50.2004 -98.3522C61.0516 -145.133 81.7094 -190.708 81.2015 -239.561C80.9584 -266.075 73.6061 -291.743 58.5452 -313.688C43.9621 -335.022 23.3505 -352.303 -0.732775 -361.839C-1.29349 -362.277 -0.864315 -363.269 -0.22077 -363.005Z" fill="white"/>
<path d="M6.38725 -364.773C48.4051 -348.67 79.6149 -309.131 86.0898 -264.83C92.8872 -218.153 74.7699 -173.249 61.2194 -129.504C46.496 -82.2161 37.2798 -31.2404 56.7045 16.1897C66.6186 40.5133 83.6404 59.5044 104.951 74.5983C125.875 89.3375 149.16 100.373 170.152 115.059C193.242 131.17 213.49 151.91 222.306 179.171C230.109 203.174 228.92 228.836 226.542 253.676C226.453 254.403 225.364 254.269 225.453 253.542C227.758 230.291 228.912 206.406 222.55 183.687C215.371 158.102 198.218 137.681 177.443 121.731C138.749 92.0877 88.668 76.5907 63.2276 32.1081C39.9129 -8.67213 41.2062 -57.1807 52.176 -101.427C63.6112 -147.46 85.2777 -191.744 86.5264 -239.889C87.1754 -266.662 80.5177 -292.982 65.5694 -315.344C51.1372 -336.905 30.4194 -354.322 6.11733 -363.578C5.36758 -363.977 5.74367 -365.037 6.38725 -364.773Z" fill="white"/>
<path d="M13.1171 -366.527C54.9141 -351.127 85.8968 -311.739 91.5922 -267.594C97.6483 -220.886 78.2587 -176.63 63.6102 -133.45C47.9545 -87.0756 38.0798 -36.2423 58.7132 10.3532C69.3984 34.4029 87.6586 52.3172 109.452 66.4873C131.017 80.5065 154.739 90.981 175.906 105.75C198.837 121.658 218.397 142.497 226.161 169.813C232.98 193.818 230.868 218.998 227.687 243.371C227.598 244.097 226.508 243.963 226.598 243.237C229.54 220.801 231.574 197.762 226.513 175.448C220.567 149.339 204.146 128.455 183.197 112.422C144.237 82.4389 91.7772 68.8003 64.9986 24.7061C41.4989 -14.069 42.3714 -61.1546 53.4429 -103.73C65.611 -150.225 89.2677 -194.203 91.4531 -242.97C92.6247 -269.495 86.5044 -295.687 71.7833 -317.898C57.5783 -339.308 36.8987 -356.537 12.741 -365.467C11.9764 -365.745 12.4056 -366.737 13.1171 -366.527Z" fill="white"/>
<path d="M19.7251 -368.296C61.5434 -353.569 92.269 -314.089 97.0787 -270.238C102.228 -223.15 81.12 -179.412 65.5029 -136.351C48.9828 -90.9435 38.9042 -39.9509 61.4792 5.34707C85.7253 54.0458 140.303 67.4532 181.916 96.3496C204.218 111.873 222.824 132.472 229.732 159.253C235.902 183.546 232.791 208.849 228.816 233.186C228.727 233.912 227.584 233.71 227.727 233.052C231.298 211.001 234.217 188.255 230.057 166.113C225.2 140.138 209.657 119.116 189.017 103.06C150.421 73.1214 97.0498 61.3985 68.2934 19.3963C42.9817 -17.6352 43.1427 -64.9311 54.7303 -106.705C67.5717 -153.18 93.038 -196.382 96.4107 -245.31C98.2407 -271.693 92.6196 -297.947 78.0345 -320.264C64.1247 -341.576 43.4834 -358.615 19.3341 -367.115C18.6374 -367.446 19.0135 -368.506 19.7251 -368.296Z" fill="white"/>
<path d="M26.3862 -369.996C68.0516 -356.025 98.5351 -316.576 102.512 -272.95C106.807 -225.413 83.8603 -182.209 67.0325 -139.297C57.9111 -116.084 50.4633 -91.9903 49.4703 -66.9183C48.5265 -43.7451 52.8183 -20.1741 64.2601 0.220207C90.7876 47.3559 147.804 58.4208 189.168 87.8397C211.039 103.371 228.239 124.412 233.733 151.203C238.547 175.023 234.625 199.427 230.081 222.895C229.992 223.622 228.781 223.473 228.992 222.761C233.162 201.337 236.816 179.111 233.662 157.278C229.925 131.194 215.425 109.687 194.974 93.5923C156.384 63.1011 102.48 53.2176 71.4122 13.0206C44.0612 -22.4182 44.1076 -70.2813 56.173 -111.444C69.8321 -157.572 96.8892 -199.718 101.337 -248.392C103.689 -274.525 98.5522 -300.72 84.2475 -322.818C70.5119 -344.047 49.9618 -360.83 25.9421 -368.883C25.2454 -369.214 25.6747 -370.206 26.3862 -369.996Z" fill="white"/>
<path d="M32.9941 -371.764C74.6278 -358.535 104.748 -319.13 107.907 -275.85C111.34 -228.297 86.8024 -186.149 68.9445 -143.855C59.0967 -120.732 51.3388 -96.6142 50.5052 -71.3382C49.7057 -47.8401 54.8683 -23.8548 68.1092 -4.0996C97.2625 39.672 154.018 48.8613 194.685 77.9488C216.034 93.2318 232.387 114.168 237.077 140.492C241.363 164.615 236.564 189.158 231.278 212.658C231.136 213.316 229.978 213.235 230.189 212.524C234.964 191.174 239.397 169.105 236.932 147.172C234.142 121.881 221.027 100.605 201.492 84.5618C163.529 53.4717 110.467 45.228 76.6378 8.50128C46.0155 -24.8202 44.4264 -73.3759 57.0059 -114.721C71.1939 -161.153 100.666 -202.449 106.263 -251.473C109.244 -277.222 104.644 -303.289 90.5816 -325.357C77.0732 -346.436 56.6293 -363.083 32.7391 -370.69C31.9065 -370.915 32.2826 -371.975 32.9941 -371.764Z" fill="white"/>
<path d="M39.6558 -373.465C81.6741 -360.865 111.531 -320.816 113.314 -277.337C115.19 -229.115 88.1306 -187.952 69.2214 -145.603C59.0401 -122.767 51.3502 -98.7027 51.3258 -73.5116C51.1997 -49.9921 57.9045 -26.5547 72.7768 -8.07365C105.684 32.6568 162.615 39.4099 202.885 70.2305C223.327 85.8936 237.653 107.318 240.611 133.245C243.45 156.637 237.991 180.054 232.272 202.579C232.062 203.29 231.07 202.861 231.212 202.203C236.578 181.048 241.655 159.243 239.931 137.278C237.944 112.454 226.016 91.0171 207.086 75.0483C169.227 43.1108 115.972 36.441 80.1268 1.61712C47.9048 -29.6889 44.5633 -76.9852 57.3403 -117.937C71.7938 -164.029 102.903 -203.649 110.498 -251.936C114.607 -277.362 111.248 -303.522 97.9568 -325.865C84.8627 -347.814 63.8199 -365.087 39.2266 -372.474C38.5151 -372.684 38.9443 -373.676 39.6558 -373.465Z" fill="white"/>
<path d="M46.2633 -375.234C88.613 -363.329 118.206 -322.638 118.507 -279.095C118.945 -231.172 90.3692 -191.671 70.5277 -150.235C60.2829 -128.882 52.7184 -106.338 52.2375 -82.4321C51.7269 -58.2839 58.8032 -34.3707 74.984 -16.036C109.499 23.1101 166.299 28.4337 206.773 59.095C225.321 73.1733 239.067 92.3148 242.972 115.531C246.411 136.047 242.785 157.047 237.636 176.938C236.322 182.123 234.835 187.225 233.468 192.341C233.258 193.053 232.266 192.624 232.409 191.965C238.35 171.127 244.071 149.586 243.073 127.71C242.016 102.816 230.874 80.9841 211.974 64.7732C173.909 32.0115 119.87 26.7201 82.4616 -6.88262C66.2506 -21.4725 55.8176 -40.5753 52.3773 -62.0753C49.1662 -82.441 51.7559 -103.507 58.1538 -123.06C72.979 -168.676 105.968 -206.59 115.039 -254.388C119.747 -279.188 117.342 -305.108 104.709 -327.308C91.9694 -349.644 70.6462 -367.136 45.8872 -374.174C45.1757 -374.384 45.5518 -375.444 46.2633 -375.234Z" fill="white"/>
</g>
</g>
</svg>
