<svg width="1920" height="1000" viewBox="0 0 1920 1000" fill="none" xmlns="http://www.w3.org/2000/svg">
<mask id="mask0_17_1232" style="mask-type:alpha" maskUnits="userSpaceOnUse" x="0" y="0" width="1920" height="1000">
<rect width="1920" height="1000" fill="white"/>
</mask>
<g mask="url(#mask0_17_1232)">
<g opacity="0.15" filter="url(#filter0_f_17_1232)">
<circle cx="96" cy="161" r="258" fill="#FD6036"/>
</g>
<g opacity="0.18">
<path d="M629.45 1173.3C645.723 1080.01 620.688 979.763 561.802 905.509C503.168 831.538 417.222 788.803 335.812 744.648C245.482 695.552 158.176 638.24 92.4079 558.135C58.3839 516.812 30.4067 469.961 12.5107 419.466C-6.69958 365.461 -11.4541 308.371 -18.3351 251.864C-24.8096 198.763 -35.7455 146.71 -54.7866 96.5285C-73.0359 48.5923 -97.5302 2.89662 -127.568 -38.6403C-134.663 -48.4784 -142.205 -58.0184 -149.91 -67.5134C-150.76 -68.6875 -152.409 -67.004 -151.395 -65.8748C-83.6903 16.1615 -40.4316 116.16 -24.6281 221.227C-16.4253 276.14 -13.7552 332.043 0.188705 386.085C12.7866 435.22 34.9908 481.544 63.7194 523.44C120.327 606.057 200.217 668.394 285.639 718.836C366.222 766.384 454.793 803.298 524.034 867.851C596.851 935.822 636.983 1034.04 631.966 1133.74C631.315 1146.75 629.802 1159.83 627.5 1172.6C627.205 1174.09 629.273 1174.58 629.45 1173.3Z" fill="#D9D9D9"/>
<path d="M640.119 1164.74C656.857 1073.79 632.851 975.371 575.485 902.811C516.419 827.903 428.644 786.198 346.014 742.729C255.181 695.003 167.118 638.777 101.914 558.166C69.4392 518.001 42.8922 472.517 26.5451 423.179C9.2267 370.942 5.59108 316.007 0.528122 261.64C-4.57971 207.109 -13.8667 153.373 -33.2668 101.882C-51.0833 54.8828 -76.646 11.0631 -107.662 -28.2706C-115.502 -38.2564 -123.787 -47.944 -132.192 -57.4232C-133.205 -58.5523 -134.69 -56.9137 -133.677 -55.7846C-98.7641 -16.9921 -68.9324 26.3602 -47.2769 73.8898C-23.8902 125.166 -10.5847 180.087 -4.25511 235.865C1.6519 287.539 3.21609 340.052 15.1915 390.764C26.5386 439.187 47.7006 484.917 75.3422 526.056C130.148 607.233 208.8 667.622 292.821 716.162C375.963 764.063 468.341 800.109 539.237 866.847C619.339 942.141 657.932 1055.91 637.932 1164.46C637.71 1165.58 639.824 1166.23 640.119 1164.74Z" fill="#D9D9D9"/>
<path d="M650.669 1156.4C667.856 1067.08 644.626 970.207 588.154 898.984C528.462 823.72 439.113 783.326 355.518 740.826C263.6 694.276 174.109 638.619 109.737 556.548C78.2881 516.277 53.3031 470.716 38.9796 421.703C23.5794 368.764 22.6508 313.439 18.5693 258.802C14.6542 206.055 6.09813 153.701 -13.2542 104.308C-31.0838 58.5432 -57.9075 17.1801 -89.9021 -19.9504C-97.9345 -29.3558 -106.368 -38.2993 -114.965 -47.198C-115.933 -48.1636 -117.463 -46.6886 -116.45 -45.5594C-81.1388 -9.16265 -49.8088 31.3161 -27.5756 77.1043C-3.44765 126.594 8.97923 180.876 14.2955 235.526C19.3687 286.725 19.1466 338.496 28.8159 389.138C37.9758 437.281 57.1141 482.687 83.5208 523.812C137.139 607.074 217.071 667.64 302.43 715.285C385.748 761.907 478.332 796.137 549.687 861.343C630.203 934.94 669.152 1048.08 648.184 1155.67C648.26 1157.23 650.329 1157.72 650.669 1156.4Z" fill="#D9D9D9"/>
<path d="M661.175 1147.89C679.33 1059.54 655.862 963.079 598.96 892.854C538.079 817.741 447.17 779.357 362.491 738.034C271.901 693.758 183.529 640.256 120.959 559.626C89.9717 519.756 65.641 474.016 53.088 425.045C39.4132 371.984 40.4186 316.656 37.6168 262.196C34.6906 204.076 25.4269 145.936 0.847443 92.8768C-22.1354 43.073 -57.7083 0.592018 -97.2463 -37.1077C-98.2147 -38.0733 -99.9084 -36.5534 -98.7316 -35.4691C-62.6054 -1.2307 -29.9247 37.1187 -6.97922 81.6562C18.2938 130.832 30.0374 185.829 34.1637 240.629C37.9572 291.651 36.4555 343.246 44.5629 393.965C52.3693 442.303 70.7344 488.097 97.0225 529.431C149.419 611.445 228.56 669.766 313.126 715.165C397.112 760.373 490.482 792.981 562.357 857.516C642.424 929.477 680.851 1041.35 659.062 1147.23C658.766 1148.72 660.88 1149.37 661.175 1147.89Z" fill="#D9D9D9"/>
<path d="M671.725 1139.54C691.128 1049.97 666.185 951.981 606.22 882.772C544.139 810.978 453.993 775.375 370.224 736.089C278.966 693.228 189.748 640.485 128.663 558.216C98.5225 517.587 75.8565 470.862 66.0395 420.965C55.9373 369.387 58.5682 316.778 56.8853 264.474C55.1201 206.74 46.5107 148.42 20.5488 96.0916C-3.22018 47.9104 -40.1278 8.25799 -80.0192 -26.8824C-81.1512 -27.8032 -82.6365 -26.1645 -81.5045 -25.2438C-45.3521 6.52501 -11.9171 41.8534 11.7986 84.069C38.3933 131.651 49.9863 185.458 53.5163 239.367C56.9827 290.479 53.547 342.076 59.483 393.214C65.0572 441.109 80.8182 486.386 105.499 527.634C155.026 610.083 233.169 667.974 316.885 712.2C401.138 756.455 494.906 786.667 568.458 848.983C651.573 919.229 692.485 1031.83 669.284 1138.98C669.316 1140.38 671.385 1140.86 671.725 1139.54Z" fill="#D9D9D9"/>
<path d="M682.231 1131.03C702.438 1042.47 677.422 944.854 617.117 876.97C553.816 805.861 462.483 772.343 377.793 734.188C287.074 693.29 198.558 642.466 139.243 560.239C110.354 520.322 89.5636 474.666 81.6226 425.837C72.9319 372.992 77.5996 319.473 76.9272 266.364C76.1014 210.131 68.2519 152.658 41.8759 102.026C17.2601 54.6051 -21.2516 16.7997 -62.2561 -16.6283C-63.3881 -17.549 -64.8734 -15.9104 -63.7415 -14.9897C-26.5946 15.2752 8.28088 48.8013 32.8434 90.257C60.4037 136.871 71.4163 190.485 73.9938 244.128C76.4787 295.508 71.5997 346.974 75.9737 398.189C79.9991 444.926 93.6018 489.388 117.077 530.086C164.804 613.03 243.303 670.295 327.389 712.661C411.684 755.145 505.404 783.26 579.579 843.998C621.507 878.228 653.333 922.44 670.918 973.724C688.189 1023.86 691.988 1078.75 680.162 1130.54C679.822 1131.87 681.935 1132.52 682.231 1131.03Z" fill="#D9D9D9"/>
<path d="M692.781 1122.68C713.646 1035.88 689.405 939.808 629.831 873.306C566.874 802.807 475.499 771.059 390.901 735.166C300.275 696.529 210.988 648.027 152.343 566.32C122.216 524.455 102.36 476.432 96.7066 425.041C90.9342 373.858 96.8844 322.45 97.0775 271.214C97.3071 214.34 89.7688 156.078 61.5486 105.776C35.983 60.0226 -3.58115 24.7925 -44.8652 -6.44817C-45.9972 -7.36889 -47.4824 -5.73028 -46.3505 -4.80957C-9.08768 23.3128 26.93 54.5909 52.2787 94.4239C81.6383 140.544 92.7407 194.486 94.5451 248.516C96.2701 299.05 90.2142 349.432 92.4748 399.995C94.7616 448.088 106.789 493.861 130.341 536.122C176.833 619.052 255.746 674.621 339.948 714.844C424.359 755.186 518.031 781.203 592.101 840.915C633.179 873.971 664.647 916.874 681.828 966.687C699.172 1016.45 702.837 1070.85 690.504 1122.08C690.372 1123.52 692.441 1124.01 692.781 1122.68Z" fill="#D9D9D9"/>
<path d="M703.287 1114.17C724.911 1028.21 700.597 932.517 640.519 867.384C577.609 798.983 487.19 769.436 403.265 735.996C310.201 698.731 218.089 650.828 160.51 565.311C131.973 522.834 115.658 474.895 112.564 423.857C109.498 372.284 117.055 320.963 117.694 269.428C118.267 213.164 109.927 155.826 79.7305 107.297C52.9938 64.3268 13.4194 32.2654 -27.5188 3.5682C-28.6508 2.64748 -29.8379 4.73196 -28.5872 5.44423C9.71498 32.2262 46.9357 62.119 73.2948 101.147C102.979 145.243 113.96 197.46 115.36 250.018C116.803 300.805 109.304 351.055 109.675 401.784C110.176 449.137 119.198 494.855 141.307 536.983C185.153 621.167 264.393 676.646 348.801 715.054C433.625 753.7 527.369 777.411 602.134 835.172C643.688 867.395 675.675 909.628 693.183 959.35C710.393 1008.63 713.968 1062.7 701.128 1113.36C700.878 1115.01 702.991 1115.66 703.287 1114.17Z" fill="#D9D9D9"/>
<path d="M713.837 1105.83C736.43 1020.83 711.878 925.553 651.341 861.953C587.049 794.283 495.16 767.073 410.45 735.256C318.476 700.683 227.184 654.489 172.164 569.325C144.356 526.297 130.629 478.176 129.469 427.135C128.263 375.931 137.235 325.277 138.544 274.263C139.95 218.473 131.655 161.298 100.493 113.738C72.7458 71.5727 31.6412 40.9864 -10.0831 13.9119C-11.3338 13.1996 -12.4021 15.0756 -11.1514 15.7879C28.0266 41.2743 66.5242 69.4098 93.775 107.842C124.425 150.969 135.643 202.769 136.418 254.971C137.235 305.402 128.575 355.267 127.25 405.582C126.054 452.52 132.652 498.376 153.452 540.863C194.322 624.456 272.475 679.178 355.6 715.476C442.134 753.3 538.284 774.241 614.746 832.417C656.283 863.94 688.136 905.682 705.064 955.212C721.587 1003.27 724.64 1056.08 711.397 1105.27C711.428 1106.66 713.497 1107.15 713.837 1105.83Z" fill="#D9D9D9"/>
<path d="M724.388 1097.48C748.334 1012.29 722.622 916.626 660.346 854.383C594.703 788.842 502.595 764.683 417.679 734.681C325.797 702.368 234.566 657.038 182.565 570.694C155.841 526.489 145.877 477.336 147.096 425.994C148.421 375.679 158.361 325.991 159.85 275.63C161.554 220.286 152.62 163.99 119.973 118.069C91.2764 77.5711 49.4016 49.3067 7.42674 23.8839C6.17606 23.1716 5.10767 25.0476 6.35835 25.7599C45.742 49.431 84.7724 75.6615 113.137 112.381C145.063 153.751 157.128 204.791 157.887 256.293C159.202 352.143 124.83 449.339 165.117 541.71C202.06 626.379 280.095 681.31 362.771 715.971C448.812 751.997 544.109 769.829 621.518 824.403C664.512 854.823 698.209 896.236 715.925 946.077C732.985 994.164 736.127 1047.3 722.185 1096.5C721.934 1098.15 724.047 1098.81 724.388 1097.48Z" fill="#D9D9D9"/>
<path d="M735.057 1088.93C759.853 1004.91 734.111 909.781 671.168 848.952C604.605 784.543 512.025 763.151 426.711 735.545C335.175 705.776 243.395 661.651 194.13 574.381C168.744 529.282 161.932 479.44 165.175 428.422C168.389 377.941 179.727 328.221 181.29 277.488C183.129 222.635 173.23 167.307 139.261 122.979C109.406 84.0307 67.2065 57.79 25.0261 34.1825C23.7754 33.4702 22.7069 35.3463 23.9576 36.0585C62.8029 57.7667 101.532 81.6173 130.785 115.806C164.986 155.849 178.642 206.277 179.328 258.151C180.867 354.819 140.769 453.585 178.872 547.61C212.435 630.217 287.731 684.14 367.89 716.678C455.521 752.091 552.673 766.424 632.164 820.252C675.379 849.556 709.506 889.971 727.251 939.277C744.34 986.828 747.229 1039.68 732.943 1088.27C732.484 1089.81 734.553 1090.3 735.057 1088.93Z" fill="#D9D9D9"/>
<path d="M745.607 1080.58C771.49 997.321 745.303 902.49 681.782 843.402C613.554 779.978 519.774 761.905 433.51 735.967C342.483 708.696 250.213 664.706 205.274 575.897C156.934 480.459 199.884 378.624 203.176 279.048C204.883 225.638 194.242 172.097 160.113 129.748C129.039 91.4852 85.4732 66.6747 42.4169 44.3627C41.1662 43.6504 40.1427 45.69 41.3485 46.2387C80.3255 66.5037 119.633 88.6128 149.672 121.179C184.941 159.346 199.845 208.552 200.931 259.965C202.827 356.007 158.636 453.96 191.117 548.649C219.802 632.066 294.594 687.358 374.096 718.141C462.484 752.467 560.538 763.036 641.677 815.18C685.441 843.278 720.251 882.978 738.324 932.194C755.605 979.165 758.24 1031.74 743.285 1079.81C742.99 1081.3 745.103 1081.95 745.607 1080.58Z" fill="#D9D9D9"/>
<path d="M756.112 1072.07C783.009 989.94 756.584 895.526 692.441 838.016C622.503 775.412 527.404 760.868 439.953 737.014C392.626 724.14 345.874 707.59 305.16 679.711C267.499 653.984 235.359 619.532 216.628 577.532C173.432 480.331 222.941 377.4 225.117 277.603C226.304 224.863 213.316 173.021 177.508 132.891C145.59 97.3227 102.489 74.8472 60.1349 54.4532C58.8842 53.741 57.6971 55.8255 59.0665 56.3293C97.7585 74.9136 137.108 95.2523 167.843 125.869C204.597 162.397 221.493 210.529 222.862 261.688C225.636 358.369 177.918 455.004 204.837 551.217C228.614 635.981 304.166 692.12 383.264 721.431C472.067 754.06 570.323 760.879 652.323 811.029C696.309 838.011 731.594 876.877 749.65 925.394C767.005 971.992 769.342 1024.12 753.835 1071.46C753.54 1072.95 755.608 1073.44 756.112 1072.07Z" fill="#D9D9D9"/>
<path d="M766.663 1063.72C794.691 982.514 767.91 888.725 703.353 832.912C632.375 771.649 537.074 760.853 449.388 739.35C401.349 727.727 354.196 711.639 313.347 683.269C275.343 656.933 243.573 620.621 227.962 576.534C193.157 479.141 245.318 378.825 247.198 280.516C248.164 228.892 234.345 178.51 198.332 140.195C165.313 105.104 120.964 83.8503 77.6894 64.5883C76.4836 64.0397 75.2516 65.9606 76.621 66.4644C115.906 84.0064 155.923 102.931 187.624 132.579C224.241 166.683 242.398 212.358 244.761 262.013C249.216 358.408 199.901 451.788 218.102 548.282C234.698 635.719 309.422 695.251 389.412 723.966C479.315 756.117 579.067 758.129 662.969 806.877C707.086 832.416 742.801 870.285 761.095 918.385C778.479 964.448 780.727 1016.25 764.668 1062.86C764.045 1064.44 766.159 1065.09 766.663 1063.72Z" fill="#D9D9D9"/>
<path d="M777.168 1055.21C806.64 974.136 778.534 880.007 712.046 826.131C638.185 766.538 541.477 760.877 452.47 740.967C404.491 730.207 357.502 714.075 317.738 684.528C280.491 657.104 251.396 619.003 239.711 573.839C214.112 474.097 270.322 376.364 269.002 276.646C268.303 226.007 251.334 178.247 213.912 143.133C180.348 111.182 136.999 92.2919 94.7532 74.8583C93.3838 74.3545 92.8959 76.4231 94.1017 76.9718C133.772 93.3529 174.129 110.953 206.751 139.469C243.573 171.757 263.379 215.749 266.336 264.362C272.25 361.588 220.225 453.424 233.057 550.864C244.596 638.457 315.275 699.274 394.877 727.216C484.555 758.55 583.586 756.01 668.673 800.74C713.605 824.12 750.924 860.142 770.556 907.347C789.8 953.78 792.332 1007.26 775.1 1054.73C774.596 1056.09 776.664 1056.58 777.168 1055.21Z" fill="#D9D9D9"/>
<path d="M787.719 1046.87C818.679 966.085 789.249 871.615 720.918 820.003C645.841 763.03 549.973 761.712 461.312 744.346C415.597 735.427 371.154 720.883 332.881 693.565C294.191 666.01 264.781 626.763 254.864 579.708C233.652 479.29 291.964 383.443 291.134 283.591C290.71 237.801 276.662 193.637 244.628 160.211C216.304 130.692 178.921 111.749 141.498 96.5101C131.778 92.4926 121.983 88.8472 112.308 84.9933C110.938 84.4895 110.451 86.5581 111.656 87.1068C151.504 102.208 192.201 118.484 225.535 145.749C263.56 176.652 284.912 219.868 288.286 268.719C295.258 367.238 240.138 458.691 249.208 557.163C253.183 599.868 271.062 638.76 300.935 669.437C329.288 698.42 365.558 719.076 403.914 731.948C493.278 762.137 591.826 754.629 677.875 796.456C722.522 818.156 760.583 852.392 780.763 898.391C801.033 944.718 803.582 998.896 785.605 1046.22C785.101 1047.58 787.215 1048.24 787.719 1046.87Z" fill="#D9D9D9"/>
</g>
<g opacity="0.2" filter="url(#filter1_f_17_1232)">
<circle cx="1812" cy="842" r="258" fill="#FD6036"/>
</g>
<path d="M2057.14 904.629C2047.53 743.456 1918.18 402.841 1481.75 430.58C954.569 464.087 517.97 997.165 -267 264" stroke="#D6F27A" stroke-width="3"/>
</g>
<defs>
<filter id="filter0_f_17_1232" x="-512" y="-447" width="1216" height="1216" filterUnits="userSpaceOnUse" color-interpolation-filters="sRGB">
<feFlood flood-opacity="0" result="BackgroundImageFix"/>
<feBlend mode="normal" in="SourceGraphic" in2="BackgroundImageFix" result="shape"/>
<feGaussianBlur stdDeviation="175" result="effect1_foregroundBlur_17_1232"/>
</filter>
<filter id="filter1_f_17_1232" x="1204" y="234" width="1216" height="1216" filterUnits="userSpaceOnUse" color-interpolation-filters="sRGB">
<feFlood flood-opacity="0" result="BackgroundImageFix"/>
<feBlend mode="normal" in="SourceGraphic" in2="BackgroundImageFix" result="shape"/>
<feGaussianBlur stdDeviation="175" result="effect1_foregroundBlur_17_1232"/>
</filter>
</defs>
</svg>
