<svg width="35" height="35" viewBox="0 0 35 35" fill="none" xmlns="http://www.w3.org/2000/svg">
<rect width="35" height="35" rx="6" fill="white"/>
<path d="M13.546 15.1284H10.3025V25.5379H13.546V15.1284Z" fill="#FD6036"/>
<path d="M11.886 13.7716C12.9275 13.7716 13.7718 12.9273 13.7718 11.8858C13.7718 10.8443 12.9275 10 11.886 10C10.8445 10 10.0002 10.8443 10.0002 11.8858C10.0002 12.9273 10.8445 13.7716 11.886 13.7716Z" fill="#FD6036"/>
<path d="M18.6749 20.0297C18.6749 18.5965 19.3538 17.6913 20.6361 17.6913C21.843 17.6913 22.3711 18.5211 22.3711 20.0297C22.3711 21.5383 22.3711 25.4607 22.3711 25.4607H25.5392C25.5392 25.4607 25.5392 21.6892 25.5392 18.8982C25.5392 16.1073 23.9551 14.7495 21.7676 14.7495C19.5801 14.7495 18.5995 16.4844 18.5995 16.4844V15.0512H15.5068V25.4607H18.5995C18.6749 25.5361 18.6749 21.6892 18.6749 20.0297Z" fill="#FD6036"/>
</svg>
