<svg width="35" height="35" viewBox="0 0 35 35" fill="none" xmlns="http://www.w3.org/2000/svg">
<rect width="35" height="35" rx="6" fill="white"/>
<path d="M17.5227 10.5841C19.7857 10.5841 20.0874 10.584 20.9926 10.6595C21.8223 10.7349 22.2749 10.8103 22.5766 10.9612C22.9538 11.1121 23.2555 11.2629 23.5572 11.5647C23.8589 11.8664 24.0098 12.1681 24.1607 12.5453C24.3115 12.847 24.387 13.2996 24.4624 14.1293C24.5378 15.0345 24.5378 15.2608 24.5378 17.5991C24.5378 19.8621 24.5378 20.1638 24.4624 21.069C24.387 21.8987 24.3115 22.3513 24.1607 22.653C24.0098 23.0302 23.8589 23.3319 23.5572 23.6336C23.2555 23.9353 22.9538 24.0862 22.5766 24.2371C22.2749 24.3879 21.8223 24.4634 20.9926 24.5388C20.0874 24.6142 19.8611 24.6142 17.5227 24.6142C15.2598 24.6142 14.9581 24.6142 14.0529 24.5388C13.2232 24.4634 12.7706 24.3879 12.4689 24.2371C12.0917 24.0862 11.79 23.9353 11.4882 23.6336C11.1865 23.3319 11.0357 23.0302 10.8848 22.653C10.7339 22.3513 10.6585 21.8987 10.5831 21.069C10.5076 20.1638 10.5076 19.9375 10.5076 17.5991C10.5076 15.3362 10.5076 15.0345 10.5831 14.1293C10.6585 13.2996 10.7339 12.847 10.8848 12.5453C11.0357 12.1681 11.1865 11.8664 11.4882 11.5647C11.79 11.2629 12.0917 11.1121 12.4689 10.9612C12.7706 10.8103 13.2232 10.7349 14.0529 10.6595C15.0335 10.584 15.2598 10.5841 17.5227 10.5841ZM17.5227 9C15.1844 9 14.8826 9 13.9775 9.07543C13.0723 9.15086 12.4689 9.22629 11.9408 9.45259C11.4128 9.67888 10.8848 9.9806 10.4322 10.4332C9.97963 10.8858 9.6779 11.4138 9.45161 11.9418C9.22532 12.4698 9.07445 13.0733 9.07445 13.9784C8.99902 14.8836 8.99902 15.1853 8.99902 17.5237C8.99902 19.8621 8.99902 20.1638 9.07445 21.069C9.14989 21.9741 9.22532 22.5776 9.45161 23.1056C9.6779 23.6336 9.97963 24.1616 10.4322 24.6142C10.8848 25.0668 11.4128 25.3685 11.9408 25.5948C12.4689 25.8211 13.0723 25.972 13.9775 25.972C14.8826 26.0474 15.1844 26.0474 17.5227 26.0474C19.8611 26.0474 20.1628 26.0474 21.068 25.972C21.9732 25.8966 22.5766 25.8211 23.1046 25.5948C23.6326 25.3685 24.1607 25.0668 24.6132 24.6142C25.0658 24.1616 25.3676 23.6336 25.5938 23.1056C25.8201 22.5776 25.971 21.9741 25.971 21.069C26.0464 20.1638 26.0464 19.8621 26.0464 17.5237C26.0464 15.1853 26.0464 14.8836 25.971 13.9784C25.8956 13.0733 25.8201 12.4698 25.5938 11.9418C25.3676 11.4138 25.0658 10.8858 24.6132 10.4332C24.1607 9.9806 23.6326 9.67888 23.1046 9.45259C22.5766 9.22629 21.9732 9.07543 21.068 9.07543C20.1628 9 19.8611 9 17.5227 9Z" fill="#FD6036"/>
<path d="M17.5227 13.144C15.1089 13.144 13.1477 15.1053 13.1477 17.519C13.1477 19.9328 15.1089 21.894 17.5227 21.894C19.9365 21.894 21.8977 19.9328 21.8977 17.519C21.8977 15.1053 20.0119 13.144 17.5227 13.144ZM17.5227 20.3854C15.9387 20.3854 14.6563 19.1031 14.6563 17.519C14.6563 15.935 15.9387 14.6527 17.5227 14.6527C19.1068 14.6527 20.3891 15.935 20.3891 17.519C20.3891 19.1031 19.1068 20.3854 17.5227 20.3854Z" fill="#FD6036"/>
<path d="M23.1074 12.994C23.1074 13.522 22.6548 14.0501 22.0514 14.0501C21.5234 14.0501 20.9954 13.5975 20.9954 12.994C20.9954 12.466 21.4479 11.938 22.0514 11.938C22.6548 11.938 23.1074 12.3906 23.1074 12.994Z" fill="#FD6036"/>
</svg>
