<svg width="144" height="39" viewBox="0 0 144 39" fill="none" xmlns="http://www.w3.org/2000/svg">
<path d="M15.968 31.42C7.526 31.42 0.428 25.456 0.428 16.09C0.428 6.724 7.568 0.759999 16.01 0.759999C20.378 0.759999 25.334 2.356 28.4 7.69L23.066 11.344C21.512 9.034 19.118 7.774 16.178 7.774C11.726 7.774 8.03 10.882 8.03 16.09C8.03 21.382 11.81 24.406 16.262 24.406C19.286 24.406 21.512 23.146 23.066 20.794L28.4 24.49C25.334 29.824 20.336 31.42 15.968 31.42ZM39.7023 31.42C34.8303 31.42 29.3703 27.724 29.3703 20.08C29.3703 12.436 34.8303 8.74 39.7023 8.74C43.5243 8.74 45.5823 10.84 45.7503 11.218H45.8763V9.16H53.1423V31H45.8763V28.942H45.7503C45.5823 29.32 43.5243 31.42 39.7023 31.42ZM36.5103 20.08C36.5103 23.146 38.7363 24.994 41.2563 24.994C43.8603 24.994 46.0443 23.188 46.0443 20.08C46.0443 16.972 43.8603 15.166 41.2563 15.166C38.7363 15.166 36.5103 17.014 36.5103 20.08ZM64.1423 31.42C59.6483 31.42 56.2463 29.404 55.5743 25.12L61.2863 23.566C61.5803 24.322 62.0843 25.792 64.0163 25.792C65.0243 25.792 65.8643 25.33 65.8643 24.406C65.8643 23.944 65.6123 23.356 64.4783 23.02L61.2863 21.844C57.6743 20.584 56.1203 18.19 56.1203 15.376C56.1203 11.176 59.9423 8.74 64.3523 8.74C68.6363 8.74 71.7443 11.176 72.4583 14.83L66.7883 16.216C66.3263 14.536 65.2763 14.284 64.6463 14.284C63.5123 14.284 63.1343 15.04 63.1343 15.502C63.1343 16.006 63.4283 16.594 64.6883 16.93L67.6703 18.022C69.7703 18.694 73.0043 20.332 73.0043 24.406C73.0043 28.816 69.2243 31.42 64.1423 31.42ZM85.0363 31.252C80.6683 31.252 77.5183 29.152 77.5183 23.692V14.872H74.2003V9.16H77.5183V3.574H84.7843V9.16H89.4043V14.872H84.7843V22.6C84.7843 23.608 85.3723 24.868 87.4303 24.868C87.9343 24.868 88.7323 24.784 89.4883 24.532V30.034C88.6483 30.958 86.6743 31.252 85.0363 31.252ZM92.2718 31V9.16H99.5378V31H92.2718ZM92.2718 7.438V1.18H99.5378V7.438H92.2718ZM104.735 8.488C104.735 1.222 109.859 0.213998 113.009 0.213998C114.017 0.213998 115.865 0.171999 117.335 1.054V6.64C116.075 6.136 115.067 6.304 115.025 6.304C112.841 6.304 112.043 7.564 112.001 9.16H117.335V14.872H112.001V31H104.735V14.872H101.753V9.16H104.735V8.488ZM123.578 38.98L127.148 30.79L118.118 9.16H125.51L130.634 22.516L135.716 9.16H143.108L130.676 38.98H123.578Z" fill="black"/>
</svg>
