<svg width="18" height="18" viewBox="0 0 18 18" fill="none" xmlns="http://www.w3.org/2000/svg">
<path d="M16.8442 6.06972L11.6512 1.09051C10.9475 0.393827 9.99799 0.00211449 9.00793 8.53552e-06C8.01787 -0.00209742 7.06672 0.385572 6.36 1.07926L1.155 6.06972C0.790961 6.4205 0.501122 6.84091 0.302707 7.30597C0.104292 7.77104 0.00135017 8.27126 0 8.77692L0 14.2483C0.00119089 15.243 0.396661 16.1965 1.09966 16.8998C1.80267 17.6032 2.7558 17.9988 3.75 18H14.25C15.2442 17.9988 16.1973 17.6032 16.9003 16.8998C17.6033 16.1965 17.9988 15.243 18 14.2483V8.77692C17.9987 8.27119 17.8957 7.77089 17.6971 7.30581C17.4986 6.84072 17.2085 6.42035 16.8442 6.06972ZM7.40925 2.15148C7.83453 1.72979 8.40971 1.4942 9.00848 1.49645C9.60725 1.49871 10.1806 1.73861 10.6027 2.16349L15.663 7.01363L10.5907 12.0889C10.162 12.4978 9.59236 12.7259 9 12.7259C8.40764 12.7259 7.83801 12.4978 7.40925 12.0889L2.33625 7.01363L7.40925 2.15148ZM16.5 14.2483C16.5 14.8453 16.2629 15.4179 15.841 15.84C15.419 16.2622 14.8467 16.4993 14.25 16.4993H3.75C3.15326 16.4993 2.58097 16.2622 2.15901 15.84C1.73705 15.4179 1.5 14.8453 1.5 14.2483V8.77692C1.50076 8.63126 1.51557 8.48602 1.54425 8.34322L6.34875 13.1499C7.05429 13.8488 8.00708 14.2409 9 14.2409C9.99292 14.2409 10.9457 13.8488 11.6512 13.1499L16.4557 8.34322C16.4844 8.48602 16.4992 8.63126 16.5 8.77692V14.2483Z" fill="white"/>
</svg>
