<svg width="108" height="128" viewBox="0 0 108 128" fill="none" xmlns="http://www.w3.org/2000/svg">
<g filter="url(#filter0_d_17_902)">
<path d="M54 0C29.1399 0 9 20.1399 9 45C9 69.8601 29.1399 90 54 90C78.8601 90 99 69.8601 99 45C99 20.1399 78.7972 0 54 0ZM32.4755 50.9161C32.4755 52.9301 30.8392 54.5664 28.8252 54.5664C26.8112 54.5664 25.1748 52.9301 25.1748 50.9161V39.0839C25.1748 37.0699 26.8112 35.4336 28.8252 35.4336C30.8392 35.4336 32.4755 37.0699 32.4755 39.0839V50.9161ZM42.5455 61.8671C42.5455 63.8811 40.9091 65.5175 38.8951 65.5175C36.8811 65.5175 35.2448 63.8811 35.2448 61.8671V28.1329C35.2448 26.1189 36.8811 24.4825 38.8951 24.4825C40.9091 24.4825 42.5455 26.1189 42.5455 28.1329V61.8671ZM52.6154 47.7063C52.6154 49.7203 50.979 51.3566 48.965 51.3566C46.951 51.3566 45.3147 49.7203 45.3147 47.7063V42.1678C45.3147 40.1538 46.951 38.5175 48.965 38.5175C50.979 38.5175 52.6154 40.1538 52.6154 42.1678V47.7063ZM62.6853 68.6643C62.6853 70.6783 61.049 72.3147 59.035 72.3147C57.021 72.3147 55.3846 70.6783 55.3846 68.6643V21.3357C55.3846 19.3217 57.021 17.6853 59.035 17.6853C61.049 17.6853 62.6853 19.3217 62.6853 21.3357V68.6643ZM72.6923 54.8811C72.6923 56.8951 71.0559 58.5315 69.042 58.5315C67.028 58.5315 65.3916 56.8951 65.3916 54.8811V35.1189C65.3916 33.1049 67.028 31.4685 69.042 31.4685C71.0559 31.4685 72.6923 33.1049 72.6923 35.1189V54.8811ZM82.7622 47.8322C82.7622 49.8462 81.1259 51.4825 79.1119 51.4825C77.0979 51.4825 75.4615 49.8462 75.4615 47.8322V42.1049C75.4615 40.0909 77.0979 38.4545 79.1119 38.4545C81.1259 38.4545 82.7622 40.0909 82.7622 42.1049V47.8322ZM89.1818 48.5245C87.2308 48.5245 85.6573 46.951 85.6573 45C85.6573 27.5664 71.4336 13.3427 54 13.3427C36.5664 13.3427 22.3427 27.5664 22.3427 45C22.3427 46.951 20.7692 48.5245 18.8182 48.5245C16.8671 48.5245 15.2937 46.951 15.2937 45C15.2937 23.6014 32.6643 6.23077 54.0629 6.23077C75.4615 6.23077 92.8322 23.6014 92.8322 45C92.7692 46.951 91.1329 48.5245 89.1818 48.5245Z" fill="white"/>
<path d="M4 109.28V100.32H5.64319L9.39906 106.64H8.46009L12.1377 100.32H13.7809V109.28H11.903V103.28H12.216L9.32081 108.32H8.46009L5.4867 103.28H5.87793V109.28H4Z" fill="white"/>
<path d="M19.8059 109.44C18.554 109.44 17.615 109.12 16.9108 108.4C16.2065 107.68 15.8936 106.72 15.8936 105.36V100.32H17.8497V105.28C17.8497 106.16 18.0062 106.72 18.3975 107.12C18.7105 107.52 19.1799 107.68 19.8059 107.68C20.4319 107.68 20.9014 107.52 21.2144 107.12C21.5274 106.72 21.7621 106.16 21.7621 105.28V100.32H23.7965V105.36C23.7965 106.64 23.4835 107.68 22.7793 108.4C22.0751 109.04 21.0579 109.44 19.8059 109.44Z" fill="white"/>
<path d="M28.6481 109.44C27.9439 109.44 27.2396 109.36 26.6137 109.12C25.9877 108.88 25.4399 108.64 25.0487 108.4L25.7529 106.8C26.1442 107.04 26.5354 107.28 27.0831 107.44C27.6309 107.6 28.1003 107.68 28.6481 107.68C29.0393 107.68 29.3523 107.6 29.587 107.52C29.8218 107.44 29.9783 107.36 30.1348 107.2C30.2913 107.04 30.2913 106.88 30.2913 106.72C30.2913 106.48 30.213 106.32 29.9783 106.16C29.8218 106 29.587 105.92 29.2741 105.84C28.9611 105.76 28.6481 105.68 28.2568 105.6C27.8656 105.52 27.5526 105.44 27.1614 105.28C26.7701 105.2 26.4572 105.04 26.1442 104.8C25.8312 104.64 25.5964 104.4 25.4399 104.08C25.2834 103.76 25.127 103.36 25.127 102.88C25.127 102.4 25.2834 101.92 25.5182 101.44C25.7529 101.04 26.2224 100.72 26.7701 100.4C27.3179 100.16 28.0221 100 28.8046 100C29.3523 100 29.9 100.08 30.4478 100.16C30.9955 100.32 31.465 100.48 31.8562 100.72L31.2302 102.32C30.839 102.08 30.4478 101.92 29.9783 101.76C29.5088 101.6 29.1958 101.6 28.8046 101.6C28.4133 101.6 28.1003 101.68 27.8656 101.76C27.6309 101.84 27.4744 102 27.3179 102.16C27.2396 102.32 27.1614 102.48 27.1614 102.64C27.1614 102.88 27.2396 103.04 27.4744 103.2C27.6309 103.36 27.8656 103.44 28.1786 103.52C28.4916 103.6 28.8046 103.68 29.1958 103.76C29.587 103.84 29.9 103.92 30.2913 104.08C30.6825 104.16 30.9955 104.32 31.3085 104.56C31.6215 104.72 31.8562 104.96 32.0127 105.28C32.1692 105.6 32.3257 106 32.3257 106.48C32.3257 106.96 32.1692 107.44 31.9345 107.84C31.6215 108.24 31.2302 108.56 30.6825 108.88C30.213 109.28 29.5088 109.44 28.6481 109.44Z" fill="white"/>
<path d="M33.8123 109.28V100.32H35.8467V109.28H33.8123Z" fill="white"/>
<path d="M42.1063 109.44C41.4021 109.44 40.7761 109.36 40.2284 109.12C39.6807 108.88 39.1329 108.56 38.7417 108.16C38.3505 107.76 37.9592 107.28 37.7245 106.72C37.4897 106.16 37.3333 105.52 37.3333 104.88C37.3333 104.24 37.4897 103.6 37.7245 103.04C37.9592 102.48 38.2722 102 38.7417 101.6C39.1329 101.2 39.6807 100.88 40.2284 100.64C40.7761 100.4 41.4021 100.32 42.1063 100.32C42.8888 100.32 43.5148 100.48 44.1408 100.72C44.7667 100.96 45.2362 101.36 45.7057 101.92L44.3755 103.12C44.0625 102.8 43.7495 102.48 43.3583 102.32C42.9671 102.16 42.5758 102.08 42.1846 102.08C41.7933 102.08 41.4021 102.16 41.0891 102.32C40.7761 102.48 40.4631 102.64 40.2284 102.88C39.9937 103.12 39.7589 103.44 39.6807 103.76C39.5242 104.08 39.4459 104.48 39.4459 104.96C39.4459 105.36 39.5242 105.76 39.6807 106.16C39.8372 106.48 39.9937 106.8 40.2284 107.04C40.4631 107.28 40.7761 107.52 41.0891 107.6C41.4021 107.76 41.7933 107.84 42.1846 107.84C42.6541 107.84 43.0453 107.76 43.3583 107.6C43.7495 107.44 44.0625 107.12 44.3755 106.8L45.7057 108C45.3145 108.56 44.7667 108.88 44.1408 109.2C43.5148 109.28 42.8106 109.44 42.1063 109.44Z" fill="white"/>
<path d="M52.5916 107.6H57.3646V109.28H50.5571V100.32H57.2081V102H52.5916V107.6ZM52.4351 103.92H56.6604V105.52H52.4351V103.92Z" fill="white"/>
<path d="M59.0078 109.28V100.32H60.651L65.8153 106.8H65.0329V100.32H67.0673V109.28H65.4241L60.2598 102.8H61.0422V109.28H59.0078Z" fill="white"/>
<path d="M71.1362 107.6H75.9093V109.28H69.1018V100.32H75.7528V102H71.1362V107.6ZM70.9797 103.92H75.2051V105.52H70.9797V103.92Z" fill="white"/>
<path d="M77.5522 109.28V100.32H81.3081C82.0906 100.32 82.7948 100.48 83.3425 100.72C83.8903 100.96 84.3598 101.36 84.6727 101.84C84.9857 102.32 85.1422 102.88 85.1422 103.6C85.1422 104.24 84.9857 104.8 84.6727 105.36C84.3598 105.92 83.8903 106.24 83.3425 106.48C82.7948 106.72 82.0906 106.88 81.3081 106.88H78.6477L79.5867 106V109.44H77.5522V109.28ZM79.5867 106.08L78.6477 105.12H81.2299C81.8558 105.12 82.3253 104.96 82.6383 104.72C82.9513 104.48 83.1078 104.08 83.1078 103.6C83.1078 103.12 82.9513 102.72 82.6383 102.48C82.3253 102.24 81.8558 102.08 81.2299 102.08H78.6477L79.5867 101.12V106.08ZM83.1078 109.28L80.9169 106H83.1078L85.2987 109.28H83.1078Z" fill="white"/>
<path d="M90.9327 109.44C90.2285 109.44 89.6025 109.36 89.0548 109.12C88.5071 108.88 87.9594 108.56 87.5681 108.16C87.1769 107.76 86.7856 107.28 86.5509 106.72C86.3162 106.16 86.1597 105.52 86.1597 104.88C86.1597 104.24 86.3162 103.6 86.5509 103.04C86.7856 102.48 87.0986 102 87.5681 101.6C88.0376 101.2 88.5071 100.88 89.1331 100.64C89.6808 100.4 90.385 100.32 91.0892 100.32C91.8717 100.32 92.5759 100.48 93.2019 100.72C93.8279 100.96 94.3756 101.36 94.7669 101.84L93.4367 103.04C93.1237 102.72 92.8107 102.48 92.4194 102.24C92.0282 102.08 91.637 102 91.1675 102C90.7763 102 90.385 102.08 89.9938 102.24C89.6808 102.4 89.3678 102.56 89.0548 102.8C88.8201 103.04 88.5853 103.36 88.4288 103.68C88.2723 104 88.1941 104.4 88.1941 104.88C88.1941 105.28 88.2723 105.68 88.4288 106C88.5853 106.32 88.7418 106.64 89.0548 106.88C89.2896 107.12 89.6025 107.36 89.9938 107.44C90.3068 107.6 90.698 107.68 91.1675 107.68C91.5587 107.68 91.95 107.6 92.3412 107.52C92.7324 107.36 93.1237 107.2 93.4367 106.88L94.6104 108.4C94.1409 108.8 93.5932 109.04 92.9672 109.28C92.1847 109.28 91.5587 109.44 90.9327 109.44ZM92.6542 108V104.64H94.5321V108.24L92.6542 108Z" fill="white"/>
<path d="M98.5228 109.28V105.6L98.9923 106.88L95.1582 100.32H97.3491L100.323 105.36H99.0706L102.044 100.32H104L100.166 106.88L100.636 105.6V109.28H98.5228Z" fill="white"/>
<path d="M21.7622 119.92L19.5713 114.88H20.119L22.1534 119.6H21.8405L23.8749 114.88H24.4226L22.2317 119.92H21.7622Z" fill="white"/>
<path d="M27.083 119.44H30.0564V119.92H26.5353V114.88H29.8999V115.36H27.0048V119.44H27.083ZM27.0048 117.12H29.5869V117.6H27.0048V117.12Z" fill="white"/>
<path d="M34.8295 120C34.4382 120 34.1252 119.92 33.8123 119.84C33.4993 119.68 33.1863 119.52 33.0298 119.28C32.795 119.04 32.6386 118.8 32.4821 118.48C32.3256 118.16 32.3256 117.84 32.3256 117.44C32.3256 117.04 32.4038 116.72 32.4821 116.4C32.6386 116.08 32.795 115.84 33.0298 115.6C33.2645 115.36 33.4993 115.2 33.8123 115.04C34.1252 114.88 34.4382 114.88 34.8295 114.88C35.2207 114.88 35.5337 114.96 35.8467 115.04C36.1597 115.2 36.3944 115.36 36.6292 115.6L36.3162 115.92C36.0814 115.68 35.9249 115.52 35.6119 115.44C35.3772 115.36 35.1425 115.28 34.8295 115.28C34.5165 115.28 34.2817 115.36 33.9688 115.44C33.734 115.52 33.4993 115.68 33.3428 115.84C33.1863 116 33.0298 116.24 32.8733 116.48C32.795 116.72 32.7168 117.04 32.7168 117.28C32.7168 117.52 32.795 117.84 32.8733 118.08C32.9515 118.32 33.108 118.56 33.3428 118.72C33.4993 118.88 33.734 119.04 33.9688 119.12C34.2035 119.2 34.5165 119.28 34.8295 119.28C35.1425 119.28 35.3772 119.2 35.6119 119.12C35.8467 119.04 36.0814 118.88 36.3162 118.64L36.6292 118.96C36.3944 119.2 36.1597 119.36 35.8467 119.52C35.5337 119.92 35.2207 120 34.8295 120Z" fill="white"/>
<path d="M40.072 119.92V115.36H38.3506V114.88H42.3412V115.36H40.5415V119.92H40.072Z" fill="white"/>
<path d="M46.6448 120C46.2535 120 45.9406 119.92 45.6276 119.84C45.3146 119.68 45.0016 119.52 44.7668 119.28C44.5321 119.04 44.3756 118.8 44.2191 118.48C44.0626 118.16 44.0626 117.84 44.0626 117.44C44.0626 117.04 44.1409 116.72 44.2191 116.4C44.3756 116.08 44.5321 115.84 44.7668 115.6C45.0016 115.36 45.2363 115.2 45.5493 115.04C45.8623 114.88 46.1753 114.88 46.5665 114.88C46.9578 114.88 47.2708 114.96 47.5837 115.04C47.8967 115.2 48.2097 115.36 48.3662 115.6C48.601 115.84 48.7575 116.08 48.9139 116.4C49.0704 116.72 49.0704 117.04 49.0704 117.44C49.0704 117.84 48.9922 118.16 48.9139 118.48C48.7575 118.8 48.601 119.04 48.3662 119.28C48.1315 119.52 47.8967 119.68 47.5837 119.84C47.349 119.92 46.9578 120 46.6448 120ZM46.6448 119.52C46.9578 119.52 47.1925 119.44 47.4273 119.36C47.662 119.28 47.8967 119.12 48.0532 118.96C48.2097 118.8 48.3662 118.56 48.5227 118.32C48.6792 118.08 48.6792 117.76 48.6792 117.52C48.6792 117.28 48.601 116.96 48.5227 116.72C48.4445 116.48 48.288 116.24 48.0532 116.08C47.8967 115.92 47.662 115.76 47.4273 115.68C47.1925 115.6 46.8795 115.52 46.6448 115.52C46.41 115.52 46.0971 115.6 45.7841 115.68C45.5493 115.76 45.3146 115.92 45.1581 116.08C45.0016 116.24 44.8451 116.48 44.6886 116.72C44.6104 116.96 44.5321 117.28 44.5321 117.52C44.5321 117.84 44.6104 118.08 44.6886 118.32C44.7668 118.56 44.9233 118.8 45.1581 118.96C45.3146 119.12 45.5493 119.28 45.7841 119.36C46.0188 119.44 46.3318 119.52 46.6448 119.52Z" fill="white"/>
<path d="M51.8091 119.92V114.88H53.687C54.0783 114.88 54.4695 114.96 54.7825 115.12C55.0955 115.28 55.3302 115.44 55.4867 115.68C55.6432 115.92 55.7214 116.24 55.7214 116.64C55.7214 116.96 55.6432 117.28 55.4867 117.52C55.3302 117.76 55.0955 118 54.7825 118.08C54.4695 118.24 54.1565 118.32 53.687 118.32H52.1221L52.3568 118.08V119.92H51.8091ZM52.2786 118.16L52.0438 117.92H53.6088C54.0782 117.92 54.4695 117.84 54.7042 117.6C54.939 117.36 55.0955 117.04 55.0955 116.64C55.0955 116.24 54.939 115.92 54.7042 115.68C54.4695 115.44 54.0782 115.36 53.6088 115.36H52.0438L52.2786 115.12V118.16ZM55.1737 119.92L53.9218 118.08H54.4695L55.7214 119.92H55.1737Z" fill="white"/>
<path d="M61.5117 119.92V114.88H62.0594V119.44H64.7981V119.92H61.5117Z" fill="white"/>
<path d="M69.1801 120C68.7888 120 68.4758 119.92 68.1628 119.84C67.8499 119.68 67.5369 119.52 67.3021 119.28C67.0674 119.04 66.9109 118.8 66.7544 118.48C66.5979 118.16 66.5979 117.84 66.5979 117.44C66.5979 117.04 66.6761 116.72 66.7544 116.4C66.9109 116.08 67.0674 115.84 67.3021 115.6C67.5369 115.36 67.7716 115.2 68.0846 115.04C68.3976 114.88 68.7106 114.88 69.1018 114.88C69.493 114.88 69.806 114.96 70.119 115.04C70.432 115.2 70.745 115.36 70.9015 115.6C71.1362 115.84 71.2927 116.08 71.4492 116.4C71.6057 116.72 71.6057 117.04 71.6057 117.44C71.6057 117.84 71.5275 118.16 71.4492 118.48C71.2927 118.8 71.1362 119.04 70.9015 119.28C70.6668 119.52 70.432 119.68 70.119 119.84C69.8843 119.92 69.493 120 69.1801 120ZM69.1801 119.52C69.493 119.52 69.7278 119.44 69.9625 119.36C70.1973 119.28 70.432 119.12 70.5885 118.96C70.745 118.8 70.9015 118.56 71.058 118.32C71.2145 118.08 71.2145 117.76 71.2145 117.52C71.2145 117.28 71.1362 116.96 71.058 116.72C70.9797 116.48 70.8233 116.24 70.5885 116.08C70.432 115.92 70.1973 115.76 69.9625 115.68C69.7278 115.6 69.4148 115.52 69.1801 115.52C68.9453 115.52 68.6323 115.6 68.3193 115.68C68.0846 115.76 67.8499 115.92 67.6934 116.08C67.5369 116.24 67.3804 116.48 67.2239 116.72C67.1456 116.96 67.0674 117.28 67.0674 117.52C67.0674 117.84 67.1456 118.08 67.2239 118.32C67.3021 118.56 67.4586 118.8 67.6934 118.96C67.8499 119.12 68.0846 119.28 68.3193 119.36C68.5541 119.44 68.8671 119.52 69.1801 119.52Z" fill="white"/>
<path d="M76.4569 120C76.0657 120 75.7527 119.92 75.4397 119.84C75.1267 119.68 74.8137 119.52 74.579 119.28C74.3442 119.04 74.1877 118.8 74.0313 118.48C73.8748 118.16 73.8748 117.84 73.8748 117.44C73.8748 117.04 73.953 116.72 74.0313 116.4C74.1877 116.08 74.3442 115.84 74.579 115.6C74.8137 115.36 75.1267 115.2 75.4397 115.04C75.7527 114.88 76.0657 114.88 76.4569 114.88C76.8482 114.88 77.1611 114.96 77.4741 115.04C77.7871 115.12 78.0219 115.36 78.2566 115.6L77.9436 115.92C77.7089 115.68 77.4741 115.52 77.2394 115.44C77.0046 115.36 76.6917 115.28 76.4569 115.28C76.1439 115.28 75.9092 115.36 75.5962 115.44C75.3615 115.52 75.1267 115.68 74.892 115.84C74.7355 116 74.579 116.24 74.4225 116.48C74.3442 116.72 74.266 117.04 74.266 117.28C74.266 117.6 74.3442 117.84 74.4225 118.08C74.5007 118.32 74.6572 118.56 74.892 118.72C75.1267 118.88 75.2832 119.04 75.5962 119.12C75.8309 119.2 76.1439 119.28 76.4569 119.28C76.7699 119.28 77.0046 119.2 77.2394 119.12C77.4741 119.04 77.7089 118.88 77.9436 118.72L78.2566 119.12C78.0219 119.36 77.7089 119.52 77.3959 119.6C77.0829 119.68 76.8482 120 76.4569 120ZM77.7871 119.28V117.44H78.2566V119.36L77.7871 119.28Z" fill="white"/>
<path d="M83.3427 120C82.9514 120 82.6384 119.92 82.3254 119.84C82.0125 119.68 81.6995 119.52 81.4647 119.28C81.23 119.04 81.0735 118.8 80.917 118.48C80.7605 118.16 80.7605 117.84 80.7605 117.44C80.7605 117.04 80.8387 116.72 80.917 116.4C81.0735 116.08 81.23 115.84 81.4647 115.6C81.6995 115.36 81.9342 115.2 82.2472 115.04C82.5602 114.88 82.8732 114.88 83.2644 114.88C83.6556 114.88 83.9686 114.96 84.2816 115.04C84.5946 115.2 84.9076 115.36 85.0641 115.6C85.2988 115.84 85.4553 116.08 85.6118 116.4C85.7683 116.72 85.7683 117.04 85.7683 117.44C85.7683 117.84 85.6901 118.16 85.6118 118.48C85.4553 118.8 85.2988 119.04 85.0641 119.28C84.8294 119.52 84.5946 119.68 84.2816 119.84C84.0469 119.92 83.6556 120 83.3427 120ZM83.3427 119.52C83.6556 119.52 83.8904 119.44 84.1251 119.36C84.3599 119.28 84.5946 119.12 84.7511 118.96C84.9076 118.8 85.0641 118.56 85.2206 118.32C85.3771 118.08 85.3771 117.76 85.3771 117.52C85.3771 117.28 85.2988 116.96 85.2206 116.72C85.1423 116.48 84.9858 116.24 84.7511 116.08C84.5946 115.92 84.3599 115.76 84.1251 115.68C83.8904 115.6 83.5774 115.52 83.3427 115.52C83.1079 115.52 82.7949 115.6 82.4819 115.68C82.2472 115.76 82.0125 115.92 81.856 116.08C81.6995 116.24 81.543 116.48 81.3865 116.72C81.3082 116.96 81.23 117.28 81.23 117.52C81.23 117.84 81.3082 118.08 81.3865 118.32C81.4647 118.56 81.6212 118.8 81.856 118.96C82.0125 119.12 82.2472 119.28 82.4819 119.36C82.7167 119.44 83.0297 119.52 83.3427 119.52Z" fill="white"/>
</g>
<defs>
<filter id="filter0_d_17_902" x="0" y="0" width="108" height="128" filterUnits="userSpaceOnUse" color-interpolation-filters="sRGB">
<feFlood flood-opacity="0" result="BackgroundImageFix"/>
<feColorMatrix in="SourceAlpha" type="matrix" values="0 0 0 0 0 0 0 0 0 0 0 0 0 0 0 0 0 0 127 0" result="hardAlpha"/>
<feOffset dy="4"/>
<feGaussianBlur stdDeviation="2"/>
<feComposite in2="hardAlpha" operator="out"/>
<feColorMatrix type="matrix" values="0 0 0 0 0 0 0 0 0 0 0 0 0 0 0 0 0 0 0.25 0"/>
<feBlend mode="normal" in2="BackgroundImageFix" result="effect1_dropShadow_17_902"/>
<feBlend mode="normal" in="SourceGraphic" in2="effect1_dropShadow_17_902" result="shape"/>
</filter>
</defs>
</svg>
