<svg width="110" height="120" viewBox="0 0 110 120" fill="none" xmlns="http://www.w3.org/2000/svg">
<path d="M101.946 48.3009H96.7738C96.7738 24.5883 78.0476 5.32186 55 5.32186C31.9524 5.32186 13.2262 24.5883 13.2262 48.3009H8.05359C8.05359 21.6916 29.0714 0 55 0C80.9286 0 101.946 21.6916 101.946 48.3009Z" fill="white"/>
<path d="M20.887 63.1211C19.3156 63.1211 18.0715 61.8412 18.0715 60.2244V53.0163C18.0715 51.3996 19.3156 50.1196 20.887 50.1196C22.4584 50.1196 23.7025 51.3996 23.7025 53.0163V60.1571C23.7025 61.8412 22.4584 63.1211 20.887 63.1211Z" fill="white"/>
<path d="M29.399 74.2364C27.8275 74.2364 26.5835 72.9565 26.5835 71.3397V41.9011C26.5835 40.2843 27.8275 39.0044 29.399 39.0044C30.9704 39.0044 32.2144 40.2843 32.2144 41.9011V71.2724C32.2144 72.9565 30.9704 74.2364 29.399 74.2364Z" fill="white"/>
<path d="M37.9109 70.3969C36.3395 70.3969 35.0955 69.1169 35.0955 67.5002V45.7412C35.0955 44.1244 36.3395 42.8445 37.9109 42.8445C39.4824 42.8445 40.7264 44.1244 40.7264 45.7412V67.5002C40.7919 69.1169 39.4824 70.3969 37.9109 70.3969Z" fill="white"/>
<path d="M46.4885 79.7604C44.917 79.7604 43.673 78.4805 43.673 76.8637V36.3772C43.673 34.7604 44.917 33.4805 46.4885 33.4805C48.0599 33.4805 49.3039 34.7604 49.3039 36.3772V76.8637C49.3039 78.4805 48.0599 79.7604 46.4885 79.7604Z" fill="white"/>
<path d="M55.0002 89.9999C53.4287 89.9999 52.1847 88.72 52.1847 87.1032V26.1377C52.1847 24.5209 53.4287 23.241 55.0002 23.241C56.5716 23.241 57.8156 24.5209 57.8156 26.1377V87.1032C57.8156 88.72 56.5716 89.9999 55.0002 89.9999Z" fill="white"/>
<path d="M63.5121 79.7604C61.9407 79.7604 60.6967 78.4805 60.6967 76.8637V36.3772C60.6967 34.7604 61.9407 33.4805 63.5121 33.4805C65.0836 33.4805 66.3276 34.7604 66.3276 36.3772V76.8637C66.3931 78.4805 65.0836 79.7604 63.5121 79.7604Z" fill="white"/>
<path d="M72.0894 70.3969C70.518 70.3969 69.2739 69.1169 69.2739 67.5002V45.7412C69.2739 44.1244 70.518 42.8445 72.0894 42.8445C73.6608 42.8445 74.9049 44.1244 74.9049 45.7412V67.5002C74.9049 69.1169 73.6608 70.3969 72.0894 70.3969Z" fill="white"/>
<path d="M80.6014 74.2364C79.0299 74.2364 77.7859 72.9565 77.7859 71.3397V41.9011C77.7859 40.2843 79.0299 39.0044 80.6014 39.0044C82.1728 39.0044 83.4168 40.2843 83.4168 41.9011V71.2724C83.4168 72.9565 82.1728 74.2364 80.6014 74.2364Z" fill="white"/>
<path d="M89.1131 63.1211C87.5417 63.1211 86.2976 61.8412 86.2976 60.2244V53.0163C86.2976 51.3996 87.5417 50.1196 89.1131 50.1196C90.6845 50.1196 91.9286 51.3996 91.9286 53.0163V60.1571C91.994 61.8412 90.6845 63.1211 89.1131 63.1211Z" fill="white"/>
<path d="M97.9524 69.0494C96.1191 69.0494 94.6786 67.5674 94.6786 65.6812V47.4925C94.6786 45.6063 96.1191 44.1243 97.9524 44.1243C104.631 44.1243 110 49.6482 110 56.5195V56.6542C110 63.5255 104.631 69.0494 97.9524 69.0494Z" fill="white"/>
<path d="M12.0476 69.0494C13.881 69.0494 15.3214 67.5674 15.3214 65.6812V47.4925C15.3214 45.6063 13.881 44.1243 12.0476 44.1243C5.36905 44.1916 0 49.7156 0 56.5868V56.7216C0 63.5255 5.36905 69.0494 12.0476 69.0494Z" fill="white"/>
<path d="M5 109.28V100.32H6.64319L10.3991 106.64H9.46009L13.1377 100.32H14.7809V109.28H12.903V103.28H13.216L10.3208 108.32H9.46009L6.4867 103.28H6.87793V109.28H5Z" fill="white"/>
<path d="M20.8059 109.44C19.554 109.44 18.615 109.12 17.9108 108.4C17.2065 107.68 16.8936 106.72 16.8936 105.36V100.32H18.8497V105.28C18.8497 106.16 19.0062 106.72 19.3975 107.12C19.7105 107.52 20.1799 107.68 20.8059 107.68C21.4319 107.68 21.9014 107.52 22.2144 107.12C22.5274 106.72 22.7621 106.16 22.7621 105.28V100.32H24.7965V105.36C24.7965 106.64 24.4835 107.68 23.7793 108.4C23.0751 109.04 22.0579 109.44 20.8059 109.44Z" fill="white"/>
<path d="M29.6481 109.44C28.9439 109.44 28.2396 109.36 27.6137 109.12C26.9877 108.88 26.4399 108.64 26.0487 108.4L26.7529 106.8C27.1442 107.04 27.5354 107.28 28.0831 107.44C28.6309 107.6 29.1003 107.68 29.6481 107.68C30.0393 107.68 30.3523 107.6 30.587 107.52C30.8218 107.44 30.9783 107.36 31.1348 107.2C31.2913 107.04 31.2913 106.88 31.2913 106.72C31.2913 106.48 31.213 106.32 30.9783 106.16C30.8218 106 30.587 105.92 30.2741 105.84C29.9611 105.76 29.6481 105.68 29.2568 105.6C28.8656 105.52 28.5526 105.44 28.1614 105.28C27.7701 105.2 27.4572 105.04 27.1442 104.8C26.8312 104.64 26.5964 104.4 26.4399 104.08C26.2834 103.76 26.127 103.36 26.127 102.88C26.127 102.4 26.2834 101.92 26.5182 101.44C26.7529 101.04 27.2224 100.72 27.7701 100.4C28.3179 100.16 29.0221 100 29.8046 100C30.3523 100 30.9 100.08 31.4478 100.16C31.9955 100.32 32.465 100.48 32.8562 100.72L32.2302 102.32C31.839 102.08 31.4478 101.92 30.9783 101.76C30.5088 101.6 30.1958 101.6 29.8046 101.6C29.4133 101.6 29.1003 101.68 28.8656 101.76C28.6309 101.84 28.4744 102 28.3179 102.16C28.2396 102.32 28.1614 102.48 28.1614 102.64C28.1614 102.88 28.2396 103.04 28.4744 103.2C28.6309 103.36 28.8656 103.44 29.1786 103.52C29.4916 103.6 29.8046 103.68 30.1958 103.76C30.587 103.84 30.9 103.92 31.2913 104.08C31.6825 104.16 31.9955 104.32 32.3085 104.56C32.6215 104.72 32.8562 104.96 33.0127 105.28C33.1692 105.6 33.3257 106 33.3257 106.48C33.3257 106.96 33.1692 107.44 32.9345 107.84C32.6215 108.24 32.2302 108.56 31.6825 108.88C31.213 109.28 30.5088 109.44 29.6481 109.44Z" fill="white"/>
<path d="M34.8123 109.28V100.32H36.8467V109.28H34.8123Z" fill="white"/>
<path d="M43.1063 109.44C42.4021 109.44 41.7761 109.36 41.2284 109.12C40.6807 108.88 40.1329 108.56 39.7417 108.16C39.3505 107.76 38.9592 107.28 38.7245 106.72C38.4897 106.16 38.3333 105.52 38.3333 104.88C38.3333 104.24 38.4897 103.6 38.7245 103.04C38.9592 102.48 39.2722 102 39.7417 101.6C40.1329 101.2 40.6807 100.88 41.2284 100.64C41.7761 100.4 42.4021 100.32 43.1063 100.32C43.8888 100.32 44.5148 100.48 45.1408 100.72C45.7667 100.96 46.2362 101.36 46.7057 101.92L45.3755 103.12C45.0625 102.8 44.7495 102.48 44.3583 102.32C43.9671 102.16 43.5758 102.08 43.1846 102.08C42.7933 102.08 42.4021 102.16 42.0891 102.32C41.7761 102.48 41.4631 102.64 41.2284 102.88C40.9937 103.12 40.7589 103.44 40.6807 103.76C40.5242 104.08 40.4459 104.48 40.4459 104.96C40.4459 105.36 40.5242 105.76 40.6807 106.16C40.8372 106.48 40.9937 106.8 41.2284 107.04C41.4631 107.28 41.7761 107.52 42.0891 107.6C42.4021 107.76 42.7933 107.84 43.1846 107.84C43.6541 107.84 44.0453 107.76 44.3583 107.6C44.7495 107.44 45.0625 107.12 45.3755 106.8L46.7057 108C46.3145 108.56 45.7667 108.88 45.1408 109.2C44.5148 109.28 43.8106 109.44 43.1063 109.44Z" fill="white"/>
<path d="M53.5916 107.6H58.3646V109.28H51.5571V100.32H58.2081V102H53.5916V107.6ZM53.4351 103.92H57.6604V105.52H53.4351V103.92Z" fill="white"/>
<path d="M60.0078 109.28V100.32H61.651L66.8153 106.8H66.0329V100.32H68.0673V109.28H66.4241L61.2598 102.8H62.0422V109.28H60.0078Z" fill="white"/>
<path d="M72.1362 107.6H76.9093V109.28H70.1018V100.32H76.7528V102H72.1362V107.6ZM71.9797 103.92H76.2051V105.52H71.9797V103.92Z" fill="white"/>
<path d="M78.5522 109.28V100.32H82.3081C83.0906 100.32 83.7948 100.48 84.3425 100.72C84.8903 100.96 85.3598 101.36 85.6727 101.84C85.9857 102.32 86.1422 102.88 86.1422 103.6C86.1422 104.24 85.9857 104.8 85.6727 105.36C85.3598 105.92 84.8903 106.24 84.3425 106.48C83.7948 106.72 83.0906 106.88 82.3081 106.88H79.6477L80.5867 106V109.44H78.5522V109.28ZM80.5867 106.08L79.6477 105.12H82.2299C82.8558 105.12 83.3253 104.96 83.6383 104.72C83.9513 104.48 84.1078 104.08 84.1078 103.6C84.1078 103.12 83.9513 102.72 83.6383 102.48C83.3253 102.24 82.8558 102.08 82.2299 102.08H79.6477L80.5867 101.12V106.08ZM84.1078 109.28L81.9169 106H84.1078L86.2987 109.28H84.1078Z" fill="white"/>
<path d="M91.9327 109.44C91.2285 109.44 90.6025 109.36 90.0548 109.12C89.5071 108.88 88.9594 108.56 88.5681 108.16C88.1769 107.76 87.7856 107.28 87.5509 106.72C87.3162 106.16 87.1597 105.52 87.1597 104.88C87.1597 104.24 87.3162 103.6 87.5509 103.04C87.7856 102.48 88.0986 102 88.5681 101.6C89.0376 101.2 89.5071 100.88 90.1331 100.64C90.6808 100.4 91.385 100.32 92.0892 100.32C92.8717 100.32 93.5759 100.48 94.2019 100.72C94.8279 100.96 95.3756 101.36 95.7669 101.84L94.4367 103.04C94.1237 102.72 93.8107 102.48 93.4194 102.24C93.0282 102.08 92.637 102 92.1675 102C91.7763 102 91.385 102.08 90.9938 102.24C90.6808 102.4 90.3678 102.56 90.0548 102.8C89.8201 103.04 89.5853 103.36 89.4288 103.68C89.2723 104 89.1941 104.4 89.1941 104.88C89.1941 105.28 89.2723 105.68 89.4288 106C89.5853 106.32 89.7418 106.64 90.0548 106.88C90.2896 107.12 90.6025 107.36 90.9938 107.44C91.3068 107.6 91.698 107.68 92.1675 107.68C92.5587 107.68 92.95 107.6 93.3412 107.52C93.7324 107.36 94.1237 107.2 94.4367 106.88L95.6104 108.4C95.1409 108.8 94.5932 109.04 93.9672 109.28C93.1847 109.28 92.5587 109.44 91.9327 109.44ZM93.6542 108V104.64H95.5321V108.24L93.6542 108Z" fill="white"/>
<path d="M99.5228 109.28V105.6L99.9923 106.88L96.1582 100.32H98.3491L101.323 105.36H100.071L103.044 100.32H105L101.166 106.88L101.636 105.6V109.28H99.5228Z" fill="white"/>
<path d="M22.7622 119.92L20.5713 114.88H21.119L23.1534 119.6H22.8405L24.8749 114.88H25.4226L23.2317 119.92H22.7622Z" fill="white"/>
<path d="M28.083 119.44H31.0564V119.92H27.5353V114.88H30.8999V115.36H28.0048V119.44H28.083ZM28.0048 117.12H30.5869V117.6H28.0048V117.12Z" fill="white"/>
<path d="M35.8295 120C35.4382 120 35.1252 119.92 34.8123 119.84C34.4993 119.68 34.1863 119.52 34.0298 119.28C33.795 119.04 33.6386 118.8 33.4821 118.48C33.3256 118.16 33.3256 117.84 33.3256 117.44C33.3256 117.04 33.4038 116.72 33.4821 116.4C33.6386 116.08 33.795 115.84 34.0298 115.6C34.2645 115.36 34.4993 115.2 34.8123 115.04C35.1252 114.88 35.4382 114.88 35.8295 114.88C36.2207 114.88 36.5337 114.96 36.8467 115.04C37.1597 115.2 37.3944 115.36 37.6292 115.6L37.3162 115.92C37.0814 115.68 36.9249 115.52 36.6119 115.44C36.3772 115.36 36.1425 115.28 35.8295 115.28C35.5165 115.28 35.2817 115.36 34.9688 115.44C34.734 115.52 34.4993 115.68 34.3428 115.84C34.1863 116 34.0298 116.24 33.8733 116.48C33.795 116.72 33.7168 117.04 33.7168 117.28C33.7168 117.52 33.795 117.84 33.8733 118.08C33.9515 118.32 34.108 118.56 34.3428 118.72C34.4993 118.88 34.734 119.04 34.9688 119.12C35.2035 119.2 35.5165 119.28 35.8295 119.28C36.1425 119.28 36.3772 119.2 36.6119 119.12C36.8467 119.04 37.0814 118.88 37.3162 118.64L37.6292 118.96C37.3944 119.2 37.1597 119.36 36.8467 119.52C36.5337 119.92 36.2207 120 35.8295 120Z" fill="white"/>
<path d="M41.072 119.92V115.36H39.3506V114.88H43.3412V115.36H41.5415V119.92H41.072Z" fill="white"/>
<path d="M47.6448 120C47.2535 120 46.9406 119.92 46.6276 119.84C46.3146 119.68 46.0016 119.52 45.7668 119.28C45.5321 119.04 45.3756 118.8 45.2191 118.48C45.0626 118.16 45.0626 117.84 45.0626 117.44C45.0626 117.04 45.1409 116.72 45.2191 116.4C45.3756 116.08 45.5321 115.84 45.7668 115.6C46.0016 115.36 46.2363 115.2 46.5493 115.04C46.8623 114.88 47.1753 114.88 47.5665 114.88C47.9578 114.88 48.2708 114.96 48.5837 115.04C48.8967 115.2 49.2097 115.36 49.3662 115.6C49.601 115.84 49.7575 116.08 49.9139 116.4C50.0704 116.72 50.0704 117.04 50.0704 117.44C50.0704 117.84 49.9922 118.16 49.9139 118.48C49.7575 118.8 49.601 119.04 49.3662 119.28C49.1315 119.52 48.8967 119.68 48.5837 119.84C48.349 119.92 47.9578 120 47.6448 120ZM47.6448 119.52C47.9578 119.52 48.1925 119.44 48.4273 119.36C48.662 119.28 48.8967 119.12 49.0532 118.96C49.2097 118.8 49.3662 118.56 49.5227 118.32C49.6792 118.08 49.6792 117.76 49.6792 117.52C49.6792 117.28 49.601 116.96 49.5227 116.72C49.4445 116.48 49.288 116.24 49.0532 116.08C48.8967 115.92 48.662 115.76 48.4273 115.68C48.1925 115.6 47.8795 115.52 47.6448 115.52C47.41 115.52 47.0971 115.6 46.7841 115.68C46.5493 115.76 46.3146 115.92 46.1581 116.08C46.0016 116.24 45.8451 116.48 45.6886 116.72C45.6104 116.96 45.5321 117.28 45.5321 117.52C45.5321 117.84 45.6104 118.08 45.6886 118.32C45.7668 118.56 45.9233 118.8 46.1581 118.96C46.3146 119.12 46.5493 119.28 46.7841 119.36C47.0188 119.44 47.3318 119.52 47.6448 119.52Z" fill="white"/>
<path d="M52.8091 119.92V114.88H54.687C55.0783 114.88 55.4695 114.96 55.7825 115.12C56.0955 115.28 56.3302 115.44 56.4867 115.68C56.6432 115.92 56.7214 116.24 56.7214 116.64C56.7214 116.96 56.6432 117.28 56.4867 117.52C56.3302 117.76 56.0955 118 55.7825 118.08C55.4695 118.24 55.1565 118.32 54.687 118.32H53.1221L53.3568 118.08V119.92H52.8091ZM53.2786 118.16L53.0438 117.92H54.6088C55.0782 117.92 55.4695 117.84 55.7042 117.6C55.939 117.36 56.0955 117.04 56.0955 116.64C56.0955 116.24 55.939 115.92 55.7042 115.68C55.4695 115.44 55.0782 115.36 54.6088 115.36H53.0438L53.2786 115.12V118.16ZM56.1737 119.92L54.9218 118.08H55.4695L56.7214 119.92H56.1737Z" fill="white"/>
<path d="M62.5117 119.92V114.88H63.0594V119.44H65.7981V119.92H62.5117Z" fill="white"/>
<path d="M70.1801 120C69.7888 120 69.4758 119.92 69.1628 119.84C68.8499 119.68 68.5369 119.52 68.3021 119.28C68.0674 119.04 67.9109 118.8 67.7544 118.48C67.5979 118.16 67.5979 117.84 67.5979 117.44C67.5979 117.04 67.6761 116.72 67.7544 116.4C67.9109 116.08 68.0674 115.84 68.3021 115.6C68.5369 115.36 68.7716 115.2 69.0846 115.04C69.3976 114.88 69.7106 114.88 70.1018 114.88C70.493 114.88 70.806 114.96 71.119 115.04C71.432 115.2 71.745 115.36 71.9015 115.6C72.1362 115.84 72.2927 116.08 72.4492 116.4C72.6057 116.72 72.6057 117.04 72.6057 117.44C72.6057 117.84 72.5275 118.16 72.4492 118.48C72.2927 118.8 72.1362 119.04 71.9015 119.28C71.6668 119.52 71.432 119.68 71.119 119.84C70.8843 119.92 70.493 120 70.1801 120ZM70.1801 119.52C70.493 119.52 70.7278 119.44 70.9625 119.36C71.1973 119.28 71.432 119.12 71.5885 118.96C71.745 118.8 71.9015 118.56 72.058 118.32C72.2145 118.08 72.2145 117.76 72.2145 117.52C72.2145 117.28 72.1362 116.96 72.058 116.72C71.9797 116.48 71.8233 116.24 71.5885 116.08C71.432 115.92 71.1973 115.76 70.9625 115.68C70.7278 115.6 70.4148 115.52 70.1801 115.52C69.9453 115.52 69.6323 115.6 69.3193 115.68C69.0846 115.76 68.8499 115.92 68.6934 116.08C68.5369 116.24 68.3804 116.48 68.2239 116.72C68.1456 116.96 68.0674 117.28 68.0674 117.52C68.0674 117.84 68.1456 118.08 68.2239 118.32C68.3021 118.56 68.4586 118.8 68.6934 118.96C68.8499 119.12 69.0846 119.28 69.3193 119.36C69.5541 119.44 69.8671 119.52 70.1801 119.52Z" fill="white"/>
<path d="M77.4569 120C77.0657 120 76.7527 119.92 76.4397 119.84C76.1267 119.68 75.8137 119.52 75.579 119.28C75.3442 119.04 75.1877 118.8 75.0313 118.48C74.8748 118.16 74.8748 117.84 74.8748 117.44C74.8748 117.04 74.953 116.72 75.0313 116.4C75.1877 116.08 75.3442 115.84 75.579 115.6C75.8137 115.36 76.1267 115.2 76.4397 115.04C76.7527 114.88 77.0657 114.88 77.4569 114.88C77.8482 114.88 78.1611 114.96 78.4741 115.04C78.7871 115.12 79.0219 115.36 79.2566 115.6L78.9436 115.92C78.7089 115.68 78.4741 115.52 78.2394 115.44C78.0046 115.36 77.6917 115.28 77.4569 115.28C77.1439 115.28 76.9092 115.36 76.5962 115.44C76.3615 115.52 76.1267 115.68 75.892 115.84C75.7355 116 75.579 116.24 75.4225 116.48C75.3442 116.72 75.266 117.04 75.266 117.28C75.266 117.6 75.3442 117.84 75.4225 118.08C75.5007 118.32 75.6572 118.56 75.892 118.72C76.1267 118.88 76.2832 119.04 76.5962 119.12C76.8309 119.2 77.1439 119.28 77.4569 119.28C77.7699 119.28 78.0046 119.2 78.2394 119.12C78.4741 119.04 78.7089 118.88 78.9436 118.72L79.2566 119.12C79.0219 119.36 78.7089 119.52 78.3959 119.6C78.0829 119.68 77.8482 120 77.4569 120ZM78.7871 119.28V117.44H79.2566V119.36L78.7871 119.28Z" fill="white"/>
<path d="M84.3427 120C83.9514 120 83.6384 119.92 83.3254 119.84C83.0125 119.68 82.6995 119.52 82.4647 119.28C82.23 119.04 82.0735 118.8 81.917 118.48C81.7605 118.16 81.7605 117.84 81.7605 117.44C81.7605 117.04 81.8387 116.72 81.917 116.4C82.0735 116.08 82.23 115.84 82.4647 115.6C82.6995 115.36 82.9342 115.2 83.2472 115.04C83.5602 114.88 83.8732 114.88 84.2644 114.88C84.6556 114.88 84.9686 114.96 85.2816 115.04C85.5946 115.2 85.9076 115.36 86.0641 115.6C86.2988 115.84 86.4553 116.08 86.6118 116.4C86.7683 116.72 86.7683 117.04 86.7683 117.44C86.7683 117.84 86.6901 118.16 86.6118 118.48C86.4553 118.8 86.2988 119.04 86.0641 119.28C85.8294 119.52 85.5946 119.68 85.2816 119.84C85.0469 119.92 84.6556 120 84.3427 120ZM84.3427 119.52C84.6556 119.52 84.8904 119.44 85.1251 119.36C85.3599 119.28 85.5946 119.12 85.7511 118.96C85.9076 118.8 86.0641 118.56 86.2206 118.32C86.3771 118.08 86.3771 117.76 86.3771 117.52C86.3771 117.28 86.2988 116.96 86.2206 116.72C86.1423 116.48 85.9858 116.24 85.7511 116.08C85.5946 115.92 85.3599 115.76 85.1251 115.68C84.8904 115.6 84.5774 115.52 84.3427 115.52C84.1079 115.52 83.7949 115.6 83.4819 115.68C83.2472 115.76 83.0125 115.92 82.856 116.08C82.6995 116.24 82.543 116.48 82.3865 116.72C82.3082 116.96 82.23 117.28 82.23 117.52C82.23 117.84 82.3082 118.08 82.3865 118.32C82.4647 118.56 82.6212 118.8 82.856 118.96C83.0125 119.12 83.2472 119.28 83.4819 119.36C83.7167 119.44 84.0297 119.52 84.3427 119.52Z" fill="white"/>
</svg>
