<svg width="320" height="150" viewBox="0 0 320 150" fill="none" xmlns="http://www.w3.org/2000/svg">
<g filter="url(#filter0_d_52_13370)">
<rect x="25" y="25" width="270" height="100" rx="50" fill="#D6F27A"/>
</g>
<circle cx="75" cy="75" r="30" fill="black"/>
<path d="M76.1333 68.6156L72.893 65.9799C70.9327 64.3855 68 65.7804 68 68.3073V81.6927C68 84.2196 70.9327 85.6145 72.893 84.0201L76.1333 81.3844L81.1298 77.3294C82.6092 76.1288 82.6092 73.8712 81.1298 72.6706L76.1333 68.6156ZM76.1333 68.6156L72.893 65.9799C70.9327 64.3855 68 65.7804 68 68.3073V81.6927C68 84.2196 70.9327 85.6145 72.893 84.0201L76.1333 81.3844L81.1298 77.3294C82.6092 76.1288 82.6092 73.8712 81.1298 72.6706L76.1333 68.6156ZM76.1333 68.6156L72.893 65.9799C70.9327 64.3855 68 65.7804 68 68.3073V81.6927C68 84.2196 70.9327 85.6145 72.893 84.0201L76.1333 81.3844L81.1298 77.3294C82.6092 76.1288 82.6092 73.8712 81.1298 72.6706L76.1333 68.6156Z" fill="white"/>
<path d="M119.633 75V76.9531H121.211V75V73.0469H119.633V75Z" fill="black"/>
<path d="M121.999 75V79.7852H123.577V75V70.2148H121.999V75Z" fill="black"/>
<path d="M124.365 75V88.5742H125.844V75V61.4258H124.365V75Z" fill="black"/>
<path d="M115 75V75.6836H116.577V75V74.3164H115V75Z" fill="black"/>
<path d="M117.366 75V76.4648H118.845V75V73.4375H117.366V75Z" fill="black"/>
<path d="M126.633 75V96.3867H128.21V75V53.5156H126.633V75Z" fill="black"/>
<path d="M128.999 75V85.6445H130.576V75V64.2578H128.999V75Z" fill="black"/>
<path d="M131.365 75V77.5391H132.942V75V72.4609H131.365V75Z" fill="black"/>
<path d="M133.632 75V87.5977H135.21V75V62.4023H133.632V75Z" fill="black"/>
<path d="M135.998 75V95.0195H137.575V75V54.9805H135.998V75Z" fill="black"/>
<path d="M138.364 75V100H139.941V75V50H138.364V75Z" fill="black"/>
<path d="M140.632 75V82.9102H142.209V75V67.0898H140.632V75Z" fill="black"/>
<path d="M142.998 75V78.9063H144.575V75V70.9961H142.998V75Z" fill="black"/>
<path d="M145.364 75V75.9766H146.941V75V73.9258H145.364V75Z" fill="black"/>
<path d="M147.631 75V82.9102H149.208V75V67.0898H147.631V75Z" fill="black"/>
<path d="M149.997 75V88.0859H151.574V75V61.9141H149.997V75Z" fill="black"/>
<path d="M152.363 75V95.0195H153.94V75V54.9805H152.363V75Z" fill="black"/>
<path d="M154.729 64.2578V75V85.6445H156.208V75V64.2578H154.729Z" fill="black"/>
<path d="M157.391 75V79.7852H158.968V75V70.2148H157.391V75Z" fill="black"/>
<path d="M159.658 71.875V75V78.125H161.235V75V71.875H159.658Z" fill="black"/>
<path d="M162.418 75V76.9531H163.996V75V73.0469H162.418V75Z" fill="black"/>
<path d="M164.686 73.4375V75V76.4648H166.263V75V73.4375H164.686Z" fill="black"/>
<path d="M167.446 75V75.6836H168.925V75V74.3164H167.446V75Z" fill="black"/>
<path d="M172.671 75V76.9531H174.248V75V73.0469H172.671V75Z" fill="black"/>
<path d="M175.037 75V79.7852H176.516V75V70.2148H175.037V75Z" fill="black"/>
<path d="M177.304 75V88.5742H178.882V75V61.4258H177.304V75Z" fill="black"/>
<path d="M168.038 75V75.6836H169.516V75V74.3164H168.038V75Z" fill="black"/>
<path d="M170.305 75V76.4648H171.882V75V73.4375H170.305V75Z" fill="black"/>
<path d="M179.671 75V96.3867H181.248V75V53.5156H179.671V75Z" fill="black"/>
<path d="M182.036 75V85.6445H183.515V75V64.2578H182.036V75Z" fill="black"/>
<path d="M184.304 75V77.5391H185.881V75V72.4609H184.304V75Z" fill="black"/>
<path d="M186.67 75V87.5977H188.247V75V62.4023H186.67V75Z" fill="black"/>
<path d="M189.036 75V95.0195H190.613V75V54.9805H189.036V75Z" fill="black"/>
<path d="M191.303 75V100H192.88V75V50H191.303V75Z" fill="black"/>
<path d="M193.669 75V82.9102H195.247V75V67.0898H193.669V75Z" fill="black"/>
<path d="M196.035 75V78.9063H197.613V75V70.9961H196.035V75Z" fill="black"/>
<path d="M198.302 75V75.9766H199.88V75V73.9258H198.302V75Z" fill="black"/>
<path d="M200.668 75V82.9102H202.246V75V67.0898H200.668V75Z" fill="black"/>
<path d="M203.035 75V88.0859H204.612V75V61.9141H203.035V75Z" fill="black"/>
<path d="M205.302 75V95.0195H206.879V75V54.9805H205.302V75Z" fill="black"/>
<path d="M207.668 64.2578V75V85.6445H209.245V75V64.2578H207.668Z" fill="black"/>
<path d="M210.33 75V79.7852H211.907V75V70.2148H210.33V75Z" fill="black"/>
<path d="M212.696 71.875V75V78.125H214.273V75V71.875H212.696Z" fill="black"/>
<path d="M215.357 75V76.9531H216.935V75V73.0469H215.357V75Z" fill="black"/>
<path d="M217.724 73.4375V75V76.4648H219.301V75V73.4375H217.724Z" fill="black"/>
<path d="M220.385 75V75.6836H221.962V75V74.3164H220.385V75Z" fill="black"/>
<path d="M225.709 75V76.9531H227.187V75V73.0469H225.709V75Z" fill="black"/>
<path d="M227.976 75V79.7852H229.553V75V70.2148H227.976V75Z" fill="black"/>
<path d="M230.342 75V88.5742H231.919V75V61.4258H230.342V75Z" fill="black"/>
<path d="M220.977 75V75.6836H222.554V75V74.3164H220.977V75Z" fill="black"/>
<path d="M223.343 75V76.4648H224.92V75V73.4375H223.343V75Z" fill="black"/>
<path d="M232.708 75V96.3867H234.187V75V53.5156H232.708V75Z" fill="black"/>
<path d="M234.975 75V85.6445H236.553V75V64.2578H234.975V75Z" fill="black"/>
<path d="M237.341 75V77.5391H238.919V75V72.4609H237.341V75Z" fill="black"/>
<path d="M239.707 75V87.5977H241.186V75V62.4023H239.707V75Z" fill="black"/>
<path d="M241.975 75V95.0195H243.552V75V54.9805H241.975V75Z" fill="black"/>
<path d="M244.341 75V100H245.918V75V50H244.341V75Z" fill="black"/>
<path d="M246.707 75V82.9102H248.185V75V67.0898H246.707V75Z" fill="black"/>
<path d="M248.974 75V78.9063H250.551V75V70.9961H248.974V75Z" fill="black"/>
<path d="M251.34 75V75.9766H252.917V75V73.9258H251.34V75Z" fill="black"/>
<path d="M253.706 75V82.9102H255.283V75V67.0898H253.706V75Z" fill="black"/>
<path d="M255.974 75V88.0859H257.551V75V61.9141H255.974V75Z" fill="black"/>
<path d="M258.339 75V95.0195H259.917V75V54.9805H258.339V75Z" fill="black"/>
<path d="M260.705 64.2578V75V85.6445H262.283V75V64.2578H260.705Z" fill="black"/>
<path d="M263.367 75V79.7852H264.945V75V70.2148H263.367V75Z" fill="black"/>
<path d="M265.733 71.875V75V78.125H267.212V75V71.875H265.733Z" fill="black"/>
<path d="M268.395 75V76.9531H269.972V75V73.0469H268.395V75Z" fill="black"/>
<path d="M270.761 73.4375V75V76.4648H272.24V75V73.4375H270.761Z" fill="black"/>
<path d="M273.423 75V75.6836H275V75V74.3164H273.423V75Z" fill="black"/>
<defs>
<filter id="filter0_d_52_13370" x="0" y="0" width="320" height="150" filterUnits="userSpaceOnUse" color-interpolation-filters="sRGB">
<feFlood flood-opacity="0" result="BackgroundImageFix"/>
<feColorMatrix in="SourceAlpha" type="matrix" values="0 0 0 0 0 0 0 0 0 0 0 0 0 0 0 0 0 0 127 0" result="hardAlpha"/>
<feOffset/>
<feGaussianBlur stdDeviation="12.5"/>
<feComposite in2="hardAlpha" operator="out"/>
<feColorMatrix type="matrix" values="0 0 0 0 0 0 0 0 0 0 0 0 0 0 0 0 0 0 0.1 0"/>
<feBlend mode="normal" in2="BackgroundImageFix" result="effect1_dropShadow_52_13370"/>
<feBlend mode="normal" in="SourceGraphic" in2="effect1_dropShadow_52_13370" result="shape"/>
</filter>
</defs>
</svg>
