<svg width="117" height="120" viewBox="0 0 117 120" fill="none" xmlns="http://www.w3.org/2000/svg">
<path fill-rule="evenodd" clip-rule="evenodd" d="M74.8972 58.7322V53.5562H83.1486V58.7322" fill="white"/>
<path d="M83.1484 61.3733H74.8971V66.655H83.1484V61.3733Z" fill="white"/>
<path d="M83.1484 69.2957H74.8971V74.5773H83.1484V69.2957Z" fill="white"/>
<path d="M83.1484 77.1128H74.8971V82.3945H83.1484V77.1128Z" fill="white"/>
<path d="M72.7815 61.3735H64.5301V66.6552H72.7815V61.3735Z" fill="white"/>
<path d="M72.7813 69.2959H64.5299V74.5776H72.7813V69.2959Z" fill="white"/>
<path d="M72.7813 77.1128H64.5299V82.3945H72.7813V77.1128Z" fill="white"/>
<path d="M62.5199 37.8169H54.2686V43.0986H62.5199V37.8169Z" fill="white"/>
<path d="M62.5201 45.6335H54.2687V50.9152H62.5201V45.6335Z" fill="white"/>
<path d="M62.5201 53.5562H54.2687V58.8378H62.5201V53.5562Z" fill="white"/>
<path d="M62.5201 61.3735H54.2687V66.6552H62.5201V61.3735Z" fill="white"/>
<path d="M62.5201 69.2959H54.2687V74.5776H62.5201V69.2959Z" fill="white"/>
<path d="M62.5201 77.1128H54.2687V82.3945H62.5201V77.1128Z" fill="white"/>
<path d="M52.1528 69.2959H43.9015V74.5776H52.1528V69.2959Z" fill="white"/>
<path d="M52.153 77.1128H43.9016V82.3945H52.153V77.1128Z" fill="white"/>
<path d="M41.7857 53.5562H33.5344V58.8378H41.7857V53.5562Z" fill="white"/>
<path d="M41.7858 61.3733H33.5345V66.655H41.7858V61.3733Z" fill="white"/>
<path d="M41.7858 69.2957H33.5345V74.5773H41.7858V69.2957Z" fill="white"/>
<path d="M41.7858 77.1128H33.5345V82.3945H41.7858V77.1128Z" fill="white"/>
<path d="M107.902 50.8099V49.8592C107.902 48.3803 107.479 47.007 106.633 45.9507C105.575 34.1197 100.392 23.4507 92.3517 15.6338L93.6212 14.3662C84.5235 5.49296 72.0407 0 58.3942 0C44.642 0 32.2649 5.49296 23.1673 14.3662L24.4367 15.6338C16.3969 23.5563 11.1076 34.1197 10.1555 45.9507C9.30922 47.007 8.88608 48.3803 8.88608 49.8592V50.8099C2.64467 50.8099 0 57.8873 0 66.5493C0 75.2113 2.64467 82.2887 8.88608 82.2887V83.2394C8.88608 86.9366 11.9539 90 15.6564 90H16.8201C20.5226 90 23.5904 86.9366 23.5904 83.2394V49.8592C23.5904 46.162 20.5226 43.0986 16.8201 43.0986H15.6564C14.8101 43.0986 13.9638 43.3099 13.2233 43.5211C14.7043 33.3803 19.4647 24.4014 26.4467 17.5352L27.7161 18.8028C35.6501 10.9859 46.5461 6.23239 58.5 6.23239C70.4539 6.23239 81.3499 11.0915 89.2839 18.8028L90.5533 17.5352C97.5353 24.4014 102.296 33.3803 103.777 43.5211C103.036 43.2042 102.19 43.0986 101.344 43.0986H100.18C96.4774 43.0986 93.4096 46.162 93.4096 49.8592V83.2394C93.4096 86.9366 96.4774 90 100.18 90H101.344C105.046 90 108.114 86.9366 108.114 83.2394V82.2887C114.355 82.2887 117 75.2113 117 66.5493C116.683 57.8873 114.144 50.8099 107.902 50.8099Z" fill="white"/>
<path d="M8 109.28V100.32H9.64319L13.3991 106.64H12.4601L16.1377 100.32H17.7809V109.28H15.903V103.28H16.216L13.3208 108.32H12.4601L9.4867 103.28H9.87793V109.28H8Z" fill="white"/>
<path d="M23.8059 109.44C22.554 109.44 21.615 109.12 20.9108 108.4C20.2065 107.68 19.8936 106.72 19.8936 105.36V100.32H21.8497V105.28C21.8497 106.16 22.0062 106.72 22.3975 107.12C22.7105 107.52 23.1799 107.68 23.8059 107.68C24.4319 107.68 24.9014 107.52 25.2144 107.12C25.5274 106.72 25.7621 106.16 25.7621 105.28V100.32H27.7965V105.36C27.7965 106.64 27.4835 107.68 26.7793 108.4C26.0751 109.04 25.0579 109.44 23.8059 109.44Z" fill="white"/>
<path d="M32.6481 109.44C31.9439 109.44 31.2396 109.36 30.6137 109.12C29.9877 108.88 29.4399 108.64 29.0487 108.4L29.7529 106.8C30.1442 107.04 30.5354 107.28 31.0831 107.44C31.6309 107.6 32.1003 107.68 32.6481 107.68C33.0393 107.68 33.3523 107.6 33.587 107.52C33.8218 107.44 33.9783 107.36 34.1348 107.2C34.2913 107.04 34.2913 106.88 34.2913 106.72C34.2913 106.48 34.213 106.32 33.9783 106.16C33.8218 106 33.587 105.92 33.2741 105.84C32.9611 105.76 32.6481 105.68 32.2568 105.6C31.8656 105.52 31.5526 105.44 31.1614 105.28C30.7701 105.2 30.4572 105.04 30.1442 104.8C29.8312 104.64 29.5964 104.4 29.4399 104.08C29.2834 103.76 29.127 103.36 29.127 102.88C29.127 102.4 29.2834 101.92 29.5182 101.44C29.7529 101.04 30.2224 100.72 30.7701 100.4C31.3179 100.16 32.0221 100 32.8046 100C33.3523 100 33.9 100.08 34.4478 100.16C34.9955 100.32 35.465 100.48 35.8562 100.72L35.2302 102.32C34.839 102.08 34.4478 101.92 33.9783 101.76C33.5088 101.6 33.1958 101.6 32.8046 101.6C32.4133 101.6 32.1003 101.68 31.8656 101.76C31.6309 101.84 31.4744 102 31.3179 102.16C31.2396 102.32 31.1614 102.48 31.1614 102.64C31.1614 102.88 31.2396 103.04 31.4744 103.2C31.6309 103.36 31.8656 103.44 32.1786 103.52C32.4916 103.6 32.8046 103.68 33.1958 103.76C33.587 103.84 33.9 103.92 34.2913 104.08C34.6825 104.16 34.9955 104.32 35.3085 104.56C35.6215 104.72 35.8562 104.96 36.0127 105.28C36.1692 105.6 36.3257 106 36.3257 106.48C36.3257 106.96 36.1692 107.44 35.9345 107.84C35.6215 108.24 35.2302 108.56 34.6825 108.88C34.213 109.28 33.5088 109.44 32.6481 109.44Z" fill="white"/>
<path d="M37.8123 109.28V100.32H39.8467V109.28H37.8123Z" fill="white"/>
<path d="M46.1063 109.44C45.4021 109.44 44.7761 109.36 44.2284 109.12C43.6807 108.88 43.1329 108.56 42.7417 108.16C42.3505 107.76 41.9592 107.28 41.7245 106.72C41.4897 106.16 41.3333 105.52 41.3333 104.88C41.3333 104.24 41.4897 103.6 41.7245 103.04C41.9592 102.48 42.2722 102 42.7417 101.6C43.1329 101.2 43.6807 100.88 44.2284 100.64C44.7761 100.4 45.4021 100.32 46.1063 100.32C46.8888 100.32 47.5148 100.48 48.1408 100.72C48.7667 100.96 49.2362 101.36 49.7057 101.92L48.3755 103.12C48.0625 102.8 47.7495 102.48 47.3583 102.32C46.9671 102.16 46.5758 102.08 46.1846 102.08C45.7933 102.08 45.4021 102.16 45.0891 102.32C44.7761 102.48 44.4631 102.64 44.2284 102.88C43.9937 103.12 43.7589 103.44 43.6807 103.76C43.5242 104.08 43.4459 104.48 43.4459 104.96C43.4459 105.36 43.5242 105.76 43.6807 106.16C43.8372 106.48 43.9937 106.8 44.2284 107.04C44.4631 107.28 44.7761 107.52 45.0891 107.6C45.4021 107.76 45.7933 107.84 46.1846 107.84C46.6541 107.84 47.0453 107.76 47.3583 107.6C47.7495 107.44 48.0625 107.12 48.3755 106.8L49.7057 108C49.3145 108.56 48.7667 108.88 48.1408 109.2C47.5148 109.28 46.8106 109.44 46.1063 109.44Z" fill="white"/>
<path d="M56.5916 107.6H61.3646V109.28H54.5571V100.32H61.2081V102H56.5916V107.6ZM56.4351 103.92H60.6604V105.52H56.4351V103.92Z" fill="white"/>
<path d="M63.0078 109.28V100.32H64.651L69.8153 106.8H69.0329V100.32H71.0673V109.28H69.4241L64.2598 102.8H65.0422V109.28H63.0078Z" fill="white"/>
<path d="M75.1362 107.6H79.9093V109.28H73.1018V100.32H79.7528V102H75.1362V107.6ZM74.9797 103.92H79.2051V105.52H74.9797V103.92Z" fill="white"/>
<path d="M81.5522 109.28V100.32H85.3081C86.0906 100.32 86.7948 100.48 87.3425 100.72C87.8903 100.96 88.3598 101.36 88.6727 101.84C88.9857 102.32 89.1422 102.88 89.1422 103.6C89.1422 104.24 88.9857 104.8 88.6727 105.36C88.3598 105.92 87.8903 106.24 87.3425 106.48C86.7948 106.72 86.0906 106.88 85.3081 106.88H82.6477L83.5867 106V109.44H81.5522V109.28ZM83.5867 106.08L82.6477 105.12H85.2299C85.8558 105.12 86.3253 104.96 86.6383 104.72C86.9513 104.48 87.1078 104.08 87.1078 103.6C87.1078 103.12 86.9513 102.72 86.6383 102.48C86.3253 102.24 85.8558 102.08 85.2299 102.08H82.6477L83.5867 101.12V106.08ZM87.1078 109.28L84.9169 106H87.1078L89.2987 109.28H87.1078Z" fill="white"/>
<path d="M94.9327 109.44C94.2285 109.44 93.6025 109.36 93.0548 109.12C92.5071 108.88 91.9594 108.56 91.5681 108.16C91.1769 107.76 90.7856 107.28 90.5509 106.72C90.3162 106.16 90.1597 105.52 90.1597 104.88C90.1597 104.24 90.3162 103.6 90.5509 103.04C90.7856 102.48 91.0986 102 91.5681 101.6C92.0376 101.2 92.5071 100.88 93.1331 100.64C93.6808 100.4 94.385 100.32 95.0892 100.32C95.8717 100.32 96.5759 100.48 97.2019 100.72C97.8279 100.96 98.3756 101.36 98.7669 101.84L97.4367 103.04C97.1237 102.72 96.8107 102.48 96.4194 102.24C96.0282 102.08 95.637 102 95.1675 102C94.7763 102 94.385 102.08 93.9938 102.24C93.6808 102.4 93.3678 102.56 93.0548 102.8C92.8201 103.04 92.5853 103.36 92.4288 103.68C92.2723 104 92.1941 104.4 92.1941 104.88C92.1941 105.28 92.2723 105.68 92.4288 106C92.5853 106.32 92.7418 106.64 93.0548 106.88C93.2896 107.12 93.6025 107.36 93.9938 107.44C94.3068 107.6 94.698 107.68 95.1675 107.68C95.5587 107.68 95.95 107.6 96.3412 107.52C96.7324 107.36 97.1237 107.2 97.4367 106.88L98.6104 108.4C98.1409 108.8 97.5932 109.04 96.9672 109.28C96.1847 109.28 95.5587 109.44 94.9327 109.44ZM96.6542 108V104.64H98.5321V108.24L96.6542 108Z" fill="white"/>
<path d="M102.523 109.28V105.6L102.992 106.88L99.1582 100.32H101.349L104.323 105.36H103.071L106.044 100.32H108L104.166 106.88L104.636 105.6V109.28H102.523Z" fill="white"/>
<path d="M25.7622 119.92L23.5713 114.88H24.119L26.1534 119.6H25.8405L27.8749 114.88H28.4226L26.2317 119.92H25.7622Z" fill="white"/>
<path d="M31.083 119.44H34.0564V119.92H30.5353V114.88H33.8999V115.36H31.0048V119.44H31.083ZM31.0048 117.12H33.5869V117.6H31.0048V117.12Z" fill="white"/>
<path d="M38.8295 120C38.4382 120 38.1252 119.92 37.8123 119.84C37.4993 119.68 37.1863 119.52 37.0298 119.28C36.795 119.04 36.6386 118.8 36.4821 118.48C36.3256 118.16 36.3256 117.84 36.3256 117.44C36.3256 117.04 36.4038 116.72 36.4821 116.4C36.6386 116.08 36.795 115.84 37.0298 115.6C37.2645 115.36 37.4993 115.2 37.8123 115.04C38.1252 114.88 38.4382 114.88 38.8295 114.88C39.2207 114.88 39.5337 114.96 39.8467 115.04C40.1597 115.2 40.3944 115.36 40.6292 115.6L40.3162 115.92C40.0814 115.68 39.9249 115.52 39.6119 115.44C39.3772 115.36 39.1425 115.28 38.8295 115.28C38.5165 115.28 38.2817 115.36 37.9688 115.44C37.734 115.52 37.4993 115.68 37.3428 115.84C37.1863 116 37.0298 116.24 36.8733 116.48C36.795 116.72 36.7168 117.04 36.7168 117.28C36.7168 117.52 36.795 117.84 36.8733 118.08C36.9515 118.32 37.108 118.56 37.3428 118.72C37.4993 118.88 37.734 119.04 37.9688 119.12C38.2035 119.2 38.5165 119.28 38.8295 119.28C39.1425 119.28 39.3772 119.2 39.6119 119.12C39.8467 119.04 40.0814 118.88 40.3162 118.64L40.6292 118.96C40.3944 119.2 40.1597 119.36 39.8467 119.52C39.5337 119.92 39.2207 120 38.8295 120Z" fill="white"/>
<path d="M44.072 119.92V115.36H42.3505V114.88H46.3411V115.36H44.5414V119.92H44.072Z" fill="white"/>
<path d="M50.6448 120C50.2535 120 49.9406 119.92 49.6276 119.84C49.3146 119.68 49.0016 119.52 48.7668 119.28C48.5321 119.04 48.3756 118.8 48.2191 118.48C48.0626 118.16 48.0626 117.84 48.0626 117.44C48.0626 117.04 48.1409 116.72 48.2191 116.4C48.3756 116.08 48.5321 115.84 48.7668 115.6C49.0016 115.36 49.2363 115.2 49.5493 115.04C49.8623 114.88 50.1753 114.88 50.5665 114.88C50.9578 114.88 51.2708 114.96 51.5837 115.04C51.8967 115.2 52.2097 115.36 52.3662 115.6C52.601 115.84 52.7575 116.08 52.9139 116.4C53.0704 116.72 53.0704 117.04 53.0704 117.44C53.0704 117.84 52.9922 118.16 52.9139 118.48C52.7575 118.8 52.601 119.04 52.3662 119.28C52.1315 119.52 51.8967 119.68 51.5837 119.84C51.349 119.92 50.9578 120 50.6448 120ZM50.6448 119.52C50.9578 119.52 51.1925 119.44 51.4273 119.36C51.662 119.28 51.8967 119.12 52.0532 118.96C52.2097 118.8 52.3662 118.56 52.5227 118.32C52.6792 118.08 52.6792 117.76 52.6792 117.52C52.6792 117.28 52.601 116.96 52.5227 116.72C52.4445 116.48 52.288 116.24 52.0532 116.08C51.8967 115.92 51.662 115.76 51.4273 115.68C51.1925 115.6 50.8795 115.52 50.6448 115.52C50.41 115.52 50.0971 115.6 49.7841 115.68C49.5493 115.76 49.3146 115.92 49.1581 116.08C49.0016 116.24 48.8451 116.48 48.6886 116.72C48.6104 116.96 48.5321 117.28 48.5321 117.52C48.5321 117.84 48.6104 118.08 48.6886 118.32C48.7668 118.56 48.9233 118.8 49.1581 118.96C49.3146 119.12 49.5493 119.28 49.7841 119.36C50.0188 119.44 50.3318 119.52 50.6448 119.52Z" fill="white"/>
<path d="M55.8091 119.92V114.88H57.6871C58.0783 114.88 58.4695 114.96 58.7825 115.12C59.0955 115.28 59.3303 115.44 59.4868 115.68C59.6433 115.92 59.7215 116.24 59.7215 116.64C59.7215 116.96 59.6433 117.28 59.4868 117.52C59.3303 117.76 59.0955 118 58.7825 118.08C58.4695 118.24 58.1566 118.32 57.6871 118.32H56.1221L56.3569 118.08V119.92H55.8091ZM56.2786 118.16L56.0439 117.92H57.6088C58.0783 117.92 58.4695 117.84 58.7043 117.6C58.939 117.36 59.0955 117.04 59.0955 116.64C59.0955 116.24 58.939 115.92 58.7043 115.68C58.4695 115.44 58.0783 115.36 57.6088 115.36H56.0439L56.2786 115.12V118.16ZM59.1738 119.92L57.9218 118.08H58.4696L59.7215 119.92H59.1738Z" fill="white"/>
<path d="M65.5117 119.92V114.88H66.0594V119.44H68.798V119.92H65.5117Z" fill="white"/>
<path d="M73.1801 120C72.7888 120 72.4758 119.92 72.1628 119.84C71.8499 119.68 71.5369 119.52 71.3021 119.28C71.0674 119.04 70.9109 118.8 70.7544 118.48C70.5979 118.16 70.5979 117.84 70.5979 117.44C70.5979 117.04 70.6761 116.72 70.7544 116.4C70.9109 116.08 71.0674 115.84 71.3021 115.6C71.5369 115.36 71.7716 115.2 72.0846 115.04C72.3976 114.88 72.7106 114.88 73.1018 114.88C73.493 114.88 73.806 114.96 74.119 115.04C74.432 115.2 74.745 115.36 74.9015 115.6C75.1362 115.84 75.2927 116.08 75.4492 116.4C75.6057 116.72 75.6057 117.04 75.6057 117.44C75.6057 117.84 75.5275 118.16 75.4492 118.48C75.2927 118.8 75.1362 119.04 74.9015 119.28C74.6668 119.52 74.432 119.68 74.119 119.84C73.8843 119.92 73.493 120 73.1801 120ZM73.1801 119.52C73.493 119.52 73.7278 119.44 73.9625 119.36C74.1973 119.28 74.432 119.12 74.5885 118.96C74.745 118.8 74.9015 118.56 75.058 118.32C75.2145 118.08 75.2145 117.76 75.2145 117.52C75.2145 117.28 75.1362 116.96 75.058 116.72C74.9797 116.48 74.8233 116.24 74.5885 116.08C74.432 115.92 74.1973 115.76 73.9625 115.68C73.7278 115.6 73.4148 115.52 73.1801 115.52C72.9453 115.52 72.6323 115.6 72.3193 115.68C72.0846 115.76 71.8499 115.92 71.6934 116.08C71.5369 116.24 71.3804 116.48 71.2239 116.72C71.1456 116.96 71.0674 117.28 71.0674 117.52C71.0674 117.84 71.1456 118.08 71.2239 118.32C71.3021 118.56 71.4586 118.8 71.6934 118.96C71.8499 119.12 72.0846 119.28 72.3193 119.36C72.5541 119.44 72.8671 119.52 73.1801 119.52Z" fill="white"/>
<path d="M80.4569 120C80.0657 120 79.7527 119.92 79.4397 119.84C79.1267 119.68 78.8137 119.52 78.579 119.28C78.3442 119.04 78.1877 118.8 78.0313 118.48C77.8748 118.16 77.8748 117.84 77.8748 117.44C77.8748 117.04 77.953 116.72 78.0313 116.4C78.1877 116.08 78.3442 115.84 78.579 115.6C78.8137 115.36 79.1267 115.2 79.4397 115.04C79.7527 114.88 80.0657 114.88 80.4569 114.88C80.8482 114.88 81.1611 114.96 81.4741 115.04C81.7871 115.12 82.0219 115.36 82.2566 115.6L81.9436 115.92C81.7089 115.68 81.4741 115.52 81.2394 115.44C81.0046 115.36 80.6917 115.28 80.4569 115.28C80.1439 115.28 79.9092 115.36 79.5962 115.44C79.3615 115.52 79.1267 115.68 78.892 115.84C78.7355 116 78.579 116.24 78.4225 116.48C78.3442 116.72 78.266 117.04 78.266 117.28C78.266 117.6 78.3442 117.84 78.4225 118.08C78.5007 118.32 78.6572 118.56 78.892 118.72C79.1267 118.88 79.2832 119.04 79.5962 119.12C79.8309 119.2 80.1439 119.28 80.4569 119.28C80.7699 119.28 81.0046 119.2 81.2394 119.12C81.4741 119.04 81.7089 118.88 81.9436 118.72L82.2566 119.12C82.0219 119.36 81.7089 119.52 81.3959 119.6C81.0829 119.68 80.8482 120 80.4569 120ZM81.7871 119.28V117.44H82.2566V119.36L81.7871 119.28Z" fill="white"/>
<path d="M87.3427 120C86.9515 120 86.6385 119.92 86.3255 119.84C86.0125 119.68 85.6995 119.52 85.4648 119.28C85.23 119.04 85.0735 118.8 84.9171 118.48C84.7606 118.16 84.7606 117.84 84.7606 117.44C84.7606 117.04 84.8388 116.72 84.9171 116.4C85.0735 116.08 85.23 115.84 85.4648 115.6C85.6995 115.36 85.9343 115.2 86.2473 115.04C86.5602 114.88 86.8732 114.88 87.2645 114.88C87.6557 114.88 87.9687 114.96 88.2817 115.04C88.5947 115.2 88.9077 115.36 89.0642 115.6C89.2989 115.84 89.4554 116.08 89.6119 116.4C89.7684 116.72 89.7684 117.04 89.7684 117.44C89.7684 117.84 89.6901 118.16 89.6119 118.48C89.4554 118.8 89.2989 119.04 89.0642 119.28C88.8294 119.52 88.5947 119.68 88.2817 119.84C88.0469 119.92 87.6557 120 87.3427 120ZM87.3427 119.52C87.6557 119.52 87.8904 119.44 88.1252 119.36C88.3599 119.28 88.5947 119.12 88.7512 118.96C88.9077 118.8 89.0642 118.56 89.2207 118.32C89.3771 118.08 89.3771 117.76 89.3771 117.52C89.3771 117.28 89.2989 116.96 89.2207 116.72C89.1424 116.48 88.9859 116.24 88.7512 116.08C88.5947 115.92 88.3599 115.76 88.1252 115.68C87.8904 115.6 87.5775 115.52 87.3427 115.52C87.108 115.52 86.795 115.6 86.482 115.68C86.2473 115.76 86.0125 115.92 85.856 116.08C85.6995 116.24 85.543 116.48 85.3865 116.72C85.3083 116.96 85.23 117.28 85.23 117.52C85.23 117.84 85.3083 118.08 85.3865 118.32C85.4648 118.56 85.6213 118.8 85.856 118.96C86.0125 119.12 86.2473 119.28 86.482 119.36C86.7167 119.44 87.0297 119.52 87.3427 119.52Z" fill="white"/>
</svg>
