<svg width="100" height="120" viewBox="0 0 100 120" fill="none" xmlns="http://www.w3.org/2000/svg">
<path d="M3.06122 73.5136C1.36054 73.5136 0 72.1622 0 70.473V48.6487C0 46.9595 1.36054 45.6082 3.06122 45.6082C4.7619 45.6082 6.12245 46.9595 6.12245 48.6487V70.473C6.05442 72.1622 4.69388 73.5136 3.06122 73.5136Z" fill="white"/>
<path d="M10.8845 84.3917C9.18379 84.3917 7.82324 83.0404 7.82324 81.3512V59.5269C7.82324 57.8377 9.18379 56.4863 10.8845 56.4863C12.5851 56.4863 13.9457 57.8377 13.9457 59.5269V81.3512C13.9457 83.0404 12.5851 84.3917 10.8845 84.3917Z" fill="white"/>
<path d="M18.7075 90C17.0068 90 15.6462 88.6487 15.6462 86.9595V53.919C15.6462 52.2298 17.0068 50.8784 18.7075 50.8784C20.4081 50.8784 21.7687 52.2298 21.7687 53.919V86.9595C21.7687 88.6487 20.4081 90 18.7075 90Z" fill="white"/>
<path d="M26.5307 80.5406C24.83 80.5406 23.4695 79.1892 23.4695 77.5V63.3784C23.4695 61.6892 24.83 60.3379 26.5307 60.3379C28.2314 60.3379 29.5919 61.6892 29.5919 63.3784V77.5C29.5919 79.1892 28.2314 80.5406 26.5307 80.5406Z" fill="white"/>
<path d="M89.1154 84.3917C87.4147 84.3917 86.0542 83.0404 86.0542 81.3512V59.5269C86.0542 57.8377 87.4147 56.4863 89.1154 56.4863C90.8161 56.4863 92.1766 57.8377 92.1766 59.5269V81.3512C92.1766 83.0404 90.8161 84.3917 89.1154 84.3917Z" fill="white"/>
<path d="M81.2927 90C79.592 90 78.2314 88.6487 78.2314 86.9595V53.919C78.2314 52.2298 79.592 50.8784 81.2927 50.8784C82.9934 50.8784 84.3539 52.2298 84.3539 53.919V86.9595C84.3539 88.6487 82.9934 90 81.2927 90Z" fill="white"/>
<path d="M73.4694 80.5406C71.7687 80.5406 70.4082 79.1892 70.4082 77.5V63.3784C70.4082 61.6892 71.7687 60.3379 73.4694 60.3379C75.1701 60.3379 76.5307 61.6892 76.5307 63.3784V77.5C76.5307 79.1892 75.1701 80.5406 73.4694 80.5406Z" fill="white"/>
<path d="M10.8845 48.7838C9.18379 48.7838 7.82324 47.4324 7.82324 45.7432V38.3108C7.82324 36.6216 9.18379 35.2703 10.8845 35.2703C12.5851 35.2703 13.9457 36.6216 13.9457 38.3108V45.7432C13.9457 47.4324 12.5851 48.7838 10.8845 48.7838Z" fill="white"/>
<path d="M18.7075 39.5947C17.0068 39.5947 15.6462 38.2434 15.6462 36.5542V25.6758C15.6462 23.9866 17.0068 22.6353 18.7075 22.6353C20.4081 22.6353 21.7687 23.9866 21.7687 25.6758V36.5542C21.7687 38.2434 20.4081 39.5947 18.7075 39.5947Z" fill="white"/>
<path d="M26.5307 33.7161C24.83 33.7161 23.4695 32.3648 23.4695 30.6756V12.0945C23.4695 10.4053 24.83 9.05396 26.5307 9.05396C28.2314 9.05396 29.5919 10.4053 29.5919 12.0945V30.7431C29.5919 32.3648 28.2314 33.7161 26.5307 33.7161Z" fill="white"/>
<path d="M34.3537 30.2702C32.653 30.2702 31.2925 28.9188 31.2925 27.2297V16.0134C31.2925 14.3243 32.653 12.9729 34.3537 12.9729C36.0544 12.9729 37.4149 14.3243 37.4149 16.0134V27.2972C37.4149 28.9188 36.0544 30.2702 34.3537 30.2702Z" fill="white"/>
<path d="M42.1768 28.5811C40.4761 28.5811 39.1156 27.2297 39.1156 25.5405V3.04054C39.1156 1.35135 40.4761 0 42.1768 0C43.8775 0 45.238 1.35135 45.238 3.04054V25.5405C45.238 27.2297 43.8775 28.5811 42.1768 28.5811Z" fill="white"/>
<path d="M49.9999 27.8379C48.2993 27.8379 46.9387 26.4866 46.9387 24.7974V17.8379C46.9387 16.1487 48.2993 14.7974 49.9999 14.7974C51.7006 14.7974 53.0612 16.1487 53.0612 17.8379V24.8649C53.0612 26.4866 51.7006 27.8379 49.9999 27.8379Z" fill="white"/>
<path d="M57.8231 28.5811C56.1224 28.5811 54.7618 27.2297 54.7618 25.5405V3.04054C54.7618 1.35135 56.1224 0 57.8231 0C59.5237 0 60.8843 1.35135 60.8843 3.04054V25.5405C60.8843 27.2297 59.5237 28.5811 57.8231 28.5811Z" fill="white"/>
<path d="M65.6462 30.2702C63.9455 30.2702 62.585 28.9188 62.585 27.2297V16.0134C62.585 14.3243 63.9455 12.9729 65.6462 12.9729C67.3469 12.9729 68.7074 14.3243 68.7074 16.0134V27.2972C68.7074 28.9188 67.3469 30.2702 65.6462 30.2702Z" fill="white"/>
<path d="M73.4694 33.7161C71.7687 33.7161 70.4082 32.3648 70.4082 30.6756V12.0945C70.4082 10.4053 71.7687 9.05396 73.4694 9.05396C75.1701 9.05396 76.5307 10.4053 76.5307 12.0945V30.7431C76.5307 32.3648 75.1701 33.7161 73.4694 33.7161Z" fill="white"/>
<path d="M81.2927 39.5947C79.592 39.5947 78.2314 38.2434 78.2314 36.5542V25.6758C78.2314 23.9866 79.592 22.6353 81.2927 22.6353C82.9934 22.6353 84.3539 23.9866 84.3539 25.6758V36.5542C84.3539 38.2434 82.9934 39.5947 81.2927 39.5947Z" fill="white"/>
<path d="M89.1154 48.7838C87.4147 48.7838 86.0542 47.4324 86.0542 45.7432V38.3108C86.0542 36.6216 87.4147 35.2703 89.1154 35.2703C90.8161 35.2703 92.1766 36.6216 92.1766 38.3108V45.7432C92.1766 47.4324 90.8161 48.7838 89.1154 48.7838Z" fill="white"/>
<path d="M96.9387 73.5136C95.238 73.5136 93.8774 72.1622 93.8774 70.473V48.6487C93.8774 46.9595 95.238 45.6082 96.9387 45.6082C98.6393 45.6082 99.9999 46.9595 99.9999 48.6487V70.473C99.9999 72.1622 98.6393 73.5136 96.9387 73.5136Z" fill="white"/>
<path d="M0 109.28V100.32H1.64319L5.39906 106.64H4.46009L8.13772 100.32H9.78091V109.28H7.90297V103.28H8.21596L5.32081 108.32H4.46009L1.4867 103.28H1.87793V109.28H0Z" fill="white"/>
<path d="M15.8059 109.44C14.554 109.44 13.615 109.12 12.9108 108.4C12.2065 107.68 11.8936 106.72 11.8936 105.36V100.32H13.8497V105.28C13.8497 106.16 14.0062 106.72 14.3975 107.12C14.7105 107.52 15.1799 107.68 15.8059 107.68C16.4319 107.68 16.9014 107.52 17.2144 107.12C17.5274 106.72 17.7621 106.16 17.7621 105.28V100.32H19.7965V105.36C19.7965 106.64 19.4835 107.68 18.7793 108.4C18.0751 109.04 17.0579 109.44 15.8059 109.44Z" fill="white"/>
<path d="M24.6481 109.44C23.9439 109.44 23.2396 109.36 22.6137 109.12C21.9877 108.88 21.4399 108.64 21.0487 108.4L21.7529 106.8C22.1442 107.04 22.5354 107.28 23.0831 107.44C23.6309 107.6 24.1003 107.68 24.6481 107.68C25.0393 107.68 25.3523 107.6 25.587 107.52C25.8218 107.44 25.9783 107.36 26.1348 107.2C26.2913 107.04 26.2913 106.88 26.2913 106.72C26.2913 106.48 26.213 106.32 25.9783 106.16C25.8218 106 25.587 105.92 25.2741 105.84C24.9611 105.76 24.6481 105.68 24.2568 105.6C23.8656 105.52 23.5526 105.44 23.1614 105.28C22.7701 105.2 22.4572 105.04 22.1442 104.8C21.8312 104.64 21.5964 104.4 21.4399 104.08C21.2834 103.76 21.127 103.36 21.127 102.88C21.127 102.4 21.2834 101.92 21.5182 101.44C21.7529 101.04 22.2224 100.72 22.7701 100.4C23.3179 100.16 24.0221 100 24.8046 100C25.3523 100 25.9 100.08 26.4478 100.16C26.9955 100.32 27.465 100.48 27.8562 100.72L27.2302 102.32C26.839 102.08 26.4478 101.92 25.9783 101.76C25.5088 101.6 25.1958 101.6 24.8046 101.6C24.4133 101.6 24.1003 101.68 23.8656 101.76C23.6309 101.84 23.4744 102 23.3179 102.16C23.2396 102.32 23.1614 102.48 23.1614 102.64C23.1614 102.88 23.2396 103.04 23.4744 103.2C23.6309 103.36 23.8656 103.44 24.1786 103.52C24.4916 103.6 24.8046 103.68 25.1958 103.76C25.587 103.84 25.9 103.92 26.2913 104.08C26.6825 104.16 26.9955 104.32 27.3085 104.56C27.6215 104.72 27.8562 104.96 28.0127 105.28C28.1692 105.6 28.3257 106 28.3257 106.48C28.3257 106.96 28.1692 107.44 27.9345 107.84C27.6215 108.24 27.2302 108.56 26.6825 108.88C26.213 109.28 25.5088 109.44 24.6481 109.44Z" fill="white"/>
<path d="M29.8123 109.28V100.32H31.8467V109.28H29.8123Z" fill="white"/>
<path d="M38.1063 109.44C37.4021 109.44 36.7761 109.36 36.2284 109.12C35.6807 108.88 35.1329 108.56 34.7417 108.16C34.3505 107.76 33.9592 107.28 33.7245 106.72C33.4897 106.16 33.3333 105.52 33.3333 104.88C33.3333 104.24 33.4897 103.6 33.7245 103.04C33.9592 102.48 34.2722 102 34.7417 101.6C35.1329 101.2 35.6807 100.88 36.2284 100.64C36.7761 100.4 37.4021 100.32 38.1063 100.32C38.8888 100.32 39.5148 100.48 40.1408 100.72C40.7667 100.96 41.2362 101.36 41.7057 101.92L40.3755 103.12C40.0625 102.8 39.7495 102.48 39.3583 102.32C38.9671 102.16 38.5758 102.08 38.1846 102.08C37.7933 102.08 37.4021 102.16 37.0891 102.32C36.7761 102.48 36.4631 102.64 36.2284 102.88C35.9937 103.12 35.7589 103.44 35.6807 103.76C35.5242 104.08 35.4459 104.48 35.4459 104.96C35.4459 105.36 35.5242 105.76 35.6807 106.16C35.8372 106.48 35.9937 106.8 36.2284 107.04C36.4631 107.28 36.7761 107.52 37.0891 107.6C37.4021 107.76 37.7933 107.84 38.1846 107.84C38.6541 107.84 39.0453 107.76 39.3583 107.6C39.7495 107.44 40.0625 107.12 40.3755 106.8L41.7057 108C41.3145 108.56 40.7667 108.88 40.1408 109.2C39.5148 109.28 38.8106 109.44 38.1063 109.44Z" fill="white"/>
<path d="M48.5916 107.6H53.3646V109.28H46.5571V100.32H53.2081V102H48.5916V107.6ZM48.4351 103.92H52.6604V105.52H48.4351V103.92Z" fill="white"/>
<path d="M55.0078 109.28V100.32H56.651L61.8153 106.8H61.0329V100.32H63.0673V109.28H61.4241L56.2598 102.8H57.0422V109.28H55.0078Z" fill="white"/>
<path d="M67.1362 107.6H71.9093V109.28H65.1018V100.32H71.7528V102H67.1362V107.6ZM66.9797 103.92H71.2051V105.52H66.9797V103.92Z" fill="white"/>
<path d="M73.5522 109.28V100.32H77.3081C78.0906 100.32 78.7948 100.48 79.3425 100.72C79.8903 100.96 80.3598 101.36 80.6727 101.84C80.9857 102.32 81.1422 102.88 81.1422 103.6C81.1422 104.24 80.9857 104.8 80.6727 105.36C80.3598 105.92 79.8903 106.24 79.3425 106.48C78.7948 106.72 78.0906 106.88 77.3081 106.88H74.6477L75.5867 106V109.44H73.5522V109.28ZM75.5867 106.08L74.6477 105.12H77.2299C77.8558 105.12 78.3253 104.96 78.6383 104.72C78.9513 104.48 79.1078 104.08 79.1078 103.6C79.1078 103.12 78.9513 102.72 78.6383 102.48C78.3253 102.24 77.8558 102.08 77.2299 102.08H74.6477L75.5867 101.12V106.08ZM79.1078 109.28L76.9169 106H79.1078L81.2987 109.28H79.1078Z" fill="white"/>
<path d="M86.9327 109.44C86.2285 109.44 85.6025 109.36 85.0548 109.12C84.5071 108.88 83.9594 108.56 83.5681 108.16C83.1769 107.76 82.7856 107.28 82.5509 106.72C82.3162 106.16 82.1597 105.52 82.1597 104.88C82.1597 104.24 82.3162 103.6 82.5509 103.04C82.7856 102.48 83.0986 102 83.5681 101.6C84.0376 101.2 84.5071 100.88 85.1331 100.64C85.6808 100.4 86.385 100.32 87.0892 100.32C87.8717 100.32 88.5759 100.48 89.2019 100.72C89.8279 100.96 90.3756 101.36 90.7669 101.84L89.4367 103.04C89.1237 102.72 88.8107 102.48 88.4194 102.24C88.0282 102.08 87.637 102 87.1675 102C86.7763 102 86.385 102.08 85.9938 102.24C85.6808 102.4 85.3678 102.56 85.0548 102.8C84.8201 103.04 84.5853 103.36 84.4288 103.68C84.2723 104 84.1941 104.4 84.1941 104.88C84.1941 105.28 84.2723 105.68 84.4288 106C84.5853 106.32 84.7418 106.64 85.0548 106.88C85.2896 107.12 85.6025 107.36 85.9938 107.44C86.3068 107.6 86.698 107.68 87.1675 107.68C87.5587 107.68 87.95 107.6 88.3412 107.52C88.7324 107.36 89.1237 107.2 89.4367 106.88L90.6104 108.4C90.1409 108.8 89.5932 109.04 88.9672 109.28C88.1847 109.28 87.5587 109.44 86.9327 109.44ZM88.6542 108V104.64H90.5321V108.24L88.6542 108Z" fill="white"/>
<path d="M94.5228 109.28V105.6L94.9923 106.88L91.1582 100.32H93.3491L96.3225 105.36H95.0706L98.044 100.32H100L96.166 106.88L96.6355 105.6V109.28H94.5228Z" fill="white"/>
<path d="M17.7622 119.92L15.5713 114.88H16.119L18.1534 119.6H17.8405L19.8749 114.88H20.4226L18.2317 119.92H17.7622Z" fill="white"/>
<path d="M23.083 119.44H26.0564V119.92H22.5353V114.88H25.8999V115.36H23.0048V119.44H23.083ZM23.0048 117.12H25.5869V117.6H23.0048V117.12Z" fill="white"/>
<path d="M30.8295 120C30.4382 120 30.1252 119.92 29.8123 119.84C29.4993 119.68 29.1863 119.52 29.0298 119.28C28.795 119.04 28.6386 118.8 28.4821 118.48C28.3256 118.16 28.3256 117.84 28.3256 117.44C28.3256 117.04 28.4038 116.72 28.4821 116.4C28.6386 116.08 28.795 115.84 29.0298 115.6C29.2645 115.36 29.4993 115.2 29.8123 115.04C30.1252 114.88 30.4382 114.88 30.8295 114.88C31.2207 114.88 31.5337 114.96 31.8467 115.04C32.1597 115.2 32.3944 115.36 32.6292 115.6L32.3162 115.92C32.0814 115.68 31.9249 115.52 31.6119 115.44C31.3772 115.36 31.1425 115.28 30.8295 115.28C30.5165 115.28 30.2817 115.36 29.9688 115.44C29.734 115.52 29.4993 115.68 29.3428 115.84C29.1863 116 29.0298 116.24 28.8733 116.48C28.795 116.72 28.7168 117.04 28.7168 117.28C28.7168 117.52 28.795 117.84 28.8733 118.08C28.9515 118.32 29.108 118.56 29.3428 118.72C29.4993 118.88 29.734 119.04 29.9688 119.12C30.2035 119.2 30.5165 119.28 30.8295 119.28C31.1425 119.28 31.3772 119.2 31.6119 119.12C31.8467 119.04 32.0814 118.88 32.3162 118.64L32.6292 118.96C32.3944 119.2 32.1597 119.36 31.8467 119.52C31.5337 119.92 31.2207 120 30.8295 120Z" fill="white"/>
<path d="M36.072 119.92V115.36H34.3506V114.88H38.3412V115.36H36.5415V119.92H36.072Z" fill="white"/>
<path d="M42.6448 120C42.2535 120 41.9406 119.92 41.6276 119.84C41.3146 119.68 41.0016 119.52 40.7668 119.28C40.5321 119.04 40.3756 118.8 40.2191 118.48C40.0626 118.16 40.0626 117.84 40.0626 117.44C40.0626 117.04 40.1409 116.72 40.2191 116.4C40.3756 116.08 40.5321 115.84 40.7668 115.6C41.0016 115.36 41.2363 115.2 41.5493 115.04C41.8623 114.88 42.1753 114.88 42.5665 114.88C42.9578 114.88 43.2708 114.96 43.5837 115.04C43.8967 115.2 44.2097 115.36 44.3662 115.6C44.601 115.84 44.7575 116.08 44.9139 116.4C45.0704 116.72 45.0704 117.04 45.0704 117.44C45.0704 117.84 44.9922 118.16 44.9139 118.48C44.7575 118.8 44.601 119.04 44.3662 119.28C44.1315 119.52 43.8967 119.68 43.5837 119.84C43.349 119.92 42.9578 120 42.6448 120ZM42.6448 119.52C42.9578 119.52 43.1925 119.44 43.4273 119.36C43.662 119.28 43.8967 119.12 44.0532 118.96C44.2097 118.8 44.3662 118.56 44.5227 118.32C44.6792 118.08 44.6792 117.76 44.6792 117.52C44.6792 117.28 44.601 116.96 44.5227 116.72C44.4445 116.48 44.288 116.24 44.0532 116.08C43.8967 115.92 43.662 115.76 43.4273 115.68C43.1925 115.6 42.8795 115.52 42.6448 115.52C42.41 115.52 42.0971 115.6 41.7841 115.68C41.5493 115.76 41.3146 115.92 41.1581 116.08C41.0016 116.24 40.8451 116.48 40.6886 116.72C40.6104 116.96 40.5321 117.28 40.5321 117.52C40.5321 117.84 40.6104 118.08 40.6886 118.32C40.7668 118.56 40.9233 118.8 41.1581 118.96C41.3146 119.12 41.5493 119.28 41.7841 119.36C42.0188 119.44 42.3318 119.52 42.6448 119.52Z" fill="white"/>
<path d="M47.8091 119.92V114.88H49.687C50.0783 114.88 50.4695 114.96 50.7825 115.12C51.0955 115.28 51.3302 115.44 51.4867 115.68C51.6432 115.92 51.7214 116.24 51.7214 116.64C51.7214 116.96 51.6432 117.28 51.4867 117.52C51.3302 117.76 51.0955 118 50.7825 118.08C50.4695 118.24 50.1565 118.32 49.687 118.32H48.1221L48.3568 118.08V119.92H47.8091ZM48.2786 118.16L48.0438 117.92H49.6088C50.0782 117.92 50.4695 117.84 50.7042 117.6C50.939 117.36 51.0955 117.04 51.0955 116.64C51.0955 116.24 50.939 115.92 50.7042 115.68C50.4695 115.44 50.0782 115.36 49.6088 115.36H48.0438L48.2786 115.12V118.16ZM51.1737 119.92L49.9218 118.08H50.4695L51.7214 119.92H51.1737Z" fill="white"/>
<path d="M57.5117 119.92V114.88H58.0594V119.44H60.7981V119.92H57.5117Z" fill="white"/>
<path d="M65.1801 120C64.7888 120 64.4758 119.92 64.1628 119.84C63.8499 119.68 63.5369 119.52 63.3021 119.28C63.0674 119.04 62.9109 118.8 62.7544 118.48C62.5979 118.16 62.5979 117.84 62.5979 117.44C62.5979 117.04 62.6761 116.72 62.7544 116.4C62.9109 116.08 63.0674 115.84 63.3021 115.6C63.5369 115.36 63.7716 115.2 64.0846 115.04C64.3976 114.88 64.7106 114.88 65.1018 114.88C65.493 114.88 65.806 114.96 66.119 115.04C66.432 115.2 66.745 115.36 66.9015 115.6C67.1362 115.84 67.2927 116.08 67.4492 116.4C67.6057 116.72 67.6057 117.04 67.6057 117.44C67.6057 117.84 67.5275 118.16 67.4492 118.48C67.2927 118.8 67.1362 119.04 66.9015 119.28C66.6668 119.52 66.432 119.68 66.119 119.84C65.8843 119.92 65.493 120 65.1801 120ZM65.1801 119.52C65.493 119.52 65.7278 119.44 65.9625 119.36C66.1973 119.28 66.432 119.12 66.5885 118.96C66.745 118.8 66.9015 118.56 67.058 118.32C67.2145 118.08 67.2145 117.76 67.2145 117.52C67.2145 117.28 67.1362 116.96 67.058 116.72C66.9797 116.48 66.8233 116.24 66.5885 116.08C66.432 115.92 66.1973 115.76 65.9625 115.68C65.7278 115.6 65.4148 115.52 65.1801 115.52C64.9453 115.52 64.6323 115.6 64.3193 115.68C64.0846 115.76 63.8499 115.92 63.6934 116.08C63.5369 116.24 63.3804 116.48 63.2239 116.72C63.1456 116.96 63.0674 117.28 63.0674 117.52C63.0674 117.84 63.1456 118.08 63.2239 118.32C63.3021 118.56 63.4586 118.8 63.6934 118.96C63.8499 119.12 64.0846 119.28 64.3193 119.36C64.5541 119.44 64.8671 119.52 65.1801 119.52Z" fill="white"/>
<path d="M72.4569 120C72.0657 120 71.7527 119.92 71.4397 119.84C71.1267 119.68 70.8137 119.52 70.579 119.28C70.3442 119.04 70.1877 118.8 70.0313 118.48C69.8748 118.16 69.8748 117.84 69.8748 117.44C69.8748 117.04 69.953 116.72 70.0313 116.4C70.1877 116.08 70.3442 115.84 70.579 115.6C70.8137 115.36 71.1267 115.2 71.4397 115.04C71.7527 114.88 72.0657 114.88 72.4569 114.88C72.8482 114.88 73.1611 114.96 73.4741 115.04C73.7871 115.12 74.0219 115.36 74.2566 115.6L73.9436 115.92C73.7089 115.68 73.4741 115.52 73.2394 115.44C73.0046 115.36 72.6917 115.28 72.4569 115.28C72.1439 115.28 71.9092 115.36 71.5962 115.44C71.3615 115.52 71.1267 115.68 70.892 115.84C70.7355 116 70.579 116.24 70.4225 116.48C70.3442 116.72 70.266 117.04 70.266 117.28C70.266 117.6 70.3442 117.84 70.4225 118.08C70.5007 118.32 70.6572 118.56 70.892 118.72C71.1267 118.88 71.2832 119.04 71.5962 119.12C71.8309 119.2 72.1439 119.28 72.4569 119.28C72.7699 119.28 73.0046 119.2 73.2394 119.12C73.4741 119.04 73.7089 118.88 73.9436 118.72L74.2566 119.12C74.0219 119.36 73.7089 119.52 73.3959 119.6C73.0829 119.68 72.8482 120 72.4569 120ZM73.7871 119.28V117.44H74.2566V119.36L73.7871 119.28Z" fill="white"/>
<path d="M79.3427 120C78.9514 120 78.6384 119.92 78.3254 119.84C78.0125 119.68 77.6995 119.52 77.4647 119.28C77.23 119.04 77.0735 118.8 76.917 118.48C76.7605 118.16 76.7605 117.84 76.7605 117.44C76.7605 117.04 76.8387 116.72 76.917 116.4C77.0735 116.08 77.23 115.84 77.4647 115.6C77.6995 115.36 77.9342 115.2 78.2472 115.04C78.5602 114.88 78.8732 114.88 79.2644 114.88C79.6556 114.88 79.9686 114.96 80.2816 115.04C80.5946 115.2 80.9076 115.36 81.0641 115.6C81.2988 115.84 81.4553 116.08 81.6118 116.4C81.7683 116.72 81.7683 117.04 81.7683 117.44C81.7683 117.84 81.6901 118.16 81.6118 118.48C81.4553 118.8 81.2988 119.04 81.0641 119.28C80.8294 119.52 80.5946 119.68 80.2816 119.84C80.0469 119.92 79.6556 120 79.3427 120ZM79.3427 119.52C79.6556 119.52 79.8904 119.44 80.1251 119.36C80.3599 119.28 80.5946 119.12 80.7511 118.96C80.9076 118.8 81.0641 118.56 81.2206 118.32C81.3771 118.08 81.3771 117.76 81.3771 117.52C81.3771 117.28 81.2988 116.96 81.2206 116.72C81.1423 116.48 80.9858 116.24 80.7511 116.08C80.5946 115.92 80.3599 115.76 80.1251 115.68C79.8904 115.6 79.5774 115.52 79.3427 115.52C79.1079 115.52 78.7949 115.6 78.4819 115.68C78.2472 115.76 78.0125 115.92 77.856 116.08C77.6995 116.24 77.543 116.48 77.3865 116.72C77.3082 116.96 77.23 117.28 77.23 117.52C77.23 117.84 77.3082 118.08 77.3865 118.32C77.4647 118.56 77.6212 118.8 77.856 118.96C78.0125 119.12 78.2472 119.28 78.4819 119.36C78.7167 119.44 79.0297 119.52 79.3427 119.52Z" fill="white"/>
</svg>
