<svg width="18" height="18" viewBox="0 0 18 18" fill="none" xmlns="http://www.w3.org/2000/svg">
<path d="M9.73655 0.752434C9.73655 0.553194 9.81569 0.362115 9.95657 0.221231C10.0975 0.0803473 10.2885 0.0011997 10.4878 0.0011997C12.4795 0.00338699 14.389 0.795566 15.7973 2.20393C17.2056 3.61229 17.9978 5.52181 18 7.51354C18 7.71278 17.9209 7.90386 17.78 8.04474C17.6391 8.18563 17.448 8.26477 17.2488 8.26477C17.0495 8.26477 16.8585 8.18563 16.7176 8.04474C16.5767 7.90386 16.4976 7.71278 16.4976 7.51354C16.4958 5.92017 15.862 4.39258 14.7354 3.26589C13.6087 2.13921 12.0811 1.50546 10.4878 1.50367C10.2885 1.50367 10.0975 1.42452 9.95657 1.28364C9.81569 1.14275 9.73655 0.951673 9.73655 0.752434ZM10.4878 4.5086C11.2847 4.5086 12.049 4.82519 12.6125 5.38873C13.1761 5.95226 13.4927 6.71658 13.4927 7.51354C13.4927 7.71278 13.5718 7.90386 13.7127 8.04474C13.8536 8.18563 14.0446 8.26477 14.2439 8.26477C14.4431 8.26477 14.6342 8.18563 14.7751 8.04474C14.916 7.90386 14.9951 7.71278 14.9951 7.51354C14.9939 6.31847 14.5187 5.17269 13.6736 4.32764C12.8286 3.4826 11.6828 3.00733 10.4878 3.00614C10.2885 3.00614 10.0975 3.08528 9.95657 3.22617C9.81569 3.36705 9.73655 3.55813 9.73655 3.75737C9.73655 3.95661 9.81569 4.14769 9.95657 4.28857C10.0975 4.42946 10.2885 4.5086 10.4878 4.5086ZM17.3186 12.5761C17.754 13.0127 17.9985 13.604 17.9985 14.2206C17.9985 14.8371 17.754 15.4285 17.3186 15.865L16.635 16.6531C10.4825 22.5435 -4.48937 7.57514 1.31008 1.403L2.17398 0.651768C2.61102 0.228581 3.1971 -0.00552454 3.80542 9.90198e-05C4.41374 0.00572258 4.99538 0.250623 5.42452 0.681818C5.44781 0.705106 6.83983 2.51333 6.83983 2.51333C7.25287 2.94726 7.4828 3.52368 7.48182 4.12277C7.48085 4.72186 7.24903 5.29753 6.83457 5.73011L5.96465 6.82391C6.44607 7.99366 7.15389 9.05676 8.04743 9.95212C8.94097 10.8475 10.0026 11.5574 11.1714 12.0412L12.2719 11.166C12.7046 10.7519 13.2801 10.5203 13.879 10.5195C14.4779 10.5187 15.0541 10.7486 15.4879 11.1615C15.4879 11.1615 17.2954 12.5528 17.3186 12.5761ZM16.285 13.6684C16.285 13.6684 14.4873 12.2854 14.464 12.2621C14.3092 12.1086 14.1001 12.0225 13.8822 12.0225C13.6642 12.0225 13.4551 12.1086 13.3003 12.2621C13.2801 12.2831 11.7648 13.4904 11.7648 13.4904C11.6627 13.5716 11.5412 13.6249 11.4123 13.6449C11.2833 13.665 11.1513 13.651 11.0294 13.6045C9.51528 13.0408 8.14 12.1582 6.99671 11.0166C5.85342 9.87498 4.96883 8.50099 4.40286 6.98768C4.35268 6.86406 4.33632 6.72932 4.35546 6.59729C4.37461 6.46526 4.42856 6.34071 4.51179 6.23644C4.51179 6.23644 5.719 4.72045 5.73929 4.70092C5.89274 4.54615 5.97884 4.33703 5.97884 4.11909C5.97884 3.90114 5.89274 3.69202 5.73929 3.53726C5.716 3.51472 4.333 1.71552 4.333 1.71552C4.17592 1.57466 3.97091 1.49923 3.76 1.50468C3.54909 1.51013 3.34825 1.59604 3.19865 1.74481L2.33474 2.49605C-1.90366 7.59242 11.0707 19.8473 15.5367 15.6269L16.2211 14.8381C16.3815 14.6895 16.4778 14.4844 16.4897 14.2662C16.5016 14.0479 16.4282 13.8335 16.285 13.6684Z" fill="white"/>
</svg>
