<svg width="240" height="240" viewBox="0 0 240 240" fill="none" xmlns="http://www.w3.org/2000/svg">
<g filter="url(#filter0_d_52_13582)">
<rect x="25" y="25" width="190" height="190" rx="95" fill="#D6F27A"/>
</g>
<circle cx="120" cy="120" r="69.5" stroke="black"/>
<path d="M190 120C190 135.535 184.832 150.628 175.311 162.903C165.789 175.178 152.455 183.937 137.408 187.801C122.361 191.664 106.457 190.412 92.1997 184.243C77.9424 178.073 66.1425 167.336 58.6585 153.723C51.1745 140.109 48.4316 124.393 50.8618 109.05C53.292 93.7059 60.7572 79.6066 72.0817 68.9722C83.4062 58.3378 97.9464 51.7726 113.412 50.3107C128.878 48.8487 144.391 52.573 157.508 60.897L154.507 65.6253C142.44 57.9672 128.168 54.5408 113.939 55.8858C99.7107 57.2308 86.3337 63.2708 75.9152 73.0544C65.4966 82.8381 58.6286 95.8095 56.3929 109.926C54.1571 124.042 56.6806 138.501 63.5659 151.025C70.4511 163.549 81.307 173.427 94.4237 179.103C107.54 184.779 122.173 185.931 136.016 182.377C149.859 178.822 162.126 170.764 170.886 159.471C179.646 148.178 184.4 134.292 184.4 120H190Z" fill="black"/>
<path d="M85.9874 92V82.06H91.6154V83.824H87.9054V86.134H91.0274V87.87H87.9054V90.236H91.7414V92H85.9874ZM92.9464 94.66V84.72H94.8224V85.7H94.8644C95.0464 85.294 95.8864 84.58 97.1884 84.58C98.8824 84.58 100.688 85.84 100.688 88.36C100.688 90.88 98.8824 92.14 97.1884 92.14C95.8864 92.14 95.0464 91.426 94.8644 91.02H94.8224V94.66H92.9464ZM94.7804 88.36C94.7804 89.732 95.7604 90.46 96.8104 90.46C97.8604 90.46 98.8404 89.718 98.8404 88.36C98.8404 87.002 97.8604 86.26 96.8104 86.26C95.7604 86.26 94.7804 86.988 94.7804 88.36ZM101.765 92V84.72H103.641V92H101.765ZM101.765 83.712V82.06H103.641V83.712H101.765ZM107.383 92.14C105.941 92.14 104.877 91.44 104.653 90.096L106.151 89.69C106.291 90.166 106.641 90.656 107.355 90.656C107.831 90.656 108.293 90.418 108.293 89.9C108.293 89.55 108.069 89.298 107.495 89.088L106.599 88.752C105.395 88.318 104.891 87.548 104.891 86.666C104.891 85.364 106.039 84.58 107.411 84.58C108.727 84.58 109.693 85.322 109.931 86.442L108.461 86.82C108.265 86.232 107.887 86.05 107.495 86.05C107.005 86.05 106.711 86.33 106.711 86.68C106.711 86.988 106.893 87.254 107.467 87.45L108.279 87.758C109.175 88.08 110.155 88.612 110.155 89.9C110.155 91.356 108.909 92.14 107.383 92.14ZM114.712 92.14C112.808 92.14 110.876 90.824 110.876 88.36C110.876 85.896 112.808 84.58 114.712 84.58C116.602 84.58 118.548 85.896 118.548 88.36C118.548 90.824 116.602 92.14 114.712 92.14ZM112.724 88.36C112.724 89.662 113.662 90.446 114.712 90.446C115.762 90.446 116.686 89.662 116.686 88.36C116.686 87.058 115.762 86.274 114.712 86.274C113.662 86.274 112.724 87.058 112.724 88.36ZM127.012 92H125.136V91.02H125.094C124.912 91.426 124.072 92.14 122.77 92.14C121.076 92.14 119.27 90.88 119.27 88.36C119.27 85.84 121.076 84.58 122.77 84.58C124.072 84.58 124.912 85.294 125.094 85.7H125.136V82.06H127.012V92ZM121.118 88.36C121.118 89.718 122.098 90.46 123.148 90.46C124.198 90.46 125.178 89.732 125.178 88.36C125.178 86.988 124.198 86.26 123.148 86.26C122.098 86.26 121.118 87.002 121.118 88.36ZM131.883 92.14C129.881 92.14 128.089 90.782 128.089 88.36C128.089 85.91 129.909 84.58 131.771 84.58C133.619 84.58 135.719 85.882 135.313 89.088H129.867C130.133 90.082 131.001 90.6 132.093 90.6C132.807 90.6 133.437 90.404 133.969 89.942L134.823 90.852C134.221 91.608 133.171 92.14 131.883 92.14ZM129.839 87.716H133.647C133.535 86.68 132.667 86.162 131.785 86.162C130.917 86.162 130.077 86.666 129.839 87.716ZM144.249 92.14C141.505 92.14 139.181 90.082 139.181 87.03C139.181 83.978 141.505 81.92 144.249 81.92C146.979 81.92 149.317 83.978 149.317 87.03C149.317 90.082 146.979 92.14 144.249 92.14ZM141.099 87.03C141.099 89.032 142.513 90.39 144.249 90.39C145.971 90.39 147.399 89.032 147.399 87.03C147.399 85.028 145.971 83.67 144.249 83.67C142.513 83.67 141.099 85.028 141.099 87.03ZM151.815 92V83.782H150.205V82.06H153.705V92H151.815Z" fill="black"/>
<path d="M93.684 158.14C90.94 158.14 88.616 156.082 88.616 153.03C88.616 149.978 90.94 147.92 93.684 147.92C96.414 147.92 98.752 149.978 98.752 153.03C98.752 156.082 96.414 158.14 93.684 158.14ZM90.534 153.03C90.534 155.032 91.948 156.39 93.684 156.39C95.406 156.39 96.834 155.032 96.834 153.03C96.834 151.028 95.406 149.67 93.684 149.67C91.948 149.67 90.534 151.028 90.534 153.03ZM104.827 158.14C102.083 158.14 99.7586 156.082 99.7586 153.03C99.7586 149.978 102.083 147.92 104.827 147.92C107.557 147.92 109.895 149.978 109.895 153.03C109.895 156.082 107.557 158.14 104.827 158.14ZM101.677 153.03C101.677 155.032 103.091 156.39 104.827 156.39C106.549 156.39 107.977 155.032 107.977 153.03C107.977 151.028 106.549 149.67 104.827 149.67C103.091 149.67 101.677 151.028 101.677 153.03ZM112.214 158.14C111.626 158.14 111.136 157.706 111.136 157.062C111.136 156.418 111.626 155.984 112.214 155.984C112.788 155.984 113.292 156.418 113.292 157.062C113.292 157.706 112.788 158.14 112.214 158.14ZM111.136 151.756C111.136 151.112 111.626 150.678 112.214 150.678C112.788 150.678 113.292 151.112 113.292 151.756C113.292 152.4 112.788 152.834 112.214 152.834C111.626 152.834 111.136 152.4 111.136 151.756ZM119.538 158.14C116.794 158.14 114.47 156.082 114.47 153.03C114.47 149.978 116.794 147.92 119.538 147.92C122.268 147.92 124.606 149.978 124.606 153.03C124.606 156.082 122.268 158.14 119.538 158.14ZM116.388 153.03C116.388 155.032 117.802 156.39 119.538 156.39C121.26 156.39 122.688 155.032 122.688 153.03C122.688 151.028 121.26 149.67 119.538 149.67C117.802 149.67 116.388 151.028 116.388 153.03ZM128.899 158.14C127.261 158.14 126.071 157.272 125.609 156.096L127.051 155.298C127.205 155.774 127.863 156.46 128.843 156.46C129.725 156.46 130.663 155.914 130.663 154.682C130.663 153.548 129.837 152.876 128.885 152.876C127.989 152.876 127.471 153.422 127.289 153.716L125.819 153.072L126.477 148.06H131.531V149.698H127.947L127.639 151.854C127.723 151.714 128.353 151.322 129.305 151.322C130.943 151.322 132.511 152.54 132.511 154.668C132.511 156.866 130.859 158.14 128.899 158.14ZM134.745 158.14C134.157 158.14 133.667 157.706 133.667 157.062C133.667 156.418 134.157 155.984 134.745 155.984C135.319 155.984 135.823 156.418 135.823 157.062C135.823 157.706 135.319 158.14 134.745 158.14ZM133.667 151.756C133.667 151.112 134.157 150.678 134.745 150.678C135.319 150.678 135.823 151.112 135.823 151.756C135.823 152.4 135.319 152.834 134.745 152.834C134.157 152.834 133.667 152.4 133.667 151.756ZM140.148 153.814C141.282 152.33 141.702 151.798 141.702 151C141.702 149.936 140.932 149.67 140.414 149.67C139.812 149.67 139.028 150.034 139.028 151.168V151.42H137.124V151C137.124 149.348 138.23 147.92 140.442 147.92C142.444 147.92 143.69 149.138 143.69 150.734C143.69 152.036 142.878 152.974 142.052 154.038L140.288 156.334H143.69V158H136.984L140.148 153.814ZM148.097 158.14C146.333 158.14 144.765 156.936 144.765 154.864C144.765 153.324 145.605 152.218 146.249 151.35L148.629 148.06H150.743L147.929 151.938C148.125 151.896 148.335 151.868 148.545 151.868C150.113 151.868 151.457 153.086 151.457 154.934C151.457 156.936 149.861 158.14 148.097 158.14ZM146.543 154.976C146.543 155.83 147.187 156.502 148.111 156.502C149.035 156.502 149.665 155.83 149.665 154.976C149.665 154.122 149.035 153.45 148.111 153.45C147.187 153.45 146.543 154.122 146.543 154.976Z" fill="black"/>
<g opacity="0.5">
<path d="M172 119.77H171.33V119.107H172V119.77ZM172 118.416H171.33V117.754H172V118.416Z" fill="black"/>
<path d="M169.789 120.029H169.12V119.77H169.789V120.029ZM169.789 119.079H169.12V118.416H169.789V119.079ZM169.789 117.725H169.12V117.063H169.789V117.725ZM169.789 116.401H169.12V115.738H169.789V116.401Z" fill="black"/>
<path d="M167.608 119.654H166.938V118.992H167.608V119.654ZM167.608 118.301H166.938V117.639H167.608V118.301ZM167.608 116.948H166.938V116.285H167.608V116.948ZM167.608 115.623H166.938V114.961H167.608V115.623ZM167.608 114.27H166.938V113.607H167.608V114.27ZM167.608 112.945H166.938V112.283H167.608V112.945Z" fill="black"/>
<path d="M165.368 120.029H164.698V119.856H165.368V120.029ZM165.368 119.165H164.698V118.503H165.368V119.165ZM165.368 117.84H164.698V117.178H165.368V117.84Z" fill="black"/>
<path d="M163.186 120.029H162.516V119.366H163.186V120.029ZM163.186 118.704H162.516V118.042H163.186V118.704ZM163.186 117.351H162.516V116.688H163.186V117.351ZM163.186 115.997H162.516V115.335H163.186V115.997ZM163.186 114.673H162.516V114.01H163.186V114.673Z" fill="black"/>
<path d="M160.975 119.395H160.305V118.733H160.975V119.395ZM160.975 118.071H160.305V117.408H160.975V118.071ZM160.975 116.717H160.305V116.055H160.975V116.717ZM160.975 115.393H160.305V114.702H160.975V115.393ZM160.975 114.039H160.305V113.377H160.975V114.039ZM160.975 112.686H160.305V112.024H160.975V112.686ZM160.975 111.361H160.305V110.67H160.975V111.361Z" fill="black"/>
<path d="M158.793 119.914H158.094V119.251H158.764V119.914H158.793ZM158.793 118.589H158.094V117.927H158.764V118.589H158.793ZM158.793 117.236H158.094V116.573H158.764V117.236H158.793ZM158.793 115.882H158.094V115.22H158.764V115.882H158.793ZM158.793 114.558H158.094V113.895H158.764V114.558H158.793ZM158.793 113.204H158.094V112.542H158.764V113.204H158.793ZM158.793 111.88H158.094V111.217H158.764V111.88H158.793Z" fill="black"/>
<path d="M156.582 120H155.913V119.309H156.582V120ZM156.582 118.646H155.913V117.984H156.582V118.646ZM156.582 117.293H155.913V116.631H156.582V117.293ZM156.582 115.968H155.913V115.277H156.582V115.968ZM156.582 114.615H155.913V113.953H156.582V114.615ZM156.582 113.262H155.913V112.599H156.582V113.262ZM156.582 111.937H155.913V111.275H156.582V111.937ZM156.582 110.584H155.913V109.921H156.582V110.584ZM156.582 109.259H155.913V108.597H156.582V109.259ZM156.582 107.906H155.913V107.243H156.582V107.906ZM156.582 106.552H155.913V105.89H156.582V106.552Z" fill="black"/>
<path d="M154.4 120.029H153.731V119.482H154.4V120.029ZM154.4 118.791H153.731V118.128H154.4V118.791ZM154.4 117.437H153.731V116.775H154.4V117.437ZM154.4 116.112H153.731V115.45H154.4V116.112ZM154.4 114.759H153.731V114.097H154.4V114.759ZM154.4 113.434H153.731V112.772H154.4V113.434ZM154.4 112.081H153.731V111.419H154.4V112.081ZM154.4 110.728H153.731V110.065H154.4V110.728ZM154.4 109.403H153.731V108.741H154.4V109.403ZM154.4 108.05H153.731V107.387H154.4V108.05ZM154.4 106.696H153.731V106.034H154.4V106.696ZM154.4 105.372H153.731V104.709H154.4V105.372ZM154.4 104.018H153.731V103.356H154.4V104.018Z" fill="black"/>
<path d="M152.19 120H151.52V119.597H152.19V120ZM152.19 118.906H151.52V118.243H152.19V118.906ZM152.19 117.581H151.52V116.919H152.19V117.581ZM152.19 116.228H151.52V115.565H152.19V116.228ZM152.19 114.903H151.52V114.241H152.19V114.903ZM152.19 113.55H151.52V112.887H152.19V113.55ZM152.19 112.196H151.52V111.534H152.19V112.196ZM152.19 110.872H151.52V110.209H152.19V110.872ZM152.19 109.518H151.52V108.856H152.19V109.518ZM152.19 108.165H151.52V107.503H152.19V108.165ZM152.19 106.84H151.52V106.178H152.19V106.84Z" fill="black"/>
<path d="M150.008 119.856H149.338V119.194H150.008V119.856ZM150.008 118.503H149.338V117.84H150.008V118.503ZM150.008 117.149H149.338V116.487H150.008V117.149ZM150.008 115.825H149.338V115.162H150.008V115.825ZM150.008 114.471H149.338V113.809H150.008V114.471ZM150.008 113.118H149.338V112.456H150.008V113.118ZM150.008 111.793H149.338V111.131H150.008V111.793ZM150.008 110.44H149.338V109.778H150.008V110.44ZM150.008 109.086H149.338V108.424H150.008V109.086ZM150.008 107.762H149.338V107.1H150.008V107.762ZM150.008 106.408H149.338V105.746H150.008V106.408ZM150.008 105.084H149.338V104.422H150.008V105.084ZM150.008 103.73H149.338V103.068H150.008V103.73ZM150.008 102.377H149.338V101.715H150.008V102.377ZM150.008 101.052H149.338V100.361H150.008V101.052Z" fill="black"/>
<path d="M147.797 120H147.127V119.511H147.797V120ZM147.797 118.82H147.127V118.157H147.797V118.82ZM147.797 117.495H147.127V116.833H147.797V117.495ZM147.797 116.142H147.127V115.479H147.797V116.142ZM147.797 114.817H147.127V114.126H147.797V114.817Z" fill="black"/>
<path d="M145.615 119.798H144.945V119.136H145.615V119.798ZM145.615 118.445H144.945V117.783H145.615V118.445ZM145.615 117.092H144.945V116.429H145.615V117.092ZM145.615 115.767H144.945V115.105H145.615V115.767ZM145.615 114.414H144.945V113.751H145.615V114.414ZM145.615 113.06H144.945V112.398H145.615V113.06ZM145.615 111.736H144.945V111.073H145.615V111.736ZM145.615 110.382H144.945V109.72H145.615V110.382Z" fill="black"/>
<path d="M143.433 119.683H142.763V119.021H143.433V119.683ZM143.433 118.33H142.763V117.668H143.433V118.33ZM143.433 117.005H142.763V116.343H143.433V117.005ZM143.433 115.652H142.763V114.99H143.433V115.652ZM143.433 114.298H142.763V113.636H143.433V114.298ZM143.433 112.974H142.763V112.312H143.433V112.974ZM143.433 111.62H142.763V110.958H143.433V111.62ZM143.433 110.296H142.763V109.634H143.433V110.296ZM143.433 108.942H142.763V108.28H143.433V108.942ZM143.433 107.589H142.763V106.927H143.433V107.589Z" fill="black"/>
<path d="M141.222 119.971H140.553V119.309H141.222V119.971ZM141.222 118.647H140.553V117.984H141.222V118.647ZM141.222 117.293H140.553V116.631H141.222V117.293ZM141.222 115.969H140.553V115.277H141.222V115.969ZM141.222 114.615H140.553V113.953H141.222V114.615ZM141.222 113.262H140.553V112.599H141.222V113.262ZM141.222 111.937H140.553V111.246H141.222V111.937ZM141.222 110.584H140.553V109.921H141.222V110.584Z" fill="black"/>
<path d="M138.982 119.482H138.313V118.819H138.982V119.482ZM138.982 118.128H138.313V117.466H138.982V118.128ZM138.982 116.804H138.313V116.141H138.982V116.804ZM138.982 115.45H138.313V114.788H138.982V115.45ZM138.982 114.126H138.313V113.463H138.982V114.126ZM138.982 112.772H138.313V112.11H138.982V112.772ZM138.982 111.419H138.313V110.757H138.982V111.419Z" fill="black"/>
<path d="M136.8 119.424H136.131V118.762H136.8V119.424ZM136.8 118.099H136.131V117.437H136.8V118.099ZM136.8 116.746H136.131V116.084H136.8V116.746ZM136.8 115.392H136.131V114.73H136.8V115.392ZM136.8 114.068H136.131V113.406H136.8V114.068Z" fill="black"/>
<path d="M134.59 118.733H133.92V119.395H134.59V118.733Z" fill="black"/>
<path d="M132.408 120.029H131.738V120L132.408 120.029ZM132.408 119.309H131.738V118.647H132.408V119.309ZM132.408 117.984H131.738V117.293H132.408V117.984Z" fill="black"/>
<path d="M130.197 119.741H129.527V119.078H130.197V119.741ZM130.197 118.416H129.527V117.754H130.197V118.416ZM130.197 117.063H129.527V116.4H130.197V117.063ZM130.197 115.709H129.527V115.047H130.197V115.709Z" fill="black"/>
<path d="M128.015 119.798H127.345V119.136H128.015V119.798ZM128.015 118.445H127.345V117.783H128.015V118.445ZM128.015 117.092H127.345V116.429H128.015V117.092ZM128.015 115.767H127.345V115.105H128.015V115.767ZM128.015 114.414H127.345V113.751H128.015V114.414ZM128.015 113.06H127.345V112.398H128.015V113.06ZM128.015 111.736H127.345V111.073H128.015V111.736Z" fill="black"/>
<path d="M125.833 119.453H125.163V118.791H125.833V119.453ZM125.833 118.1H125.163V117.437H125.833V118.1ZM125.833 116.746H125.163V116.084H125.833V116.746ZM125.833 115.422H125.163V114.759H125.833V115.422ZM125.833 114.068H125.163V113.406H125.833V114.068ZM125.833 112.744H125.163V112.081H125.833V112.744ZM125.833 111.39H125.163V110.728H125.833V111.39ZM125.833 110.037H125.163V109.375H125.833V110.037ZM125.833 108.712H125.163V108.05H125.833V108.712ZM125.833 107.359H125.163V106.697H125.833V107.359Z" fill="black"/>
<path d="M123.622 120.029H122.953V119.798H123.622V120.029ZM123.622 119.107H122.953V118.445H123.622V119.107Z" fill="black"/>
<path d="M121.44 119.914H120.771V119.251H121.44V119.914ZM121.44 118.56H120.771V117.898H121.44V118.56ZM121.44 117.236H120.771V116.573H121.44V117.236Z" fill="black"/>
<path d="M119.229 120.029H118.56V119.424H119.229V120.029ZM119.229 118.762H118.56V118.099H119.229V118.762ZM119.229 117.408H118.56V116.746H119.229V117.408ZM119.229 116.084H118.56V115.421H119.229V116.084ZM119.229 114.73H118.56V114.068H119.229V114.73ZM119.229 113.377H118.56V112.715H119.229V113.377Z" fill="black"/>
<path d="M117.048 119.424H116.378V118.762H117.048V119.424ZM117.048 118.071H116.378V117.408H117.048V118.071ZM117.048 116.746H116.378V116.084H117.048V116.746ZM117.048 115.393H116.378V114.73H117.048V115.393ZM117.048 114.039H116.378V113.377H117.048V114.039ZM117.048 112.715H116.378V112.052H117.048V112.715ZM117.048 111.361H116.378V110.699H117.048V111.361ZM117.048 110.008H116.378V109.346H117.048V110.008ZM117.048 108.683H116.378V108.021H117.048V108.683ZM117.048 107.33H116.378V106.668H117.048V107.33ZM117.048 106.005H116.378V105.343H117.048V106.005ZM117.048 104.652H116.378V103.99H117.048V104.652Z" fill="black"/>
<path d="M114.837 119.914H114.167V119.251H114.837V119.914ZM114.837 118.589H114.167V117.927H114.837V118.589ZM114.837 117.235H114.167V116.573H114.837V117.235ZM114.837 115.882H114.167V115.22H114.837V115.882ZM114.837 114.557H114.167V113.895H114.837V114.557ZM114.837 113.204H114.167V112.542H114.837V113.204ZM114.837 111.879H114.167V111.217H114.837V111.879ZM114.837 110.526H114.167V109.864H114.837V110.526Z" fill="black"/>
<path d="M112.655 119.885H111.985V119.223H112.655V119.885ZM112.655 118.531H111.985V117.869H112.655V118.531ZM112.655 117.207H111.985V116.545H112.655V117.207ZM112.655 115.853H111.985V115.191H112.655V115.853ZM112.655 114.5H111.985V113.838H112.655V114.5ZM112.655 113.175H111.985V112.513H112.655V113.175ZM112.655 111.822H111.985V111.16H112.655V111.822ZM112.655 110.497H111.985V109.806H112.655V110.497ZM112.655 109.144H111.985V108.482H112.655V109.144ZM112.655 107.791H111.985V107.128H112.655V107.791ZM112.655 106.466H111.985V105.775H112.655V106.466Z" fill="black"/>
<path d="M110.415 120.029H109.745V119.51H110.415V120.029ZM110.415 118.819H109.745V118.157H110.415V118.819ZM110.415 117.466H109.745V116.804H110.415V117.466ZM110.415 116.141H109.745V115.479H110.415V116.141ZM110.415 114.788H109.745V114.126H110.415V114.788ZM110.415 113.435H109.745V112.772H110.415V113.435ZM110.415 112.11H109.745V111.448H110.415V112.11ZM110.415 110.757H109.745V110.094H110.415V110.757ZM110.415 109.403H109.745V108.741H110.415V109.403ZM110.415 108.079H109.745V107.416H110.415V108.079ZM110.415 106.725H109.745V106.063H110.415V106.725ZM110.415 105.372H109.745V104.709H110.415V105.372ZM110.415 104.047H109.745V103.385H110.415V104.047ZM110.415 102.694H109.745V102.031H110.415V102.694ZM110.415 101.369H109.745V100.678H110.415V101.369ZM110.415 100.016H109.745V99.3534H110.415V100.016ZM110.415 98.6623H109.745V98H110.415V98.6623Z" fill="black"/>
<path d="M108.204 119.683H107.534V119.021H108.204V119.683ZM108.204 118.33H107.534V117.668H108.204V118.33ZM108.204 117.005H107.534V116.343H108.204V117.005ZM108.204 115.652H107.534V114.99H108.204V115.652ZM108.204 114.298H107.534V113.636H108.204V114.298ZM108.204 112.974H107.534V112.312H108.204V112.974ZM108.204 111.62H107.534V110.958H108.204V111.62ZM108.204 110.296H107.534V109.634H108.204V110.296ZM108.204 108.942H107.534V108.28H108.204V108.942ZM108.204 107.589H107.534V106.927H108.204V107.589ZM108.204 106.264H107.534V105.602H108.204V106.264ZM108.204 104.911H107.534V104.249H108.204V104.911ZM108.204 103.558H107.534V102.895H108.204V103.558ZM108.204 102.233H107.534V101.571H108.204V102.233ZM108.204 100.88H107.534V100.217H108.204V100.88Z" fill="black"/>
<path d="M106.022 119.655H105.353V118.992H106.022V119.655ZM106.022 118.301H105.353V117.639H106.022V118.301ZM106.022 116.948H105.353V116.285H106.022V116.948ZM106.022 115.623H105.353V114.961H106.022V115.623ZM106.022 114.27H105.353V113.607H106.022V114.27ZM106.022 112.945H105.353V112.283H106.022V112.945ZM106.022 111.592H105.353V110.929H106.022V111.592ZM106.022 110.238H105.353V109.576H106.022V110.238ZM106.022 108.914H105.353V108.251H106.022V108.914ZM106.022 107.56H105.353V106.898H106.022V107.56ZM106.022 106.207H105.353V105.545H106.022V106.207ZM106.022 104.882H105.353V104.22H106.022V104.882Z" fill="black"/>
<path d="M103.84 120.029H103.171V119.626H103.84V120.029ZM103.84 118.963H103.171V118.301H103.84V118.963ZM103.84 117.61H103.171V116.948H103.84V117.61ZM103.84 116.257H103.171V115.594H103.84V116.257ZM103.84 114.932H103.171V114.27H103.84V114.932ZM103.84 113.579H103.171V112.916H103.84V113.579ZM103.84 112.254H103.171V111.592H103.84V112.254ZM103.84 110.901H103.171V110.238H103.84V110.901Z" fill="black"/>
<path d="M101.63 120.029H100.96V119.856H101.63V120.029ZM101.63 119.165H100.96V118.503H101.63V119.165ZM101.63 117.84H100.96V117.178H101.63V117.84Z" fill="black"/>
<path d="M99.4478 119.597H98.7491V118.934H99.4187V119.597H99.4478ZM99.4478 118.243H98.7491V117.581H99.4187V118.243H99.4478ZM99.4478 116.919H98.7491V116.256H99.4187V116.919H99.4478ZM99.4478 115.565H98.7491V114.903H99.4187V115.565H99.4478Z" fill="black"/>
<path d="M97.2369 119.482H96.5673V118.819H97.2369V119.482ZM97.2369 118.157H96.5673V117.495H97.2369V118.157ZM97.2369 116.804H96.5673V116.141H97.2369V116.804ZM97.2369 115.479H96.5673V114.817H97.2369V115.479ZM97.2369 114.126H96.5673V113.463H97.2369V114.126ZM97.2369 112.772H96.5673V112.11H97.2369V112.772Z" fill="black"/>
<path d="M95.055 120.029H94.3854V119.395H95.055V120.029ZM95.055 118.704H94.3854V118.042H95.055V118.704ZM95.055 117.379H94.3854V116.717H95.055V117.379ZM95.055 116.026H94.3854V115.364H95.055V116.026ZM95.055 114.701H94.3854V114.039H95.055V114.701ZM95.055 113.348H94.3854V112.686H95.055V113.348ZM95.055 111.995H94.3854V111.332H95.055V111.995ZM95.055 110.67H94.3854V110.008H95.055V110.67ZM95.055 109.317H94.3854V108.654H95.055V109.317Z" fill="black"/>
<path d="M92.8442 120.029H92.1746V119.972H92.8442V120.029ZM92.8442 119.28H92.1746V118.618H92.8442V119.28ZM92.8442 117.956H92.1746V117.294H92.8442V117.956ZM92.8442 116.602H92.1746V115.94H92.8442V116.602ZM92.8442 115.278H92.1746V114.616H92.8442V115.278ZM92.8442 113.924H92.1746V113.262H92.8442V113.924ZM92.8442 112.571H92.1746V111.909H92.8442V112.571ZM92.8442 111.246H92.1746V110.584H92.8442V111.246ZM92.8442 109.893H92.1746V109.231H92.8442V109.893ZM92.8442 108.54H92.1746V107.877H92.8442V108.54ZM92.8442 107.215H92.1746V106.553H92.8442V107.215Z" fill="black"/>
<path d="M90.6623 120.029H89.9927V119.798H90.6623V120.029ZM90.6623 119.107H89.9927V118.445H90.6623V119.107ZM90.6623 117.754H89.9927V117.092H90.6623V117.754ZM90.6623 116.429H89.9927V115.767H90.6623V116.429ZM90.6623 115.076H89.9927V114.414H90.6623V115.076ZM90.6623 113.722H89.9927V113.06H90.6623V113.722ZM90.6623 112.398H89.9927V111.736H90.6623V112.398ZM90.6623 111.044H89.9927V110.382H90.6623V111.044ZM90.6623 109.72H89.9927V109.058H90.6623V109.72ZM90.6623 108.366H89.9927V107.704H90.6623V108.366ZM90.6623 107.013H89.9927V106.351H90.6623V107.013ZM90.6623 105.688H89.9927V105.026H90.6623V105.688ZM90.6623 104.335H89.9927V103.673H90.6623V104.335ZM90.6623 102.982H89.9927V102.319H90.6623V102.982Z" fill="black"/>
<path d="M88.4805 119.885H87.8109V119.223H88.4805V119.885ZM88.4805 118.531H87.8109V117.869H88.4805V118.531ZM88.4805 117.207H87.8109V116.545H88.4805V117.207ZM88.4805 115.853H87.8109V115.191H88.4805V115.853ZM88.4805 114.5H87.8109V113.838H88.4805V114.5ZM88.4805 113.175H87.8109V112.513H88.4805V113.175ZM88.4805 111.822H87.8109V111.16H88.4805V111.822ZM88.4805 110.497H87.8109V109.806H88.4805V110.497ZM88.4805 109.144H87.8109V108.482H88.4805V109.144ZM88.4805 107.791H87.8109V107.128H88.4805V107.791ZM88.4805 106.466H87.8109V105.775H88.4805V106.466Z" fill="black"/>
<path d="M86.2695 120.029H85.5999V119.913H86.2695V120.029ZM86.2695 119.251H85.5999V118.589H86.2695V119.251ZM86.2695 117.898H85.5999V117.235H86.2695V117.898ZM86.2695 116.544H85.5999V115.882H86.2695V116.544ZM86.2695 115.22H85.5999V114.557H86.2695V115.22ZM86.2695 113.866H85.5999V113.204H86.2695V113.866ZM86.2695 112.542H85.5999V111.879H86.2695V112.542ZM86.2695 111.188H85.5999V110.526H86.2695V111.188ZM86.2695 109.835H85.5999V109.173H86.2695V109.835Z" fill="black"/>
<path d="M84.0295 119.885H83.3599V119.223H84.0295V119.885ZM84.0295 118.532H83.3599V117.869H84.0295V118.532ZM84.0295 117.178H83.3599V116.516H84.0295V117.178ZM84.0295 115.854H83.3599V115.191H84.0295V115.854ZM84.0295 114.5H83.3599V113.838H84.0295V114.5ZM84.0295 113.147H83.3599V112.485H84.0295V113.147Z" fill="black"/>
<path d="M81.8477 120.028H81.1781V119.481H81.8477V120.028ZM81.8477 118.819H81.1781V118.157H81.8477V118.819Z" fill="black"/>
<path d="M79.6369 119.366H78.9673V118.704H79.6369V119.366ZM79.6369 118.042H78.9673V117.379H79.6369V118.042ZM79.6369 116.688H78.9673V116.026H79.6369V116.688ZM79.6369 115.335H78.9673V114.673H79.6369V115.335Z" fill="black"/>
<path d="M77.455 120.029H76.7853V119.942H77.455V120.029ZM77.455 119.251H76.7853V118.589H77.455V119.251ZM77.455 117.898H76.7853V117.236H77.455V117.898ZM77.455 116.573H76.7853V115.911H77.455V116.573ZM77.455 115.22H76.7853V114.558H77.455V115.22ZM77.455 113.895H76.7853V113.233H77.455V113.895ZM77.455 112.542H76.7853V111.88H77.455V112.542Z" fill="black"/>
<path d="M75.244 120.029H74.5743V119.741H75.244V120.029ZM75.244 119.05H74.5743V118.387H75.244V119.05ZM75.244 117.725H74.5743V117.063H75.244V117.725ZM75.244 116.372H74.5743V115.709H75.244V116.372ZM75.244 115.018H74.5743V114.356H75.244V115.018ZM75.244 113.694H74.5743V113.031H75.244V113.694ZM75.244 112.34H74.5743V111.678H75.244V112.34ZM75.244 110.987H74.5743V110.325H75.244V110.987ZM75.244 109.662H74.5743V109H75.244V109.662Z" fill="black"/>
<path d="M73.0624 119.309H72.3928V118.646H73.0624V119.309ZM73.0624 117.984H72.3928V117.322H73.0624V117.984ZM73.0624 116.631H72.3928V115.968H73.0624V116.631ZM73.0624 115.306H72.3928V114.644H73.0624V115.306ZM73.0624 113.953H72.3928V113.29H73.0624V113.953ZM73.0624 112.599H72.3928V111.937H73.0624V112.599ZM73.0624 111.275H72.3928V110.612H73.0624V111.275ZM73.0624 109.921H72.3928V109.259H73.0624V109.921ZM73.0624 108.568H72.3928V107.906H73.0624V108.568ZM73.0624 107.243H72.3928V106.581H73.0624V107.243ZM73.0624 105.89H72.3928V105.228H73.0624V105.89Z" fill="black"/>
<path d="M70.8806 119.885H70.2109V119.223H70.8806V119.885ZM70.8806 118.56H70.2109V117.869H70.8806V118.56ZM70.8806 117.207H70.2109V116.545H70.8806V117.207ZM70.8806 115.854H70.2109V115.191H70.8806V115.854ZM70.8806 114.529H70.2109V113.867H70.8806V114.529ZM70.8806 113.176H70.2109V112.513H70.8806V113.176ZM70.8806 111.851H70.2109V111.189H70.8806V111.851ZM70.8806 110.498H70.2109V109.835H70.8806V110.498ZM70.8806 109.144H70.2109V108.482H70.8806V109.144ZM70.8806 107.82H70.2109V107.157H70.8806V107.82ZM70.8806 106.466H70.2109V105.804H70.8806V106.466ZM70.8806 105.113H70.2109V104.451H70.8806V105.113ZM70.8806 103.788H70.2109V103.126H70.8806V103.788ZM70.8806 102.435H70.2109V101.772H70.8806V102.435ZM70.8806 101.11H70.2109V100.419H70.8806V101.11ZM70.8806 99.7568H70.2109V99.0945H70.8806V99.7568Z" fill="black"/>
<path d="M68.6696 120.029H68V119.885H68.6696V120.029ZM68.6696 119.222H68V118.56H68.6696V119.222ZM68.6696 117.869H68V117.207H68.6696V117.869ZM68.6696 116.516H68V115.853H68.6696V116.516ZM68.6696 115.191H68V114.529H68.6696V115.191ZM68.6696 113.838H68V113.175H68.6696V113.838ZM68.6696 112.513H68V111.822H68.6696V112.513ZM68.6696 111.16H68V110.497H68.6696V111.16ZM68.6696 109.806H68V109.144H68.6696V109.806ZM68.6696 108.482H68V107.79H68.6696V108.482ZM68.6696 107.128H68V106.466H68.6696V107.128ZM68.6696 105.775H68V105.112H68.6696V105.775ZM68.6696 104.45H68V103.759H68.6696V104.45ZM68.6696 103.097H68V102.434H68.6696V103.097ZM68.6696 101.772H68V101.11H68.6696V101.772Z" fill="black"/>
<path d="M172 122.246H171.33V121.583H172V122.246ZM172 120.892H171.33V120.23H172V120.892Z" fill="black"/>
<path d="M169.789 124.262H169.12V123.599H169.789V124.262ZM169.789 122.937H169.12V122.275H169.789V122.937ZM169.789 121.584H169.12V120.921H169.789V121.584ZM169.789 120.23H169.12V119.971H169.789V120.23Z" fill="black"/>
<path d="M167.608 127.746H166.938V127.083H167.608V127.746ZM167.608 126.392H166.938V125.73H167.608V126.392ZM167.608 125.039H166.938V124.377H167.608V125.039ZM167.608 123.714H166.938V123.052H167.608V123.714ZM167.608 122.361H166.938V121.699H167.608V122.361ZM167.608 121.036H166.938V120.374H167.608V121.036Z" fill="black"/>
<path d="M165.368 122.851H164.698V122.188H165.368V122.851ZM165.368 121.497H164.698V120.835H165.368V121.497ZM165.368 120.144H164.698V119.971H165.368V120.144Z" fill="black"/>
<path d="M163.186 126.018H162.516V125.356H163.186V126.018ZM163.186 124.665H162.516V124.003H163.186V124.665ZM163.186 123.312H162.516V122.649H163.186V123.312ZM163.186 121.987H162.516V121.325H163.186V121.987ZM163.186 120.633H162.516V119.971H163.186V120.633Z" fill="black"/>
<path d="M160.975 129.33H160.305V128.668H160.975V129.33ZM160.975 127.976H160.305V127.314H160.975V127.976ZM160.975 126.623H160.305V125.961H160.975V126.623ZM160.975 125.298H160.305V124.636H160.975V125.298ZM160.975 123.945H160.305V123.283H160.975V123.945ZM160.975 122.592H160.305V121.929H160.975V122.592ZM160.975 121.267H160.305V120.605H160.975V121.267Z" fill="black"/>
<path d="M158.793 128.811H158.094V128.149H158.764V128.811H158.793ZM158.793 127.458H158.094V126.796H158.764V127.458H158.793ZM158.793 126.105H158.094V125.442H158.764V126.105H158.793ZM158.793 124.78H158.094V124.118H158.764V124.78H158.793ZM158.793 123.426H158.094V122.764H158.764V123.426H158.793ZM158.793 122.102H158.094V121.44H158.764V122.102H158.793ZM158.793 120.748H158.094V120.086H158.764V120.748H158.793Z" fill="black"/>
<path d="M156.582 134.11H155.913V133.448H156.582V134.11ZM156.582 132.757H155.913V132.094H156.582V132.757ZM156.582 131.432H155.913V130.77H156.582V131.432ZM156.582 130.079H155.913V129.416H156.582V130.079ZM156.582 128.725H155.913V128.063H156.582V128.725ZM156.582 127.401H155.913V126.738H156.582V127.401ZM156.582 126.047H155.913V125.385H156.582V126.047ZM156.582 124.694H155.913V124.031H156.582V124.694ZM156.582 123.369H155.913V122.707H156.582V123.369ZM156.582 122.016H155.913V121.353H156.582V122.016ZM156.582 120.691H155.913V120.029H156.582V120.691Z" fill="black"/>
<path d="M154.4 136.644H153.731V135.982H154.4V136.644ZM154.4 135.291H153.731V134.628H154.4V135.291ZM154.4 133.966H153.731V133.304H154.4V133.966ZM154.4 132.613H153.731V131.95H154.4V132.613ZM154.4 131.288H153.731V130.626H154.4V131.288ZM154.4 129.935H153.731V129.272H154.4V129.935ZM154.4 128.581H153.731V127.919H154.4V128.581ZM154.4 127.257H153.731V126.594H154.4V127.257ZM154.4 125.903H153.731V125.241H154.4V125.903ZM154.4 124.55H153.731V123.887H154.4V124.55ZM154.4 123.225H153.731V122.563H154.4V123.225ZM154.4 121.872H153.731V121.209H154.4V121.872ZM154.4 120.547H153.731V120H154.4V120.547Z" fill="black"/>
<path d="M152.19 133.851H151.52V133.188H152.19V133.851ZM152.19 132.497H151.52V131.835H152.19V132.497ZM152.19 131.144H151.52V130.482H152.19V131.144ZM152.19 129.819H151.52V129.157H152.19V129.819ZM152.19 128.466H151.52V127.804H152.19V128.466ZM152.19 127.113H151.52V126.45H152.19V127.113ZM152.19 125.788H151.52V125.126H152.19V125.788ZM152.19 124.435H151.52V123.772H152.19V124.435ZM152.19 123.081H151.52V122.419H152.19V123.081ZM152.19 121.757H151.52V121.094H152.19V121.757ZM152.19 120.403H151.52V119.971H152.19V120.403Z" fill="black"/>
<path d="M150.008 139.639H149.338V138.976H150.008V139.639ZM150.008 138.285H149.338V137.623H150.008V138.285ZM150.008 136.932H149.338V136.269H150.008V136.932ZM150.008 135.607H149.338V134.945H150.008V135.607ZM150.008 134.254H149.338V133.591H150.008V134.254ZM150.008 132.9H149.338V132.238H150.008V132.9ZM150.008 131.576H149.338V130.913H150.008V131.576ZM150.008 130.222H149.338V129.56H150.008V130.222ZM150.008 128.898H149.338V128.235H150.008V128.898ZM150.008 127.544H149.338V126.882H150.008V127.544ZM150.008 126.191H149.338V125.529H150.008V126.191ZM150.008 124.866H149.338V124.204H150.008V124.866ZM150.008 123.513H149.338V122.851H150.008V123.513ZM150.008 122.16H149.338V121.497H150.008V122.16ZM150.008 120.835H149.338V120.173H150.008V120.835Z" fill="black"/>
<path d="M147.797 125.874H147.127V125.212H147.797V125.874ZM147.797 124.521H147.127V123.859H147.797V124.521ZM147.797 123.168H147.127V122.505H147.797V123.168ZM147.797 121.843H147.127V121.181H147.797V121.843ZM147.797 120.49H147.127V120H147.797V120.49Z" fill="black"/>
<path d="M145.615 130.28H144.945V129.617H145.615V130.28ZM145.615 128.926H144.945V128.264H145.615V128.926ZM145.615 127.602H144.945V126.939H145.615V127.602ZM145.615 126.248H144.945V125.586H145.615V126.248ZM145.615 124.924H144.945V124.261H145.615V124.924ZM145.615 123.57H144.945V122.908H145.615V123.57ZM145.615 122.217H144.945V121.555H145.615V122.217ZM145.615 120.892H144.945V120.23H145.615V120.892Z" fill="black"/>
<path d="M143.433 133.073H142.763V132.411H143.433V133.073ZM143.433 131.72H142.763V131.057H143.433V131.72ZM143.433 130.395H142.763V129.733H143.433V130.395ZM143.433 129.042H142.763V128.379H143.433V129.042ZM143.433 127.688H142.763V127.026H143.433V127.688ZM143.433 126.364H142.763V125.701H143.433V126.364ZM143.433 125.01H142.763V124.348H143.433V125.01ZM143.433 123.686H142.763V123.023H143.433V123.686ZM143.433 122.332H142.763V121.67H143.433V122.332ZM143.433 120.979H142.763V120.317H143.433V120.979Z" fill="black"/>
<path d="M141.222 130.079H140.552V129.416H141.222V130.079ZM141.222 128.754H140.552V128.092H141.222V128.754ZM141.222 127.401H140.552V126.738H141.222V127.401ZM141.222 126.047H140.552V125.385H141.222V126.047ZM141.222 124.723H140.552V124.06H141.222V124.723ZM141.222 123.369H140.552V122.707H141.222V123.369ZM141.222 122.016H140.552V121.353H141.222V122.016ZM141.222 120.691H140.552V120.029H141.222V120.691Z" fill="black"/>
<path d="M138.982 129.243H138.313V128.581H138.982V129.243ZM138.982 127.89H138.313V127.227H138.982V127.89ZM138.982 126.565H138.313V125.903H138.982V126.565ZM138.982 125.212H138.313V124.549H138.982V125.212ZM138.982 123.858H138.313V123.196H138.982V123.858ZM138.982 122.534H138.313V121.871H138.982V122.534ZM138.982 121.18H138.313V120.518H138.982V121.18Z" fill="black"/>
<path d="M136.8 126.594H136.131V125.932H136.8V126.594ZM136.8 125.269H136.131V124.607H136.8V125.269ZM136.8 123.916H136.131V123.254H136.8V123.916ZM136.8 122.591H136.131V121.9H136.8V122.591ZM136.8 121.238H136.131V120.576H136.8V121.238Z" fill="black"/>
<path d="M134.589 120.576H133.92V121.238H134.589V120.576Z" fill="black"/>
<path d="M132.408 122.678H131.738V122.016H132.408V122.678ZM132.408 121.353H131.738V120.691H132.408V121.353ZM132.408 120H131.738V119.971L132.408 120Z" fill="black"/>
<path d="M130.197 124.953H129.527V124.29H130.197V124.953ZM130.197 123.599H129.527V122.937H130.197V123.599ZM130.197 122.275H129.527V121.612H130.197V122.275ZM130.197 120.921H129.527V120.259H130.197V120.921Z" fill="black"/>
<path d="M128.015 128.955H127.345V128.293H128.015V128.955ZM128.015 127.602H127.345V126.939H128.015V127.602ZM128.015 126.248H127.345V125.586H128.015V126.248ZM128.015 124.924H127.345V124.261H128.015V124.924ZM128.015 123.57H127.345V122.908H128.015V123.57ZM128.015 122.217H127.345V121.555H128.015V122.217ZM128.015 120.892H127.345V120.23H128.015V120.892Z" fill="black"/>
<path d="M125.833 133.303H125.163V132.641H125.833V133.303ZM125.833 131.979H125.163V131.317H125.833V131.979ZM125.833 130.625H125.163V129.963H125.833V130.625ZM125.833 129.272H125.163V128.61H125.833V129.272ZM125.833 127.947H125.163V127.285H125.833V127.947ZM125.833 126.594H125.163V125.932H125.833V126.594ZM125.833 125.241H125.163V124.578H125.833V125.241ZM125.833 123.916H125.163V123.254H125.833V123.916ZM125.833 122.563H125.163V121.9H125.833V122.563ZM125.833 121.238H125.163V120.576H125.833V121.238Z" fill="black"/>
<path d="M123.622 121.555H122.953V120.893H123.622V121.555ZM123.622 120.23H122.953V120H123.622V120.23Z" fill="black"/>
<path d="M121.44 123.455H120.771V122.764H121.44V123.455ZM121.44 122.102H120.771V121.44H121.44V122.102ZM121.44 120.748H120.771V120.086H121.44V120.748Z" fill="black"/>
<path d="M119.229 127.285H118.56V126.623H119.229V127.285ZM119.229 125.932H118.56V125.27H119.229V125.932ZM119.229 124.607H118.56V123.916H119.229V124.607ZM119.229 123.254H118.56V122.592H119.229V123.254ZM119.229 121.901H118.56V121.238H119.229V121.901ZM119.229 120.576H118.56V119.971H119.229V120.576Z" fill="black"/>
<path d="M117.048 136.01H116.378V135.348H117.048V136.01ZM117.048 134.686H116.378V133.995H117.048V134.686ZM117.048 133.332H116.378V132.67H117.048V133.332ZM117.048 131.979H116.378V131.317H117.048V131.979ZM117.048 130.654H116.378V129.992H117.048V130.654ZM117.048 129.301H116.378V128.639H117.048V129.301ZM117.048 127.976H116.378V127.314H117.048V127.976ZM117.048 126.623H116.378V125.96H117.048V126.623ZM117.048 125.269H116.378V124.607H117.048V125.269ZM117.048 123.945H116.378V123.282H117.048V123.945ZM117.048 122.591H116.378V121.929H117.048V122.591ZM117.048 121.238H116.378V120.576H117.048V121.238Z" fill="black"/>
<path d="M114.837 130.136H114.167V129.474H114.837V130.136ZM114.837 128.811H114.167V128.149H114.837V128.811ZM114.837 127.458H114.167V126.796H114.837V127.458ZM114.837 126.105H114.167V125.442H114.837V126.105ZM114.837 124.78H114.167V124.118H114.837V124.78ZM114.837 123.426H114.167V122.764H114.837V123.426ZM114.837 122.102H114.167V121.44H114.837V122.102ZM114.837 120.748H114.167V120.086H114.837V120.748Z" fill="black"/>
<path d="M112.655 134.225H111.985V133.563H112.655V134.225ZM112.655 132.872H111.985V132.209H112.655V132.872ZM112.655 131.518H111.985V130.856H112.655V131.518ZM112.655 130.194H111.985V129.531H112.655V130.194ZM112.655 128.84H111.985V128.178H112.655V128.84ZM112.655 127.487H111.985V126.825H112.655V127.487ZM112.655 126.162H111.985V125.5H112.655V126.162ZM112.655 124.809H111.985V124.147H112.655V124.809ZM112.655 123.484H111.985V122.822H112.655V123.484ZM112.655 122.131H111.985V121.469H112.655V122.131ZM112.655 120.778H111.985V120.115H112.655V120.778Z" fill="black"/>
<path d="M110.415 142H109.745V141.338H110.415V142ZM110.415 140.647H109.745V139.984H110.415V140.647ZM110.415 139.322H109.745V138.66H110.415V139.322ZM110.415 137.969H109.745V137.306H110.415V137.969ZM110.415 136.615H109.745V135.953H110.415V136.615ZM110.415 135.291H109.745V134.628H110.415V135.291ZM110.415 133.937H109.745V133.275H110.415V133.937ZM110.415 132.613H109.745V131.95H110.415V132.613ZM110.415 131.259H109.745V130.597H110.415V131.259ZM110.415 129.906H109.745V129.243H110.415V129.906ZM110.415 128.581H109.745V127.919H110.415V128.581ZM110.415 127.228H109.745V126.565H110.415V127.228ZM110.415 125.874H109.745V125.212H110.415V125.874ZM110.415 124.55H109.745V123.887H110.415V124.55ZM110.415 123.196H109.745V122.534H110.415V123.196ZM110.415 121.843H109.745V121.181H110.415V121.843ZM110.415 120.518H109.745V120H110.415V120.518Z" fill="black"/>
<path d="M108.204 139.783H107.534V139.12H108.204V139.783ZM108.204 138.429H107.534V137.767H108.204V138.429ZM108.204 137.105H107.534V136.442H108.204V137.105ZM108.204 135.751H107.534V135.089H108.204V135.751ZM108.204 134.427H107.534V133.764H108.204V134.427ZM108.204 133.073H107.534V132.411H108.204V133.073ZM108.204 131.72H107.534V131.057H108.204V131.72ZM108.204 130.395H107.534V129.733H108.204V130.395ZM108.204 129.042H107.534V128.379H108.204V129.042ZM108.204 127.688H107.534V127.026H108.204V127.688ZM108.204 126.364H107.534V125.701H108.204V126.364ZM108.204 125.01H107.534V124.348H108.204V125.01ZM108.204 123.686H107.534V123.023H108.204V123.686ZM108.204 122.332H107.534V121.67H108.204V122.332ZM108.204 120.979H107.534V120.317H108.204V120.979Z" fill="black"/>
<path d="M106.022 135.78H105.353V135.117H106.022V135.78ZM106.022 134.455H105.353V133.793H106.022V134.455ZM106.022 133.102H105.353V132.439H106.022V133.102ZM106.022 131.777H105.353V131.115H106.022V131.777ZM106.022 130.424H105.353V129.761H106.022V130.424ZM106.022 129.07H105.353V128.408H106.022V129.07ZM106.022 127.746H105.353V127.083H106.022V127.746ZM106.022 126.392H105.353V125.73H106.022V126.392ZM106.022 125.039H105.353V124.377H106.022V125.039ZM106.022 123.714H105.353V123.052H106.022V123.714ZM106.022 122.361H105.353V121.699H106.022V122.361ZM106.022 121.036H105.353V120.374H106.022V121.036Z" fill="black"/>
<path d="M103.84 129.762H103.171V129.099H103.84V129.762ZM103.84 128.437H103.171V127.775H103.84V128.437ZM103.84 127.084H103.171V126.421H103.84V127.084ZM103.84 125.73H103.171V125.068H103.84V125.73ZM103.84 124.406H103.171V123.743H103.84V124.406ZM103.84 123.052H103.171V122.39H103.84V123.052ZM103.84 121.728H103.171V121.037H103.84V121.728ZM103.84 120.374H103.171V119.971H103.84V120.374Z" fill="black"/>
<path d="M101.63 122.851H100.96V122.188H101.63V122.851ZM101.63 121.497H100.96V120.835H101.63V121.497ZM101.63 120.144H100.96V119.971H101.63V120.144Z" fill="black"/>
<path d="M99.4478 125.097H98.749V124.434H99.4186V125.097H99.4478ZM99.4478 123.772H98.749V123.11H99.4186V123.772H99.4478ZM99.4478 122.419H98.749V121.756H99.4186V122.419H99.4478ZM99.4478 121.065H98.749V120.403H99.4186V121.065H99.4478Z" fill="black"/>
<path d="M97.2369 127.89H96.5673V127.227H97.2369V127.89ZM97.2369 126.536H96.5673V125.874H97.2369V126.536ZM97.2369 125.212H96.5673V124.549H97.2369V125.212ZM97.2369 123.858H96.5673V123.196H97.2369V123.858ZM97.2369 122.505H96.5673V121.843H97.2369V122.505ZM97.2369 121.18H96.5673V120.518H97.2369V121.18Z" fill="black"/>
<path d="M95.055 131.346H94.3854V130.683H95.055V131.346ZM95.055 130.021H94.3854V129.359H95.055V130.021ZM95.055 128.668H94.3854V128.005H95.055V128.668ZM95.055 127.314H94.3854V126.652H95.055V127.314ZM95.055 125.99H94.3854V125.327H95.055V125.99ZM95.055 124.636H94.3854V123.974H95.055V124.636ZM95.055 123.283H94.3854V122.62H95.055V123.283ZM95.055 121.958H94.3854V121.296H95.055V121.958ZM95.055 120.605H94.3854V119.971H95.055V120.605Z" fill="black"/>
<path d="M92.8442 133.448H92.1746V132.785H92.8442V133.448ZM92.8442 132.123H92.1746V131.461H92.8442V132.123ZM92.8442 130.77H92.1746V130.107H92.8442V130.77ZM92.8442 129.445H92.1746V128.783H92.8442V129.445ZM92.8442 128.092H92.1746V127.429H92.8442V128.092ZM92.8442 126.738H92.1746V126.076H92.8442V126.738ZM92.8442 125.414H92.1746V124.751H92.8442V125.414ZM92.8442 124.06H92.1746V123.398H92.8442V124.06ZM92.8442 122.707H92.1746V122.044H92.8442V122.707ZM92.8442 121.382H92.1746V120.72H92.8442V121.382ZM92.8442 120.029H92.1746V119.971H92.8442V120.029Z" fill="black"/>
<path d="M90.6623 137.681H89.9927V137.018H90.6623V137.681ZM90.6623 136.327H89.9927V135.665H90.6623V136.327ZM90.6623 135.003H89.9927V134.34H90.6623V135.003ZM90.6623 133.649H89.9927V132.987H90.6623V133.649ZM90.6623 132.296H89.9927V131.634H90.6623V132.296ZM90.6623 130.971H89.9927V130.309H90.6623V130.971ZM90.6623 129.618H89.9927V128.955H90.6623V129.618ZM90.6623 128.264H89.9927V127.602H90.6623V128.264ZM90.6623 126.94H89.9927V126.277H90.6623V126.94ZM90.6623 125.586H89.9927V124.924H90.6623V125.586ZM90.6623 124.262H89.9927V123.599H90.6623V124.262ZM90.6623 122.908H89.9927V122.246H90.6623V122.908ZM90.6623 121.555H89.9927V120.893H90.6623V121.555ZM90.6623 120.23H89.9927V120H90.6623V120.23Z" fill="black"/>
<path d="M88.4805 134.225H87.8109V133.563H88.4805V134.225ZM88.4805 132.872H87.8109V132.209H88.4805V132.872ZM88.4805 131.518H87.8109V130.856H88.4805V131.518ZM88.4805 130.194H87.8109V129.531H88.4805V130.194ZM88.4805 128.84H87.8109V128.178H88.4805V128.84ZM88.4805 127.487H87.8109V126.825H88.4805V127.487ZM88.4805 126.162H87.8109V125.5H88.4805V126.162ZM88.4805 124.809H87.8109V124.147H88.4805V124.809ZM88.4805 123.484H87.8109V122.822H88.4805V123.484ZM88.4805 122.131H87.8109V121.469H88.4805V122.131ZM88.4805 120.778H87.8109V120.115H88.4805V120.778Z" fill="black"/>
<path d="M86.2695 130.827H85.5999V130.165H86.2695V130.827ZM86.2695 129.474H85.5999V128.812H86.2695V129.474ZM86.2695 128.149H85.5999V127.487H86.2695V128.149ZM86.2695 126.796H85.5999V126.133H86.2695V126.796ZM86.2695 125.442H85.5999V124.78H86.2695V125.442ZM86.2695 124.118H85.5999V123.455H86.2695V124.118ZM86.2695 122.764H85.5999V122.102H86.2695V122.764ZM86.2695 121.411H85.5999V120.749H86.2695V121.411ZM86.2695 120.086H85.5999V119.971H86.2695V120.086Z" fill="black"/>
<path d="M84.0295 127.516H83.3599V126.853H84.0295V127.516ZM84.0295 126.162H83.3599V125.5H84.0295V126.162ZM84.0295 124.838H83.3599V124.175H84.0295V124.838ZM84.0295 123.484H83.3599V122.822H84.0295V123.484ZM84.0295 122.131H83.3599V121.468H84.0295V122.131ZM84.0295 120.806H83.3599V120.144H84.0295V120.806Z" fill="black"/>
<path d="M81.8477 121.872H81.1781V121.209H81.8477V121.872ZM81.8477 120.518H81.1781V119.971H81.8477V120.518Z" fill="black"/>
<path d="M79.6369 125.327H78.9673V124.665H79.6369V125.327ZM79.6369 123.974H78.9673V123.312H79.6369V123.974ZM79.6369 122.649H78.9673V121.987H79.6369V122.649ZM79.6369 121.296H78.9673V120.634H79.6369V121.296Z" fill="black"/>
<path d="M77.455 128.12H76.7853V127.458H77.455V128.12ZM77.455 126.796H76.7853V126.134H77.455V126.796ZM77.455 125.442H76.7853V124.78H77.455V125.442ZM77.455 124.089H76.7853V123.427H77.455V124.089ZM77.455 122.764H76.7853V122.102H77.455V122.764ZM77.455 121.411H76.7853V120.749H77.455V121.411ZM77.455 120.086H76.7853V120H77.455V120.086Z" fill="black"/>
<path d="M75.244 131H74.5743V130.338H75.244V131ZM75.244 129.675H74.5743V129.013H75.244V129.675ZM75.244 128.322H74.5743V127.66H75.244V128.322ZM75.244 126.997H74.5743V126.335H75.244V126.997ZM75.244 125.644H74.5743V124.982H75.244V125.644ZM75.244 124.291H74.5743V123.628H75.244V124.291ZM75.244 122.966H74.5743V122.304H75.244V122.966ZM75.244 121.613H74.5743V120.95H75.244V121.613ZM75.244 120.259H74.5743V119.971H75.244V120.259Z" fill="black"/>
<path d="M73.0624 134.772H72.3928V134.11H73.0624V134.772ZM73.0624 133.419H72.3928V132.757H73.0624V133.419ZM73.0624 132.094H72.3928V131.403H73.0624V132.094ZM73.0624 130.741H72.3928V130.079H73.0624V130.741ZM73.0624 129.416H72.3928V128.754H73.0624V129.416ZM73.0624 128.063H72.3928V127.401H73.0624V128.063ZM73.0624 126.709H72.3928V126.047H73.0624V126.709ZM73.0624 125.385H72.3928V124.722H73.0624V125.385ZM73.0624 124.031H72.3928V123.369H73.0624V124.031ZM73.0624 122.678H72.3928V122.016H73.0624V122.678ZM73.0624 121.353H72.3928V120.691H73.0624V121.353Z" fill="black"/>
<path d="M70.8805 140.906H70.2109V140.243H70.8805V140.906ZM70.8805 139.581H70.2109V138.89H70.8805V139.581ZM70.8805 138.228H70.2109V137.565H70.8805V138.228ZM70.8805 136.874H70.2109V136.212H70.8805V136.874ZM70.8805 135.55H70.2109V134.859H70.8805V135.55ZM70.8805 134.196H70.2109V133.534H70.8805V134.196ZM70.8805 132.872H70.2109V132.209H70.8805V132.872ZM70.8805 131.518H70.2109V130.856H70.8805V131.518ZM70.8805 130.165H70.2109V129.503H70.8805V130.165ZM70.8805 128.84H70.2109V128.178H70.8805V128.84ZM70.8805 127.487H70.2109V126.825H70.8805V127.487ZM70.8805 126.134H70.2109V125.471H70.8805V126.134ZM70.8805 124.809H70.2109V124.147H70.8805V124.809ZM70.8805 123.456H70.2109V122.793H70.8805V123.456ZM70.8805 122.131H70.2109V121.469H70.8805V122.131ZM70.8805 120.778H70.2109V120.115H70.8805V120.778Z" fill="black"/>
<path d="M68.6696 138.919H68V138.257H68.6696V138.919ZM68.6696 137.565H68V136.903H68.6696V137.565ZM68.6696 136.212H68V135.55H68.6696V136.212ZM68.6696 134.887H68V134.225H68.6696V134.887ZM68.6696 133.534H68V132.872H68.6696V133.534ZM68.6696 132.209H68V131.547H68.6696V132.209ZM68.6696 130.856H68V130.194H68.6696V130.856ZM68.6696 129.503H68V128.84H68.6696V129.503ZM68.6696 128.178H68V127.516H68.6696V128.178ZM68.6696 126.825H68V126.162H68.6696V126.825ZM68.6696 125.471H68V124.809H68.6696V125.471ZM68.6696 124.147H68V123.484H68.6696V124.147ZM68.6696 122.793H68V122.131H68.6696V122.793ZM68.6696 121.44H68V120.777H68.6696V121.44ZM68.6696 120.115H68V120H68.6696V120.115Z" fill="black"/>
</g>
<path d="M120.167 112.142L116.5 109.206C113.882 107.109 110 108.973 110 112.328V127.672C110 131.027 113.882 132.891 116.5 130.794L120.167 127.858L126.09 123.125C128.093 121.524 128.093 118.476 126.09 116.875L120.167 112.142ZM120.167 112.142L116.5 109.206C113.882 107.109 110 108.973 110 112.328V127.672C110 131.027 113.882 132.891 116.5 130.794L120.167 127.858L126.09 123.125C128.093 121.524 128.093 118.476 126.09 116.875L120.167 112.142ZM120.167 112.142L116.5 109.206C113.882 107.109 110 108.973 110 112.328V127.672C110 131.027 113.882 132.891 116.5 130.794L120.167 127.858L126.09 123.125C128.093 121.524 128.093 118.476 126.09 116.875L120.167 112.142Z" fill="black"/>
<defs>
<filter id="filter0_d_52_13582" x="0" y="0" width="240" height="240" filterUnits="userSpaceOnUse" color-interpolation-filters="sRGB">
<feFlood flood-opacity="0" result="BackgroundImageFix"/>
<feColorMatrix in="SourceAlpha" type="matrix" values="0 0 0 0 0 0 0 0 0 0 0 0 0 0 0 0 0 0 127 0" result="hardAlpha"/>
<feOffset/>
<feGaussianBlur stdDeviation="12.5"/>
<feComposite in2="hardAlpha" operator="out"/>
<feColorMatrix type="matrix" values="0 0 0 0 0 0 0 0 0 0 0 0 0 0 0 0 0 0 0.1 0"/>
<feBlend mode="normal" in2="BackgroundImageFix" result="effect1_dropShadow_52_13582"/>
<feBlend mode="normal" in="SourceGraphic" in2="effect1_dropShadow_52_13582" result="shape"/>
</filter>
</defs>
</svg>
