<svg width="300" height="700" viewBox="0 0 300 700" fill="none" xmlns="http://www.w3.org/2000/svg">
<mask id="mask0_52_13312" style="mask-type:alpha" maskUnits="userSpaceOnUse" x="0" y="0" width="300" height="700">
<path d="M0 0H300V700H150C67.1573 700 0 632.843 0 550V0Z" fill="#E3D5C5"/>
</mask>
<g mask="url(#mask0_52_13312)">
<g opacity="0.5">
<path d="M375.301 410.321C379.696 362.37 362.867 312.596 329.956 277.394C297.184 242.326 251.86 224.216 208.776 205.2C160.968 184.047 114.352 158.606 77.7113 120.723C58.7607 101.185 42.6464 78.5956 31.4909 53.7425C19.5245 27.1652 14.757 -1.573 8.93591 -29.9277C3.46157 -56.5729 -4.2307 -82.5028 -15.9535 -107.149C-27.1824 -130.691 -41.4838 -152.839 -58.4227 -172.65C-62.4253 -177.343 -66.6414 -181.867 -70.9387 -186.361C-71.4178 -186.921 -72.184 -185.999 -71.6238 -185.469C-33.9216 -146.687 -7.86739 -97.7927 4.48125 -45.1953C10.9064 -17.7029 14.5684 10.5197 23.8673 37.3334C32.2814 61.7156 45.448 84.2765 61.7386 104.324C93.8405 143.858 136.905 172.152 182.282 194.189C225.086 214.96 271.5 230.011 309.259 259.868C348.971 291.31 373.367 339.431 374.942 390.167C375.15 396.792 374.923 403.483 374.284 410.049C374.195 410.815 375.264 410.977 375.301 410.321Z" fill="white"/>
<path d="M380.354 405.545C385.081 358.758 368.85 309.868 336.779 275.462C303.749 239.937 257.541 222.424 213.867 203.806C165.86 183.369 118.906 158.509 82.5303 120.347C64.4125 101.331 49.0795 79.3754 38.7568 55.0453C27.8222 29.2857 23.7109 1.59379 18.8996 -25.7516C14.0588 -53.1781 7.13267 -80.0293 -4.82613 -105.324C-15.7969 -128.409 -30.5623 -149.562 -47.9063 -168.216C-52.2921 -172.953 -56.8914 -177.521 -61.5424 -181.978C-62.1026 -182.509 -62.7877 -181.617 -62.2275 -181.086C-42.9309 -162.867 -26.0212 -142.128 -13.0828 -118.933C0.887682 -93.9111 9.89935 -66.6256 15.4109 -38.6172C20.5387 -12.6719 23.5002 13.8781 31.6639 39.0856C39.4147 63.1585 52.0286 85.4616 67.7369 105.17C98.8659 144.049 141.223 171.407 185.811 192.538C229.927 213.382 278.235 227.836 316.922 258.732C360.629 293.584 384.887 349.65 379.234 405.494C379.168 406.069 380.266 406.311 380.354 405.545Z" fill="white"/>
<path d="M385.357 400.879C390.379 354.902 374.605 306.764 343.042 272.999C309.681 237.319 262.729 220.536 218.606 202.448C170.098 182.652 122.443 158.14 86.4287 119.203C68.8267 100.092 54.2822 78.0324 44.9986 53.7831C35.0071 27.5885 32.2516 -0.413242 27.9266 -27.9356C23.764 -54.5075 17.2654 -80.6882 5.41743 -104.922C-5.50901 -127.38 -20.812 -147.236 -38.561 -164.733C-43.0204 -169.169 -47.6639 -173.353 -52.3885 -177.508C-52.9192 -177.957 -53.6338 -177.147 -53.0736 -176.616C-33.6741 -159.628 -16.1236 -140.406 -2.96441 -118.118C11.308 -94.0321 19.8479 -67.0339 24.7993 -39.5559C29.4849 -13.8169 31.5105 12.4312 38.5025 37.698C45.1332 61.7196 56.708 83.9418 71.7899 103.695C102.403 143.679 145.416 171.074 190.645 191.696C234.798 211.884 283.135 225.409 321.992 255.51C365.839 289.485 390.251 345.219 384.068 400.614C384.171 401.402 385.239 401.564 385.357 400.879Z" fill="white"/>
<path d="M390.33 396.132C395.883 350.604 380.006 302.687 348.266 269.446C314.308 233.891 266.649 218.192 222.025 200.745C174.284 182.047 127.285 158.58 92.2434 120.299C74.892 101.372 60.6716 79.1951 52.2871 54.8939C43.1651 28.5665 41.3897 0.483462 37.7206 -27.0023C33.8373 -56.3375 26.7411 -85.4215 12.0925 -111.298C-1.61255 -135.591 -21.396 -155.652 -42.9916 -173.126C-43.5223 -173.575 -44.318 -172.735 -43.6767 -172.234C-23.9533 -156.373 -5.8062 -138.287 7.66236 -116.662C22.5021 -92.7822 30.7253 -65.3934 35.0798 -37.7899C39.1096 -12.0876 40.4793 14.1238 46.6829 39.494C52.6356 63.6704 63.8347 86.1212 78.865 105.985C108.808 145.387 151.326 171.677 196.061 191.194C240.494 210.637 289.163 223.308 328.255 253.047C371.807 286.212 395.903 341.327 389.232 395.889C389.144 396.655 390.242 396.898 390.33 396.132Z" fill="white"/>
<path d="M395.333 391.466C401.467 345.268 384.779 296.636 351.529 264.036C317.1 230.213 269.942 215.892 225.864 199.441C177.842 181.486 130.446 158.44 96.0895 119.267C79.1359 99.9203 65.7187 77.1752 58.6825 52.2916C51.4324 26.568 50.5932 -0.203593 47.5801 -26.643C44.3011 -55.8311 37.5292 -85.0331 22.2101 -110.482C8.17367 -133.92 -12.1695 -152.492 -33.8385 -168.654C-34.4502 -169.074 -35.1353 -168.183 -34.5236 -167.763C-14.8888 -153.155 3.51577 -136.63 17.2788 -116.214C32.7226 -93.1968 40.8204 -66.4049 44.8358 -39.2287C48.7035 -13.4674 49.0931 12.8253 54.2135 38.4979C59.0166 62.5419 68.8745 84.8383 83.0869 104.724C111.593 144.466 153.588 170.579 197.844 189.536C242.372 208.486 291.144 219.925 330.995 248.471C376.021 280.64 401.406 336.02 394.072 391.282C394.146 391.99 395.215 392.152 395.333 391.466Z" fill="white"/>
<path d="M400.306 386.719C406.89 341 390.18 292.56 356.812 260.645C321.793 227.22 274.12 214.004 229.621 198.165C181.954 181.183 134.993 159.08 101.535 119.855C85.2451 100.818 72.8228 78.5366 66.7816 54.117C60.1945 27.6931 60.35 0.375967 57.8158 -26.5131C55.075 -54.9792 48.7232 -83.7833 33.2643 -108.355C18.83 -131.373 -2.2498 -148.943 -24.4123 -164.191C-25.024 -164.611 -25.7091 -163.719 -25.0974 -163.3C-5.0207 -149.495 14.0395 -133.943 28.2003 -113.947C44.0935 -91.4607 51.8891 -64.7424 55.4108 -37.6619C58.7922 -11.7237 58.4449 14.5619 62.7768 40.3378C66.7471 63.8589 75.4775 85.8313 89.0561 105.489C116.67 145.555 158.82 171.336 203.186 189.335C247.663 207.386 296.324 217.765 336.426 245.485C359.089 261.102 377.045 282.195 388.076 307.461C398.899 332.159 403.092 359.822 399.237 386.557C399.119 387.243 400.217 387.486 400.306 386.719Z" fill="white"/>
<path d="M405.308 382.053C412.298 337.196 396.045 289.508 363.105 258.263C328.285 225.133 280.663 212.816 236.305 198.119C188.778 182.279 141.523 161.385 108.426 122.396C91.4281 102.422 79.3813 78.9034 74.3936 53.0908C69.3542 27.3887 70.2468 1.08831 68.2287 -24.8872C65.9962 -53.7218 59.7696 -82.9386 43.3896 -107.267C28.5429 -129.4 7.03599 -145.622 -15.1778 -159.75C-15.7895 -160.17 -16.4746 -159.278 -15.8629 -158.858C4.18405 -146.144 23.7303 -131.779 38.2226 -112.638C55.0073 -90.476 62.8619 -63.5955 66.0078 -36.2865C68.9691 -10.7461 67.9805 15.0385 71.2144 40.5715C74.3596 64.8518 82.3458 87.5539 96.0278 108C123.016 148.11 165.305 173.015 209.642 189.923C254.089 206.883 302.639 216.201 342.644 243.405C364.829 258.462 382.549 278.907 393.314 303.443C404.16 327.95 408.264 355.369 404.129 381.84C404.122 382.577 405.19 382.739 405.308 382.053Z" fill="white"/>
<path d="M410.281 377.307C417.691 332.847 401.415 285.35 368.277 254.821C333.568 222.752 286.521 211.511 242.606 198.029C193.9 182.986 145.237 162.512 112.523 121.548C96.306 101.198 86.0573 77.5756 82.3812 51.8364C78.6977 25.8245 80.4082 -0.498239 78.6038 -26.6432C76.5703 -55.1831 69.9754 -83.8987 52.6671 -107.247C37.3418 -127.921 15.9606 -142.536 -5.97291 -155.39C-6.58464 -155.809 -7.10021 -154.704 -6.43692 -154.395C14.0815 -142.403 34.1803 -128.79 49.1514 -110.098C66.0169 -88.9751 73.7387 -62.9642 76.6191 -36.3846C79.4477 -10.7041 77.7223 15.0733 80.0056 40.7686C82.2148 64.747 88.6757 87.5453 101.621 107.984C127.319 148.839 169.771 173.685 214.137 189.665C258.724 205.748 307.214 213.894 347.492 240.081C369.883 254.695 387.839 274.779 398.766 299.257C409.523 323.52 413.568 350.777 409.153 376.983C409.095 377.83 410.193 378.073 410.281 377.307Z" fill="white"/>
<path d="M415.284 372.641C423.224 328.631 406.846 281.355 373.538 251.622C338.158 219.98 290.463 209.985 246.217 197.358C198.174 183.633 149.998 163.992 118.596 123.101C102.725 102.442 93.7806 78.6203 91.0845 52.7998C88.359 26.8982 90.8139 0.855285 89.3706 -25.054C87.7794 -53.3877 81.2139 -82.0222 63.4563 -104.84C47.6521 -125.064 25.5562 -138.868 3.29137 -150.867C2.62807 -151.176 2.16408 -150.182 2.82737 -149.872C23.7362 -138.573 44.4095 -125.903 59.8079 -107.551C77.1229 -86.9585 84.9478 -61.1687 87.4965 -34.7439C89.9935 -9.21803 87.6638 16.4121 89.0702 41.9677C90.4024 65.8063 95.6401 88.7744 107.937 109.449C132.102 150.128 173.972 174.634 217.601 189.598C263.02 205.194 312.615 211.836 353.771 238.163C376.124 252.424 393.992 272.265 404.617 296.669C414.976 320.343 418.704 346.981 414.023 372.457C414.097 373.165 415.166 373.326 415.284 372.641Z" fill="white"/>
<path d="M420.286 367.975C428.904 323.81 411.921 276.387 377.788 247.413C341.812 216.906 294.133 208.466 249.856 196.767C201.954 184.185 153.844 164.978 123.923 123.365C108.554 102.065 101.473 77.5645 99.9709 51.4931C98.5646 25.9375 101.55 0.344039 100.225 -25.241C98.8032 -53.361 91.9504 -81.5239 73.5077 -103.45C57.291 -122.79 34.9007 -135.385 12.5771 -146.537C11.9138 -146.846 11.4498 -145.851 12.1131 -145.542C33.0511 -135.171 53.9158 -123.489 69.8078 -106.05C87.6973 -86.4012 95.92 -61.0315 98.4318 -34.9604C103.057 13.5638 89.65 64.2441 113.883 109.396C136.104 150.782 177.922 175.4 221.255 189.552C266.35 204.257 315.385 209.36 356.872 233.822C379.918 247.464 398.706 267.061 409.744 291.59C420.376 315.257 424.163 342.057 419.129 367.57C419.07 368.418 420.168 368.66 420.286 367.975Z" fill="white"/>
<path d="M425.34 363.198C434.437 319.593 417.462 272.443 383.049 244.213C346.654 214.318 298.849 207.3 254.47 196.832C206.848 185.525 158.51 166.952 129.937 124.756C115.208 102.947 109.698 77.9673 109.234 51.9767C108.779 26.2588 112.472 0.591404 111.168 -25.1853C109.835 -53.0621 102.533 -80.6943 83.4861 -101.758C66.7465 -120.265 44.2753 -131.821 21.9225 -142.044C21.2592 -142.354 20.7952 -141.359 21.4585 -141.049C42.0426 -131.651 62.6564 -121.163 78.8944 -105.043C97.8817 -86.161 106.885 -61.1673 109.375 -34.9046C114.148 14.0248 97.9041 65.7375 121.098 111.818C141.521 152.299 181.909 176.518 223.879 189.699C269.755 204.028 319.585 207.28 362.096 231.278C385.209 244.345 404.174 263.419 415.204 287.675C425.828 311.069 429.475 337.737 424.242 362.955C424.073 363.751 425.141 363.913 425.34 363.198Z" fill="white"/>
<path d="M430.342 358.533C440.022 315.266 422.833 268.285 388.199 240.962C351.001 211.635 302.725 206.348 257.933 196.765C210.673 186.703 162.091 168.218 135.648 125.064C107.207 78.6902 124.769 25.3045 122.325 -25.2983C120.985 -52.4382 113.381 -79.1345 94.334 -99.1884C77.0049 -117.297 53.9003 -128.073 31.157 -137.603C30.4937 -137.912 30.0592 -136.836 30.693 -136.608C51.2843 -127.947 72.1189 -118.365 88.6883 -103.1C108.14 -85.2127 117.725 -60.8897 120.399 -34.8776C125.326 13.7202 106.975 65.1902 127.347 111.839C145.33 152.932 185.52 177.866 227.085 190.184C273.299 203.931 323.431 205.238 366.708 228.315C390.049 240.748 409.331 259.431 420.523 283.628C431.221 306.72 434.728 333.256 429.134 358.238C429.046 359.005 430.144 359.247 430.342 358.533Z" fill="white"/>
<path d="M435.315 353.785C445.555 311.05 428.263 264.29 393.379 237.792C355.348 208.951 306.549 205.507 261.242 197.029C236.724 192.459 212.345 186.002 190.559 173.554C170.409 162.07 152.698 145.936 141.47 125.424C115.563 77.9437 136.404 23.7318 133.385 -26.9372C131.809 -53.716 123.085 -79.454 103.28 -98.3139C85.6344 -115.023 62.8617 -124.634 40.5535 -133.221C39.8902 -133.53 39.3746 -132.424 40.0894 -132.226C60.4668 -124.405 81.2497 -115.722 98.0915 -101.474C118.228 -84.4785 128.779 -60.7821 131.585 -34.9101C136.984 13.975 116.791 64.9222 134.407 112.574C149.958 154.551 190.568 179.884 231.867 191.473C278.222 204.342 328.302 203.741 371.932 225.771C395.339 237.629 414.827 255.87 425.983 279.714C436.703 302.614 440.04 328.936 434.136 353.572C434.048 354.338 435.116 354.5 435.315 353.785Z" fill="white"/>
<path d="M440.318 349.12C451.169 306.804 433.723 260.376 398.699 234.755C360.196 206.637 311.449 205.101 266.12 197.824C241.293 193.917 216.73 187.711 194.856 175.019C174.507 163.241 156.905 146.149 147.173 124.45C125.511 76.5268 147.804 23.5304 144.697 -26.3721C143.055 -52.5761 133.97 -77.5403 114.135 -95.4717C95.9518 -111.893 72.5971 -120.833 49.8689 -128.808C49.2351 -129.037 48.6901 -128.012 49.4049 -127.813C70.0401 -120.545 91.1028 -112.607 108.394 -98.8896C128.361 -83.1173 139.449 -60.718 142.698 -35.6493C148.936 13.0219 127.799 62.385 141.009 110.539C153.031 154.168 193.361 181.254 235.088 192.504C281.98 205.086 332.62 201.986 377.156 223.228C400.57 234.349 420.235 252.067 431.494 275.689C442.206 298.317 445.485 324.477 439.271 348.767C439.021 349.592 440.119 349.835 440.318 349.12Z" fill="white"/>
<path d="M445.291 344.373C456.88 302.064 438.748 255.518 402.825 230.959C362.93 203.806 313.682 204.931 267.749 198.516C242.989 195.044 218.507 188.808 197.133 175.475C177.123 163.115 160.804 145.006 153.017 122.598C135.923 73.1046 160.376 21.2499 155.588 -29.2344C153.143 -54.8707 142.57 -78.3755 122.154 -94.6266C103.823 -109.434 81.0729 -117.218 58.9419 -124.309C58.2271 -124.507 58.0652 -123.439 58.699 -123.21C79.4814 -116.547 100.662 -109.293 118.373 -96.188C138.369 -81.3442 150.224 -59.8663 153.73 -35.3502C160.742 13.6818 138.168 62.3747 148.696 111.229C158.161 155.146 196.494 183.051 237.992 193.925C284.737 206.102 334.823 200.725 379.794 219.881C403.532 229.875 423.934 246.59 435.833 269.704C447.504 292.442 450.996 319.442 444.223 344.211C444.024 344.926 445.092 345.088 445.291 344.373Z" fill="white"/>
<path d="M450.293 339.707C462.648 297.487 443.831 250.823 407.068 227.487C366.665 201.713 318.022 205.004 272.37 199.864C248.832 197.231 225.707 191.696 205.181 179.431C184.434 167.064 167.908 148.387 160.939 124.948C146.041 74.9301 171.636 23.9447 167.092 -26.6281C164.986 -49.818 156.042 -71.6209 138.426 -87.239C122.852 -101.03 103.123 -109.087 83.5269 -115.265C78.4345 -116.9 73.32 -118.343 68.257 -119.896C67.5422 -120.095 67.3803 -119.026 68.0141 -118.798C88.8332 -112.79 110.131 -106.222 128.152 -93.7802C148.7 -79.6882 161.306 -58.6673 165.034 -34.0482C172.636 15.5953 148.477 64.2223 157.141 113.755C160.919 135.235 171.587 154.208 187.994 168.522C203.56 182.04 222.796 191.011 242.767 195.951C289.306 207.56 338.942 199.685 384.281 217.331C407.805 226.485 428.508 242.264 440.636 264.744C452.823 287.386 456.352 314.739 449.195 339.464C448.996 340.179 450.094 340.422 450.293 339.707Z" fill="white"/>
</g>
</g>
</svg>
