<svg width="315" height="439" viewBox="0 0 315 439" fill="none" xmlns="http://www.w3.org/2000/svg">
<mask id="mask0_31_10926" style="mask-type:alpha" maskUnits="userSpaceOnUse" x="0" y="0" width="315" height="439">
<path d="M0 15C0 6.71572 6.71573 0 15 0H300C308.284 0 315 6.71573 315 15V424C315 432.284 308.284 439 300 439H15C6.71573 439 0 432.284 0 424V15Z" fill="#E3D5C5"/>
</mask>
<g mask="url(#mask0_31_10926)">
<g opacity="0.5">
<path d="M60.4468 489.76C49.3089 448.905 56.2723 403.226 79.3921 367.709C102.411 332.328 138.894 309.715 173.298 286.659C211.467 261.031 247.947 231.87 273.887 193.461C287.311 173.643 297.813 151.616 303.673 128.387C309.973 103.54 309.708 77.9235 310.414 52.4777C311.08 28.5653 313.777 4.93329 320.161 -18.2037C326.286 -40.308 335.285 -61.6752 346.926 -81.4222C349.674 -86.0985 352.634 -90.6607 355.668 -95.2097C355.998 -95.7679 356.802 -95.0871 356.398 -94.5421C329.677 -55.1918 314.589 -8.86416 311.937 38.5745C310.576 63.3659 311.72 88.3672 307.767 113.01C304.208 135.412 296.255 156.964 285.212 176.816C263.456 215.962 230.487 247.05 194.559 273.073C160.665 297.605 122.771 317.736 94.6362 349.367C65.0519 382.668 51.2821 428.072 57.6758 472.251C58.5086 478.02 59.7281 483.78 61.2859 489.369C61.4795 490.019 60.5788 490.322 60.4468 489.76Z" fill="white"/>
<path d="M55.34 486.397C44.0927 446.601 50.6741 401.78 73.1879 367.08C96.3604 331.264 133.7 309.032 168.676 286.231C207.126 261.191 243.989 232.484 269.656 193.872C282.439 174.634 292.361 153.275 297.58 130.627C303.111 106.646 302.438 82.0358 302.423 57.6184C302.422 33.1263 304.315 8.81352 310.804 -14.9211C316.775 -36.5903 326.328 -57.1669 338.496 -75.9737C341.57 -80.7469 344.855 -85.4058 348.201 -89.9769C348.605 -90.522 349.335 -89.8544 348.931 -89.3094C335.005 -70.5809 323.532 -50.0343 315.874 -27.9689C307.601 -4.16328 303.968 20.8444 303.478 45.9431C303.004 69.1963 304.498 92.642 301.283 115.721C298.251 137.753 290.737 158.997 280.147 178.467C259.133 216.896 226.634 247.066 191.251 272.183C156.232 296.979 116.606 316.883 87.8259 349.555C55.3035 386.421 42.8679 438.683 56.3022 486.181C56.4474 486.669 55.5336 487.047 55.34 486.397Z" fill="white"/>
<path d="M50.294 483.121C38.9151 444.072 45.2157 399.971 67.387 365.904C90.823 329.903 128.919 308.19 164.365 285.779C203.347 261.219 240.869 232.704 266.105 193.477C278.427 174.235 287.65 152.907 291.982 130.488C296.63 106.275 294.734 81.6033 294.272 57.107C293.814 33.4587 295.439 9.79204 301.994 -13.0067C308.023 -34.1266 318.24 -53.6621 330.936 -71.5289C334.119 -76.0516 337.501 -80.3854 340.957 -84.7061C341.348 -85.1765 342.091 -84.5836 341.687 -84.0386C327.484 -66.3601 315.224 -47.0303 307.235 -25.7162C298.558 -2.67498 295.29 22.0118 295.203 46.5655C295.081 69.5724 297.34 92.6136 295.148 115.564C293.079 137.381 286.452 158.396 276.411 177.808C256.013 217.117 222.952 247.418 186.936 272.193C151.785 296.427 111.992 315.531 82.943 347.539C50.1654 383.667 37.5452 435.666 51.3703 482.694C51.4014 483.393 50.5007 483.696 50.294 483.121Z" fill="white"/>
<path d="M45.2612 479.77C33.4916 441.191 39.9152 397.266 62.3196 363.626C86.2917 327.642 125.166 306.759 161.143 284.827C199.63 261.335 236.743 233.826 261.237 195.316C273.37 176.272 282.294 154.891 285.84 132.564C289.714 108.369 286.958 83.7772 285.933 59.4129C284.811 33.4141 286.509 7.14174 295.239 -17.5077C303.393 -40.641 317.459 -61.0393 333.489 -79.4742C333.88 -79.9446 334.698 -79.3385 334.219 -78.8067C319.563 -62.0552 306.613 -43.6171 298.255 -22.8301C289.055 0.119105 286.121 25.0957 286.57 49.6668C287.01 72.5417 289.832 95.4508 288.338 118.37C286.88 140.218 280.614 161.373 270.634 180.873C250.728 219.575 217.925 248.844 182.168 272.586C146.661 296.218 106.45 314.632 77.1422 346.364C44.4962 381.745 32.0558 433.16 46.175 479.392C46.3686 480.042 45.4548 480.42 45.2612 479.77Z" fill="white"/>
<path d="M40.216 476.495C27.8398 437.424 34.8563 392.756 58.6669 359.44C83.3118 324.884 121.962 305.271 157.62 284.284C196.462 261.393 233.984 234.188 257.748 195.01C269.473 175.663 277.614 153.914 279.903 131.288C282.249 107.902 278.882 84.5894 277.449 61.2315C275.826 35.4526 277.226 9.12765 286.601 -15.254C295.174 -37.6977 309.952 -56.8923 326.246 -74.2025C326.712 -74.6596 327.441 -73.992 326.976 -73.5349C312.205 -57.8818 298.793 -40.7574 289.996 -20.972C280.14 1.32273 277.224 25.7633 277.902 49.9124C278.491 72.8136 282.174 95.6433 281.665 118.659C281.181 140.216 276.053 161.033 266.785 180.427C248.175 219.203 215.799 248.239 180.371 271.423C144.705 294.642 104.218 312.006 74.0698 342.82C39.9954 377.564 26.4787 429.406 41.2792 476.143C41.3234 476.767 40.4228 477.07 40.216 476.495Z" fill="white"/>
<path d="M35.1834 473.144C22.4909 434.557 29.5558 390.052 53.5732 357.311C78.7895 323.01 118.055 304.275 154.17 283.754C192.854 261.759 230.144 235.437 253.122 196.352C264.319 177.374 271.67 156.179 273.168 134.107C274.833 110.217 270.521 86.5831 268.605 62.909C266.626 37.8377 267.723 11.9215 277.353 -11.7221C286.334 -33.8627 301.903 -52.3018 318.765 -68.896C319.231 -69.3532 319.96 -68.6856 319.495 -68.2285C304.219 -53.2035 290.09 -36.8214 280.884 -17.339C270.558 4.56483 267.892 28.8954 268.983 52.8862C270.02 75.8663 274.34 98.5771 274.53 121.562C274.688 142.539 270.487 162.902 261.733 182.002C243.944 220.923 211.383 249.695 175.713 272.066C139.955 294.499 99.4011 310.927 68.9104 341.064C51.6709 358.054 39.3456 379.067 33.6562 402.634C28.0589 425.679 28.6577 450.276 36.084 472.84C36.2908 473.416 35.377 473.794 35.1834 473.144Z" fill="white"/>
<path d="M30.1377 469.868C17.2259 432.089 24.0099 388.305 47.7595 356.21C72.8485 322.195 112.207 304.247 148.375 284.736C187.112 263.752 224.842 238.432 247.543 199.606C259.21 179.709 266.046 157.499 266.419 134.382C266.854 111.353 262.059 88.7131 259.835 65.9092C257.36 40.5964 258.285 14.3419 268.751 -9.23171C278.224 -30.6695 294.37 -48.006 311.447 -63.638C311.913 -64.0951 312.642 -63.4276 312.177 -62.9704C296.76 -48.8945 282.028 -33.4656 272.404 -14.673C261.257 7.08624 258.565 31.5663 260.016 55.6975C261.356 78.2689 266.155 100.448 267.258 123.054C268.247 144.563 264.802 165.444 256.079 185.243C238.84 224.106 206.024 252.14 170.213 273.562C134.314 295.046 93.6932 310.538 63.2066 340.214C46.2965 356.646 34.0763 377.061 28.5053 399.956C22.8596 422.838 23.4979 447.211 31.1262 469.503C31.2451 470.14 30.3445 470.443 30.1377 469.868Z" fill="white"/>
<path d="M25.1053 466.518C11.8905 429.148 18.7229 385.526 42.7539 354.02C67.9092 320.94 106.934 304.012 142.905 285.621C182.785 265.147 221.798 239.975 243.865 199.498C254.798 179.395 260.062 157.37 259.31 134.517C258.523 111.427 253.017 88.8926 250.582 65.9746C247.979 40.9475 249.3 15.0707 260.719 -7.79589C270.83 -28.0431 287.112 -43.9692 304.142 -58.4544C304.608 -58.9116 305.223 -58.033 304.696 -57.6637C288.76 -44.1413 273.436 -29.2789 263.328 -10.8024C251.952 10.0693 249.242 33.776 250.811 57.2348C252.288 79.9072 257.724 101.967 259.675 124.569C261.428 145.673 259.319 166.404 251.233 186.084C235.224 225.395 202.259 253.402 166.28 274.025C130.126 294.771 89.3778 309.239 58.4999 338.076C41.3435 354.157 28.864 374.295 23.1436 397.164C17.5374 419.821 18.202 444.045 26.0323 466.065C26.2127 466.79 25.2989 467.168 25.1053 466.518Z" fill="white"/>
<path d="M20.0595 463.242C6.45381 426.342 13.4093 382.896 37.7087 352.053C63.5099 319.242 103.287 303.293 139.675 285.592C179.182 266.361 217.901 241.985 238.844 201.771C249.429 181.454 253.533 159.456 251.92 136.682C250.32 113.834 244.212 91.6557 241.5 68.997C238.546 44.2161 239.854 18.414 251.744 -4.06171C262.338 -23.9928 279.363 -39.326 296.81 -53.1215C297.338 -53.4908 297.892 -52.7001 297.364 -52.3308C280.985 -39.3486 265.018 -25.2154 254.489 -6.96725C242.642 13.5136 239.809 37.0446 241.642 60.3188C243.382 82.8065 249.319 104.647 252.008 126.993C254.499 147.842 253.475 168.534 245.987 188.318C231.279 227.242 198.766 254.867 163.27 274.496C126.321 294.948 84.3857 308.283 52.7697 337.376C35.5912 353.144 23.1512 373.058 17.6812 395.817C12.3295 417.903 13.174 441.543 21.1227 462.89C21.1669 463.514 20.2663 463.817 20.0595 463.242Z" fill="white"/>
<path d="M15.0142 459.966C0.797749 423.036 8.25407 379.37 33.3841 349.059C59.8756 317.139 99.8769 302.539 136.432 285.638C175.993 267.417 214.72 243.428 234.27 202.815C244.324 182.018 246.71 159.718 244.024 136.91C241.335 114.563 234.836 92.8549 232.072 70.495C229.004 45.9251 230.632 20.4876 243.252 -1.32055C254.339 -20.5488 271.803 -34.8803 289.431 -47.9509C289.958 -48.3202 290.512 -47.5295 289.985 -47.1602C273.438 -34.9777 257.155 -21.6704 246.058 -4.13825C233.57 15.6134 230.328 38.8414 232.139 61.8037C235.553 104.534 254.912 146.374 240.829 189.182C227.914 228.421 195.462 256.134 160.098 275.016C123.294 294.646 81.6083 306.562 49.4204 334.09C31.5476 349.428 18.2726 369.273 12.4644 392.203C6.87547 414.325 7.69369 438.113 15.9543 459.438C16.1348 460.163 15.221 460.542 15.0142 459.966Z" fill="white"/>
<path d="M9.90658 456.602C-4.63922 420.23 2.85236 376.801 28.3385 347.091C55.2872 315.637 95.6142 302.25 132.447 286.399C171.959 269.325 210.982 245.85 229.275 204.938C238.696 183.799 239.649 161.324 236.076 138.745C232.538 116.403 225.416 94.7387 222.603 72.2162C219.495 47.8704 221.594 22.8238 234.869 1.67009C246.536 -16.9169 264.229 -30.3609 282.024 -42.6318C282.552 -43.0011 283.106 -42.2104 282.578 -41.8411C266.189 -30.5551 249.941 -18.3199 238.343 -1.87728C224.787 17.3783 220.811 40.4001 222.67 63.5249C226.018 106.629 247.992 148.929 234.951 192.382C223.454 230.562 192.18 257.712 157.849 275.544C120.31 294.967 77.6528 305.403 44.5069 332.686C26.4889 347.536 12.9809 366.954 7.13736 389.647C1.51321 411.531 2.43243 435.184 10.8204 456.223C11.0887 456.887 10.188 457.19 9.90658 456.602Z" fill="white"/>
<path d="M4.86096 453.326C-10.1373 417.336 -2.43473 374.022 23.3813 345.064C51.1123 313.978 92.1121 302.018 129.437 286.87C168.827 270.93 208.074 247.494 224.376 206.079C241.916 161.569 218.544 118.021 212.924 73.8242C209.935 50.1154 212.438 25.8332 225.867 5.55383C238.106 -12.7785 256.467 -25.6428 274.706 -37.3734C275.233 -37.7428 275.774 -36.8774 275.26 -36.5828C258.752 -25.9338 242.174 -14.4499 230.158 1.30309C216.048 19.768 211.465 42.2979 213.127 65.2338C216.29 108.074 240.053 149.842 229.542 193.356C220.252 231.693 189.259 259.432 155.147 276.455C117.225 295.426 74.0098 304.223 40.0595 330.825C21.7468 345.161 7.90475 364.289 1.91182 386.956C-3.82228 408.59 -2.80205 432.106 5.86261 452.886C6.05621 453.536 5.14241 453.915 4.86096 453.326Z" fill="white"/>
<path d="M-0.17134 449.975C-15.5736 414.531 -7.74796 371.392 18.4111 343.11C46.9375 312.319 88.6717 301.875 126.612 287.605C147.147 279.898 167.272 270.579 184.236 256.468C199.93 243.442 212.802 226.761 219.389 207.28C234.565 162.2 208.228 118.438 203.095 74.0963C200.365 50.6642 203.985 27.0406 218.253 7.67928C230.98 -9.48885 249.232 -21.2942 267.239 -32.1415C267.766 -32.5108 268.381 -31.6323 267.793 -31.3508C251.341 -21.462 234.67 -10.7646 222.264 4.14927C207.424 21.9466 201.909 44.0814 203.435 66.9163C206.234 110.077 231.511 151.111 223.541 195.072C216.491 233.804 185.196 261.951 151.202 278.302C113.025 296.535 69.563 303.671 35.1466 329.421C16.6887 343.269 2.60046 362.046 -3.41456 384.401C-9.19706 405.872 -8.06267 429.177 0.817144 449.61C1.01075 450.261 0.110108 450.564 -0.17134 449.975Z" fill="white"/>
<path d="M-5.21682 446.7C-21.0846 411.712 -13.0743 368.837 13.3398 341.293C42.3849 311.055 84.3659 302.272 122.509 289.039C143.413 281.86 163.736 272.73 180.739 258.394C196.561 245.082 209.191 227.589 214.301 207.309C225.734 162.494 198.324 120.007 193.385 76.3149C190.801 53.3705 194.852 30.3619 209.287 11.8002C222.524 -5.20118 241.382 -16.5146 259.846 -26.8964C260.36 -27.191 260.989 -26.3872 260.4 -26.1057C243.641 -16.6562 226.614 -6.5606 213.737 7.96241C198.857 24.6745 192.678 45.7681 193.698 67.975C195.737 111.079 221.59 150.597 217.512 194.319C213.772 233.941 182.986 263.565 148.57 279.687C109.884 297.753 65.5555 302.811 30.2337 328.017C11.6569 341.228 -2.66437 359.579 -8.8025 381.758C-14.6203 402.992 -13.4596 426.148 -4.36458 446.234C-4.02157 446.91 -4.93537 447.288 -5.21682 446.7Z" fill="white"/>
<path d="M-10.2499 443.349C-26.7548 408.481 -18.169 365.399 9.18586 338.637C39.5846 309.022 82.4057 302.466 121.204 289.888C142.117 283.095 162.365 273.952 178.836 259.137C194.275 245.373 205.64 227.195 208.957 206.599C216.193 161.123 187.088 119.954 183.515 75.5016C181.713 52.926 187.276 30.9537 202.472 13.7582C216.083 -1.86796 234.595 -12.0872 252.677 -21.6119C253.265 -21.8934 253.569 -20.9927 253.055 -20.6981C236.076 -11.7494 218.842 -2.22939 205.508 11.828C190.46 27.7404 183.478 48.1534 184.19 69.9209C185.614 113.456 212.609 152.174 210.961 196.092C209.479 235.573 180.548 265.6 146.273 281.362C107.652 299.055 63.4543 302.057 27.4375 325.522C8.40779 337.807 -6.70474 355.402 -13.4757 377.238C-20.1063 398.715 -19.0024 422.631 -9.34925 443.046C-9.06779 443.634 -9.96843 443.938 -10.2499 443.349Z" fill="white"/>
<path d="M-15.2951 440.073C-32.4503 405.399 -23.2889 362.11 4.98026 336.279C36.0297 307.78 78.6583 303.193 117.409 291.761C137.39 285.883 156.571 277.553 172.472 263.793C188.548 249.91 200.004 231.209 202.456 209.845C207.71 164.25 177.749 124.009 173.952 79.5173C172.23 59.1123 176.642 38.863 189.51 22.644C200.888 8.31929 216.742 -1.67472 232.768 -10.0211C236.928 -12.2154 241.137 -14.2471 245.284 -16.3667C245.873 -16.6482 246.176 -15.7475 245.662 -15.4529C228.551 -7.06658 211.111 1.87792 197.407 15.4082C181.766 30.754 174.063 50.8861 174.599 72.7767C175.606 116.931 203.963 155.35 204.034 199.571C204.046 218.751 197.708 236.813 185.688 251.717C174.274 265.805 158.987 276.515 142.447 283.846C103.919 301.016 59.7285 301.786 23.162 323.999C4.18902 335.524 -11.3281 352.354 -18.3937 373.677C-25.4856 395.149 -24.3596 419.377 -14.3813 439.695C-14.0999 440.284 -15.0137 440.662 -15.2951 440.073Z" fill="white"/>
</g>
</g>
</svg>
