<svg width="150" height="150" viewBox="0 0 150 150" fill="none" xmlns="http://www.w3.org/2000/svg">
<g filter="url(#filter0_d_31_10995)">
<rect x="25" y="25" width="100" height="100" rx="50" fill="#D6F27A"/>
</g>
<circle cx="75" cy="75" r="37.5" stroke="black"/>
<path d="M113 75C113 82.5157 110.771 89.8626 106.596 96.1117C102.42 102.361 96.4856 107.231 89.542 110.107C82.5984 112.984 74.9578 113.736 67.5866 112.27C60.2153 110.804 53.4443 107.184 48.1299 101.87C42.8155 96.5557 39.1964 89.7847 37.7302 82.4134C36.2639 75.0422 37.0164 67.4016 39.8926 60.458C42.7687 53.5144 47.6393 47.5796 53.8883 43.4042C60.1374 39.2287 67.4843 37 75 37V40.04C68.0856 40.04 61.3264 42.0904 55.5773 45.9318C49.8281 49.7733 45.3472 55.2333 42.7012 61.6214C40.0551 68.0095 39.3628 75.0388 40.7117 81.8204C42.0607 88.6019 45.3903 94.8312 50.2795 99.7205C55.1688 104.61 61.3981 107.939 68.1796 109.288C74.9612 110.637 81.9905 109.945 88.3786 107.299C94.7667 104.653 100.227 100.172 104.068 94.4227C107.91 88.6736 109.96 81.9144 109.96 75H113Z" fill="black"/>
<path d="M91.6475 66.2017C91.105 65.8891 90.4581 66.0051 90.0382 66.4909L82.6625 75.0246L76.0798 65.3311C75.8249 64.9556 75.4313 64.7402 75 64.7402C74.5687 64.7402 74.1751 64.9556 73.9202 65.3311L67.3375 75.0246L59.9618 66.4909C59.542 66.0052 58.8954 65.889 58.3525 66.2017C57.8098 66.5144 57.539 67.1593 57.6788 67.8062L61.7793 86.7837C61.0459 87.1146 60.5292 87.897 60.5292 88.8076C60.5292 90.0165 61.4399 91 62.5594 91H87.4406C88.5601 91 89.4708 90.0165 89.4708 88.8076C89.4708 87.897 88.9541 87.1146 88.2207 86.7837L92.3212 67.8062C92.461 67.1593 92.1903 66.5144 91.6475 66.2017ZM91.0593 67.4881L86.9265 86.6152H83.9851C83.6271 86.6152 83.3371 86.9284 83.3371 87.3149C83.3371 87.7013 83.6271 88.0146 83.9851 88.0146H87.439L87.4412 88.0147L87.4419 88.0146C87.8462 88.0153 88.1749 88.3707 88.1749 88.8075C88.1749 89.2448 87.8455 89.6005 87.4406 89.6005H62.5594C62.1545 89.6005 61.8251 89.2448 61.8251 88.8075C61.8251 88.3702 62.1545 88.0145 62.5594 88.0145H77.0737C77.4316 88.0145 77.7216 87.7012 77.7216 87.3148C77.7216 86.9284 77.4316 86.6151 77.0737 86.6151H63.0735L58.9407 67.4881C58.9354 67.4634 58.9332 67.4532 58.9624 67.4363C58.9921 67.4194 58.9984 67.4272 59.0144 67.4457L66.9237 76.5969C66.9887 76.6722 67.0683 76.7311 67.1568 76.7693C67.2454 76.8075 67.3406 76.8242 67.4358 76.818C67.5309 76.812 67.6236 76.7833 67.7073 76.7341C67.791 76.6849 67.8636 76.6163 67.9199 76.5333L74.9652 66.1587C74.9694 66.1525 74.9781 66.1396 75 66.1396C75.0219 66.1396 75.0306 66.1525 75.0348 66.1587L82.0801 76.5333C82.1364 76.6163 82.209 76.6849 82.2927 76.7341C82.3764 76.7833 82.4692 76.812 82.5643 76.8181C82.6595 76.8242 82.7547 76.8075 82.8432 76.7693C82.9317 76.731 83.0113 76.6722 83.0763 76.5969L90.9857 67.4457C91.0016 67.4272 91.008 67.4194 91.0376 67.4363C91.0668 67.4532 91.0645 67.4634 91.0593 67.4881ZM59.0605 62.6851C59.0605 61.4762 58.1497 60.4927 57.0302 60.4927C55.9108 60.4927 55 61.4762 55 62.6851C55 63.894 55.9108 64.8776 57.0302 64.8776C58.1497 64.8776 59.0605 63.894 59.0605 62.6851ZM57.0302 63.4781C56.6253 63.4781 56.2959 63.1224 56.2959 62.6851C56.2959 62.2479 56.6253 61.8921 57.0302 61.8921C57.4352 61.8921 57.7646 62.2479 57.7646 62.6851C57.7646 63.1224 57.4352 63.4781 57.0302 63.4781ZM92.9698 60.4927C91.8503 60.4927 90.9395 61.4762 90.9395 62.6851C90.9395 63.894 91.8503 64.8776 92.9698 64.8776C94.0892 64.8776 95 63.894 95 62.6851C95 61.4762 94.0892 60.4927 92.9698 60.4927ZM92.9698 63.4781C92.5648 63.4781 92.2354 63.1224 92.2354 62.6851C92.2354 62.2479 92.5648 61.8921 92.9698 61.8921C93.3747 61.8921 93.7041 62.2479 93.7041 62.6851C93.7041 63.1224 93.3747 63.4781 92.9698 63.4781ZM75 63.3848C76.1195 63.3848 77.0302 62.4013 77.0302 61.1924C77.0302 59.9835 76.1195 59 75 59C73.8805 59 72.9698 59.9835 72.9698 61.1924C72.9698 62.4013 73.8805 63.3848 75 63.3848ZM75 60.3994C75.4049 60.3994 75.7343 60.7551 75.7343 61.1924C75.7343 61.6297 75.4049 61.9854 75 61.9854C74.5951 61.9854 74.2657 61.6297 74.2657 61.1924C74.2657 60.7551 74.5951 60.3994 75 60.3994Z" fill="black" stroke="black" stroke-width="0.4"/>
<path d="M81.2204 86.6152H79.8378C79.4798 86.6152 79.1898 86.9285 79.1898 87.3149C79.1898 87.7013 79.4798 88.0146 79.8378 88.0146H81.2204C81.5783 88.0146 81.8684 87.7013 81.8684 87.3149C81.8684 86.9285 81.5783 86.6152 81.2204 86.6152ZM87.3293 74.6921C87.1619 74.6499 86.9859 74.6813 86.84 74.7793C86.694 74.8772 86.5901 75.0338 86.551 75.2145L86.2285 76.7072C86.2063 76.8099 86.2059 76.9167 86.2273 77.0197C86.2487 77.1226 86.2913 77.2189 86.3521 77.3015C86.4128 77.3841 86.4901 77.4508 86.5781 77.4966C86.666 77.5425 86.7625 77.5662 86.8602 77.5661C87.0063 77.5659 87.1481 77.5123 87.2625 77.4142C87.377 77.316 87.4573 77.1789 87.4906 77.0253L87.8131 75.5325C87.8324 75.4431 87.8352 75.3503 87.8214 75.2596C87.8076 75.169 87.7773 75.0821 87.7324 75.0041C87.6875 74.926 87.6287 74.8583 87.5596 74.8048C87.4904 74.7512 87.4121 74.7129 87.3293 74.6921ZM79.8374 77.7949C79.9572 77.7949 80.0745 77.759 80.1765 77.6913C80.2785 77.6236 80.3612 77.5267 80.4152 77.4113C80.4693 77.296 80.4927 77.1667 80.4829 77.0378C80.473 76.909 80.4303 76.7856 80.3594 76.6814L77.6697 72.7206C77.6198 72.6452 77.5566 72.5813 77.4837 72.5325C77.4108 72.4838 77.3296 72.4511 77.2449 72.4365C77.1602 72.4218 77.0737 72.4255 76.9903 72.4472C76.907 72.469 76.8285 72.5084 76.7593 72.5631C76.6901 72.6179 76.6317 72.687 76.5875 72.7663C76.5432 72.8456 76.514 72.9336 76.5015 73.0252C76.4889 73.1169 76.4934 73.2103 76.5146 73.3C76.5357 73.3898 76.5732 73.4741 76.6247 73.5481L79.3145 77.5089C79.3746 77.5977 79.4533 77.6699 79.5442 77.7196C79.6351 77.7693 79.7356 77.7951 79.8374 77.7949ZM86.3617 79.17C86.2788 79.1491 86.1929 79.1461 86.109 79.161C86.025 79.176 85.9446 79.2087 85.8723 79.2572C85.8001 79.3057 85.7374 79.3691 85.6878 79.4438C85.6382 79.5185 85.6028 79.603 85.5834 79.6925L84.6159 84.1706C84.5937 84.2733 84.5933 84.3801 84.6147 84.483C84.6361 84.5859 84.6787 84.6823 84.7395 84.7649C84.8002 84.8475 84.8775 84.9142 84.9654 84.96C85.0534 85.0058 85.1499 85.0296 85.2475 85.0295C85.3937 85.0292 85.5355 84.9757 85.6499 84.8775C85.7643 84.7794 85.8447 84.6423 85.8779 84.4886L86.8455 80.0105C86.8648 79.921 86.8676 79.8283 86.8538 79.7376C86.84 79.6469 86.8097 79.5601 86.7648 79.482C86.7199 79.404 86.6611 79.3363 86.592 79.2827C86.5228 79.2292 86.4445 79.1909 86.3617 79.17ZM63.2408 74.6601C63.1235 74.5245 62.9612 74.4447 62.7894 74.4383C62.6177 74.4319 62.4506 74.4994 62.3249 74.626C62.1993 74.7526 62.1254 74.928 62.1195 75.1134C62.1136 75.2989 62.1762 75.4793 62.2934 75.6149L64.1592 77.7737C64.2197 77.8439 64.2931 77.8999 64.3746 77.9382C64.4562 77.9764 64.5441 77.9961 64.633 77.996C64.7593 77.9959 64.8827 77.9561 64.9883 77.8813C65.0938 77.8065 65.1768 77.7001 65.2271 77.5751C65.2774 77.45 65.2928 77.3119 65.2714 77.1775C65.25 77.0432 65.1927 76.9185 65.1065 76.8189L63.2408 74.6601ZM75.5225 69.5588C75.4203 69.4109 75.2681 69.3127 75.0991 69.2854C74.9301 69.2581 74.7579 69.3041 74.6201 69.4132C74.4823 69.5223 74.39 69.6859 74.3633 69.8681C74.3366 70.0504 74.3777 70.2367 74.4776 70.3864L75.1691 71.4046C75.2293 71.4934 75.308 71.5655 75.3989 71.6152C75.4898 71.6649 75.5902 71.6907 75.6921 71.6906C75.8118 71.6905 75.9292 71.6546 76.0311 71.5869C76.1331 71.5191 76.2157 71.4222 76.2697 71.3069C76.3238 71.1916 76.3472 71.0623 76.3374 70.9335C76.3276 70.8046 76.2849 70.6813 76.2141 70.577L75.5225 69.5588Z" fill="black" stroke="black" stroke-width="0.4"/>
<defs>
<filter id="filter0_d_31_10995" x="0" y="0" width="150" height="150" filterUnits="userSpaceOnUse" color-interpolation-filters="sRGB">
<feFlood flood-opacity="0" result="BackgroundImageFix"/>
<feColorMatrix in="SourceAlpha" type="matrix" values="0 0 0 0 0 0 0 0 0 0 0 0 0 0 0 0 0 0 127 0" result="hardAlpha"/>
<feOffset/>
<feGaussianBlur stdDeviation="12.5"/>
<feComposite in2="hardAlpha" operator="out"/>
<feColorMatrix type="matrix" values="0 0 0 0 0 0 0 0 0 0 0 0 0 0 0 0 0 0 0.1 0"/>
<feBlend mode="normal" in2="BackgroundImageFix" result="effect1_dropShadow_31_10995"/>
<feBlend mode="normal" in="SourceGraphic" in2="effect1_dropShadow_31_10995" result="shape"/>
</filter>
</defs>
</svg>
