<svg width="150" height="150" viewBox="0 0 150 150" fill="none" xmlns="http://www.w3.org/2000/svg">
<g filter="url(#filter0_d_31_10951)">
<rect x="25" y="25" width="100" height="100" rx="50" fill="#D6F27A"/>
</g>
<circle cx="75" cy="75" r="37.5" stroke="black"/>
<path d="M113 75C113 82.5157 110.771 89.8626 106.596 96.1117C102.42 102.361 96.4856 107.231 89.542 110.107C82.5984 112.984 74.9578 113.736 67.5866 112.27C60.2153 110.804 53.4443 107.184 48.1299 101.87C42.8155 96.5557 39.1964 89.7847 37.7302 82.4134C36.2639 75.0422 37.0164 67.4016 39.8926 60.458C42.7687 53.5144 47.6393 47.5796 53.8883 43.4042C60.1374 39.2287 67.4843 37 75 37V40.04C68.0856 40.04 61.3264 42.0904 55.5773 45.9318C49.8281 49.7733 45.3472 55.2333 42.7012 61.6214C40.0551 68.0095 39.3628 75.0388 40.7117 81.8204C42.0607 88.6019 45.3903 94.8312 50.2795 99.7205C55.1688 104.61 61.3981 107.939 68.1796 109.288C74.9612 110.637 81.9905 109.945 88.3786 107.299C94.7667 104.653 100.227 100.172 104.068 94.4227C107.91 88.6736 109.96 81.9144 109.96 75H113Z" fill="black"/>
<path d="M57.5898 84.9861C56.1595 84.9861 55 83.8266 55 82.3964V78.9947C55 77.5644 56.1595 76.4049 57.5898 76.4049" stroke="black" stroke-width="1.6" stroke-miterlimit="10" stroke-linecap="round" stroke-linejoin="round"/>
<path d="M92.4102 76.4049C93.8404 76.4049 94.9999 77.5644 94.9999 78.9947V82.3964C94.9999 83.8266 93.8404 84.9861 92.4102 84.9861" stroke="black" stroke-width="1.6" stroke-miterlimit="10" stroke-linecap="round" stroke-linejoin="round"/>
<path d="M89.4653 73.1545V72.2954C89.4653 64.2955 82.9755 57.7872 74.9986 57.7872C67.0217 57.7872 60.532 64.2955 60.532 72.2954V73.1324" stroke="black" stroke-width="1.6" stroke-miterlimit="10" stroke-linecap="round" stroke-linejoin="round"/>
<path d="M63.3051 59.5936C59.8926 62.7556 57.7526 67.2796 57.7526 72.2953V75.8415" stroke="black" stroke-width="1.6" stroke-miterlimit="10" stroke-linecap="round" stroke-linejoin="round"/>
<path d="M92.2443 75.7981V72.2954C92.2443 62.7587 84.5079 55 74.9986 55C71.7904 55 68.7842 55.8831 66.2086 57.4195" stroke="black" stroke-width="1.6" stroke-miterlimit="10" stroke-linecap="round" stroke-linejoin="round"/>
<path d="M60.8894 88.2585C59.1481 88.2585 57.7365 86.847 57.7365 85.1055V76.2853C57.7365 74.5439 59.1481 73.1323 60.8894 73.1323C62.6309 73.1323 64.0424 74.5439 64.0424 76.2853V85.1055C64.0424 86.847 62.6309 88.2585 60.8894 88.2585Z" stroke="black" stroke-width="1.6" stroke-miterlimit="10" stroke-linecap="round" stroke-linejoin="round"/>
<path d="M89.0914 88.2585C87.35 88.2585 85.9384 86.847 85.9384 85.1055V76.2853C85.9384 74.5439 87.3499 73.1323 89.0913 73.1323C90.8326 73.1323 92.2443 74.5439 92.2443 76.2853V85.1055C92.2443 86.847 90.8327 88.2585 89.0914 88.2585Z" stroke="black" stroke-width="1.6" stroke-miterlimit="10" stroke-linecap="round" stroke-linejoin="round"/>
<path d="M76.6747 92.4046V88.1546" stroke="black" stroke-width="1.6" stroke-miterlimit="10" stroke-linecap="round" stroke-linejoin="round"/>
<path d="M73.3253 88.1546V92.4046" stroke="black" stroke-width="1.6" stroke-miterlimit="10" stroke-linecap="round" stroke-linejoin="round"/>
<path d="M70.7846 92.4046H79.2154C79.9321 92.4046 80.5131 92.9856 80.5131 93.7023C80.5131 94.419 79.9321 95 79.2154 95H70.7846C70.0679 95 69.4869 94.419 69.4869 93.7023C69.4869 92.9856 70.0679 92.4046 70.7846 92.4046Z" stroke="black" stroke-width="1.6" stroke-miterlimit="10" stroke-linecap="round" stroke-linejoin="round"/>
<path d="M80.6957 75.2972H82.3243C82.7682 75.2972 83.128 75.6571 83.128 76.1009V80.1238C83.128 84.6088 79.5326 88.3152 75.0476 88.3409C70.5442 88.3668 66.8722 84.7107 66.8722 80.2132V76.1009C66.8722 75.6571 67.232 75.2972 67.6759 75.2972H69.6274" stroke="black" stroke-width="1.6" stroke-miterlimit="10" stroke-linecap="round" stroke-linejoin="round"/>
<path d="M79.3927 83.3047C80.0092 82.4302 80.3726 81.3645 80.3726 80.2132V71.6236C80.3726 68.6563 77.9672 66.2509 74.9999 66.2509C72.0327 66.2509 69.6272 68.6563 69.6272 71.6236V80.2132C69.6272 83.1804 72.0327 85.5858 74.9999 85.5858C75.641 85.5863 76.2769 85.4719 76.8776 85.2479" stroke="black" stroke-width="1.6" stroke-miterlimit="10" stroke-linecap="round" stroke-linejoin="round"/>
<path d="M75.0526 79.203C75.0526 79.2029 75.0525 79.2029 75.0525 79.2029C75.0505 79.2036 75.0483 79.2045 75.046 79.2056C75.0302 79.2128 75.0161 79.2232 75.0055 79.234C75.0162 79.2452 75.0306 79.2558 75.0466 79.2631C75.0488 79.2641 75.0508 79.2649 75.0526 79.2656C75.0527 79.2656 75.0528 79.2657 75.0528 79.2657C75.0548 79.2649 75.057 79.264 75.0594 79.263C75.0752 79.2558 75.0893 79.2454 75.0999 79.2345C75.0891 79.2234 75.0747 79.2128 75.0587 79.2055C75.0565 79.2045 75.0545 79.2037 75.0526 79.203Z" fill="black" stroke="black" stroke-width="1.6"/>
<path d="M75.0526 82.3115C75.0526 82.3115 75.0525 82.3114 75.0525 82.3114C75.0505 82.3122 75.0483 82.313 75.046 82.3141C75.0302 82.3213 75.0161 82.3317 75.0055 82.3426C75.0162 82.3537 75.0306 82.3643 75.0466 82.3716C75.0488 82.3726 75.0508 82.3734 75.0526 82.3741C75.0527 82.3741 75.0528 82.3742 75.0528 82.3742C75.0548 82.3735 75.057 82.3726 75.0594 82.3715C75.0752 82.3643 75.0893 82.3539 75.0999 82.3431C75.0891 82.3319 75.0747 82.3213 75.0587 82.314C75.0565 82.313 75.0545 82.3122 75.0526 82.3115Z" fill="black" stroke="black" stroke-width="1.6"/>
<path d="M77.4281 80.7822C77.4281 80.7822 77.428 80.7822 77.4279 80.7822C77.426 80.7829 77.4238 80.7838 77.4214 80.7849C77.4056 80.7921 77.3915 80.8025 77.3809 80.8133C77.3917 80.8245 77.4061 80.8351 77.4221 80.8423C77.4243 80.8433 77.4263 80.8442 77.4281 80.8449C77.4282 80.8449 77.4283 80.8449 77.4283 80.845C77.4303 80.8442 77.4325 80.8433 77.4348 80.8422C77.4506 80.8351 77.4647 80.8247 77.4754 80.8138C77.4646 80.8027 77.4502 80.7921 77.4342 80.7848C77.432 80.7838 77.43 80.783 77.4281 80.7822Z" fill="black" stroke="black" stroke-width="1.6"/>
<defs>
<filter id="filter0_d_31_10951" x="0" y="0" width="150" height="150" filterUnits="userSpaceOnUse" color-interpolation-filters="sRGB">
<feFlood flood-opacity="0" result="BackgroundImageFix"/>
<feColorMatrix in="SourceAlpha" type="matrix" values="0 0 0 0 0 0 0 0 0 0 0 0 0 0 0 0 0 0 127 0" result="hardAlpha"/>
<feOffset/>
<feGaussianBlur stdDeviation="12.5"/>
<feComposite in2="hardAlpha" operator="out"/>
<feColorMatrix type="matrix" values="0 0 0 0 0 0 0 0 0 0 0 0 0 0 0 0 0 0 0.1 0"/>
<feBlend mode="normal" in2="BackgroundImageFix" result="effect1_dropShadow_31_10951"/>
<feBlend mode="normal" in="SourceGraphic" in2="effect1_dropShadow_31_10951" result="shape"/>
</filter>
</defs>
</svg>
