<svg width="150" height="150" viewBox="0 0 150 150" fill="none" xmlns="http://www.w3.org/2000/svg">
<g filter="url(#filter0_d_31_10953)">
<rect x="25" y="25" width="100" height="100" rx="50" fill="#D6F27A"/>
</g>
<circle cx="75" cy="75" r="37.5" stroke="black"/>
<path d="M113 75C113 82.5157 110.771 89.8626 106.596 96.1117C102.42 102.361 96.4856 107.231 89.542 110.107C82.5984 112.984 74.9578 113.736 67.5866 112.27C60.2153 110.804 53.4443 107.184 48.1299 101.87C42.8155 96.5557 39.1964 89.7847 37.7302 82.4134C36.2639 75.0422 37.0164 67.4016 39.8926 60.458C42.7687 53.5144 47.6393 47.5796 53.8883 43.4042C60.1374 39.2287 67.4843 37 75 37V40.04C68.0856 40.04 61.3264 42.0904 55.5773 45.9318C49.8281 49.7733 45.3472 55.2333 42.7012 61.6214C40.0551 68.0095 39.3628 75.0388 40.7117 81.8204C42.0607 88.6019 45.3903 94.8312 50.2795 99.7205C55.1688 104.61 61.3981 107.939 68.1796 109.288C74.9612 110.637 81.9905 109.945 88.3786 107.299C94.7667 104.653 100.227 100.172 104.068 94.4227C107.91 88.6736 109.96 81.9144 109.96 75H113Z" fill="black"/>
<path d="M92.4144 70.2293L90.7391 70.1099C90.4395 69.146 90.0515 68.2117 89.5802 67.319L90.6798 66.0477C91.6296 64.9495 91.5694 63.2852 90.5428 62.2585L87.7321 59.4478C86.7042 58.4202 85.0388 58.3607 83.9406 59.3128L82.6702 60.414C81.7772 59.9433 80.8426 59.5561 79.8784 59.2573L79.7571 57.5823C79.6523 56.1344 78.4327 55 76.9809 55H73.0059C71.5523 55 70.3327 56.1356 70.2294 57.5854L70.1099 59.2608C69.1502 59.5591 68.22 59.9449 67.3309 60.4134L66.0592 59.3118C64.9609 58.3604 63.2957 58.4202 62.2684 59.4473L59.4577 62.258C58.4307 63.2849 58.3708 64.9496 59.3212 66.0479L60.4203 67.3178C59.9489 68.2105 59.5609 69.1447 59.2612 70.1087L57.5847 70.2288C56.1353 70.3326 55 71.5521 55 73.0052V76.9802C55 78.4325 56.1348 79.652 57.5832 79.7565L59.2569 79.8772C59.5557 80.8414 59.9429 81.7759 60.4134 82.669L59.3117 83.9407C58.3604 85.039 58.42 86.7041 59.4474 87.7316L60.8059 89.09C60.9235 89.2045 61.0815 89.2681 61.2457 89.267C61.4098 89.2659 61.5669 89.2002 61.683 89.0841C61.799 88.9681 61.8647 88.8109 61.8658 88.6468C61.8668 88.4827 61.8032 88.3247 61.6887 88.2071L60.3302 86.8487C59.7636 86.282 59.7308 85.3638 60.2555 84.7582L61.6405 83.1594C61.7246 83.0622 61.7767 82.9415 61.7897 82.8136C61.8027 82.6857 61.7758 82.557 61.7129 82.4449C61.1227 81.3944 60.66 80.2773 60.3345 79.1172C60.2998 78.9934 60.2278 78.8834 60.1282 78.8021C60.0287 78.7208 59.9065 78.6722 59.7783 78.663L57.6731 78.5111C56.8743 78.4534 56.2486 77.781 56.2486 76.9801V73.0051C56.2486 72.2038 56.8746 71.5312 57.6738 71.4741L59.7816 71.323C59.9098 71.3139 60.032 71.2654 60.1316 71.1842C60.2312 71.103 60.3032 70.993 60.338 70.8693C60.6647 69.7094 61.1285 68.5927 61.7197 67.5427C61.7827 67.4306 61.8097 67.3018 61.7968 67.1739C61.7839 67.0459 61.7318 66.9251 61.6477 66.8279L60.2653 65.2307C59.7412 64.6252 59.7741 63.7071 60.3405 63.1409L63.1512 60.3302C63.718 59.7635 64.6361 59.7308 65.2417 60.2554L66.8405 61.6405C66.9376 61.7246 67.0584 61.7767 67.1862 61.7897C67.3141 61.8027 67.4429 61.7758 67.5549 61.7129C68.6017 61.1246 69.7148 60.6629 70.8707 60.3377C70.9944 60.3029 71.1044 60.2307 71.1857 60.1311C71.2669 60.0315 71.3154 59.9092 71.3245 59.781L71.4748 57.6742C71.5318 56.8748 72.2043 56.2485 73.0059 56.2485H76.9809C77.7816 56.2485 78.454 56.8741 78.5118 57.6726L78.6645 59.7787C78.6737 59.9068 78.7223 60.029 78.8036 60.1285C78.8849 60.228 78.9949 60.3 79.1186 60.3347C80.2787 60.6603 81.3959 61.1232 82.4463 61.7134C82.5584 61.7764 82.6872 61.8032 82.8151 61.7902C82.943 61.7772 83.0638 61.7251 83.1609 61.6409L84.7584 60.2562C85.364 59.7312 86.2825 59.7638 86.8492 60.3307L89.6599 63.1412C90.2261 63.7073 90.2593 64.6251 89.7355 65.2306L88.353 66.8292C88.2689 66.9264 88.2169 67.0472 88.204 67.1751C88.1911 67.303 88.2181 67.4317 88.2811 67.5437C88.8721 68.5938 89.3358 69.7107 89.6623 70.8705C89.6971 70.9943 89.7693 71.1043 89.8689 71.1855C89.9685 71.2667 90.0908 71.3152 90.219 71.3244L92.3256 71.4746C93.1252 71.5316 93.7516 72.2041 93.7516 73.0056V76.9806C93.7516 77.7812 93.1259 78.4538 92.3274 78.5116L90.2213 78.6642C90.0932 78.6735 89.971 78.7221 89.8715 78.8034C89.772 78.8847 89.7 78.9947 89.6653 79.1184C89.3396 80.2785 88.8768 81.3956 88.2866 82.4461C88.2236 82.5582 88.1968 82.687 88.2098 82.8149C88.2228 82.9428 88.2749 83.0636 88.3591 83.1607L89.7438 84.7582C90.2688 85.3638 90.2361 86.2823 89.6695 86.849L86.8586 89.6597C86.2924 90.2259 85.3746 90.2591 84.7691 89.7353L83.1705 88.3527C83.0733 88.2686 82.9525 88.2166 82.8247 88.2038C82.6968 88.1909 82.568 88.2178 82.456 88.2809C81.4023 88.8739 80.2814 89.3387 79.1173 89.6654C78.9935 89.7001 78.8834 89.7721 78.8022 89.8717C78.7209 89.9712 78.6723 90.0934 78.663 90.2216L78.5112 92.3267C78.4536 93.1255 77.7812 93.7513 76.9802 93.7513H73.0052C72.204 93.7513 71.5315 93.1252 71.4741 92.3259L71.3231 90.2182C71.314 90.09 71.2655 89.9678 71.1843 89.8683C71.103 89.7687 70.9931 89.6966 70.8694 89.6619C69.7095 89.3352 68.5928 88.8714 67.5428 88.2802C67.4308 88.2172 67.302 88.1902 67.174 88.2031C67.0461 88.216 66.9253 88.2681 66.828 88.3523L65.2309 89.7346C64.6252 90.2588 63.7073 90.2255 63.141 89.6594C63.0234 89.5448 62.8655 89.4812 62.7013 89.4823C62.5372 89.4833 62.3801 89.549 62.264 89.6651C62.1479 89.7811 62.0822 89.9382 62.0811 90.1024C62.08 90.2665 62.1436 90.4245 62.2581 90.5421C63.285 91.5691 64.9497 91.6291 66.048 90.6787L67.3179 89.5796C68.2105 90.051 69.1447 90.439 70.1087 90.7387L70.2288 92.4152C70.3327 93.8645 71.5523 94.9998 73.0052 94.9998H76.9802C78.4326 94.9998 79.6521 93.8652 79.7565 92.4166L79.8771 90.743C80.8456 90.4429 81.7843 90.0536 82.6809 89.5802L83.9523 90.6798C85.0502 91.6295 86.7147 91.5694 87.7414 90.5427L90.5522 87.732C91.5798 86.7042 91.6391 85.0387 90.6871 83.9405L89.5859 82.6702C90.0566 81.7772 90.4438 80.8427 90.7427 79.8785L92.4176 79.7572C93.8656 79.6521 95 78.4327 95 76.9808V73.0058C95 71.5523 93.8643 70.3328 92.4144 70.2293Z" fill="black" stroke="black" stroke-width="0.9"/>
<path d="M75 68.2168C75.6823 68.2168 76.3552 68.3176 77.0001 68.5162C77.0784 68.5404 77.1608 68.5489 77.2424 68.5413C77.324 68.5336 77.4033 68.5099 77.4758 68.4716C77.5483 68.4333 77.6125 68.3811 77.6648 68.3179C77.7171 68.2548 77.7564 68.1819 77.7805 68.1036C77.8046 68.0252 77.8131 67.9429 77.8055 67.8613C77.7978 67.7797 77.7741 67.7004 77.7358 67.6279C77.6975 67.5554 77.6453 67.4912 77.5821 67.4389C77.519 67.3867 77.4462 67.3473 77.3678 67.3232C76.6007 67.0872 75.8026 66.9676 75 66.9683C70.5714 66.9683 66.9684 70.5713 66.9684 74.9999C66.9684 79.4287 70.5714 83.0316 75 83.0316C79.4287 83.0316 83.0317 79.4287 83.0317 74.9998C83.0317 72.4651 81.8721 70.1315 79.8503 68.5976C79.785 68.5481 79.7105 68.5119 79.6312 68.4911C79.5519 68.4703 79.4693 68.4654 79.3881 68.4765C79.3069 68.4876 79.2287 68.5147 79.1579 68.556C79.0871 68.5974 79.0252 68.6523 78.9756 68.7176C78.9261 68.7829 78.8899 68.8574 78.8691 68.9367C78.8483 69.016 78.8434 69.0986 78.8545 69.1798C78.8656 69.261 78.8927 69.3392 78.9341 69.41C78.9754 69.4808 79.0303 69.5427 79.0956 69.5922C80.8035 70.888 81.7831 72.859 81.7831 74.9998C81.7831 78.74 78.7402 81.783 75 81.783C71.2599 81.783 68.217 78.74 68.217 74.9998C68.217 71.2597 71.2598 68.2168 75 68.2168Z" fill="black" stroke="black" stroke-width="0.9"/>
<defs>
<filter id="filter0_d_31_10953" x="0" y="0" width="150" height="150" filterUnits="userSpaceOnUse" color-interpolation-filters="sRGB">
<feFlood flood-opacity="0" result="BackgroundImageFix"/>
<feColorMatrix in="SourceAlpha" type="matrix" values="0 0 0 0 0 0 0 0 0 0 0 0 0 0 0 0 0 0 127 0" result="hardAlpha"/>
<feOffset/>
<feGaussianBlur stdDeviation="12.5"/>
<feComposite in2="hardAlpha" operator="out"/>
<feColorMatrix type="matrix" values="0 0 0 0 0 0 0 0 0 0 0 0 0 0 0 0 0 0 0.1 0"/>
<feBlend mode="normal" in2="BackgroundImageFix" result="effect1_dropShadow_31_10953"/>
<feBlend mode="normal" in="SourceGraphic" in2="effect1_dropShadow_31_10953" result="shape"/>
</filter>
</defs>
</svg>
