<svg width="1920" height="782" viewBox="0 0 1920 782" fill="none" xmlns="http://www.w3.org/2000/svg">
<mask id="mask0_38_5145" style="mask-type:alpha" maskUnits="userSpaceOnUse" x="0" y="0" width="1920" height="782">
<rect width="1920" height="782" fill="#FD6036"/>
</mask>
<g mask="url(#mask0_38_5145)">
<g opacity="0.3">
<path d="M1290.02 584.632C1213.4 499.856 1099.47 449.19 985.119 450.025C871.22 450.828 766.735 500.81 664.268 545.423C550.478 594.847 431.12 635.292 306.088 638.324C241.518 639.98 176.182 631.78 114.87 611.285C49.2449 589.433 -8.57559 551.543 -67.4212 516.108C-122.726 482.817 -180.348 454.547 -242.212 435.375C-301.353 417.118 -363.003 406.463 -424.815 404.169C-439.442 403.608 -454.116 403.693 -468.869 403.966C-470.617 403.902 -470.241 406.72 -468.414 406.596C-340.107 403.157 -212.88 436.308 -101.23 499.333C-42.9177 532.327 12.2255 571.317 73.9741 598.204C130.056 622.726 190.602 636.025 251.783 639.83C372.399 647.376 491.026 617.715 602.45 573.958C707.528 532.652 808.429 475.851 921.253 457.964C1039.98 439.214 1163.19 474.016 1254.27 552.85C1266.17 563.14 1277.48 574.295 1287.91 585.969C1289.1 587.355 1291.11 585.751 1290.02 584.632Z" fill="white"/>
<path d="M1289.81 568.133C1215.76 484.65 1104.33 434.363 992.719 435.011C877.608 435.53 772.743 488.015 670.024 534.297C557.161 585.217 438.275 627.19 313.181 629.309C250.862 630.352 187.888 621.807 128.828 600.7C66.2892 578.362 11.3496 541.009 -44.1108 505.435C-99.7601 469.782 -157.758 438.693 -221.134 418.89C-279.062 400.917 -339.721 392.672 -400.166 392.946C-415.486 392.983 -430.853 393.665 -446.111 394.615C-447.937 394.74 -447.482 397.369 -445.656 397.245C-382.831 392.863 -319.445 396.701 -258.16 411.417C-192.027 427.271 -129.917 455.418 -72.1738 490.836C-18.6481 523.606 32.4496 561.13 89.5696 587.416C144.045 612.597 203.252 626.446 262.906 630.723C380.814 638.912 496.669 608.982 605.244 565.144C712.559 521.667 815.462 460.601 931.592 442.763C1062.7 422.526 1199.55 470.343 1287.92 570.005C1288.82 571.045 1291.01 569.519 1289.81 568.133Z" fill="white"/>
<path d="M1289.71 551.898C1217.55 469.204 1108.17 419.328 998.492 420.119C882.578 420.968 777.79 475.925 675.274 523.845C562.725 576.67 443.318 620.422 317.453 620.666C255.796 620.655 193.91 610.568 136.662 587.777C74.8805 563.094 21.5803 522.877 -33.407 486.169C-86.4742 450.707 -142.615 419.95 -203.96 401.66C-260.724 384.616 -319.984 379.396 -379.061 382.237C-393.972 382.888 -408.741 384.263 -423.59 385.827C-425.227 386.031 -424.961 388.582 -423.135 388.457C-362.292 381.917 -300.525 382.196 -240.468 395.069C-175.483 408.89 -114.633 437.399 -58.7155 472.942C-6.2608 506.152 42.805 544.824 98.1443 573.25C150.729 600.304 208.124 615.836 266.849 621.277C385.857 632.144 502.83 601.128 611.548 555.353C717.778 510.758 819.108 448.148 934.121 428.734C1063.92 406.844 1200.44 453.857 1287.18 553.723C1288.72 554.81 1290.72 553.206 1289.71 551.898Z" fill="white"/>
<path d="M1289.42 535.586C1218.9 452.688 1109.74 403.347 1000.69 405.288C884.036 407.381 780.001 465.313 677.799 515.139C568.399 568.391 451.872 612.68 328.716 612.281C267.784 612.129 206.213 601.286 150.32 576.843C89.7049 550.429 37.8387 508.37 -16.0299 470.577C-73.4709 430.184 -135.639 395.802 -204.355 379.758C-268.788 364.614 -335.611 366.883 -400.832 376.474C-402.47 376.678 -402.283 379.417 -400.377 379.104C-340.982 370.186 -280.236 367.598 -220.839 378.865C-155.302 391.364 -94.2793 421.053 -39.1031 457.839C12.233 492.135 60.1802 531.893 114.432 561.861C166.197 590.347 223.387 606.903 282.221 612.611C399.135 623.713 513.386 591.782 619.38 545.092C724.761 498.812 825.131 434.248 939.894 413.843C1067.8 391.164 1202.74 437.735 1287.23 537.111C1288.43 538.498 1290.62 536.972 1289.42 535.586Z" fill="white"/>
<path d="M1289.33 519.354C1218.56 434.362 1106.86 385.288 996.497 390.896C882.107 396.596 781.284 455.869 681.694 506.341C573.143 561.279 456.71 606.938 333.1 603.909C272.074 602.387 210.804 589.23 156.062 561.497C99.5108 532.787 51.4388 491.203 0.451111 453.948C-55.7612 412.736 -117.614 377.599 -186.661 363.412C-250.136 350.222 -315.26 355.861 -378.31 367.69C-380.027 368.082 -379.572 370.712 -377.856 370.319C-320.789 359.542 -262.356 353.992 -204.594 362.802C-139.591 372.86 -79.8118 401.809 -25.9266 438.5C25.2518 473.173 71.765 514.772 124.803 547.116C174.489 577.396 229.252 596.044 286.81 603.216C402.006 617.371 515.107 586.069 619.354 539.316C724.026 492.074 822.414 425.352 936.313 401.703C1064.86 374.851 1202.33 419.598 1286.98 521.258C1288.33 522.266 1290.33 520.662 1289.33 519.354Z" fill="white"/>
<path d="M1289.04 503.042C1219.83 418.035 1108.43 369.307 999.073 376.223C884.43 383.591 784.707 445.542 685.51 497.731C579.225 553.615 465.138 600.031 342.882 595.35C283.463 593.168 224.603 579.02 172.271 550.297C115.563 519.304 68.1389 475.107 17.1364 436.293C-36.9504 395.303 -97.4337 360.072 -165.175 347.54C-228.556 335.719 -293.115 344.256 -355.364 358.415C-357.081 358.808 -356.626 361.437 -354.91 361.045C-298.534 348.204 -240.745 339.946 -183.077 347.386C-118.277 355.807 -59.1122 385.164 -6.18802 422.563C44.5173 458.37 89.833 501.243 141.783 535.13C189.217 566.022 241.602 586.117 297.743 594.028C412.071 610.261 524.842 578.156 627.594 529.669C730.615 481.072 826.973 412.837 939.833 387.424C1003.53 372.982 1069.22 375.562 1131.05 396.939C1191.56 417.764 1246.57 454.928 1287.04 504.646C1288.04 505.954 1290.23 504.428 1289.04 503.042Z" fill="white"/>
<path d="M1288.94 486.809C1221.89 402.48 1112.53 354.163 1005.03 361.411C891.226 368.906 793.155 432.212 696.177 485.993C592.112 543.469 479.66 592.342 358.397 587.41C296.206 584.958 235.789 568.164 182.72 535.363C129.761 502.829 85.2961 458.981 36.718 420.735C-17.1947 378.265 -78.1969 342.152 -146.995 331.619C-209.495 321.94 -272.388 333.391 -332.764 349.44C-334.481 349.833 -334.026 352.463 -332.31 352.07C-277.885 337.528 -221.385 326.514 -164.676 332C-99.009 338.343 -39.4665 367.858 13.2523 406.28C62.5878 442.181 105.998 485.367 155.759 520.78C203.191 554.333 255.653 576.9 313.336 585.899C426.734 603.296 538.199 569.537 639 519.348C740.07 469.05 834.397 399.302 946.204 373.226C1008.15 358.721 1072.33 360.67 1132.46 381.337C1192.67 401.815 1247.12 438.742 1286.67 488.523C1287.94 489.721 1289.94 488.116 1288.94 486.809Z" fill="white"/>
<path d="M1288.65 470.497C1222.97 386.076 1113.91 338.105 1007.34 346.849C895.565 355.857 800.296 419.889 706.151 474.853C601.58 535.666 487.599 587.672 363.504 578.896C301.913 574.476 244.206 554.378 193.375 519.405C142.055 484.007 98.8665 438.695 50.3361 399.804C-2.74225 357.461 -63.4621 322.796 -132.042 315.46C-192.765 308.962 -252.652 322.777 -310.353 340.387C-312.07 340.78 -310.969 343.457 -309.363 342.797C-255.441 326.27 -199.365 313.083 -142.67 317.011C-78.6864 321.542 -20.8751 349.891 30.1438 387.603C79.5104 423.961 121.723 468.421 170.239 505.754C215.639 540.456 265.816 565.839 322.302 576.112C434.926 596.957 546.549 562.82 645.777 511.087C745.54 459.135 837.728 387.606 948.197 359.42C1009.71 343.843 1073.63 344.8 1133.92 365.09C1193.56 385.331 1247.64 422.101 1286.27 471.944C1287.66 473.409 1289.85 471.884 1288.65 470.497Z" fill="white"/>
<path d="M1288.55 454.264C1224.51 369.639 1115.67 322.204 1010.22 332.523C898.109 343.389 803.972 410.554 710.786 467.471C609.583 529.247 497.838 581.743 375.98 570.795C314.406 565.274 258.449 542.579 209.051 505.765C159.464 468.872 117.961 422.711 70.4225 383.569C18.4152 340.786 -42.1157 306.2 -110.492 300.501C-171.2 295.562 -230.822 311.928 -287.564 331.491C-289.17 332.151 -288.18 334.561 -286.573 333.901C-233.233 315.579 -177.879 299.872 -121.089 302.509C-57.309 305.402 0.282349 333.216 50.498 371.258C99.0615 407.945 140.046 453.224 186.907 491.863C230.653 527.87 279.16 555.661 335.014 567.445C444.866 590.681 554.961 557.015 651.229 504.934C751.482 450.747 842.823 374.872 954.946 345.38C1015.78 329.299 1079.14 330.019 1138.81 350.718C1196.79 370.706 1249.27 407.034 1286.2 456.167C1287.56 457.176 1289.56 455.571 1288.55 454.264Z" fill="white"/>
<path d="M1288.45 438.032C1225.23 351.974 1115.16 305.357 1009.71 318.337C898.62 332.069 807.221 401.709 715.609 460.17C616.625 523.538 505.744 576.616 385.007 561.922C323.12 554.495 268.976 527.456 221.06 488.155C174.198 449.517 134.333 403.152 87.5497 364.325C36.1879 321.59 -23.9818 288.264 -91.9029 285.194C-151.731 282.398 -209.717 301.221 -265.074 322.249C-266.681 322.909 -265.69 325.319 -264.084 324.659C-212.317 304.793 -158.379 287.164 -102.391 287.47C-39.3327 287.844 18.165 314.288 67.704 351.826C159.826 421.78 226.717 526.671 344.484 556.982C452.443 584.751 562.648 551.353 657.027 498.484C755.202 443.429 842.954 366.056 952.356 332.988C1013.22 314.702 1077.64 313.424 1138.19 333.603C1196.59 353.104 1249.45 389.59 1285.88 439.4C1287.27 440.865 1289.46 439.339 1288.45 438.032Z" fill="white"/>
<path d="M1288.24 421.529C1226.77 335.536 1117.19 289.344 1012.58 304.01C901.887 319.458 812.769 391.603 723.14 452.222C626.831 517.151 516.69 571.647 397.105 553.663C335.36 544.3 282.903 513.75 236.799 472.766C191.183 432.208 152.326 384.49 105.244 345.316C54.4487 302.817 -5.51733 271.129 -72.9048 270.5C-132.121 269.956 -188.423 290.59 -242.207 313.163C-243.813 313.823 -242.823 316.233 -241.217 315.573C-191.716 294.76 -140.265 275.65 -86.0222 273.231C-22.5371 270.456 35.5603 294.932 85.3983 332.817C178.465 403.166 242.596 514.667 360.313 548.284C463.799 577.735 571.012 546.193 661.501 494.14C760.276 437.117 846.079 355.381 956.317 319.779C1016.29 300.454 1080.07 298.026 1140.14 317.78C1198.05 336.855 1250.46 373.372 1286.05 423.055C1287.17 424.63 1289.17 423.026 1288.24 421.529Z" fill="white"/>
<path d="M1288.14 405.297C1228.2 318.832 1118.57 273.286 1015.19 289.794C904.194 307.557 817.341 383.309 728.591 446.07C635.037 512.37 524.66 567.433 406.826 544.191C280.16 519.259 215.229 402.766 122.986 325.663C73.4652 284.362 14.6471 254.705 -50.978 255.7C-110.447 256.824 -166.404 279.82 -219.607 304.188C-221.213 304.848 -220.034 307.337 -218.617 306.598C-170.391 284.588 -120.166 263.635 -66.8828 259.263C-4.38794 254.078 53.4747 276.46 103.171 313.62C195.908 383.166 256.226 497.956 370.397 537.412C471.03 572.104 579.17 542.058 667.503 489.326C765.807 430.776 848.699 345.385 958.561 306.964C1017.79 286.222 1081.4 282.613 1141.63 301.989C1199.13 320.45 1251.08 356.997 1285.69 406.932C1286.88 408.319 1289.07 406.793 1288.14 405.297Z" fill="white"/>
<path d="M1287.86 388.985C1229.74 302.396 1120.33 257.385 1017.99 275.658C906.501 295.656 822.023 375.283 734.373 440.721C686.973 476.162 636.504 508.325 579.748 526.33C527.306 543.031 470.668 547.999 416.814 534.61C292.294 503.476 231.194 379.931 137.911 303.725C88.6419 263.416 29.6954 237.255 -35.066 241.493C-92.6003 245.422 -145.992 269.711 -196.849 294.836C-198.456 295.496 -197.355 298.174 -195.859 297.246C-149.443 274.259 -100.871 251.95 -48.9242 245.467C13.1158 237.653 71.437 257.343 121.102 294.047C215.099 363.231 271.542 480.395 383.032 526.274C481.299 566.632 590.809 536.493 677.443 483.051C774.441 422.847 853.918 334.478 962.522 293.758C1020.86 271.975 1084.03 267.295 1143.58 286.167C1200.78 304.281 1252.08 340.781 1285.59 390.7C1286.78 392.086 1288.78 390.482 1287.86 388.985Z" fill="white"/>
<path d="M1287.76 372.753C1231.36 285.771 1122.27 241.563 1021.24 261.49C910.257 283.472 829.193 366.077 743.605 433.485C696.865 470.532 646.537 503.42 589.214 521.188C535.938 537.762 477.806 540.997 424.285 523.09C305.817 483.836 249.173 359.712 157.086 284.892C108.713 245.623 50.5368 221.336 -12.6512 227.118C-70.5486 232.448 -123.706 258.831 -174.17 285.673C-175.588 286.412 -174.677 289.01 -173.18 288.082C-127.314 263.757 -79.5912 239.763 -27.8481 231.642C31.7841 222.158 88.7061 238.823 137.68 273.464C232.654 340.838 284.816 457.103 390.096 511.479C485.57 560.652 597.692 533.821 684.42 479.089C781.781 417.483 857.799 324.121 966.484 280.551C1023.54 257.571 1086.09 251.741 1145.42 270.077C1202.13 287.766 1253.06 324.109 1285.46 374.011C1286.49 375.775 1288.68 374.249 1287.76 372.753Z" fill="white"/>
<path d="M1287.47 356.439C1232.27 268.183 1121.88 224.982 1021.25 248.184C909.713 274.15 832.487 361.906 747.433 431.754C701.558 469.385 651.31 502.084 593.673 517.946C539.925 532.993 482.079 532.355 430.451 509.915C316.587 460.162 265.409 334.105 169.604 261.282C120.931 224.327 62.9085 204.984 1.71753 214.484C-53.5997 222.665 -103.766 249.853 -151.727 277.074C-153.224 278.002 -151.619 280.003 -150.202 279.264C-105.154 253.71 -58.4373 228.408 -7.08661 218.571C50.9722 207.543 107.518 221.39 155.942 254.692C252.79 321.296 301.471 438.99 403.661 499.174C495.527 553.273 605.866 531.243 691.571 476.306C787.988 414.306 859.142 318.248 964.885 270.566C1020.5 245.208 1082.48 236.481 1141.95 252.88C1200.4 269.075 1253.13 306.395 1285.47 358.044C1286.4 359.54 1288.4 357.936 1287.47 356.439Z" fill="white"/>
<path d="M1287.37 340.208C1233.55 250.756 1121.86 208.562 1022.02 235.196C912.065 264.265 839.593 354.449 757.214 425.858C714.772 462.703 667.925 494.161 613.516 510.262C558.571 526.583 499.403 525.393 447.289 499.867C336.042 445.439 288.217 318.786 192.649 245.397C148.792 211.783 96.3589 192.334 40.7758 197.964C-8.33582 202.969 -54.1208 224.445 -96.4123 248.71C-107.454 254.969 -118.196 261.574 -129.049 267.912C-130.545 268.84 -128.941 270.841 -127.523 270.102C-83.5609 243.428 -37.8511 216.82 12.8394 205.376C70.4745 192.174 127.431 203.975 176.391 237.057C275.254 303.615 321.272 423.969 421.649 488.497C465.211 516.442 515.476 528.333 566.84 522.716C615.464 517.285 662.05 498.14 702.785 471.229C797.879 408.677 863.949 309.388 967.648 258.635C1021.45 232.299 1082.28 221.54 1141.01 236.522C1200.13 251.662 1253.54 289.486 1285.18 341.733C1286.11 343.23 1288.3 341.704 1287.37 340.208Z" fill="white"/>
</g>
</g>
</svg>
