<svg width="392" height="392" viewBox="0 0 392 392" fill="none" xmlns="http://www.w3.org/2000/svg">
<g filter="url(#filter0_d_38_4685)">
<rect x="25" y="25" width="342" height="342" rx="171" fill="#D6F27A"/>
</g>
<circle cx="196" cy="196" r="125.5" stroke="black"/>
<path d="M322 196C322 215.884 317.294 235.486 308.267 253.203C299.24 270.92 286.148 286.249 270.061 297.936C253.974 309.624 235.35 317.338 215.711 320.449C196.071 323.559 175.975 321.978 157.064 315.833C138.153 309.689 120.965 299.156 106.905 285.095C92.8444 271.035 82.3114 253.847 76.1669 234.936C70.0223 216.025 68.4407 195.929 71.5513 176.289C74.6618 156.65 82.3763 138.026 94.0639 121.939L102.219 127.864C91.4662 142.664 84.3689 159.798 81.5072 177.866C78.6454 195.934 80.1006 214.423 85.7535 231.821C91.4065 249.219 101.097 265.032 114.032 277.968C126.968 290.903 142.781 300.594 160.179 306.246C177.577 311.899 196.066 313.355 214.134 310.493C232.202 307.631 249.336 300.534 264.136 289.781C278.936 279.029 290.98 264.926 299.285 248.627C307.59 232.327 311.92 214.293 311.92 196H322Z" fill="black"/>
<path d="M131.633 151V131.12H142.889V134.648H135.469V139.268H141.713V142.74H135.469V147.472H143.141V151H131.633ZM145.551 156.32V136.44H149.303V138.4H149.387C149.751 137.588 151.431 136.16 154.035 136.16C157.423 136.16 161.035 138.68 161.035 143.72C161.035 148.76 157.423 151.28 154.035 151.28C151.431 151.28 149.751 149.852 149.387 149.04H149.303V156.32H145.551ZM149.219 143.72C149.219 146.464 151.179 147.92 153.279 147.92C155.379 147.92 157.339 146.436 157.339 143.72C157.339 141.004 155.379 139.52 153.279 139.52C151.179 139.52 149.219 140.976 149.219 143.72ZM163.188 151V136.44H166.94V151H163.188ZM163.188 134.424V131.12H166.94V134.424H163.188ZM174.425 151.28C171.541 151.28 169.413 149.88 168.965 147.192L171.961 146.38C172.241 147.332 172.941 148.312 174.369 148.312C175.321 148.312 176.245 147.836 176.245 146.8C176.245 146.1 175.797 145.596 174.649 145.176L172.857 144.504C170.449 143.636 169.441 142.096 169.441 140.332C169.441 137.728 171.737 136.16 174.481 136.16C177.113 136.16 179.045 137.644 179.521 139.884L176.581 140.64C176.189 139.464 175.433 139.1 174.649 139.1C173.669 139.1 173.081 139.66 173.081 140.36C173.081 140.976 173.445 141.508 174.593 141.9L176.217 142.516C178.009 143.16 179.969 144.224 179.969 146.8C179.969 149.712 177.477 151.28 174.425 151.28ZM189.082 151.28C185.274 151.28 181.41 148.648 181.41 143.72C181.41 138.792 185.274 136.16 189.082 136.16C192.862 136.16 196.754 138.792 196.754 143.72C196.754 148.648 192.862 151.28 189.082 151.28ZM185.106 143.72C185.106 146.324 186.982 147.892 189.082 147.892C191.182 147.892 193.03 146.324 193.03 143.72C193.03 141.116 191.182 139.548 189.082 139.548C186.982 139.548 185.106 141.116 185.106 143.72ZM213.683 151H209.931V149.04H209.847C209.483 149.852 207.803 151.28 205.199 151.28C201.811 151.28 198.199 148.76 198.199 143.72C198.199 138.68 201.811 136.16 205.199 136.16C207.803 136.16 209.483 137.588 209.847 138.4H209.931V131.12H213.683V151ZM201.895 143.72C201.895 146.436 203.855 147.92 205.955 147.92C208.055 147.92 210.015 146.464 210.015 143.72C210.015 140.976 208.055 139.52 205.955 139.52C203.855 139.52 201.895 141.004 201.895 143.72ZM223.423 151.28C219.419 151.28 215.835 148.564 215.835 143.72C215.835 138.82 219.475 136.16 223.199 136.16C226.895 136.16 231.095 138.764 230.283 145.176H219.391C219.923 147.164 221.659 148.2 223.843 148.2C225.271 148.2 226.531 147.808 227.595 146.884L229.303 148.704C228.099 150.216 225.999 151.28 223.423 151.28ZM219.335 142.432H226.951C226.727 140.36 224.991 139.324 223.227 139.324C221.491 139.324 219.811 140.332 219.335 142.432ZM241.577 151V134.564H238.357V131.12H245.357V151H241.577ZM255.072 151.28C251.544 151.28 248.408 148.872 248.408 144.728C248.408 141.648 250.088 139.436 251.376 137.7L256.136 131.12H260.364L254.736 138.876C255.128 138.792 255.548 138.736 255.968 138.736C259.104 138.736 261.792 141.172 261.792 144.868C261.792 148.872 258.6 151.28 255.072 151.28ZM251.964 144.952C251.964 146.66 253.252 148.004 255.1 148.004C256.948 148.004 258.208 146.66 258.208 144.952C258.208 143.244 256.948 141.9 255.1 141.9C253.252 141.9 251.964 143.244 251.964 144.952Z" fill="black"/>
<path d="M156.86 269.24C152.156 269.24 148.172 265.712 148.172 260.48C148.172 255.248 152.156 251.72 156.86 251.72C161.54 251.72 165.548 255.248 165.548 260.48C165.548 265.712 161.54 269.24 156.86 269.24ZM151.46 260.48C151.46 263.912 153.884 266.24 156.86 266.24C159.812 266.24 162.26 263.912 162.26 260.48C162.26 257.048 159.812 254.72 156.86 254.72C153.884 254.72 151.46 257.048 151.46 260.48ZM169.829 269V254.912H167.069V251.96H173.069V269H169.829ZM177.609 269.24C176.601 269.24 175.761 268.496 175.761 267.392C175.761 266.288 176.601 265.544 177.609 265.544C178.593 265.544 179.457 266.288 179.457 267.392C179.457 268.496 178.593 269.24 177.609 269.24ZM175.761 258.296C175.761 257.192 176.601 256.448 177.609 256.448C178.593 256.448 179.457 257.192 179.457 258.296C179.457 259.4 178.593 260.144 177.609 260.144C176.601 260.144 175.761 259.4 175.761 258.296ZM190.164 269.24C185.46 269.24 181.476 265.712 181.476 260.48C181.476 255.248 185.46 251.72 190.164 251.72C194.844 251.72 198.852 255.248 198.852 260.48C198.852 265.712 194.844 269.24 190.164 269.24ZM184.764 260.48C184.764 263.912 187.188 266.24 190.164 266.24C193.116 266.24 195.564 263.912 195.564 260.48C195.564 257.048 193.116 254.72 190.164 254.72C187.188 254.72 184.764 257.048 184.764 260.48ZM205.996 261.824C207.94 259.28 208.66 258.368 208.66 257C208.66 255.176 207.34 254.72 206.452 254.72C205.42 254.72 204.076 255.344 204.076 257.288V257.72H200.812V257C200.812 254.168 202.708 251.72 206.5 251.72C209.932 251.72 212.068 253.808 212.068 256.544C212.068 258.776 210.676 260.384 209.26 262.208L206.236 266.144H212.068V269H200.572L205.996 261.824ZM216.047 269.24C215.039 269.24 214.199 268.496 214.199 267.392C214.199 266.288 215.039 265.544 216.047 265.544C217.031 265.544 217.895 266.288 217.895 267.392C217.895 268.496 217.031 269.24 216.047 269.24ZM214.199 258.296C214.199 257.192 215.039 256.448 216.047 256.448C217.031 256.448 217.895 257.192 217.895 258.296C217.895 259.4 217.031 260.144 216.047 260.144C215.039 260.144 214.199 259.4 214.199 258.296ZM225.309 261.824C227.253 259.28 227.973 258.368 227.973 257C227.973 255.176 226.653 254.72 225.765 254.72C224.733 254.72 223.389 255.344 223.389 257.288V257.72H220.125V257C220.125 254.168 222.021 251.72 225.813 251.72C229.245 251.72 231.381 253.808 231.381 256.544C231.381 258.776 229.989 260.384 228.573 262.208L225.549 266.144H231.381V269H219.885L225.309 261.824ZM239.103 269.24C236.055 269.24 233.223 267.272 233.223 263.912C233.223 261.704 234.423 260.12 235.887 259.424C234.999 258.776 234.231 257.624 234.231 256.112C234.231 253.808 236.079 251.72 239.103 251.72C242.103 251.72 243.951 253.808 243.951 256.112C243.951 257.624 243.183 258.776 242.319 259.424C243.759 260.12 244.983 261.704 244.983 263.912C244.983 267.272 242.127 269.24 239.103 269.24ZM236.463 263.72C236.463 265.232 237.639 266.312 239.103 266.312C240.543 266.312 241.743 265.232 241.743 263.72C241.743 262.136 240.495 261.128 239.103 261.128C237.687 261.128 236.463 262.136 236.463 263.72ZM237.183 256.352C237.183 257.384 237.927 258.272 239.103 258.272C240.279 258.272 241.023 257.384 241.023 256.352C241.023 255.248 240.159 254.48 239.103 254.48C238.023 254.48 237.183 255.248 237.183 256.352Z" fill="black"/>
<g opacity="0.5">
<path d="M276 200.644H274.97V199.62H276V200.644ZM276 198.552H274.97V197.529H276V198.552Z" fill="black"/>
<path d="M272.599 201.045H271.569V200.644H272.599V201.045ZM272.599 199.576H271.569V198.552H272.599V199.576ZM272.599 197.484H271.569V196.461H272.599V197.484ZM272.599 195.437H271.569V194.414H272.599V195.437Z" fill="black"/>
<path d="M269.242 200.466H268.212V199.442H269.242V200.466ZM269.242 198.374H268.212V197.351H269.242V198.374ZM269.242 196.283H268.212V195.259H269.242V196.283ZM269.242 194.236H268.212V193.212H269.242V194.236ZM269.242 192.144H268.212V191.12H269.242V192.144ZM269.242 190.097H268.212V189.073H269.242V190.097Z" fill="black"/>
<path d="M265.796 201.044H264.766V200.777H265.796V201.044ZM265.796 199.709H264.766V198.686H265.796V199.709ZM265.796 197.662H264.766V196.639H265.796V197.662Z" fill="black"/>
<path d="M262.44 201.044H261.41V200.021H262.44V201.044ZM262.44 198.997H261.41V197.974H262.44V198.997ZM262.44 196.905H261.41V195.882H262.44V196.905ZM262.44 194.814H261.41V193.79H262.44V194.814ZM262.44 192.767H261.41V191.743H262.44V192.767Z" fill="black"/>
<path d="M259.038 200.065H258.008V199.042H259.038V200.065ZM259.038 198.018H258.008V196.995H259.038V198.018ZM259.038 195.927H258.008V194.903H259.038V195.927ZM259.038 193.88H258.008V192.812H259.038V193.88ZM259.038 191.788H258.008V190.764H259.038V191.788ZM259.038 189.696H258.008V188.673H259.038V189.696ZM259.038 187.649H258.008V186.581H259.038V187.649Z" fill="black"/>
<path d="M255.682 200.867H254.607V199.843H255.637V200.867H255.682ZM255.682 198.819H254.607V197.796H255.637V198.819H255.682ZM255.682 196.728H254.607V195.704H255.637V196.728H255.682ZM255.682 194.636H254.607V193.613H255.637V194.636H255.682ZM255.682 192.589H254.607V191.565H255.637V192.589H255.682ZM255.682 190.497H254.607V189.474H255.637V190.497H255.682ZM255.682 188.45H254.607V187.427H255.637V188.45H255.682Z" fill="black"/>
<path d="M252.28 201H251.25V199.932H252.28V201ZM252.28 198.908H251.25V197.885H252.28V198.908ZM252.28 196.817H251.25V195.793H252.28V196.817ZM252.28 194.769H251.25V193.701H252.28V194.769ZM252.28 192.678H251.25V191.654H252.28V192.678ZM252.28 190.586H251.25V189.563H252.28V190.586ZM252.28 188.539H251.25V187.515H252.28V188.539ZM252.28 186.447H251.25V185.424H252.28V186.447ZM252.28 184.4H251.25V183.377H252.28V184.4ZM252.28 182.309H251.25V181.285H252.28V182.309ZM252.28 180.217H251.25V179.193H252.28V180.217Z" fill="black"/>
<path d="M248.923 201.044H247.893V200.199H248.923V201.044ZM248.923 199.131H247.893V198.107H248.923V199.131ZM248.923 197.039H247.893V196.016H248.923V197.039ZM248.923 194.992H247.893V193.969H248.923V194.992ZM248.923 192.9H247.893V191.877H248.923V192.9ZM248.923 190.853H247.893V189.83H248.923V190.853ZM248.923 188.762H247.893V187.738H248.923V188.762ZM248.923 186.67H247.893V185.647H248.923V186.67ZM248.923 184.623H247.893V183.599H248.923V184.623ZM248.923 182.531H247.893V181.508H248.923V182.531ZM248.923 180.44H247.893V179.416H248.923V180.44ZM248.923 178.393H247.893V177.369H248.923V178.393ZM248.923 176.301H247.893V175.277H248.923V176.301Z" fill="black"/>
<path d="M245.522 201H244.492V200.377H245.522V201ZM245.522 199.309H244.492V198.285H245.522V199.309ZM245.522 197.262H244.492V196.238H245.522V197.262ZM245.522 195.17H244.492V194.147H245.522V195.17ZM245.522 193.123H244.492V192.099H245.522V193.123ZM245.522 191.031H244.492V190.008H245.522V191.031ZM245.522 188.94H244.492V187.916H245.522V188.94ZM245.522 186.893H244.492V185.869H245.522V186.893ZM245.522 184.801H244.492V183.777H245.522V184.801ZM245.522 182.709H244.492V181.686H245.522V182.709ZM245.522 180.662H244.492V179.639H245.522V180.662Z" fill="black"/>
<path d="M242.166 200.778H241.135V199.754H242.166V200.778ZM242.166 198.686H241.135V197.662H242.166V198.686ZM242.166 196.594H241.135V195.571H242.166V196.594ZM242.166 194.547H241.135V193.524H242.166V194.547ZM242.166 192.456H241.135V191.432H242.166V192.456ZM242.166 190.364H241.135V189.34H242.166V190.364ZM242.166 188.317H241.135V187.293H242.166V188.317ZM242.166 186.225H241.135V185.202H242.166V186.225ZM242.166 184.134H241.135V183.11H242.166V184.134ZM242.166 182.087H241.135V181.063H242.166V182.087ZM242.166 179.995H241.135V178.971H242.166V179.995ZM242.166 177.948H241.135V176.924H242.166V177.948ZM242.166 175.856H241.135V174.833H242.166V175.856ZM242.166 173.765H241.135V172.741H242.166V173.765ZM242.166 171.717H241.135V170.649H242.166V171.717Z" fill="black"/>
<path d="M238.764 201.001H237.734V200.244H238.764V201.001ZM238.764 199.176H237.734V198.152H238.764V199.176ZM238.764 197.129H237.734V196.105H238.764V197.129ZM238.764 195.037H237.734V194.014H238.764V195.037ZM238.764 192.99H237.734V191.922H238.764V192.99Z" fill="black"/>
<path d="M235.408 200.689H234.377V199.665H235.408V200.689ZM235.408 198.597H234.377V197.573H235.408V198.597ZM235.408 196.505H234.377V195.482H235.408V196.505ZM235.408 194.458H234.377V193.435H235.408V194.458ZM235.408 192.367H234.377V191.343H235.408V192.367ZM235.408 190.275H234.377V189.251H235.408V190.275ZM235.408 188.228H234.377V187.204H235.408V188.228ZM235.408 186.136H234.377V185.113H235.408V186.136Z" fill="black"/>
<path d="M232.051 200.511H231.021V199.487H232.051V200.511ZM232.051 198.419H231.021V197.395H232.051V198.419ZM232.051 196.372H231.021V195.348H232.051V196.372ZM232.051 194.28H231.021V193.257H232.051V194.28ZM232.051 192.189H231.021V191.165H232.051V192.189ZM232.051 190.141H231.021V189.118H232.051V190.141ZM232.051 188.05H231.021V187.026H232.051V188.05ZM232.051 186.003H231.021V184.979H232.051V186.003ZM232.051 183.911H231.021V182.888H232.051V183.911ZM232.051 181.819H231.021V180.796H232.051V181.819Z" fill="black"/>
<path d="M228.65 200.955H227.619V199.932H228.65V200.955ZM228.65 198.908H227.619V197.885H228.65V198.908ZM228.65 196.817H227.619V195.793H228.65V196.817ZM228.65 194.77H227.619V193.701H228.65V194.77ZM228.65 192.678H227.619V191.654H228.65V192.678ZM228.65 190.586H227.619V189.563H228.65V190.586ZM228.65 188.539H227.619V187.471H228.65V188.539ZM228.65 186.448H227.619V185.424H228.65V186.448Z" fill="black"/>
<path d="M225.203 200.199H224.173V199.176H225.203V200.199ZM225.203 198.107H224.173V197.084H225.203V198.107ZM225.203 196.06H224.173V195.037H225.203V196.06ZM225.203 193.969H224.173V192.945H225.203V193.969ZM225.203 191.922H224.173V190.898H225.203V191.922ZM225.203 189.83H224.173V188.806H225.203V189.83ZM225.203 187.738H224.173V186.715H225.203V187.738Z" fill="black"/>
<path d="M221.847 200.11H220.817V199.086H221.847V200.11ZM221.847 198.062H220.817V197.039H221.847V198.062ZM221.847 195.971H220.817V194.947H221.847V195.971ZM221.847 193.879H220.817V192.856H221.847V193.879ZM221.847 191.832H220.817V190.809H221.847V191.832Z" fill="black"/>
<path d="M218.445 199.042H217.415V200.066H218.445V199.042Z" fill="black"/>
<path d="M215.089 201.045H214.059V201L215.089 201.045ZM215.089 199.932H214.059V198.908H215.089V199.932ZM215.089 197.885H214.059V196.817H215.089V197.885Z" fill="black"/>
<path d="M211.687 200.599H210.657V199.576H211.687V200.599ZM211.687 198.552H210.657V197.528H211.687V198.552ZM211.687 196.46H210.657V195.437H211.687V196.46ZM211.687 194.369H210.657V193.345H211.687V194.369Z" fill="black"/>
<path d="M208.331 200.688H207.3V199.665H208.331V200.688ZM208.331 198.597H207.3V197.573H208.331V198.597ZM208.331 196.505H207.3V195.482H208.331V196.505ZM208.331 194.458H207.3V193.434H208.331V194.458ZM208.331 192.366H207.3V191.343H208.331V192.366ZM208.331 190.275H207.3V189.251H208.331V190.275ZM208.331 188.228H207.3V187.204H208.331V188.228Z" fill="black"/>
<path d="M204.974 200.155H203.944V199.131H204.974V200.155ZM204.974 198.063H203.944V197.04H204.974V198.063ZM204.974 195.972H203.944V194.948H204.974V195.972ZM204.974 193.924H203.944V192.901H204.974V193.924ZM204.974 191.833H203.944V190.809H204.974V191.833ZM204.974 189.786H203.944V188.762H204.974V189.786ZM204.974 187.694H203.944V186.67H204.974V187.694ZM204.974 185.602H203.944V184.579H204.974V185.602ZM204.974 183.555H203.944V182.532H204.974V183.555ZM204.974 181.464H203.944V180.44H204.974V181.464Z" fill="black"/>
<path d="M201.573 201.044H200.543V200.688H201.573V201.044ZM201.573 199.62H200.543V198.597H201.573V199.62Z" fill="black"/>
<path d="M198.216 200.866H197.186V199.843H198.216V200.866ZM198.216 198.775H197.186V197.751H198.216V198.775ZM198.216 196.728H197.186V195.704H198.216V196.728Z" fill="black"/>
<path d="M194.815 201.044H193.784V200.11H194.815V201.044ZM194.815 199.086H193.784V198.063H194.815V199.086ZM194.815 196.995H193.784V195.971H194.815V196.995ZM194.815 194.948H193.784V193.924H194.815V194.948ZM194.815 192.856H193.784V191.832H194.815V192.856ZM194.815 190.764H193.784V189.741H194.815V190.764Z" fill="black"/>
<path d="M191.458 200.11H190.428V199.086H191.458V200.11ZM191.458 198.018H190.428V196.995H191.458V198.018ZM191.458 195.971H190.428V194.948H191.458V195.971ZM191.458 193.88H190.428V192.856H191.458V193.88ZM191.458 191.788H190.428V190.764H191.458V191.788ZM191.458 189.741H190.428V188.717H191.458V189.741ZM191.458 187.649H190.428V186.626H191.458V187.649ZM191.458 185.558H190.428V184.534H191.458V185.558ZM191.458 183.51H190.428V182.487H191.458V183.51ZM191.458 181.419H190.428V180.395H191.458V181.419ZM191.458 179.372H190.428V178.348H191.458V179.372ZM191.458 177.28H190.428V176.257H191.458V177.28Z" fill="black"/>
<path d="M188.056 200.866H187.026V199.843H188.056V200.866ZM188.056 198.819H187.026V197.796H188.056V198.819ZM188.056 196.728H187.026V195.704H188.056V196.728ZM188.056 194.636H187.026V193.612H188.056V194.636ZM188.056 192.589H187.026V191.565H188.056V192.589ZM188.056 190.497H187.026V189.474H188.056V190.497ZM188.056 188.45H187.026V187.427H188.056V188.45ZM188.056 186.358H187.026V185.335H188.056V186.358Z" fill="black"/>
<path d="M184.7 200.822H183.67V199.799H184.7V200.822ZM184.7 198.73H183.67V197.707H184.7V198.73ZM184.7 196.683H183.67V195.66H184.7V196.683ZM184.7 194.592H183.67V193.568H184.7V194.592ZM184.7 192.5H183.67V191.477H184.7V192.5ZM184.7 190.453H183.67V189.429H184.7V190.453ZM184.7 188.361H183.67V187.338H184.7V188.361ZM184.7 186.314H183.67V185.246H184.7V186.314ZM184.7 184.223H183.67V183.199H184.7V184.223ZM184.7 182.131H183.67V181.107H184.7V182.131ZM184.7 180.084H183.67V179.016H184.7V180.084Z" fill="black"/>
<path d="M181.254 201.045H180.224V200.243H181.254V201.045ZM181.254 199.175H180.224V198.152H181.254V199.175ZM181.254 197.084H180.224V196.06H181.254V197.084ZM181.254 195.037H180.224V194.013H181.254V195.037ZM181.254 192.945H180.224V191.921H181.254V192.945ZM181.254 190.853H180.224V189.83H181.254V190.853ZM181.254 188.806H180.224V187.783H181.254V188.806ZM181.254 186.715H180.224V185.691H181.254V186.715ZM181.254 184.623H180.224V183.599H181.254V184.623ZM181.254 182.576H180.224V181.552H181.254V182.576ZM181.254 180.484H180.224V179.461H181.254V180.484ZM181.254 178.393H180.224V177.369H181.254V178.393ZM181.254 176.346H180.224V175.322H181.254V176.346ZM181.254 174.254H180.224V173.23H181.254V174.254ZM181.254 172.207H180.224V171.139H181.254V172.207ZM181.254 170.115H180.224V169.092H181.254V170.115ZM181.254 168.024H180.224V167H181.254V168.024Z" fill="black"/>
<path d="M177.852 200.511H176.822V199.487H177.852V200.511ZM177.852 198.419H176.822V197.395H177.852V198.419ZM177.852 196.372H176.822V195.348H177.852V196.372ZM177.852 194.28H176.822V193.257H177.852V194.28ZM177.852 192.189H176.822V191.165H177.852V192.189ZM177.852 190.141H176.822V189.118H177.852V190.141ZM177.852 188.05H176.822V187.026H177.852V188.05ZM177.852 186.003H176.822V184.979H177.852V186.003ZM177.852 183.911H176.822V182.887H177.852V183.911ZM177.852 181.819H176.822V180.796H177.852V181.819ZM177.852 179.772H176.822V178.749H177.852V179.772ZM177.852 177.681H176.822V176.657H177.852V177.681ZM177.852 175.589H176.822V174.565H177.852V175.589ZM177.852 173.542H176.822V172.518H177.852V173.542ZM177.852 171.45H176.822V170.427H177.852V171.45Z" fill="black"/>
<path d="M174.496 200.466H173.466V199.443H174.496V200.466ZM174.496 198.374H173.466V197.351H174.496V198.374ZM174.496 196.283H173.466V195.259H174.496V196.283ZM174.496 194.236H173.466V193.212H174.496V194.236ZM174.496 192.144H173.466V191.121H174.496V192.144ZM174.496 190.097H173.466V189.073H174.496V190.097ZM174.496 188.005H173.466V186.982H174.496V188.005ZM174.496 185.914H173.466V184.89H174.496V185.914ZM174.496 183.867H173.466V182.843H174.496V183.867ZM174.496 181.775H173.466V180.751H174.496V181.775ZM174.496 179.683H173.466V178.66H174.496V179.683ZM174.496 177.636H173.466V176.613H174.496V177.636Z" fill="black"/>
<path d="M171.139 201.045H170.109V200.422H171.139V201.045ZM171.139 199.398H170.109V198.374H171.139V199.398ZM171.139 197.306H170.109V196.283H171.139V197.306ZM171.139 195.215H170.109V194.191H171.139V195.215ZM171.139 193.168H170.109V192.144H171.139V193.168ZM171.139 191.076H170.109V190.052H171.139V191.076ZM171.139 189.029H170.109V188.005H171.139V189.029ZM171.139 186.937H170.109V185.914H171.139V186.937Z" fill="black"/>
<path d="M167.738 201.044H166.708V200.777H167.738V201.044ZM167.738 199.709H166.708V198.686H167.738V199.709ZM167.738 197.662H166.708V196.639H167.738V197.662Z" fill="black"/>
<path d="M164.381 200.377H163.306V199.353H164.336V200.377H164.381ZM164.381 198.285H163.306V197.262H164.336V198.285H164.381ZM164.381 196.238H163.306V195.215H164.336V196.238H164.381ZM164.381 194.147H163.306V193.123H164.336V194.147H164.381Z" fill="black"/>
<path d="M160.98 200.199H159.95V199.175H160.98V200.199ZM160.98 198.152H159.95V197.128H160.98V198.152ZM160.98 196.06H159.95V195.037H160.98V196.06ZM160.98 194.013H159.95V192.989H160.98V194.013ZM160.98 191.921H159.95V190.898H160.98V191.921ZM160.98 189.83H159.95V188.806H160.98V189.83Z" fill="black"/>
<path d="M157.623 201.044H156.593V200.065H157.623V201.044ZM157.623 198.997H156.593V197.974H157.623V198.997ZM157.623 196.95H156.593V195.926H157.623V196.95ZM157.623 194.858H156.593V193.835H157.623V194.858ZM157.623 192.811H156.593V191.788H157.623V192.811ZM157.623 190.72H156.593V189.696H157.623V190.72ZM157.623 188.628H156.593V187.604H157.623V188.628ZM157.623 186.581H156.593V185.557H157.623V186.581ZM157.623 184.489H156.593V183.466H157.623V184.489Z" fill="black"/>
<path d="M154.222 201.045H153.192V200.956H154.222V201.045ZM154.222 199.888H153.192V198.864H154.222V199.888ZM154.222 197.841H153.192V196.817H154.222V197.841ZM154.222 195.749H153.192V194.726H154.222V195.749ZM154.222 193.702H153.192V192.679H154.222V193.702ZM154.222 191.611H153.192V190.587H154.222V191.611ZM154.222 189.519H153.192V188.495H154.222V189.519ZM154.222 187.472H153.192V186.448H154.222V187.472ZM154.222 185.38H153.192V184.357H154.222V185.38ZM154.222 183.289H153.192V182.265H154.222V183.289ZM154.222 181.241H153.192V180.218H154.222V181.241Z" fill="black"/>
<path d="M150.865 201.044H149.835V200.688H150.865V201.044ZM150.865 199.62H149.835V198.597H150.865V199.62ZM150.865 197.529H149.835V196.505H150.865V197.529ZM150.865 195.482H149.835V194.458H150.865V195.482ZM150.865 193.39H149.835V192.366H150.865V193.39ZM150.865 191.298H149.835V190.275H150.865V191.298ZM150.865 189.251H149.835V188.228H150.865V189.251ZM150.865 187.16H149.835V186.136H150.865V187.16ZM150.865 185.113H149.835V184.089H150.865V185.113ZM150.865 183.021H149.835V181.997H150.865V183.021ZM150.865 180.929H149.835V179.906H150.865V180.929ZM150.865 178.882H149.835V177.859H150.865V178.882ZM150.865 176.791H149.835V175.767H150.865V176.791ZM150.865 174.699H149.835V173.675H150.865V174.699Z" fill="black"/>
<path d="M147.508 200.822H146.478V199.799H147.508V200.822ZM147.508 198.73H146.478V197.707H147.508V198.73ZM147.508 196.683H146.478V195.66H147.508V196.683ZM147.508 194.592H146.478V193.568H147.508V194.592ZM147.508 192.5H146.478V191.477H147.508V192.5ZM147.508 190.453H146.478V189.429H147.508V190.453ZM147.508 188.361H146.478V187.338H147.508V188.361ZM147.508 186.314H146.478V185.246H147.508V186.314ZM147.508 184.223H146.478V183.199H147.508V184.223ZM147.508 182.131H146.478V181.107H147.508V182.131ZM147.508 180.084H146.478V179.016H147.508V180.084Z" fill="black"/>
<path d="M144.107 201.044H143.077V200.866H144.107V201.044ZM144.107 199.843H143.077V198.819H144.107V199.843ZM144.107 197.751H143.077V196.728H144.107V197.751ZM144.107 195.659H143.077V194.636H144.107V195.659ZM144.107 193.612H143.077V192.589H144.107V193.612ZM144.107 191.521H143.077V190.497H144.107V191.521ZM144.107 189.474H143.077V188.45H144.107V189.474ZM144.107 187.382H143.077V186.358H144.107V187.382ZM144.107 185.29H143.077V184.267H144.107V185.29Z" fill="black"/>
<path d="M140.661 200.823H139.631V199.799H140.661V200.823ZM140.661 198.731H139.631V197.707H140.661V198.731ZM140.661 196.639H139.631V195.616H140.661V196.639ZM140.661 194.592H139.631V193.569H140.661V194.592ZM140.661 192.501H139.631V191.477H140.661V192.501ZM140.661 190.409H139.631V189.385H140.661V190.409Z" fill="black"/>
<path d="M137.304 201.044H136.274V200.198H137.304V201.044ZM137.304 199.175H136.274V198.151H137.304V199.175Z" fill="black"/>
<path d="M133.903 200.021H132.873V198.997H133.903V200.021ZM133.903 197.974H132.873V196.95H133.903V197.974ZM133.903 195.882H132.873V194.858H133.903V195.882ZM133.903 193.79H132.873V192.767H133.903V193.79Z" fill="black"/>
<path d="M130.546 201.045H129.516V200.911H130.546V201.045ZM130.546 199.843H129.516V198.819H130.546V199.843ZM130.546 197.751H129.516V196.728H130.546V197.751ZM130.546 195.704H129.516V194.681H130.546V195.704ZM130.546 193.613H129.516V192.589H130.546V193.613ZM130.546 191.566H129.516V190.542H130.546V191.566ZM130.546 189.474H129.516V188.45H130.546V189.474Z" fill="black"/>
<path d="M127.145 201.045H126.114V200.6H127.145V201.045ZM127.145 199.531H126.114V198.508H127.145V199.531ZM127.145 197.484H126.114V196.461H127.145V197.484ZM127.145 195.393H126.114V194.369H127.145V195.393ZM127.145 193.301H126.114V192.278H127.145V193.301ZM127.145 191.254H126.114V190.23H127.145V191.254ZM127.145 189.162H126.114V188.139H127.145V189.162ZM127.145 187.071H126.114V186.047H127.145V187.071ZM127.145 185.024H126.114V184H127.145V185.024Z" fill="black"/>
<path d="M123.788 199.932H122.758V198.908H123.788V199.932ZM123.788 197.885H122.758V196.861H123.788V197.885ZM123.788 195.793H122.758V194.769H123.788V195.793ZM123.788 193.746H122.758V192.722H123.788V193.746ZM123.788 191.654H122.758V190.631H123.788V191.654ZM123.788 189.563H122.758V188.539H123.788V189.563ZM123.788 187.515H122.758V186.492H123.788V187.515ZM123.788 185.424H122.758V184.4H123.788V185.424ZM123.788 183.332H122.758V182.309H123.788V183.332ZM123.788 181.285H122.758V180.261H123.788V181.285ZM123.788 179.193H122.758V178.17H123.788V179.193Z" fill="black"/>
<path d="M120.432 200.822H119.401V199.799H120.432V200.822ZM120.432 198.775H119.401V197.707H120.432V198.775ZM120.432 196.684H119.401V195.66H120.432V196.684ZM120.432 194.592H119.401V193.568H120.432V194.592ZM120.432 192.545H119.401V191.521H120.432V192.545ZM120.432 190.453H119.401V189.43H120.432V190.453ZM120.432 188.406H119.401V187.383H120.432V188.406ZM120.432 186.315H119.401V185.291H120.432V186.315ZM120.432 184.223H119.401V183.199H120.432V184.223ZM120.432 182.176H119.401V181.152H120.432V182.176ZM120.432 180.084H119.401V179.061H120.432V180.084ZM120.432 177.993H119.401V176.969H120.432V177.993ZM120.432 175.945H119.401V174.922H120.432V175.945ZM120.432 173.854H119.401V172.83H120.432V173.854ZM120.432 171.807H119.401V170.739H120.432V171.807ZM120.432 169.715H119.401V168.691H120.432V169.715Z" fill="black"/>
<path d="M117.03 201.044H116V200.822H117.03V201.044ZM117.03 199.798H116V198.775H117.03V199.798ZM117.03 197.707H116V196.683H117.03V197.707ZM117.03 195.615H116V194.592H117.03V195.615ZM117.03 193.568H116V192.544H117.03V193.568ZM117.03 191.476H116V190.453H117.03V191.476ZM117.03 189.429H116V188.361H117.03V189.429ZM117.03 187.338H116V186.314H117.03V187.338ZM117.03 185.246H116V184.222H117.03V185.246ZM117.03 183.199H116V182.131H117.03V183.199ZM117.03 181.107H116V180.084H117.03V181.107ZM117.03 179.016H116V177.992H117.03V179.016ZM117.03 176.968H116V175.9H117.03V176.968ZM117.03 174.877H116V173.853H117.03V174.877ZM117.03 172.83H116V171.806H117.03V172.83Z" fill="black"/>
<path d="M276 204.471H274.97V203.447H276V204.471ZM276 202.379H274.97V201.355H276V202.379Z" fill="black"/>
<path d="M272.599 207.586H271.569V206.563H272.599V207.586ZM272.599 205.539H271.569V204.516H272.599V205.539ZM272.599 203.448H271.569V202.424H272.599V203.448ZM272.599 201.356H271.569V200.955H272.599V201.356Z" fill="black"/>
<path d="M269.242 212.971H268.212V211.947H269.242V212.971ZM269.242 210.879H268.212V209.856H269.242V210.879ZM269.242 208.787H268.212V207.764H269.242V208.787ZM269.242 206.74H268.212V205.717H269.242V206.74ZM269.242 204.649H268.212V203.625H269.242V204.649ZM269.242 202.602H268.212V201.578H269.242V202.602Z" fill="black"/>
<path d="M265.796 205.406H264.766V204.382H265.796V205.406ZM265.796 203.314H264.766V202.291H265.796V203.314ZM265.796 201.222H264.766V200.955H265.796V201.222Z" fill="black"/>
<path d="M262.44 210.301H261.41V209.277H262.44V210.301ZM262.44 208.209H261.41V207.186H262.44V208.209ZM262.44 206.118H261.41V205.094H262.44V206.118ZM262.44 204.071H261.41V203.047H262.44V204.071ZM262.44 201.979H261.41V200.955H262.44V201.979Z" fill="black"/>
<path d="M259.038 215.419H258.008V214.395H259.038V215.419ZM259.038 213.327H258.008V212.304H259.038V213.327ZM259.038 211.236H258.008V210.212H259.038V211.236ZM259.038 209.189H258.008V208.165H259.038V209.189ZM259.038 207.097H258.008V206.073H259.038V207.097ZM259.038 205.005H258.008V203.982H259.038V205.005ZM259.038 202.958H258.008V201.935H259.038V202.958Z" fill="black"/>
<path d="M255.682 214.617H254.607V213.594H255.637V214.617H255.682ZM255.682 212.526H254.607V211.502H255.637V212.526H255.682ZM255.682 210.434H254.607V209.411H255.637V210.434H255.682ZM255.682 208.387H254.607V207.364H255.637V208.387H255.682ZM255.682 206.296H254.607V205.272H255.637V206.296H255.682ZM255.682 204.248H254.607V203.225H255.637V204.248H255.682ZM255.682 202.157H254.607V201.133H255.637V202.157H255.682Z" fill="black"/>
<path d="M252.28 222.806H251.25V221.783H252.28V222.806ZM252.28 220.715H251.25V219.691H252.28V220.715ZM252.28 218.668H251.25V217.644H252.28V218.668ZM252.28 216.576H251.25V215.552H252.28V216.576ZM252.28 214.484H251.25V213.461H252.28V214.484ZM252.28 212.437H251.25V211.414H252.28V212.437ZM252.28 210.346H251.25V209.322H252.28V210.346ZM252.28 208.254H251.25V207.23H252.28V208.254ZM252.28 206.207H251.25V205.183H252.28V206.207ZM252.28 204.115H251.25V203.092H252.28V204.115ZM252.28 202.068H251.25V201.045H252.28V202.068Z" fill="black"/>
<path d="M248.923 226.723H247.893V225.699H248.923V226.723ZM248.923 224.631H247.893V223.607H248.923V224.631ZM248.923 222.584H247.893V221.56H248.923V222.584ZM248.923 220.492H247.893V219.469H248.923V220.492ZM248.923 218.445H247.893V217.421H248.923V218.445ZM248.923 216.353H247.893V215.33H248.923V216.353ZM248.923 214.262H247.893V213.238H248.923V214.262ZM248.923 212.215H247.893V211.191H248.923V212.215ZM248.923 210.123H247.893V209.099H248.923V210.123ZM248.923 208.031H247.893V207.008H248.923V208.031ZM248.923 205.984H247.893V204.961H248.923V205.984ZM248.923 203.893H247.893V202.869H248.923V203.893ZM248.923 201.846H247.893V201H248.923V201.846Z" fill="black"/>
<path d="M245.522 222.406H244.492V221.382H245.522V222.406ZM245.522 220.314H244.492V219.291H245.522V220.314ZM245.522 218.223H244.492V217.199H245.522V218.223ZM245.522 216.175H244.492V215.152H245.522V216.175ZM245.522 214.084H244.492V213.06H245.522V214.084ZM245.522 211.992H244.492V210.969H245.522V211.992ZM245.522 209.945H244.492V208.921H245.522V209.945ZM245.522 207.853H244.492V206.83H245.522V207.853ZM245.522 205.762H244.492V204.738H245.522V205.762ZM245.522 203.715H244.492V202.691H245.522V203.715ZM245.522 201.623H244.492V200.955H245.522V201.623Z" fill="black"/>
<path d="M242.166 231.351H241.135V230.327H242.166V231.351ZM242.166 229.259H241.135V228.235H242.166V229.259ZM242.166 227.167H241.135V226.144H242.166V227.167ZM242.166 225.12H241.135V224.097H242.166V225.12ZM242.166 223.029H241.135V222.005H242.166V223.029ZM242.166 220.937H241.135V219.913H242.166V220.937ZM242.166 218.89H241.135V217.866H242.166V218.89ZM242.166 216.798H241.135V215.775H242.166V216.798ZM242.166 214.751H241.135V213.728H242.166V214.751ZM242.166 212.659H241.135V211.636H242.166V212.659ZM242.166 210.568H241.135V209.544H242.166V210.568ZM242.166 208.521H241.135V207.497H242.166V208.521ZM242.166 206.429H241.135V205.406H242.166V206.429ZM242.166 204.337H241.135V203.314H242.166V204.337ZM242.166 202.29H241.135V201.267H242.166V202.29Z" fill="black"/>
<path d="M238.764 210.079H237.734V209.055H238.764V210.079ZM238.764 207.987H237.734V206.963H238.764V207.987ZM238.764 205.895H237.734V204.872H238.764V205.895ZM238.764 203.848H237.734V202.825H238.764V203.848ZM238.764 201.757H237.734V201H238.764V201.757Z" fill="black"/>
<path d="M235.408 216.887H234.377V215.863H235.408V216.887ZM235.408 214.795H234.377V213.772H235.408V214.795ZM235.408 212.748H234.377V211.725H235.408V212.748ZM235.408 210.656H234.377V209.633H235.408V210.656ZM235.408 208.609H234.377V207.586H235.408V208.609ZM235.408 206.518H234.377V205.494H235.408V206.518ZM235.408 204.426H234.377V203.403H235.408V204.426ZM235.408 202.379H234.377V201.355H235.408V202.379Z" fill="black"/>
<path d="M232.051 221.204H231.021V220.18H232.051V221.204ZM232.051 219.112H231.021V218.089H232.051V219.112ZM232.051 217.065H231.021V216.042H232.051V217.065ZM232.051 214.974H231.021V213.95H232.051V214.974ZM232.051 212.882H231.021V211.858H232.051V212.882ZM232.051 210.835H231.021V209.811H232.051V210.835ZM232.051 208.743H231.021V207.72H232.051V208.743ZM232.051 206.696H231.021V205.673H232.051V206.696ZM232.051 204.605H231.021V203.581H232.051V204.605ZM232.051 202.513H231.021V201.489H232.051V202.513Z" fill="black"/>
<path d="M228.649 216.576H227.619V215.552H228.649V216.576ZM228.649 214.529H227.619V213.505H228.649V214.529ZM228.649 212.437H227.619V211.414H228.649V212.437ZM228.649 210.346H227.619V209.322H228.649V210.346ZM228.649 208.298H227.619V207.275H228.649V208.298ZM228.649 206.207H227.619V205.183H228.649V206.207ZM228.649 204.115H227.619V203.092H228.649V204.115ZM228.649 202.068H227.619V201.045H228.649V202.068Z" fill="black"/>
<path d="M225.203 215.285H224.173V214.261H225.203V215.285ZM225.203 213.193H224.173V212.17H225.203V213.193ZM225.203 211.146H224.173V210.123H225.203V211.146ZM225.203 209.055H224.173V208.031H225.203V209.055ZM225.203 206.963H224.173V205.939H225.203V206.963ZM225.203 204.916H224.173V203.892H225.203V204.916ZM225.203 202.824H224.173V201.801H225.203V202.824Z" fill="black"/>
<path d="M221.847 211.191H220.817V210.167H221.847V211.191ZM221.847 209.144H220.817V208.12H221.847V209.144ZM221.847 207.052H220.817V206.028H221.847V207.052ZM221.847 205.005H220.817V203.937H221.847V205.005ZM221.847 202.913H220.817V201.89H221.847V202.913Z" fill="black"/>
<path d="M218.445 201.89H217.415V202.913H218.445V201.89Z" fill="black"/>
<path d="M215.089 205.139H214.059V204.115H215.089V205.139ZM215.089 203.092H214.059V202.068H215.089V203.092ZM215.089 201H214.059V200.955L215.089 201Z" fill="black"/>
<path d="M211.687 208.654H210.657V207.631H211.687V208.654ZM211.687 206.563H210.657V205.539H211.687V206.563ZM211.687 204.516H210.657V203.492H211.687V204.516ZM211.687 202.424H210.657V201.4H211.687V202.424Z" fill="black"/>
<path d="M208.331 214.84H207.3V213.816H208.331V214.84ZM208.331 212.748H207.3V211.725H208.331V212.748ZM208.331 210.656H207.3V209.633H208.331V210.656ZM208.331 208.609H207.3V207.586H208.331V208.609ZM208.331 206.518H207.3V205.494H208.331V206.518ZM208.331 204.426H207.3V203.403H208.331V204.426ZM208.331 202.379H207.3V201.355H208.331V202.379Z" fill="black"/>
<path d="M204.974 221.56H203.944V220.536H204.974V221.56ZM204.974 219.513H203.944V218.489H204.974V219.513ZM204.974 217.421H203.944V216.398H204.974V217.421ZM204.974 215.329H203.944V214.306H204.974V215.329ZM204.974 213.282H203.944V212.259H204.974V213.282ZM204.974 211.191H203.944V210.167H204.974V211.191ZM204.974 209.099H203.944V208.076H204.974V209.099ZM204.974 207.052H203.944V206.028H204.974V207.052ZM204.974 204.96H203.944V203.937H204.974V204.96ZM204.974 202.913H203.944V201.89H204.974V202.913Z" fill="black"/>
<path d="M201.573 203.403H200.542V202.38H201.573V203.403ZM201.573 201.356H200.542V201H201.573V201.356Z" fill="black"/>
<path d="M198.216 206.34H197.186V205.272H198.216V206.34ZM198.216 204.248H197.186V203.225H198.216V204.248ZM198.216 202.157H197.186V201.133H198.216V202.157Z" fill="black"/>
<path d="M194.815 212.259H193.784V211.236H194.815V212.259ZM194.815 210.168H193.784V209.144H194.815V210.168ZM194.815 208.12H193.784V207.052H194.815V208.12ZM194.815 206.029H193.784V205.005H194.815V206.029ZM194.815 203.937H193.784V202.914H194.815V203.937ZM194.815 201.89H193.784V200.955H194.815V201.89Z" fill="black"/>
<path d="M191.458 225.743H190.428V224.72H191.458V225.743ZM191.458 223.696H190.428V222.628H191.458V223.696ZM191.458 221.604H190.428V220.581H191.458V221.604ZM191.458 219.513H190.428V218.489H191.458V219.513ZM191.458 217.466H190.428V216.442H191.458V217.466ZM191.458 215.374H190.428V214.35H191.458V215.374ZM191.458 213.327H190.428V212.303H191.458V213.327ZM191.458 211.235H190.428V210.212H191.458V211.235ZM191.458 209.144H190.428V208.12H191.458V209.144ZM191.458 207.097H190.428V206.073H191.458V207.097ZM191.458 205.005H190.428V203.981H191.458V205.005ZM191.458 202.913H190.428V201.89H191.458V202.913Z" fill="black"/>
<path d="M188.056 216.665H187.026V215.641H188.056V216.665ZM188.056 214.617H187.026V213.594H188.056V214.617ZM188.056 212.526H187.026V211.502H188.056V212.526ZM188.056 210.434H187.026V209.411H188.056V210.434ZM188.056 208.387H187.026V207.364H188.056V208.387ZM188.056 206.296H187.026V205.272H188.056V206.296ZM188.056 204.248H187.026V203.225H188.056V204.248ZM188.056 202.157H187.026V201.133H188.056V202.157Z" fill="black"/>
<path d="M184.7 222.984H183.67V221.961H184.7V222.984ZM184.7 220.893H183.67V219.869H184.7V220.893ZM184.7 218.801H183.67V217.778H184.7V218.801ZM184.7 216.754H183.67V215.73H184.7V216.754ZM184.7 214.662H183.67V213.639H184.7V214.662ZM184.7 212.571H183.67V211.547H184.7V212.571ZM184.7 210.524H183.67V209.5H184.7V210.524ZM184.7 208.432H183.67V207.408H184.7V208.432ZM184.7 206.385H183.67V205.361H184.7V206.385ZM184.7 204.293H183.67V203.27H184.7V204.293ZM184.7 202.202H183.67V201.178H184.7V202.202Z" fill="black"/>
<path d="M181.254 235H180.224V233.976H181.254V235ZM181.254 232.908H180.224V231.885H181.254V232.908ZM181.254 230.861H180.224V229.838H181.254V230.861ZM181.254 228.77H180.224V227.746H181.254V228.77ZM181.254 226.678H180.224V225.654H181.254V226.678ZM181.254 224.631H180.224V223.607H181.254V224.631ZM181.254 222.539H180.224V221.516H181.254V222.539ZM181.254 220.492H180.224V219.469H181.254V220.492ZM181.254 218.401H180.224V217.377H181.254V218.401ZM181.254 216.309H180.224V215.285H181.254V216.309ZM181.254 214.262H180.224V213.238H181.254V214.262ZM181.254 212.17H180.224V211.147H181.254V212.17ZM181.254 210.079H180.224V209.055H181.254V210.079ZM181.254 208.031H180.224V207.008H181.254V208.031ZM181.254 205.94H180.224V204.916H181.254V205.94ZM181.254 203.848H180.224V202.825H181.254V203.848ZM181.254 201.801H180.224V201H181.254V201.801Z" fill="black"/>
<path d="M177.852 231.573H176.822V230.55H177.852V231.573ZM177.852 229.482H176.822V228.458H177.852V229.482ZM177.852 227.434H176.822V226.411H177.852V227.434ZM177.852 225.343H176.822V224.319H177.852V225.343ZM177.852 223.296H176.822V222.272H177.852V223.296ZM177.852 221.204H176.822V220.18H177.852V221.204ZM177.852 219.112H176.822V218.089H177.852V219.112ZM177.852 217.065H176.822V216.042H177.852V217.065ZM177.852 214.974H176.822V213.95H177.852V214.974ZM177.852 212.882H176.822V211.858H177.852V212.882ZM177.852 210.835H176.822V209.811H177.852V210.835ZM177.852 208.743H176.822V207.72H177.852V208.743ZM177.852 206.696H176.822V205.673H177.852V206.696ZM177.852 204.605H176.822V203.581H177.852V204.605ZM177.852 202.513H176.822V201.489H177.852V202.513Z" fill="black"/>
<path d="M174.496 225.387H173.466V224.363H174.496V225.387ZM174.496 223.34H173.466V222.316H174.496V223.34ZM174.496 221.248H173.466V220.225H174.496V221.248ZM174.496 219.201H173.466V218.178H174.496V219.201ZM174.496 217.109H173.466V216.086H174.496V217.109ZM174.496 215.018H173.466V213.994H174.496V215.018ZM174.496 212.971H173.466V211.947H174.496V212.971ZM174.496 210.879H173.466V209.856H174.496V210.879ZM174.496 208.787H173.466V207.764H174.496V208.787ZM174.496 206.74H173.466V205.717H174.496V206.74ZM174.496 204.649H173.466V203.625H174.496V204.649ZM174.496 202.602H173.466V201.578H174.496V202.602Z" fill="black"/>
<path d="M171.139 216.086H170.109V215.063H171.139V216.086ZM171.139 214.039H170.109V213.016H171.139V214.039ZM171.139 211.948H170.109V210.924H171.139V211.948ZM171.139 209.856H170.109V208.832H171.139V209.856ZM171.139 207.809H170.109V206.785H171.139V207.809ZM171.139 205.717H170.109V204.694H171.139V205.717ZM171.139 203.67H170.109V202.602H171.139V203.67ZM171.139 201.579H170.109V200.955H171.139V201.579Z" fill="black"/>
<path d="M167.738 205.406H166.708V204.382H167.738V205.406ZM167.738 203.314H166.708V202.291H167.738V203.314ZM167.738 201.222H166.708V200.955H167.738V201.222Z" fill="black"/>
<path d="M164.381 208.877H163.306V207.853H164.336V208.877H164.381ZM164.381 206.83H163.306V205.806H164.336V206.83H164.381ZM164.381 204.738H163.306V203.715H164.336V204.738H164.381ZM164.381 202.646H163.306V201.623H164.336V202.646H164.381Z" fill="black"/>
<path d="M160.98 213.193H159.95V212.17H160.98V213.193ZM160.98 211.102H159.95V210.078H160.98V211.102ZM160.98 209.055H159.95V208.031H160.98V209.055ZM160.98 206.963H159.95V205.939H160.98V206.963ZM160.98 204.871H159.95V203.848H160.98V204.871ZM160.98 202.824H159.95V201.801H160.98V202.824Z" fill="black"/>
<path d="M157.623 218.534H156.593V217.51H157.623V218.534ZM157.623 216.487H156.593V215.463H157.623V216.487ZM157.623 214.395H156.593V213.372H157.623V214.395ZM157.623 212.304H156.593V211.28H157.623V212.304ZM157.623 210.257H156.593V209.233H157.623V210.257ZM157.623 208.165H156.593V207.141H157.623V208.165ZM157.623 206.073H156.593V205.05H157.623V206.073ZM157.623 204.026H156.593V203.003H157.623V204.026ZM157.623 201.935H156.593V200.955H157.623V201.935Z" fill="black"/>
<path d="M154.222 221.783H153.192V220.759H154.222V221.783ZM154.222 219.736H153.192V218.712H154.222V219.736ZM154.222 217.644H153.192V216.62H154.222V217.644ZM154.222 215.597H153.192V214.573H154.222V215.597ZM154.222 213.505H153.192V212.482H154.222V213.505ZM154.222 211.414H153.192V210.39H154.222V211.414ZM154.222 209.366H153.192V208.343H154.222V209.366ZM154.222 207.275H153.192V206.251H154.222V207.275ZM154.222 205.183H153.192V204.16H154.222V205.183ZM154.222 203.136H153.192V202.113H154.222V203.136ZM154.222 201.044H153.192V200.955H154.222V201.044Z" fill="black"/>
<path d="M150.865 228.325H149.835V227.301H150.865V228.325ZM150.865 226.233H149.835V225.209H150.865V226.233ZM150.865 224.186H149.835V223.162H150.865V224.186ZM150.865 222.094H149.835V221.071H150.865V222.094ZM150.865 220.003H149.835V218.979H150.865V220.003ZM150.865 217.956H149.835V216.932H150.865V217.956ZM150.865 215.864H149.835V214.84H150.865V215.864ZM150.865 213.772H149.835V212.749H150.865V213.772ZM150.865 211.725H149.835V210.702H150.865V211.725ZM150.865 209.634H149.835V208.61H150.865V209.634ZM150.865 207.586H149.835V206.563H150.865V207.586ZM150.865 205.495H149.835V204.471H150.865V205.495ZM150.865 203.403H149.835V202.38H150.865V203.403ZM150.865 201.356H149.835V201H150.865V201.356Z" fill="black"/>
<path d="M147.508 222.984H146.478V221.961H147.508V222.984ZM147.508 220.893H146.478V219.869H147.508V220.893ZM147.508 218.801H146.478V217.778H147.508V218.801ZM147.508 216.754H146.478V215.73H147.508V216.754ZM147.508 214.662H146.478V213.639H147.508V214.662ZM147.508 212.571H146.478V211.547H147.508V212.571ZM147.508 210.524H146.478V209.5H147.508V210.524ZM147.508 208.432H146.478V207.408H147.508V208.432ZM147.508 206.385H146.478V205.361H147.508V206.385ZM147.508 204.293H146.478V203.27H147.508V204.293ZM147.508 202.202H146.478V201.178H147.508V202.202Z" fill="black"/>
<path d="M144.107 217.733H143.077V216.709H144.107V217.733ZM144.107 215.641H143.077V214.618H144.107V215.641ZM144.107 213.594H143.077V212.571H144.107V213.594ZM144.107 211.503H143.077V210.479H144.107V211.503ZM144.107 209.411H143.077V208.387H144.107V209.411ZM144.107 207.364H143.077V206.34H144.107V207.364ZM144.107 205.272H143.077V204.249H144.107V205.272ZM144.107 203.181H143.077V202.157H144.107V203.181ZM144.107 201.133H143.077V200.955H144.107V201.133Z" fill="black"/>
<path d="M140.661 212.615H139.631V211.591H140.661V212.615ZM140.661 210.523H139.631V209.5H140.661V210.523ZM140.661 208.476H139.631V207.453H140.661V208.476ZM140.661 206.385H139.631V205.361H140.661V206.385ZM140.661 204.293H139.631V203.269H140.661V204.293ZM140.661 202.246H139.631V201.222H140.661V202.246Z" fill="black"/>
<path d="M137.304 203.893H136.274V202.869H137.304V203.893ZM137.304 201.801H136.274V200.955H137.304V201.801Z" fill="black"/>
<path d="M133.903 209.233H132.873V208.209H133.903V209.233ZM133.903 207.141H132.873V206.118H133.903V207.141ZM133.903 205.094H132.873V204.071H133.903V205.094ZM133.903 203.003H132.873V201.979H133.903V203.003Z" fill="black"/>
<path d="M130.546 213.55H129.516V212.526H130.546V213.55ZM130.546 211.503H129.516V210.479H130.546V211.503ZM130.546 209.411H129.516V208.387H130.546V209.411ZM130.546 207.319H129.516V206.296H130.546V207.319ZM130.546 205.272H129.516V204.249H130.546V205.272ZM130.546 203.181H129.516V202.157H130.546V203.181ZM130.546 201.134H129.516V201H130.546V201.134Z" fill="black"/>
<path d="M127.145 218H126.114V216.976H127.145V218ZM127.145 215.953H126.114V214.929H127.145V215.953ZM127.145 213.861H126.114V212.838H127.145V213.861ZM127.145 211.814H126.114V210.791H127.145V211.814ZM127.145 209.723H126.114V208.699H127.145V209.723ZM127.145 207.631H126.114V206.607H127.145V207.631ZM127.145 205.584H126.114V204.56H127.145V205.584ZM127.145 203.492H126.114V202.469H127.145V203.492ZM127.145 201.401H126.114V200.955H127.145V201.401Z" fill="black"/>
<path d="M123.788 223.83H122.758V222.806H123.788V223.83ZM123.788 221.738H122.758V220.715H123.788V221.738ZM123.788 219.691H122.758V218.623H123.788V219.691ZM123.788 217.599H122.758V216.576H123.788V217.599ZM123.788 215.552H122.758V214.529H123.788V215.552ZM123.788 213.461H122.758V212.437H123.788V213.461ZM123.788 211.369H122.758V210.346H123.788V211.369ZM123.788 209.322H122.758V208.298H123.788V209.322ZM123.788 207.23H122.758V206.207H123.788V207.23ZM123.788 205.139H122.758V204.115H123.788V205.139ZM123.788 203.092H122.758V202.068H123.788V203.092Z" fill="black"/>
<path d="M120.432 233.309H119.401V232.285H120.432V233.309ZM120.432 231.262H119.401V230.194H120.432V231.262ZM120.432 229.17H119.401V228.147H120.432V229.17ZM120.432 227.079H119.401V226.055H120.432V227.079ZM120.432 225.032H119.401V223.963H120.432V225.032ZM120.432 222.94H119.401V221.916H120.432V222.94ZM120.432 220.893H119.401V219.869H120.432V220.893ZM120.432 218.801H119.401V217.778H120.432V218.801ZM120.432 216.71H119.401V215.686H120.432V216.71ZM120.432 214.662H119.401V213.639H120.432V214.662ZM120.432 212.571H119.401V211.547H120.432V212.571ZM120.432 210.479H119.401V209.456H120.432V210.479ZM120.432 208.432H119.401V207.408H120.432V208.432ZM120.432 206.34H119.401V205.317H120.432V206.34ZM120.432 204.293H119.401V203.27H120.432V204.293ZM120.432 202.202H119.401V201.178H120.432V202.202Z" fill="black"/>
<path d="M117.03 230.238H116V229.214H117.03V230.238ZM117.03 228.146H116V227.123H117.03V228.146ZM117.03 226.055H116V225.031H117.03V226.055ZM117.03 224.008H116V222.984H117.03V224.008ZM117.03 221.916H116V220.892H117.03V221.916ZM117.03 219.869H116V218.845H117.03V219.869ZM117.03 217.777H116V216.754H117.03V217.777ZM117.03 215.686H116V214.662H117.03V215.686ZM117.03 213.639H116V212.615H117.03V213.639ZM117.03 211.547H116V210.523H117.03V211.547ZM117.03 209.455H116V208.432H117.03V209.455ZM117.03 207.408H116V206.385H117.03V207.408ZM117.03 205.317H116V204.293H117.03V205.317ZM117.03 203.225H116V202.201H117.03V203.225ZM117.03 201.178H116V201H117.03V201.178Z" fill="black"/>
</g>
<path d="M196.208 188.178L190 183.206C187.382 181.109 183.5 182.973 183.5 186.328V209.672C183.5 213.027 187.382 214.891 190 212.794L196.208 207.822L204.59 201.125C206.593 199.524 206.593 196.476 204.59 194.875L196.208 188.178ZM196.208 188.178L190 183.206C187.382 181.109 183.5 182.973 183.5 186.328V209.672C183.5 213.027 187.382 214.891 190 212.794L196.208 207.822L204.59 201.125C206.593 199.524 206.593 196.476 204.59 194.875L196.208 188.178ZM196.208 188.178L190 183.206C187.382 181.109 183.5 182.973 183.5 186.328V209.672C183.5 213.027 187.382 214.891 190 212.794L196.208 207.822L204.59 201.125C206.593 199.524 206.593 196.476 204.59 194.875L196.208 188.178Z" fill="black"/>
<defs>
<filter id="filter0_d_38_4685" x="0" y="0" width="392" height="392" filterUnits="userSpaceOnUse" color-interpolation-filters="sRGB">
<feFlood flood-opacity="0" result="BackgroundImageFix"/>
<feColorMatrix in="SourceAlpha" type="matrix" values="0 0 0 0 0 0 0 0 0 0 0 0 0 0 0 0 0 0 127 0" result="hardAlpha"/>
<feOffset/>
<feGaussianBlur stdDeviation="12.5"/>
<feComposite in2="hardAlpha" operator="out"/>
<feColorMatrix type="matrix" values="0 0 0 0 0 0 0 0 0 0 0 0 0 0 0 0 0 0 0.1 0"/>
<feBlend mode="normal" in2="BackgroundImageFix" result="effect1_dropShadow_38_4685"/>
<feBlend mode="normal" in="SourceGraphic" in2="effect1_dropShadow_38_4685" result="shape"/>
</filter>
</defs>
</svg>
