<svg width="1030" height="322" viewBox="0 0 1030 322" fill="none" xmlns="http://www.w3.org/2000/svg">
<g opacity="0.2">
<path d="M29.8275 161V173.578H39.9816V161V148.422H29.8275V161Z" fill="#FD6036"/>
<path d="M45.0586 161V191.816H55.2126V161V130.184H45.0586V161Z" fill="#FD6036"/>
<path d="M60.2896 161V248.418H69.809V161V73.582H60.2896V161Z" fill="#FD6036"/>
<path d="M0 160.999V165.402H10.154V160.999V156.597H0V160.999Z" fill="#FD6036"/>
<path d="M15.2312 161V170.434H24.7506V161V150.937H15.2312V161Z" fill="#FD6036"/>
<path d="M74.8861 161V298.73H85.0401V161V22.6406H74.8861V161Z" fill="#FD6036"/>
<path d="M90.1171 161V229.551H100.271V161V91.8203H90.1171V161Z" fill="#FD6036"/>
<path d="M105.348 161V177.352H115.502V161V144.648H105.348V161Z" fill="#FD6036"/>
<path d="M119.945 161V242.129H130.099V161V79.8711H119.945V161Z" fill="#FD6036"/>
<path d="M135.176 161V289.926H145.33V161V32.0742H135.176V161Z" fill="#FD6036"/>
<path d="M150.406 161V322H160.561V161V0H150.406V161Z" fill="#FD6036"/>
<path d="M165.003 161V211.941H175.157V161V110.059H165.003V161Z" fill="#FD6036"/>
<path d="M180.234 161V186.156H190.388V161V135.215H180.234V161Z" fill="#FD6036"/>
<path d="M195.465 161V167.289H205.619V161V154.082H195.465V161Z" fill="#FD6036"/>
<path d="M210.062 161V211.941H220.216V161V110.059H210.062V161Z" fill="#FD6036"/>
<path d="M225.292 161V245.273H235.447V161V76.7266H225.292V161Z" fill="#FD6036"/>
<path d="M240.524 161V289.926H250.678V161V32.0742H240.524V161Z" fill="#FD6036"/>
<path d="M255.755 91.8203V161V229.551H265.274V161V91.8203H255.755Z" fill="#FD6036"/>
<path d="M272.89 161V191.816H283.044V161V130.184H272.89V161Z" fill="#FD6036"/>
<path d="M287.486 140.875V161V181.125H297.64V161V140.875H287.486Z" fill="#FD6036"/>
<path d="M305.256 161V173.578H315.41V161V148.422H305.256V161Z" fill="#FD6036"/>
<path d="M319.852 150.937V161V170.434H330.006V161V150.937H319.852Z" fill="#FD6036"/>
<path d="M337.622 161V165.402H347.141V161V156.598H337.622V161Z" fill="#FD6036"/>
<path d="M371.257 161V173.578H381.411V161V148.422H371.257V161Z" fill="#FD6036"/>
<path d="M386.488 161V191.816H396.007V161V130.184H386.488V161Z" fill="#FD6036"/>
<path d="M401.085 161V248.418H411.239V161V73.582H401.085V161Z" fill="#FD6036"/>
<path d="M341.43 160.999V165.402H350.949V160.999V156.597H341.43V160.999Z" fill="#FD6036"/>
<path d="M356.027 161V170.434H366.181V161V150.937H356.027V161Z" fill="#FD6036"/>
<path d="M416.316 161V298.73H426.47V161V22.6406H416.316V161Z" fill="#FD6036"/>
<path d="M431.546 161V229.551H441.066V161V91.8203H431.546V161Z" fill="#FD6036"/>
<path d="M446.143 161V177.352H456.297V161V144.648H446.143V161Z" fill="#FD6036"/>
<path d="M461.375 161V242.129H471.529V161V79.8711H461.375V161Z" fill="#FD6036"/>
<path d="M476.606 161V289.926H486.76V161V32.0742H476.606V161Z" fill="#FD6036"/>
<path d="M491.201 161V322H501.355V161V0H491.201V161Z" fill="#FD6036"/>
<path d="M506.432 161V211.941H516.586V161V110.059H506.432V161Z" fill="#FD6036"/>
<path d="M521.664 161V186.156H531.818V161V135.215H521.664V161Z" fill="#FD6036"/>
<path d="M536.26 161V167.289H546.414V161V154.082H536.26V161Z" fill="#FD6036"/>
<path d="M551.491 161V211.941H561.645V161V110.059H551.491V161Z" fill="#FD6036"/>
<path d="M566.722 161V245.273H576.876V161V76.7266H566.722V161Z" fill="#FD6036"/>
<path d="M581.319 161V289.926H591.473V161V32.0742H581.319V161Z" fill="#FD6036"/>
<path d="M596.549 91.8203V161V229.551H606.703V161V91.8203H596.549Z" fill="#FD6036"/>
<path d="M613.685 161V191.816H623.839V161V130.184H613.685V161Z" fill="#FD6036"/>
<path d="M628.916 140.875V161V181.125H639.07V161V140.875H628.916Z" fill="#FD6036"/>
<path d="M646.05 161V173.578H656.204V161V148.422H646.05V161Z" fill="#FD6036"/>
<path d="M661.282 150.937V161V170.434H671.436V161V150.937H661.282Z" fill="#FD6036"/>
<path d="M678.416 161V165.402H688.57V161V156.598H678.416V161Z" fill="#FD6036"/>
<path d="M712.686 161V173.578H722.206V161V148.422H712.686V161Z" fill="#FD6036"/>
<path d="M727.283 161V191.816H737.437V161V130.184H727.283V161Z" fill="#FD6036"/>
<path d="M742.514 161V248.418H752.668V161V73.582H742.514V161Z" fill="#FD6036"/>
<path d="M682.224 160.999V165.402H692.378V160.999V156.597H682.224V160.999Z" fill="#FD6036"/>
<path d="M697.455 161V170.434H707.609V161V150.937H697.455V161Z" fill="#FD6036"/>
<path d="M757.745 161V298.73H767.264V161V22.6406H757.745V161Z" fill="#FD6036"/>
<path d="M772.341 161V229.551H782.495V161V91.8203H772.341V161Z" fill="#FD6036"/>
<path d="M787.572 161V177.352H797.726V161V144.648H787.572V161Z" fill="#FD6036"/>
<path d="M802.803 161V242.129H812.323V161V79.8711H802.803V161Z" fill="#FD6036"/>
<path d="M817.4 161V289.926H827.554V161V32.0742H817.4V161Z" fill="#FD6036"/>
<path d="M832.631 161V322H842.785V161V0H832.631V161Z" fill="#FD6036"/>
<path d="M847.862 161V211.941H857.381V161V110.059H847.862V161Z" fill="#FD6036"/>
<path d="M862.458 161V186.156H872.613V161V135.215H862.458V161Z" fill="#FD6036"/>
<path d="M877.69 161V167.289H887.843V161V154.082H877.69V161Z" fill="#FD6036"/>
<path d="M892.92 161V211.941H903.075V161V110.059H892.92V161Z" fill="#FD6036"/>
<path d="M907.517 161V245.273H917.671V161V76.7266H907.517V161Z" fill="#FD6036"/>
<path d="M922.748 161V289.926H932.902V161V32.0742H922.748V161Z" fill="#FD6036"/>
<path d="M937.979 91.8203V161V229.551H948.133V161V91.8203H937.979Z" fill="#FD6036"/>
<path d="M955.114 161V191.816H965.268V161V130.184H955.114V161Z" fill="#FD6036"/>
<path d="M970.345 140.875V161V181.125H979.864V161V140.875H970.345Z" fill="#FD6036"/>
<path d="M987.48 161V173.578H997.634V161V148.422H987.48V161Z" fill="#FD6036"/>
<path d="M1002.71 150.937V161V170.434H1012.23V161V150.937H1002.71Z" fill="#FD6036"/>
<path d="M1019.85 161V165.402H1030V161V156.598H1019.85V161Z" fill="#FD6036"/>
</g>
</svg>
