<svg width="430" height="542" viewBox="0 0 430 542" fill="none" xmlns="http://www.w3.org/2000/svg">
<mask id="mask0_44_7945" style="mask-type:alpha" maskUnits="userSpaceOnUse" x="0" y="0" width="430" height="542">
<path d="M0 20C0 8.95429 8.95431 0 20 0H410C421.046 0 430 8.9543 430 20V522C430 533.046 421.046 542 410 542H20C8.95432 542 0 533.046 0 522V20Z" fill="#E3D5C5"/>
</mask>
<g mask="url(#mask0_44_7945)">
<g opacity="0.5">
<path d="M406.126 595.551C410.827 544.272 392.83 491.043 357.634 453.399C322.589 415.896 274.119 396.53 228.044 376.193C176.918 353.573 127.067 326.366 87.883 285.854C67.6171 264.96 50.3844 240.802 38.4547 214.224C25.6577 185.802 20.5594 155.07 14.3343 124.747C8.47999 96.2525 0.253855 68.523 -12.2826 42.1657C-24.2908 16.9904 -39.5848 -6.69466 -57.6994 -27.8809C-61.9797 -32.8998 -66.4885 -37.7373 -71.084 -42.5433C-71.5964 -43.1421 -72.4157 -42.1568 -71.8167 -41.5896C-31.4977 -0.116407 -3.63525 52.1719 9.57047 108.42C16.4416 137.82 20.3577 168.002 30.302 196.676C39.3001 222.751 53.3805 246.878 70.8017 268.316C105.132 310.595 151.185 340.852 199.711 364.419C245.486 386.631 295.122 402.727 335.501 434.656C377.97 468.28 404.059 519.741 405.743 573.998C405.965 581.083 405.723 588.238 405.039 595.26C404.945 596.08 406.087 596.253 406.126 595.551Z" fill="white"/>
<path d="M411.531 590.444C416.586 540.41 399.228 488.127 364.931 451.333C329.609 413.342 280.194 394.614 233.489 374.704C182.15 352.848 131.937 326.263 93.0366 285.452C73.6613 265.117 57.2641 241.637 46.225 215.618C34.5315 188.071 30.1348 158.457 24.9896 129.214C19.8128 99.8835 12.406 71.1687 -0.382799 44.118C-12.115 19.4313 -27.9052 -3.18983 -46.453 -23.1388C-51.1431 -28.2048 -56.0617 -33.0895 -61.0355 -37.856C-61.6345 -38.4233 -62.3672 -37.4695 -61.7682 -36.9023C-41.1322 -17.4188 -23.0489 4.76042 -9.21254 29.5649C5.72757 56.3235 15.3647 85.5027 21.2588 115.455C26.7425 143.201 29.9095 171.594 38.6398 198.551C46.9285 224.294 60.4179 248.145 77.2164 269.222C110.506 310.799 155.802 340.056 203.485 362.654C250.663 384.944 302.324 400.401 343.697 433.442C390.437 470.713 416.379 530.669 410.333 590.389C410.262 591.004 411.437 591.264 411.531 590.444Z" fill="white"/>
<path d="M416.881 585.454C422.252 536.286 405.383 484.807 371.629 448.699C335.953 410.542 285.742 392.595 238.556 373.252C186.682 352.082 135.72 325.868 97.2055 284.229C78.3819 263.791 62.8279 240.201 52.9 214.268C42.215 186.256 39.2683 156.311 34.6431 126.878C30.1916 98.4619 23.242 70.4641 10.5717 44.5482C-1.11309 20.5313 -17.4782 -0.70271 -36.4591 -19.4143C-41.2279 -24.1572 -46.1937 -28.6321 -51.2463 -33.0755C-51.8138 -33.5561 -52.5779 -32.689 -51.9789 -32.1218C-31.2329 -13.9544 -12.4644 6.60129 1.60812 30.4364C16.8711 56.1941 26.0038 85.066 31.2988 114.451C36.3096 141.977 38.4757 170.046 45.953 197.067C53.0439 222.756 65.4221 246.52 81.5508 267.644C114.289 310.403 160.287 339.7 208.655 361.754C255.872 383.342 307.564 397.806 349.118 429.996C396.008 466.329 422.115 525.931 415.502 585.171C415.613 586.014 416.755 586.187 416.881 585.454Z" fill="white"/>
<path d="M422.199 580.378C428.137 531.69 411.158 480.448 377.216 444.899C340.901 406.876 289.934 390.088 242.213 371.43C191.158 351.434 140.898 326.339 103.424 285.401C84.8681 265.161 69.6608 241.444 60.6943 215.456C50.9392 187.302 49.0406 157.269 45.1168 127.876C40.964 96.5048 33.3753 65.4022 17.71 37.7297C3.05376 11.7512 -18.1028 -9.70225 -41.1973 -28.3892C-41.7648 -28.8698 -42.6156 -27.9712 -41.9299 -27.4355C-20.8375 -10.4739 -1.43096 8.86804 12.9724 31.9938C28.8421 57.5307 37.636 86.8204 42.2927 116.34C46.6022 143.826 48.0669 171.856 54.7011 198.987C61.067 224.842 73.0433 248.851 89.1169 270.093C121.138 312.23 166.607 340.344 214.447 361.216C261.964 382.009 314.01 395.559 355.816 427.362C402.391 462.829 428.159 521.769 421.025 580.118C420.931 580.937 422.105 581.197 422.199 580.378Z" fill="white"/>
<path d="M427.549 575.388C434.109 525.984 416.263 473.977 380.705 439.114C343.887 402.944 293.455 387.629 246.318 370.035C194.964 350.835 144.278 326.189 107.537 284.297C89.4065 263.608 75.0581 239.284 67.5335 212.673C59.7803 185.164 58.8828 156.535 55.6606 128.26C52.1541 97.0464 44.9121 65.8177 28.5298 38.6024C13.5192 13.5381 -8.23588 -6.32333 -31.4088 -23.6075C-32.063 -24.0565 -32.7957 -23.1028 -32.1415 -22.6538C-11.144 -7.03187 8.53798 10.6393 23.2562 32.4726C39.7719 57.0873 48.4317 85.7387 52.7258 114.801C56.8619 142.35 57.2786 170.468 62.7544 197.922C67.8908 223.635 78.4329 247.479 93.6317 268.745C124.116 311.245 169.026 339.17 216.353 359.443C263.972 379.708 316.129 391.942 358.746 422.468C406.897 456.871 434.044 516.094 426.201 575.192C426.28 575.948 427.423 576.121 427.549 575.388Z" fill="white"/>
<path d="M432.867 570.312C439.908 521.42 422.038 469.617 386.355 435.488C348.906 399.743 297.923 385.61 250.337 368.671C199.361 350.511 149.141 326.873 113.361 284.926C95.9397 264.567 82.6552 240.74 76.1947 214.625C69.1505 186.368 69.3168 157.154 66.6067 128.399C63.6756 97.9575 56.883 67.1542 40.3512 40.8767C24.9151 16.2617 2.37226 -2.52777 -21.3284 -18.8346C-21.9826 -19.2837 -22.7153 -18.33 -22.0611 -17.8809C-0.59097 -3.11809 19.7921 13.5127 34.9358 34.8967C51.932 58.9439 60.2687 87.5166 64.0348 116.477C67.6508 144.215 67.2794 172.325 71.912 199.89C76.1579 225.043 85.4941 248.541 100.015 269.562C129.546 312.41 174.621 339.98 222.067 359.229C269.63 378.532 321.668 389.631 364.553 419.275C388.79 435.976 407.992 458.533 419.788 485.552C431.363 511.965 435.847 541.547 431.724 570.139C431.598 570.872 432.773 571.132 432.867 570.312Z" fill="white"/>
<path d="M438.217 565.322C445.691 517.352 428.31 466.353 393.084 432.941C355.848 397.511 304.921 384.339 257.484 368.621C206.659 351.683 156.123 329.338 120.73 287.643C102.552 266.284 89.6691 241.132 84.3351 213.528C78.946 186.042 79.9006 157.916 77.7424 130.138C75.355 99.3021 68.6961 68.0575 51.1793 42.0404C35.3022 18.3712 12.3026 1.02392 -11.453 -14.0851C-12.1072 -14.5341 -12.8398 -13.5804 -12.1856 -13.1314C9.25271 0.465138 30.1556 15.827 45.6537 36.2968C63.6034 59.997 72.0031 88.7431 75.3674 117.947C78.5341 145.261 77.477 172.835 80.9353 200.14C84.2988 226.105 92.8393 250.383 107.471 272.248C136.332 315.142 181.557 341.775 228.97 359.857C276.502 377.995 328.421 387.959 371.204 417.051C394.928 433.153 413.878 455.017 425.39 481.256C436.989 507.464 441.378 536.786 436.956 565.094C436.948 565.882 438.091 566.055 438.217 565.322Z" fill="white"/>
<path d="M443.535 560.246C451.459 512.701 434.054 461.907 398.615 429.259C361.497 394.964 311.185 382.943 264.222 368.525C212.136 352.438 160.095 330.543 125.111 286.736C107.768 264.974 96.8083 239.712 92.8771 212.186C88.9379 184.369 90.7672 156.219 88.8375 128.26C86.6629 97.7391 79.6102 67.0304 61.1007 42.0616C44.7117 19.9529 21.8465 4.32354 -1.60924 -9.42223C-2.26343 -9.87126 -2.81477 -8.68905 -2.10545 -8.35824C19.837 4.46588 41.3308 19.0238 57.341 39.0128C75.3771 61.6018 83.6348 89.418 86.7151 117.842C89.74 145.305 87.8949 172.872 90.3366 200.35C92.6992 225.993 99.6085 250.374 113.452 272.231C140.934 315.921 186.332 342.491 233.777 359.58C281.459 376.78 333.314 385.491 376.388 413.496C400.333 429.125 419.535 450.602 431.221 476.779C442.725 502.726 447.05 531.875 442.329 559.899C442.266 560.806 443.44 561.065 443.535 560.246Z" fill="white"/>
<path d="M448.885 555.256C457.376 508.192 439.861 457.635 404.241 425.838C366.407 392 315.401 381.311 268.083 367.807C216.707 353.131 165.187 332.126 131.605 288.397C114.633 266.304 105.068 240.829 102.185 213.217C99.2699 185.517 101.895 157.667 100.352 129.959C98.65 99.6592 91.6289 69.0372 72.6388 44.6359C55.7377 23.008 32.1083 8.24569 8.2981 -4.58585C7.58877 -4.91666 7.09257 -3.85267 7.8019 -3.52186C30.1619 8.56138 52.27 22.1105 68.7372 41.7368C87.2539 63.7583 95.6219 91.3381 98.3475 119.597C101.018 146.894 98.5264 174.303 100.03 201.633C101.455 227.126 107.056 251.688 120.206 273.797C146.049 317.299 190.825 343.507 237.481 359.509C286.053 376.188 339.091 383.291 383.102 411.445C407.008 426.696 426.115 447.914 437.477 474.011C448.556 499.329 452.542 527.816 447.537 555.06C447.616 555.816 448.759 555.989 448.885 555.256Z" fill="white"/>
<path d="M454.234 550.267C463.45 503.037 445.289 452.322 408.787 421.337C370.314 388.713 319.325 379.687 271.976 367.176C220.749 353.721 169.3 333.181 137.302 288.68C120.866 265.901 113.294 239.7 111.688 211.819C110.184 184.49 113.376 157.12 111.959 129.76C110.439 99.6879 103.11 69.5704 83.3877 46.1228C66.0455 25.4407 42.1012 11.9709 18.2282 0.0455823C17.5189 -0.285225 17.0227 0.778767 17.732 1.10958C40.1233 12.1999 62.436 24.6929 79.431 43.3419C98.5621 64.3546 107.356 91.485 110.042 119.366C114.988 171.258 100.65 225.455 126.565 273.741C150.328 318 195.049 344.326 241.39 359.461C289.614 375.186 342.053 380.643 386.418 406.803C411.064 421.392 431.157 442.349 442.96 468.58C454.33 493.89 458.38 522.55 452.996 549.834C452.934 550.74 454.108 551 454.234 550.267Z" fill="white"/>
<path d="M459.639 545.158C469.368 498.527 451.215 448.104 414.413 417.915C375.491 385.945 324.369 378.44 276.909 367.245C225.983 355.153 174.289 335.291 143.734 290.167C127.983 266.844 122.089 240.131 121.594 212.336C121.107 184.833 125.056 157.385 123.662 129.819C122.236 100.007 114.427 70.4573 94.0587 47.9319C76.1572 28.1404 52.1265 15.7817 28.2223 4.84942C27.5129 4.51861 27.0167 5.58261 27.726 5.91342C49.7388 15.9636 71.7833 27.18 89.1483 44.4183C109.453 64.6111 119.082 91.3395 121.745 119.425C126.848 171.75 109.477 227.052 134.281 276.331C156.121 319.621 199.313 345.522 244.196 359.617C293.255 374.94 346.544 378.418 392.005 404.082C416.722 418.056 437.004 438.454 448.799 464.393C460.161 489.411 464.061 517.93 458.465 544.898C458.284 545.749 459.426 545.923 459.639 545.158Z" fill="white"/>
<path d="M464.988 540.169C475.34 493.9 456.958 443.658 419.921 414.438C380.14 383.076 328.513 377.422 280.613 367.173C230.073 356.413 178.12 336.646 149.841 290.496C119.426 240.904 138.207 183.813 135.593 129.698C134.16 100.674 126.028 72.1253 105.659 50.6795C87.1276 31.3138 62.4194 19.7906 38.0976 9.59917C37.3883 9.26837 36.9237 10.419 37.6014 10.6632C59.6218 19.9253 81.9025 30.1724 99.6219 46.4965C120.423 65.6253 130.674 91.6364 133.534 119.454C138.803 171.425 119.178 226.467 140.964 276.353C160.195 320.298 203.174 346.963 247.624 360.136C297.046 374.837 350.657 376.235 396.938 400.913C421.899 414.209 442.519 434.189 454.488 460.066C465.928 484.76 469.679 513.137 463.696 539.854C463.602 540.673 464.776 540.933 464.988 540.169Z" fill="white"/>
<path d="M470.306 535.092C481.257 489.391 462.765 439.385 425.46 411.048C384.789 380.206 332.603 376.523 284.151 367.456C257.932 362.569 231.861 355.664 208.563 342.352C187.015 330.071 168.074 312.817 156.066 290.881C128.362 240.106 150.65 182.131 147.421 127.946C145.736 99.3083 136.406 71.784 115.226 51.615C96.3561 33.7466 72.0028 23.4685 48.1463 14.2857C47.437 13.9549 46.8856 15.1371 47.6501 15.3497C69.4417 23.7134 91.667 32.9991 109.678 48.2357C131.212 66.4107 142.495 91.7517 145.496 119.419C151.27 171.697 129.675 226.181 148.514 277.139C165.145 322.031 208.573 349.121 252.738 361.514C302.31 375.277 355.866 374.634 402.524 398.193C427.556 410.874 448.397 430.381 460.326 455.88C471.79 480.37 475.359 508.518 469.045 534.864C468.951 535.684 470.094 535.857 470.306 535.092Z" fill="white"/>
<path d="M475.656 530.103C487.261 484.85 468.603 435.2 431.148 407.8C389.973 377.73 337.843 376.088 289.368 368.306C262.818 364.128 236.551 357.491 213.158 343.919C191.397 331.323 172.574 313.045 162.166 289.84C139 238.59 162.841 181.916 159.518 128.55C157.762 100.527 148.046 73.8302 126.835 54.6542C107.39 37.0933 82.4139 27.5324 58.1083 19.0038C57.4305 18.7597 56.8476 19.8552 57.6121 20.0678C79.6794 27.8405 102.204 36.3301 120.695 50.9991C142.048 67.8661 153.906 91.82 157.38 118.629C164.052 170.678 141.447 223.467 155.574 274.963C168.431 321.62 211.56 350.586 256.182 362.617C306.329 376.072 360.483 372.757 408.111 395.473C433.15 407.366 454.18 426.314 466.22 451.576C477.676 475.774 481.182 503.749 474.537 529.725C474.269 530.608 475.443 530.867 475.656 530.103Z" fill="white"/>
<path d="M480.975 525.026C493.368 479.781 473.977 430.005 435.561 403.741C392.897 374.703 340.232 375.906 291.111 369.046C264.631 365.333 238.451 358.665 215.594 344.407C194.195 331.188 176.743 311.822 168.415 287.86C150.135 234.931 176.285 179.477 171.165 125.489C168.55 98.0733 157.243 72.9373 135.41 55.5582C115.807 39.7231 91.4781 31.3994 67.811 23.8162C67.0466 23.6037 66.8735 24.7464 67.5513 24.9905C89.776 32.1169 112.427 39.8737 131.367 53.8885C152.751 69.7625 165.428 92.7311 169.178 118.949C176.677 171.384 152.536 223.456 163.794 275.701C173.916 322.667 214.91 352.508 259.288 364.137C309.277 377.159 362.84 371.409 410.932 391.894C436.318 402.582 458.135 420.457 470.86 445.176C483.341 469.492 487.076 498.365 479.832 524.853C479.619 525.618 480.762 525.791 480.975 525.026Z" fill="white"/>
<path d="M486.324 520.037C499.536 474.886 479.413 424.984 440.099 400.028C396.891 372.465 344.873 375.984 296.052 370.488C270.881 367.672 246.15 361.752 224.2 348.637C202.013 335.411 184.34 315.438 176.887 290.372C160.955 236.883 188.327 182.359 183.467 128.276C181.215 103.477 171.65 80.1604 152.812 63.4583C136.156 48.7101 115.058 40.094 94.1023 33.4874C88.6565 31.7392 83.187 30.196 77.7727 28.5345C77.0082 28.3219 76.8351 29.4646 77.5129 29.7088C99.7769 36.1338 122.553 43.1577 141.824 56.4631C163.799 71.5332 177.28 94.013 181.266 120.341C189.396 173.43 163.561 225.432 172.825 278.402C176.866 301.373 188.274 321.663 205.82 336.97C222.467 351.427 243.037 361.02 264.395 366.303C314.163 378.718 367.244 370.297 415.73 389.167C440.887 398.956 463.027 415.831 475.997 439.871C489.029 464.085 492.803 493.336 485.15 519.777C484.937 520.541 486.111 520.801 486.324 520.037Z" fill="white"/>
</g>
</g>
</svg>
