<svg width="625" height="800" viewBox="0 0 625 800" fill="none" xmlns="http://www.w3.org/2000/svg">
<circle cx="534" cy="700" r="65" fill="#D6F27A"/>
<path d="M0 312.5C0 309.993 0.0295213 307.493 0.0882354 305H75C88.8071 305 100 293.807 100 280C100 266.193 88.8071 255 75 255H5.27876C32.2703 109.876 159.554 0 312.5 0C465.446 0 592.73 109.876 619.721 255H550C536.193 255 525 266.193 525 280C525 293.807 536.193 305 550 305H624.912C624.97 307.493 625 309.993 625 312.5V335H550C536.193 335 525 346.193 525 360C525 373.807 536.193 385 550 385H625V415H550C536.193 415 525 426.193 525 440C525 453.807 536.193 465 550 465H625V487.5C625 490.007 624.97 492.507 624.912 495H550C536.193 495 525 506.193 525 520C525 533.807 536.193 545 550 545H619.721C592.73 690.124 465.446 800 312.5 800C159.554 800 32.2703 690.124 5.27876 545H75C88.8071 545 100 533.807 100 520C100 506.193 88.8071 495 75 495H0.0882353C0.0295213 492.507 0 490.007 0 487.5V465H75C88.8071 465 100 453.807 100 440C100 426.193 88.8071 415 75 415H0V385H75C88.8071 385 100 373.807 100 360C100 346.193 88.8071 335 75 335H0V312.5Z" fill="#E3D5C5"/>
<mask id="mask0_28_10609" style="mask-type:alpha" maskUnits="userSpaceOnUse" x="0" y="0" width="625" height="800">
<path d="M0 312.5C0 309.993 0.0295213 307.493 0.0882354 305H75C88.8071 305 100 293.807 100 280C100 266.193 88.8071 255 75 255H5.27876C32.2703 109.876 159.554 0 312.5 0C465.446 0 592.73 109.876 619.721 255H550C536.193 255 525 266.193 525 280C525 293.807 536.193 305 550 305H624.912C624.97 307.493 625 309.993 625 312.5V335H550C536.193 335 525 346.193 525 360C525 373.807 536.193 385 550 385H625V415H550C536.193 415 525 426.193 525 440C525 453.807 536.193 465 550 465H625V487.5C625 490.007 624.97 492.507 624.912 495H550C536.193 495 525 506.193 525 520C525 533.807 536.193 545 550 545H619.721C592.73 690.124 465.446 800 312.5 800C159.554 800 32.2703 690.124 5.27876 545H75C88.8071 545 100 533.807 100 520C100 506.193 88.8071 495 75 495H0.0882353C0.0295213 492.507 0 490.007 0 487.5V465H75C88.8071 465 100 453.807 100 440C100 426.193 88.8071 415 75 415H0V385H75C88.8071 385 100 373.807 100 360C100 346.193 88.8071 335 75 335H0V312.5Z" fill="#E3D5C5"/>
</mask>
<g mask="url(#mask0_28_10609)">
<g opacity="0.5">
<path d="M487.771 850.343C504.85 786.091 493.463 714.446 456.812 658.915C420.321 603.597 362.819 568.458 308.576 532.602C248.396 492.747 190.833 447.329 149.726 387.285C128.453 356.305 111.747 321.827 102.315 285.417C92.1771 246.471 92.3387 206.251 90.9774 166.309C89.6924 128.773 85.2229 91.6985 74.9702 55.4376C65.1342 20.7954 50.7934 -12.6611 32.3218 -43.5475C27.9598 -50.8618 23.2678 -57.9949 18.4586 -65.1065C17.936 -65.9796 16.68 -64.9028 17.3197 -64.0512C59.6631 -2.53808 83.8113 70.045 88.4472 144.496C90.8303 183.404 89.2833 222.667 95.7352 261.317C101.545 296.452 114.246 330.208 131.78 361.266C166.327 422.508 218.396 470.987 275.061 511.484C328.517 549.662 388.211 580.89 432.697 630.27C479.475 682.257 501.545 753.403 491.947 822.827C490.697 831.892 488.839 840.948 486.449 849.737C486.152 850.76 487.569 851.227 487.771 850.343Z" fill="white"/>
<path d="M495.755 845.012C513.017 782.421 502.238 712.118 466.547 657.865C429.81 601.865 370.966 567.334 315.828 531.884C255.213 492.955 197.054 448.252 156.373 387.888C136.113 357.812 120.323 324.378 111.903 288.872C102.981 251.279 103.794 212.634 103.573 174.299C103.331 135.847 100.118 97.6957 89.6941 60.4976C80.1036 26.5369 64.901 -5.67272 45.6103 -35.0779C40.7369 -42.541 35.5335 -49.8228 30.2344 -56.9661C29.5946 -57.8177 28.4557 -56.7623 29.0954 -55.9107C51.1448 -26.646 69.3617 5.49744 81.605 40.0633C94.8302 77.3552 100.782 116.581 101.802 155.98C102.777 192.482 100.664 229.306 105.942 265.507C110.921 300.068 122.929 333.345 139.749 363.806C173.123 423.931 224.446 470.972 280.246 510.054C335.472 548.635 397.881 579.488 443.391 630.497C494.817 688.051 514.861 769.979 494.242 844.683C494.019 845.45 495.457 846.035 495.755 845.012Z" fill="white"/>
<path d="M503.644 839.818C521.12 778.399 510.79 709.225 475.642 655.961C438.49 599.674 378.464 565.964 322.592 531.133C261.147 492.961 201.955 448.567 161.944 387.233C142.408 357.147 127.716 323.754 120.691 288.599C113.153 250.631 115.883 211.879 116.366 173.416C116.849 136.284 114.063 99.144 103.544 63.4159C93.8689 30.318 77.6343 -0.250489 57.5245 -28.1745C52.481 -35.2434 47.1289 -42.0138 41.6596 -48.7628C41.0412 -49.4973 39.8809 -48.5591 40.5207 -47.7074C62.9948 -20.0941 82.4353 10.1312 95.1889 43.5143C109.042 79.6021 114.418 118.327 114.798 156.875C115.219 192.994 111.902 229.191 115.572 265.201C119.038 299.432 129.65 332.359 145.607 362.736C178.024 424.246 230.23 471.489 287.021 510.027C342.448 547.724 405.113 577.32 451.037 627.284C502.856 683.678 523.187 765.19 501.95 839.159C501.909 840.257 503.326 840.724 503.644 839.818Z" fill="white"/>
<path d="M511.512 834.508C529.606 773.823 519.084 704.926 483.575 652.334C445.582 596.079 384.343 563.68 327.64 529.606C266.984 493.105 208.443 450.287 169.605 390.071C150.367 360.293 136.144 326.815 130.355 291.797C124.031 253.85 128.114 215.214 129.481 176.953C130.984 136.124 128.056 94.8938 114.105 56.2817C101.073 20.0441 78.787 -11.8407 53.436 -40.6235C52.8176 -41.358 51.5402 -40.3984 52.2971 -39.5682C75.4732 -13.4146 95.9884 15.4038 109.317 47.9557C123.989 83.8938 128.844 123.077 128.383 161.658C127.92 197.575 123.718 233.57 126.291 269.538C128.798 303.824 138.846 336.975 154.708 367.49C186.346 428.053 238.136 473.677 294.51 510.596C350.491 547.345 413.804 575.854 460.132 625.381C511.738 680.603 531.781 761.199 510.074 833.923C509.776 834.946 511.215 835.531 511.512 834.508Z" fill="white"/>
<path d="M519.401 829.315C538.442 767.852 526.982 697.795 489.268 645.726C450.233 591.72 389.357 561.313 333.167 528.718C271.958 493.166 212.778 450.828 175.079 389.557C156.48 359.299 143.481 325.234 139.662 289.735C135.747 253.043 140.8 216.409 142.818 179.723C145.11 139.235 142.65 97.9194 127.688 59.734C114.007 24.5834 90.6145 -5.40456 64.8601 -32.419C64.1246 -33.1321 62.9857 -32.0767 63.7212 -31.3636C87.0664 -6.93573 108.294 19.8158 122.302 50.7907C137.997 85.6948 142.819 124.037 141.995 161.957C141.298 197.917 135.743 233.796 136.771 269.925C137.745 303.765 146.003 336.395 160.746 366.752C190.35 427.443 241.468 472.706 297.32 508.752C353.545 544.851 417.283 571.709 464.921 619.786C518.762 673.995 540.499 755.25 517.728 828.773C517.665 829.753 519.082 830.221 519.401 829.315Z" fill="white"/>
<path d="M527.268 824.004C546.811 763.297 535.277 693.495 497.244 642.332C457.314 588.732 395.481 559.71 338.578 527.851C277.625 493.705 218.819 452.751 182.356 391.617C164.588 361.934 152.836 328.731 150.264 294.094C147.413 256.602 153.947 219.456 156.72 182.269C159.577 142.888 157.598 102.211 142.242 65.1869C127.922 30.5161 103.295 1.72202 76.6577 -24.1627C75.9222 -24.8758 74.7833 -23.8204 75.5188 -23.1073C99.6515 0.329395 121.996 25.9084 136.644 56.4035C153.073 90.6893 157.501 128.861 156.027 166.537C154.627 202.626 148.071 238.324 148.002 274.411C147.962 307.346 154.761 339.274 168.694 369.174C197.009 430.101 248.415 474.948 304.639 509.715C361.001 544.578 424.834 569.967 473.003 616.978C500.238 643.481 519.798 676.347 528.964 713.291C537.981 749.414 537.286 788.037 525.851 823.537C525.532 824.442 526.971 825.027 527.268 824.004Z" fill="white"/>
<path d="M535.157 818.811C555.053 759.371 543.966 690.698 506.36 640.547C466.633 587.393 404.663 559.607 347.686 529.335C286.66 496.776 227.173 457.4 191.147 396.67C172.633 365.549 161.678 330.748 160.863 294.459C159.951 258.308 167.253 222.716 170.518 186.892C174.152 147.127 172.438 105.917 155.773 69.0114C140.686 35.4489 115.166 8.39172 88.1995 -15.9802C87.464 -16.6933 86.3251 -15.6379 87.0606 -14.9248C111.405 7.02048 134.686 31.0969 149.983 60.5051C167.7 94.5556 172.171 132.962 170.133 170.862C168.253 206.311 160.94 241.18 159.433 276.682C158.094 310.46 163.711 343.209 177.603 374.205C205.055 435.048 256.854 478.734 313.29 512.01C369.864 545.381 433.791 569.299 481.95 615.587C508.662 641.216 528.05 673.146 537.024 709.035C546.116 744.902 545.356 783.174 533.602 818.248C533.421 819.249 534.838 819.717 535.157 818.811Z" fill="white"/>
<path d="M543.025 813.501C563.4 754.7 552.239 686.282 514.197 637.058C474.375 585.374 412.938 559.186 356.282 530.671C293.468 498.923 231.968 459.793 196.92 396.463C179.555 365.012 171.072 330.486 172.025 294.6C173.031 258.341 181.451 222.908 185.046 186.903C188.883 147.585 186.552 106.972 168.396 71.1857C152.321 39.4987 126.6 14.6571 99.7196 -7.91472C98.9841 -8.62783 98.0265 -7.24241 98.8577 -6.66785C124.011 14.4034 148.218 37.5845 164.271 66.4915C182.339 99.1463 186.83 136.338 184.599 173.184C182.506 208.793 174.192 243.481 171.353 278.985C168.811 312.135 172.329 344.662 185.219 375.478C210.744 437.036 262.777 480.679 319.468 512.698C376.435 544.908 440.553 567.218 489.318 612.184C516.413 637.259 536.206 668.751 545.414 704.598C554.441 740.114 553.639 778.151 541.565 812.799C541.289 813.939 542.727 814.524 543.025 813.501Z" fill="white"/>
<path d="M550.914 808.308C571.907 750.241 560.555 682.101 522.099 633.921C481.265 582.664 418.658 558.021 361.353 530.593C299.136 500.794 238.106 462.909 204.826 399.983C188.005 368.19 181.343 333.695 183.649 297.925C185.934 262.038 195.302 227.158 199.334 191.558C203.725 152.623 201.415 112.127 182.525 76.9592C165.694 45.7733 138.812 21.87 111.283 0.385085C110.452 -0.189476 109.59 1.0574 110.421 1.63196C136.267 21.8506 161.474 43.8805 178.186 72.4249C196.989 104.461 201.672 141.376 199.025 177.934C196.517 213.257 187.414 247.604 183.414 282.715C179.711 315.471 181.524 347.947 193.477 378.934C216.956 439.897 268.276 482.944 324.198 513.408C382.411 545.149 448.381 565.667 498.307 611.027C525.434 635.612 545.163 666.753 553.977 702.429C562.599 737.051 561.508 774.173 549.241 807.766C549.178 808.746 550.595 809.214 550.914 808.308Z" fill="white"/>
<path d="M558.802 803.115C580.754 744.994 568.613 676.514 528.858 629.176C486.95 579.326 424.003 556.802 366.444 530.632C304.154 502.42 243.114 465.142 212.017 401.576C196.026 369.026 192.058 334.038 196.047 298.203C200.047 263.093 210.034 228.947 214.151 193.815C218.724 155.21 215.914 115.29 195.885 81.1778C178.287 51.1003 150.725 28.7739 122.92 8.42892C122.089 7.85436 121.227 9.10124 122.058 9.6758C148.158 28.6374 173.855 49.3674 191.45 76.782C211.253 107.667 216.575 144.102 213.96 180.171C209.025 247.29 179.048 313.171 201.583 380.238C222.251 441.714 273.475 484.9 329.183 514.192C387.161 544.644 452.725 562.937 503.533 605.836C531.745 629.738 552.784 660.761 562.131 696.703C571.126 731.378 570.078 768.734 557.321 802.296C557.045 803.436 558.483 804.02 558.802 803.115Z" fill="white"/>
<path d="M566.788 797.782C589.262 740.535 577.068 672.427 536.76 626.038C494.138 576.923 430.693 556.307 372.709 531.787C310.505 505.376 249.007 468.908 219.881 404.861C204.88 371.767 203.16 336.49 208.544 301.006C213.876 265.894 224.843 231.811 229.034 196.424C233.671 158.17 230.126 118.869 209.075 85.7901C190.573 56.7251 162.661 35.7944 134.601 16.7065C133.77 16.1319 132.908 17.3788 133.739 17.9534C159.582 35.5091 185.214 54.5562 203.586 80.2554C225.06 110.351 231.532 146.455 228.843 182.779C224.015 250.484 189.937 317.114 210.844 385.204C229.273 445.031 278.643 487.345 332.721 514.999C391.849 545.12 458.923 561.079 511.233 603.582C539.668 626.717 561.069 657.069 570.469 692.638C579.516 726.94 578.309 764.083 565.349 797.198C564.935 798.242 566.352 798.709 566.788 797.782Z" fill="white"/>
<path d="M574.676 792.589C597.865 735.937 585.341 668.011 544.522 622.804C500.676 574.277 436.188 555.908 377.438 532.498C315.438 507.864 253.589 471.461 227.583 406.602C199.602 336.897 235.862 268.295 244.246 198.852C248.703 161.6 244.531 123.502 223.246 91.7976C203.85 63.1381 174.894 43.1242 146.143 24.8889C145.311 24.3143 144.471 25.6784 145.281 26.1358C171.304 42.6901 197.446 60.5546 216.467 85.1668C238.804 114.016 246.222 149.342 243.842 185.367C239.301 252.656 202.411 318.468 219.345 386.679C234.313 446.774 283.246 490.015 336.971 516.401C396.696 545.808 464.631 559.189 518.196 600.616C547.09 622.941 569.012 652.834 578.646 688.36C587.864 722.268 586.496 759.198 573.099 791.909C572.802 792.931 574.24 793.516 574.676 792.589Z" fill="white"/>
<path d="M582.544 787.279C606.372 731.479 593.657 663.829 552.306 619.688C507.214 571.63 441.589 555.649 381.881 533.623C349.565 521.728 317.877 507.298 291.104 485.312C266.334 465.018 245.96 438.958 235.424 408.439C211.149 337.815 252.063 268.848 259.68 199.181C263.732 162.366 257.814 125.314 235.221 95.0588C215.069 68.2319 186.296 49.8795 157.919 33.0286C157.087 32.4541 156.13 33.8395 157.057 34.2755C182.984 49.637 209.263 66.2657 228.89 89.5567C252.365 117.35 261.243 152.047 259.075 187.912C255.111 255.702 215.833 320.375 228.784 389.313C240.237 450.051 289.651 493.93 343.183 519.262C403.301 547.508 471.607 558.279 525.896 598.362C555.012 619.921 577.317 649.26 586.983 684.296C596.275 717.948 594.726 754.548 580.988 786.716C580.691 787.738 582.108 788.206 582.544 787.279Z" fill="white"/>
<path d="M590.432 782.086C614.996 726.999 601.994 659.765 560.25 616.785C514.349 569.601 448.352 556.23 388.337 535.834C355.447 524.771 323.45 510.639 296.612 488.301C271.64 467.56 251.638 440.222 243.412 408.433C225.017 338.189 267.627 271.212 274.946 202.567C278.775 166.52 272.187 130.437 249.339 101.439C228.389 74.8793 198.668 57.3052 169.577 41.1898C168.767 40.7324 167.788 42.0007 168.715 42.4367C195.121 57.1054 221.953 72.7858 242.315 95.4584C265.843 121.548 275.752 154.603 274.372 189.477C271.6 257.17 231.405 319.469 238.241 388.071C244.508 450.239 293.136 496.441 347.328 521.411C408.244 549.39 477.89 556.889 533.595 596.109C562.891 616.666 585.558 645.334 595.416 680.093C604.761 713.372 603.169 749.738 589.09 781.363C588.558 782.428 589.996 783.013 590.432 782.086Z" fill="white"/>
<path d="M598.301 776.775C623.866 721.869 609.958 654.316 566.745 612.573C518.725 566.381 451.432 556.515 390.395 537.153C357.495 526.697 325.615 512.544 299.607 489.449C275.231 467.994 257.209 439.568 251.795 407.265C239.982 335.941 285.267 271.017 290.434 201.192C293.038 165.731 284.086 131.291 260.058 104.446C238.534 80.0483 209.368 64.1887 180.886 49.415C179.959 48.979 179.491 50.396 180.301 50.8534C207.047 64.7337 234.198 79.5084 255.273 101.445C279.055 126.278 290.22 158.256 289.319 192.438C287.517 260.801 245.521 321.855 248.544 390.79C251.264 452.759 296.984 499.613 350.953 524.018C411.762 551.411 481.181 555.683 537.96 592.165C567.958 611.262 591.86 638.736 602.707 672.951C613.331 706.602 611.836 744.161 596.884 776.308C596.448 777.235 597.865 777.702 598.301 776.775Z" fill="white"/>
<path d="M606.189 771.582C632.777 716.973 617.963 649.102 573.324 608.83C524.294 564.396 457.322 557.619 396.372 540.057C364.943 531.027 334.746 518.14 309.646 496.696C284.268 475.06 266.096 445.814 262.034 412.296C253.332 340.767 299.97 277.291 305.488 207.402C307.989 175.349 300.86 143.602 280.497 118.267C262.49 95.8908 237.5 80.3583 212.257 67.4142C205.704 64.0106 199.076 60.8627 192.544 57.5762C191.617 57.1402 191.149 58.5572 191.959 59.0147C218.907 72.0107 246.377 85.8798 268.026 106.986C292.734 130.923 305.029 162.453 304.405 196.826C303.264 266.158 259.126 326.756 259.455 396.182C259.627 426.294 269.756 454.588 288.776 477.869C306.836 499.872 330.943 516.534 356.984 527.88C417.643 554.453 487.028 555.221 544.657 589.732C574.559 607.636 599.088 633.905 610.393 667.311C621.741 700.951 620.214 738.999 604.751 770.998C604.315 771.925 605.753 772.509 606.189 771.582Z" fill="white"/>
</g>
</g>
<circle cx="534" cy="700" r="50" fill="#D6F27A"/>
<path d="M535.889 689.359L532.119 686.293C528.199 683.104 522.333 685.894 522.333 690.948V709.052C522.333 714.106 528.199 716.896 532.119 713.707L535.889 710.641L543.26 704.659C546.218 702.258 546.218 697.742 543.26 695.341L535.889 689.359ZM535.889 689.359L532.119 686.293C528.199 683.104 522.333 685.894 522.333 690.948V709.052C522.333 714.106 528.199 716.896 532.119 713.707L535.889 710.641L543.26 704.659C546.218 702.258 546.218 697.742 543.26 695.341L535.889 689.359ZM535.889 689.359L532.119 686.293C528.199 683.104 522.333 685.894 522.333 690.948V709.052C522.333 714.106 528.199 716.896 532.119 713.707L535.889 710.641L543.26 704.659C546.218 702.258 546.218 697.742 543.26 695.341L535.889 689.359Z" fill="black"/>
</svg>
