<svg width="35" height="35" viewBox="0 0 35 35" fill="none" xmlns="http://www.w3.org/2000/svg">
<rect width="35" height="35" rx="6" fill="white"/>
<path d="M9.00073 22.9181C10.5094 23.8987 12.3197 24.4267 14.2055 24.4267C20.5417 24.4267 24.0869 19.0711 23.8606 14.319C24.5395 13.8664 25.0675 13.2629 25.5201 12.5841C24.9167 12.8858 24.2378 13.0366 23.5589 13.1121C24.2378 12.6595 24.7658 12.056 25.0675 11.2263C24.3887 11.6034 23.7098 11.9052 22.88 12.056C22.2766 11.3772 21.3714 11 20.3908 11C18.2033 11 16.6193 13.0366 17.0719 15.1487C14.2809 14.9978 11.7162 13.6401 10.0568 11.6034C9.15159 13.1121 9.60418 15.1487 11.1128 16.1293C10.5848 16.1293 10.0568 15.9784 9.60418 15.6767C9.60418 17.2608 10.6602 18.694 12.3197 19.0711C11.8671 19.222 11.3391 19.222 10.8111 19.1466C11.2637 20.5043 12.4706 21.4849 13.9792 21.4849C12.546 22.6164 10.8111 23.1444 9.00073 22.9181Z" fill="#FD6036"/>
</svg>
